%TF.GenerationSoftware,Altium Limited,Altium Designer,20.1.12 (249)*%
G04 Layer_Color=0*
%FSLAX26Y26*%
%MOIN*%
%TF.SameCoordinates,9E99BA8B-9897-4C81-AE0E-6E9FF3DC4262*%
%TF.FilePolarity,Positive*%
%TF.FileFunction,Plated,1,2,PTH,Drill*%
%TF.Part,Single*%
G01*
G75*
%TA.AperFunction,OtherDrill,Pad Free-3 (2378.937mil,96.457mil)*%
%ADD32C,0.078740*%
%TA.AperFunction,OtherDrill,Pad Free-3 (2378.937mil,2153.543mil)*%
%ADD33C,0.078740*%
%TA.AperFunction,OtherDrill,Pad Free-3 (3845.472mil,2153.543mil)*%
%ADD34C,0.078740*%
%TA.AperFunction,OtherDrill,Pad Free-3 (3845.472mil,96.457mil)*%
%ADD35C,0.078740*%
%TA.AperFunction,ComponentDrill*%
%ADD36C,0.031496*%
%ADD37C,0.066929*%
%ADD38C,0.074803*%
%ADD39C,0.062992*%
%ADD40C,0.059055*%
%ADD41C,0.159449*%
%ADD42C,0.042992*%
%TA.AperFunction,OtherDrill,Pad Free-3 (2155.512mil,3120.079mil)*%
%ADD43C,0.078740*%
%TA.AperFunction,OtherDrill,Pad Free-3 (98.425mil,3120.079mil)*%
%ADD44C,0.078740*%
%TA.AperFunction,OtherDrill,Pad Free-3 (98.425mil,1653.543mil)*%
%ADD45C,0.078740*%
%TA.AperFunction,OtherDrill,Pad Free-3 (2155.512mil,1653.543mil)*%
%ADD46C,0.078740*%
D32*
X2378937Y96457D02*
D03*
D33*
Y2153543D02*
D03*
D34*
X3845472D02*
D03*
D35*
Y96457D02*
D03*
D03*
D03*
D36*
X1828819Y549213D02*
D03*
X1647716D02*
D03*
X1828819Y809055D02*
D03*
X1647716D02*
D03*
D37*
X506099Y304803D02*
D03*
X106099D02*
D03*
X506099Y1054016D02*
D03*
X106099D02*
D03*
X1255548Y303779D02*
D03*
X855548D02*
D03*
X1255312Y1054016D02*
D03*
X855312D02*
D03*
X2004760Y303779D02*
D03*
X1604760D02*
D03*
X2004524Y1054016D02*
D03*
X1604524D02*
D03*
D38*
X522634Y304803D02*
D03*
X89170D02*
D03*
X522634Y1054016D02*
D03*
X89170D02*
D03*
X1272083Y303779D02*
D03*
X838619D02*
D03*
X1271847Y1054016D02*
D03*
X838383D02*
D03*
X2021296Y303779D02*
D03*
X1587831D02*
D03*
X2021060Y1054016D02*
D03*
X1587595D02*
D03*
D39*
X407083Y504803D02*
D03*
Y1254016D02*
D03*
X1156532Y503779D02*
D03*
X1156296Y1254016D02*
D03*
X1905745Y503779D02*
D03*
X1905508Y1254016D02*
D03*
D40*
X157083Y404803D02*
D03*
Y1154016D02*
D03*
X906532Y403779D02*
D03*
X906296Y1154016D02*
D03*
X1655745Y403779D02*
D03*
X1655508Y1154016D02*
D03*
D41*
X307674Y305394D02*
D03*
Y1054606D02*
D03*
X1057123Y304370D02*
D03*
X1056887Y1054606D02*
D03*
X1806335Y304370D02*
D03*
X1806099Y1054606D02*
D03*
D42*
X1355315Y1055906D02*
D03*
Y255905D02*
D03*
Y655905D02*
D03*
Y155905D02*
D03*
Y455906D02*
D03*
Y355906D02*
D03*
Y855905D02*
D03*
Y755905D02*
D03*
Y1155906D02*
D03*
Y955905D02*
D03*
Y1255906D02*
D03*
Y555905D02*
D03*
X755315Y255905D02*
D03*
Y655905D02*
D03*
Y1055906D02*
D03*
Y155905D02*
D03*
Y455906D02*
D03*
Y355906D02*
D03*
Y855905D02*
D03*
Y755905D02*
D03*
Y955905D02*
D03*
Y1155906D02*
D03*
Y1255906D02*
D03*
Y555905D02*
D03*
D43*
X2155512Y3120079D02*
D03*
D03*
D03*
D44*
X98425D02*
D03*
D45*
Y1653543D02*
D03*
D46*
X2155512D02*
D03*
%TF.MD5,d69912019a4d5f697b9d38d729139b90*%
M02*
