%TF.GenerationSoftware,Altium Limited,Altium Designer,20.1.12 (249)*%
G04 Layer_Color=16711935*
%FSLAX26Y26*%
%MOIN*%
%TF.SameCoordinates,9E99BA8B-9897-4C81-AE0E-6E9FF3DC4262*%
%TF.FilePolarity,Positive*%
%TF.FileFunction,Other,Mechanical_1*%
%TF.Part,Single*%
G01*
G75*
%TA.AperFunction,NonConductor*%
%ADD20C,0.010000*%
%ADD30C,0.009842*%
D20*
X2380510Y2246968D02*
G03*
X2287343Y2153801I0J-93167D01*
G01*
X3834411Y4046D02*
G03*
X3927578Y97213I0J93167D01*
G01*
X3927813Y2153468D02*
G03*
X3834992Y2246288I-92821J0D01*
G01*
X2287555Y97234D02*
G03*
X2380722Y4067I93167J0D01*
G01*
X2154734Y1562161D02*
G03*
X2247901Y1655329I0J93167D01*
G01*
X98501Y3202419D02*
G03*
X5680Y3109599I0J-92821D01*
G01*
X5975Y44370D02*
G03*
X45345Y5000I39370J0D01*
G01*
X2074873D02*
G03*
X2114243Y44370I0J39370D01*
G01*
X1973044Y1482591D02*
G03*
X2110839Y1344796I137795J0D01*
G01*
X5000Y1343504D02*
G03*
X142795Y1481299I-0J137795D01*
G01*
X2247923Y3109017D02*
G03*
X2154756Y3202184I-93167J0D01*
G01*
X5000Y1655116D02*
G03*
X98167Y1561949I93167J0D01*
G01*
X2287401Y2153801D02*
X2287402Y657480D01*
X2380510Y2246865D02*
X3834992Y2246508D01*
X3927253Y97213D02*
X3927566Y2153468D01*
X2380722Y3849D02*
X3834411Y3849D01*
X149331Y1488189D02*
X1169532D01*
X142795Y1481653D02*
X149331Y1488189D01*
X2248120Y1655329D02*
X2248120Y3109017D01*
X2114243Y657480D02*
X2114243Y1344796D01*
X5147Y1343504D02*
X6050Y44370D01*
X45345Y5078D02*
X2074873Y5000D01*
X98501Y3202172D02*
X2154756Y3201859D01*
X5104Y1655116D02*
X5461Y3109599D01*
X98167Y1562008D02*
X1169532Y1562008D01*
D30*
X2287401Y449970D02*
X2287402Y97234D01*
X2114173Y657480D02*
X2286417D01*
X1169532Y1488189D02*
Y1562008D01*
X1417169Y1488189D02*
X1946850D01*
X1972742Y1482892D02*
Y1487887D01*
X1972441Y1488189D02*
X1973044Y1487586D01*
X1946850Y1488189D02*
X1972441D01*
X1417169Y1489020D02*
Y1562008D01*
X2154734Y1562008D01*
X2114173Y44440D02*
Y449970D01*
X2286417D01*
%TF.MD5,b07d5948403e57e1739db412c1deb795*%
M02*
