%TF.GenerationSoftware,Altium Limited,Altium Designer,20.1.12 (249)*%
G04 Layer_Color=32896*
%FSLAX26Y26*%
%MOIN*%
%TF.SameCoordinates,9E99BA8B-9897-4C81-AE0E-6E9FF3DC4262*%
%TF.FilePolarity,Positive*%
%TF.FileFunction,Legend,Bot*%
%TF.Part,Single*%
G01*
G75*
%TA.AperFunction,NonConductor*%
%ADD19C,0.007874*%
%ADD20C,0.010000*%
%ADD21C,0.005906*%
G36*
X3174858Y1568685D02*
X3182858D01*
Y1560685D01*
X3174858D01*
Y1552685D01*
X3166858D01*
Y1544685D01*
X3158858D01*
Y1536685D01*
X3150858D01*
Y1544685D01*
X3142858D01*
Y1552685D01*
X3150858D01*
Y1560685D01*
X3158858D01*
Y1568685D01*
X3166858D01*
Y1576685D01*
X3174858D01*
Y1568685D01*
D02*
G37*
G36*
X3190858Y1288685D02*
X3182858D01*
Y1272685D01*
X3174858D01*
Y1256685D01*
X3166858D01*
Y1248685D01*
X3158858D01*
Y1240685D01*
X3150858D01*
Y1232685D01*
X3134858D01*
Y1240685D01*
X3126858D01*
Y1256685D01*
X3134858D01*
Y1264685D01*
X3142858D01*
Y1280685D01*
X3150858D01*
Y1288685D01*
X3158858D01*
Y1280685D01*
X3166858D01*
Y1288685D01*
X3158858D01*
Y1304685D01*
X3166858D01*
Y1312685D01*
X3174858D01*
Y1320685D01*
X3190858D01*
Y1288685D01*
D02*
G37*
G36*
X3142858Y1536685D02*
X3150858D01*
Y1528685D01*
X3142858D01*
Y1512685D01*
X3134858D01*
Y1504685D01*
X3126858D01*
Y1496685D01*
X3118858D01*
Y1488685D01*
X3110858D01*
Y1480685D01*
X3102858D01*
Y1472685D01*
X3094858D01*
Y1464685D01*
X3086858D01*
Y1456685D01*
X3078858D01*
Y1448685D01*
X3062858D01*
Y1440685D01*
X3054858D01*
Y1432685D01*
X3046858D01*
Y1416685D01*
X3030858D01*
Y1400685D01*
X3022858D01*
Y1392685D01*
X3014858D01*
Y1384685D01*
X3006858D01*
Y1376685D01*
X2998858D01*
Y1368685D01*
X2990858D01*
Y1352685D01*
X2982858D01*
Y1336685D01*
X2974858D01*
Y1312685D01*
X2966858D01*
Y1272685D01*
X2958858D01*
Y1248685D01*
X2902858D01*
Y1240685D01*
X2878858D01*
Y1232685D01*
X2854858D01*
Y1224685D01*
X2822858D01*
Y1216685D01*
X2798858D01*
Y1208685D01*
X2774858D01*
Y1216685D01*
X2758858D01*
Y1224685D01*
X2782858D01*
Y1232685D01*
X2806858D01*
Y1240685D01*
X2830858D01*
Y1248685D01*
X2862858D01*
Y1256685D01*
X2910858D01*
Y1264685D01*
X2942858D01*
Y1256685D01*
X2950858D01*
Y1312685D01*
X2958858D01*
Y1336685D01*
X2966858D01*
Y1352685D01*
X2974858D01*
Y1368685D01*
X2982858D01*
Y1376685D01*
X2990858D01*
Y1392685D01*
X2998858D01*
Y1400685D01*
X3006858D01*
Y1408685D01*
X3014858D01*
Y1416685D01*
X3022858D01*
Y1424685D01*
X3030858D01*
Y1432685D01*
X3038858D01*
Y1440685D01*
X3046858D01*
Y1448685D01*
X3054858D01*
Y1456685D01*
X3062858D01*
Y1464685D01*
X3070858D01*
Y1472685D01*
X3078858D01*
Y1480685D01*
X3086858D01*
Y1488685D01*
X3094858D01*
Y1496685D01*
X3102858D01*
Y1504685D01*
X3110858D01*
Y1512685D01*
X3118858D01*
Y1528685D01*
X3126858D01*
Y1536685D01*
X3134858D01*
Y1544685D01*
X3142858D01*
Y1536685D01*
D02*
G37*
G36*
X2758858Y1208685D02*
X2774858D01*
Y1200685D01*
X2750858D01*
Y1192685D01*
X2726858D01*
Y1184685D01*
X2702858D01*
Y1192685D01*
X2686858D01*
Y1200685D01*
X2710858D01*
Y1208685D01*
X2734858D01*
Y1216685D01*
X2758858D01*
Y1208685D01*
D02*
G37*
G36*
X3262858Y1240685D02*
X3270858D01*
Y1232685D01*
X3278858D01*
Y1176685D01*
X3270858D01*
Y1160685D01*
X3262858D01*
Y1168685D01*
X3254858D01*
Y1160685D01*
X3262858D01*
Y1144685D01*
X3254858D01*
Y1136685D01*
X3262858D01*
Y1120685D01*
X3270858D01*
Y1112685D01*
X3278858D01*
Y1056685D01*
X3270858D01*
Y1040685D01*
X3254858D01*
Y1064685D01*
X3262858D01*
Y1096685D01*
X3254858D01*
Y1112685D01*
X3246858D01*
Y1120685D01*
X3238858D01*
Y1168685D01*
X3246858D01*
Y1176685D01*
X3254858D01*
Y1224685D01*
X3246858D01*
Y1248685D01*
X3262858D01*
Y1240685D01*
D02*
G37*
G36*
X2686858Y1184685D02*
X2702858D01*
Y1176685D01*
X2686858D01*
Y1168685D01*
X2678858D01*
Y1160685D01*
X2662858D01*
Y1168685D01*
X2654858D01*
Y1160685D01*
X2662858D01*
Y1152685D01*
X2654858D01*
Y1160685D01*
X2646858D01*
Y1152685D01*
X2654858D01*
Y1144685D01*
X2646858D01*
Y1136685D01*
X2638858D01*
Y1112685D01*
X2630858D01*
Y1096685D01*
X2638858D01*
Y1080685D01*
X2646858D01*
Y1072685D01*
X2654858D01*
Y1064685D01*
X2662858D01*
Y1056685D01*
X2678858D01*
Y1048685D01*
X2774858D01*
Y1056685D01*
X2790858D01*
Y1064685D01*
X2814858D01*
Y1072685D01*
X2830858D01*
Y1080685D01*
X2846858D01*
Y1088685D01*
X2862858D01*
Y1096685D01*
X2886858D01*
Y1104685D01*
X2910858D01*
Y1112685D01*
X2934858D01*
Y1120685D01*
X2942858D01*
Y1136685D01*
X2934858D01*
Y1152685D01*
X2942858D01*
Y1160685D01*
X2950858D01*
Y1152685D01*
X2958858D01*
Y1080685D01*
X2966858D01*
Y1032685D01*
X2974858D01*
Y1008685D01*
X2966858D01*
Y1016685D01*
X2958858D01*
Y1056685D01*
X2950858D01*
Y1072685D01*
X2942858D01*
Y1104685D01*
X2918858D01*
Y1096685D01*
X2894858D01*
Y1088685D01*
X2878858D01*
Y1080685D01*
X2862858D01*
Y1072685D01*
X2846858D01*
Y1064685D01*
X2830858D01*
Y1056685D01*
X2814858D01*
Y1048685D01*
X2798858D01*
Y1040685D01*
X2774858D01*
Y1032685D01*
X2670858D01*
Y1040685D01*
X2654858D01*
Y1048685D01*
X2646858D01*
Y1056685D01*
X2638858D01*
Y1064685D01*
X2630858D01*
Y1080685D01*
X2622858D01*
Y1112685D01*
X2614858D01*
Y1128685D01*
X2622858D01*
Y1144685D01*
X2630858D01*
Y1160685D01*
X2638858D01*
Y1168685D01*
X2646858D01*
Y1176685D01*
X2662858D01*
Y1184685D01*
X2670858D01*
Y1192685D01*
X2686858D01*
Y1184685D01*
D02*
G37*
G36*
X3158858Y1024685D02*
X3166858D01*
Y1016685D01*
X3174858D01*
Y1000685D01*
X3182858D01*
Y992685D01*
X3190858D01*
Y976685D01*
X3198858D01*
Y968685D01*
X3206858D01*
Y944685D01*
X3182858D01*
Y952685D01*
X3166858D01*
Y968685D01*
X3158858D01*
Y976685D01*
X3150858D01*
Y992685D01*
X3142858D01*
Y1008685D01*
X3134858D01*
Y1024685D01*
X3142858D01*
Y1032685D01*
X3158858D01*
Y1024685D01*
D02*
G37*
G36*
X3254858Y1592685D02*
X3270858D01*
Y1584685D01*
X3278858D01*
Y1576685D01*
X3286858D01*
Y1560685D01*
X3294858D01*
Y1544685D01*
X3318858D01*
Y1552685D01*
X3398858D01*
Y1544685D01*
X3430858D01*
Y1536685D01*
X3454858D01*
Y1528685D01*
X3470858D01*
Y1520685D01*
X3478858D01*
Y1512685D01*
X3486858D01*
Y1488685D01*
X3494858D01*
Y1472685D01*
X3502858D01*
Y1456685D01*
X3510858D01*
Y1424685D01*
X3518858D01*
Y1392685D01*
X3526858D01*
Y1352685D01*
X3534858D01*
Y1304685D01*
X3542858D01*
Y1248685D01*
X3550858D01*
Y1104685D01*
X3542858D01*
Y1048685D01*
X3534858D01*
Y1008685D01*
X3526858D01*
Y968685D01*
X3518858D01*
Y928685D01*
X3510858D01*
Y784685D01*
X3518858D01*
Y680685D01*
X3510858D01*
Y672685D01*
X3502858D01*
Y664685D01*
X3494858D01*
Y656685D01*
X3430858D01*
Y664685D01*
X3414858D01*
Y672685D01*
X3398858D01*
Y680685D01*
X3390858D01*
Y688685D01*
X3374858D01*
Y696685D01*
X3358858D01*
Y704685D01*
X3334858D01*
Y712685D01*
X3278858D01*
Y720685D01*
X3238858D01*
Y728685D01*
X3206858D01*
Y736685D01*
X3174858D01*
Y744685D01*
X3150858D01*
Y752685D01*
X3134858D01*
Y760685D01*
X3118858D01*
Y768685D01*
X3102858D01*
Y776685D01*
X3094858D01*
Y784685D01*
X3078858D01*
Y792685D01*
X3070858D01*
Y800685D01*
X3062858D01*
Y808685D01*
X3054858D01*
Y816685D01*
X3046858D01*
Y824685D01*
X3038858D01*
Y832685D01*
X3030858D01*
Y840685D01*
X3022858D01*
Y848685D01*
X3014858D01*
Y856685D01*
X3006858D01*
Y864685D01*
X2998858D01*
Y880685D01*
X2990858D01*
Y888685D01*
X2966858D01*
Y880685D01*
X2950858D01*
Y872685D01*
X2934858D01*
Y864685D01*
X2918858D01*
Y856685D01*
X2902858D01*
Y848685D01*
X2886858D01*
Y840685D01*
X2878858D01*
Y832685D01*
X2862858D01*
Y824685D01*
X2846858D01*
Y816685D01*
X2830858D01*
Y808685D01*
X2798858D01*
Y800685D01*
X2750858D01*
Y808685D01*
X2726858D01*
Y816685D01*
X2718858D01*
Y824685D01*
X2710858D01*
Y832685D01*
X2702858D01*
Y840685D01*
X2694858D01*
Y848685D01*
X2686858D01*
Y864685D01*
X2678858D01*
Y904685D01*
X2686858D01*
Y920685D01*
X2694858D01*
Y936685D01*
X2702858D01*
Y944685D01*
X2710858D01*
Y952685D01*
X2718858D01*
Y960685D01*
X2726858D01*
Y968685D01*
X2734858D01*
Y976685D01*
X2750858D01*
Y984685D01*
X2758858D01*
Y992685D01*
X2774858D01*
Y1000685D01*
X2798858D01*
Y1008685D01*
X2822858D01*
Y1016685D01*
X2838858D01*
Y1024685D01*
X2862858D01*
Y1032685D01*
X2894858D01*
Y1040685D01*
X2918858D01*
Y1048685D01*
X2942858D01*
Y1056685D01*
X2950858D01*
Y1040685D01*
X2934858D01*
Y1032685D01*
X2910858D01*
Y1024685D01*
X2886858D01*
Y1016685D01*
X2870858D01*
Y1008685D01*
X2846858D01*
Y1000685D01*
X2822858D01*
Y992685D01*
X2806858D01*
Y984685D01*
X2782858D01*
Y976685D01*
X2766858D01*
Y968685D01*
X2758858D01*
Y960685D01*
X2742858D01*
Y952685D01*
X2734858D01*
Y944685D01*
X2726858D01*
Y936685D01*
X2718858D01*
Y928685D01*
X2710858D01*
Y920685D01*
X2702858D01*
Y912685D01*
X2694858D01*
Y864685D01*
X2702858D01*
Y848685D01*
X2710858D01*
Y840685D01*
X2718858D01*
Y832685D01*
X2726858D01*
Y824685D01*
X2742858D01*
Y816685D01*
X2806858D01*
Y824685D01*
X2830858D01*
Y832685D01*
X2846858D01*
Y840685D01*
X2862858D01*
Y848685D01*
X2870858D01*
Y856685D01*
X2886858D01*
Y864685D01*
X2902858D01*
Y872685D01*
X2910858D01*
Y880685D01*
X2926858D01*
Y888685D01*
X2942858D01*
Y896685D01*
X2958858D01*
Y904685D01*
X2974858D01*
Y912685D01*
X2990858D01*
Y904685D01*
X2998858D01*
Y896685D01*
X3006858D01*
Y888685D01*
X3014858D01*
Y872685D01*
X3022858D01*
Y864685D01*
X3030858D01*
Y856685D01*
X3038858D01*
Y848685D01*
X3046858D01*
Y840685D01*
X3054858D01*
Y832685D01*
X3062858D01*
Y824685D01*
X3070858D01*
Y816685D01*
X3078858D01*
Y808685D01*
X3086858D01*
Y800685D01*
X3102858D01*
Y792685D01*
X3110858D01*
Y784685D01*
X3126858D01*
Y776685D01*
X3134858D01*
Y768685D01*
X3158858D01*
Y760685D01*
X3174858D01*
Y752685D01*
X3206858D01*
Y744685D01*
X3246858D01*
Y736685D01*
X3286858D01*
Y728685D01*
X3326858D01*
Y720685D01*
X3358858D01*
Y712685D01*
X3382858D01*
Y704685D01*
X3398858D01*
Y696685D01*
X3406858D01*
Y688685D01*
X3422858D01*
Y680685D01*
X3438858D01*
Y672685D01*
X3486858D01*
Y680685D01*
X3494858D01*
Y688685D01*
X3502858D01*
Y776685D01*
X3494858D01*
Y816685D01*
X3486858D01*
Y920685D01*
X3494858D01*
Y960685D01*
X3502858D01*
Y1000685D01*
X3510858D01*
Y1048685D01*
X3518858D01*
Y1088685D01*
X3526858D01*
Y1264685D01*
X3518858D01*
Y1312685D01*
X3510858D01*
Y1368685D01*
X3502858D01*
Y1416685D01*
X3494858D01*
Y1440685D01*
X3486858D01*
Y1464685D01*
X3478858D01*
Y1480685D01*
X3470858D01*
Y1496685D01*
X3462858D01*
Y1504685D01*
X3454858D01*
Y1512685D01*
X3446858D01*
Y1520685D01*
X3430858D01*
Y1528685D01*
X3374858D01*
Y1536685D01*
X3350858D01*
Y1528685D01*
X3310858D01*
Y1520685D01*
X3286858D01*
Y1536685D01*
X3278858D01*
Y1552685D01*
X3270858D01*
Y1568685D01*
X3262858D01*
Y1576685D01*
X3254858D01*
Y1584685D01*
X3206858D01*
Y1576685D01*
X3190858D01*
Y1568685D01*
X3182858D01*
Y1576685D01*
X3174858D01*
Y1584685D01*
X3182858D01*
Y1592685D01*
X3206858D01*
Y1600685D01*
X3254858D01*
Y1592685D01*
D02*
G37*
%LPC*%
G36*
X3166858Y1272685D02*
X3158858D01*
Y1264685D01*
X3166858D01*
Y1272685D01*
D02*
G37*
G36*
X3150858Y1256685D02*
X3142858D01*
Y1248685D01*
X3150858D01*
Y1256685D01*
D02*
G37*
G36*
X3142858Y1248685D02*
X3134858D01*
Y1240685D01*
X3142858D01*
Y1248685D01*
D02*
G37*
G36*
X3262858Y1240685D02*
X3254858D01*
Y1232685D01*
X3262858D01*
Y1240685D01*
D02*
G37*
G36*
X3270858Y1192685D02*
X3262858D01*
Y1184685D01*
X3270858D01*
Y1192685D01*
D02*
G37*
G36*
X3254858Y1160685D02*
X3246858D01*
Y1152685D01*
X3254858D01*
Y1160685D01*
D02*
G37*
G36*
X3166858Y1008685D02*
X3150858D01*
Y992685D01*
X3158858D01*
Y984685D01*
X3174858D01*
Y1000685D01*
X3166858D01*
Y1008685D01*
D02*
G37*
%LPD*%
G36*
Y992685D02*
X3158858D01*
Y1000685D01*
X3166858D01*
Y992685D01*
D02*
G37*
%LPC*%
G36*
X3270858Y1584685D02*
X3262858D01*
Y1576685D01*
X3270858D01*
Y1584685D01*
D02*
G37*
G36*
X3542858Y1144685D02*
X3534858D01*
Y1136685D01*
X3542858D01*
Y1144685D01*
D02*
G37*
G36*
X3526858Y1032685D02*
X3518858D01*
Y1024685D01*
X3526858D01*
Y1032685D01*
D02*
G37*
G36*
X2998858Y896685D02*
X2990858D01*
Y888685D01*
X2998858D01*
Y896685D01*
D02*
G37*
G36*
X3062858Y824685D02*
X3054858D01*
Y816685D01*
X3062858D01*
Y808685D01*
X3070858D01*
Y800685D01*
X3078858D01*
Y808685D01*
X3070858D01*
Y816685D01*
X3062858D01*
Y824685D01*
D02*
G37*
%LPD*%
D19*
X1620157Y773622D02*
X1856378D01*
X1620157Y584646D02*
Y773622D01*
Y584646D02*
X1856378D01*
X1848504Y639764D02*
Y718504D01*
X1856378Y726378D01*
Y773622D01*
X1848504Y639764D02*
X1856378Y631890D01*
Y584646D02*
Y631890D01*
D20*
X707677Y1208661D02*
X803150D01*
Y1304134D01*
X706693D02*
X803150D01*
X875315Y1405906D02*
X962815D01*
X972815Y1395906D01*
X1137815Y1405906D02*
X1225315D01*
X1127815Y1395906D02*
X1137815Y1405906D01*
X1405315Y105906D02*
X1405315Y1405906D01*
X706693Y105906D02*
X706693Y1405906D01*
X972815Y1395906D02*
X1127815D01*
X706693Y1405906D02*
X875315D01*
X706693Y105906D02*
X1405315D01*
X1225315Y1405906D02*
X1405315D01*
X672074Y1379990D02*
Y1330006D01*
X662077Y1320010D01*
X642083D01*
X632087Y1330006D01*
Y1379990D01*
X612093Y1320010D02*
X592100D01*
X602096D01*
Y1379990D01*
X612093Y1369994D01*
X1755702Y465646D02*
X1765699Y455649D01*
Y435655D01*
X1755702Y425659D01*
X1745705D01*
X1735709Y435655D01*
Y455649D01*
X1725712Y465646D01*
X1715715D01*
X1705718Y455649D01*
Y435655D01*
X1715715Y425659D01*
X1765699Y485639D02*
X1705718D01*
X1725712Y505633D01*
X1705718Y525626D01*
X1765699D01*
X1705718Y545620D02*
Y565613D01*
Y555616D01*
X1765699D01*
X1755702Y545620D01*
D21*
X687992Y167316D02*
Y135827D01*
Y167316D02*
X674497D01*
X669998Y165816D01*
X668499Y164317D01*
X666999Y161318D01*
Y158319D01*
X668499Y155320D01*
X669998Y153821D01*
X674497Y152321D01*
X687992D02*
X674497D01*
X669998Y150821D01*
X668499Y149322D01*
X666999Y146323D01*
Y141825D01*
X668499Y138826D01*
X669998Y137326D01*
X674497Y135827D01*
X687992D01*
X641958Y167316D02*
X656953D01*
X658452Y153821D01*
X656953Y155320D01*
X652454Y156820D01*
X647956D01*
X643457Y155320D01*
X640458Y152321D01*
X638959Y147822D01*
Y144824D01*
X640458Y140325D01*
X643457Y137326D01*
X647956Y135827D01*
X652454D01*
X656953Y137326D01*
X658452Y138826D01*
X659952Y141825D01*
X687993Y269678D02*
Y238189D01*
Y269678D02*
X674497D01*
X669999Y268179D01*
X668499Y266679D01*
X667000Y263680D01*
Y260681D01*
X668499Y257682D01*
X669999Y256183D01*
X674497Y254683D01*
X687993D02*
X674497D01*
X669999Y253184D01*
X668499Y251684D01*
X667000Y248685D01*
Y244187D01*
X668499Y241188D01*
X669999Y239688D01*
X674497Y238189D01*
X687993D01*
X644957Y269678D02*
X659952Y248685D01*
X637460D01*
X644957Y269678D02*
Y238189D01*
X668499Y372041D02*
X687992D01*
Y340551D01*
X668499D01*
X687992Y357046D02*
X675996D01*
X645257Y367542D02*
X646756Y370541D01*
X651255Y372041D01*
X654254D01*
X658752Y370541D01*
X661751Y366043D01*
X663251Y358545D01*
Y351048D01*
X661751Y345050D01*
X658752Y342051D01*
X654254Y340551D01*
X652754D01*
X648256Y342051D01*
X645257Y345050D01*
X643757Y349548D01*
Y351048D01*
X645257Y355546D01*
X648256Y358545D01*
X652754Y360045D01*
X654254D01*
X658752Y358545D01*
X661751Y355546D01*
X663251Y351048D01*
X677496Y1274177D02*
Y1242687D01*
X687992Y1274177D02*
X666999D01*
X663251D02*
X642258Y1242687D01*
Y1274177D02*
X663251Y1242687D01*
X626213Y1274177D02*
X630712Y1272677D01*
X633711Y1268179D01*
X635210Y1260681D01*
Y1256183D01*
X633711Y1248685D01*
X630712Y1244187D01*
X626213Y1242687D01*
X623214D01*
X618716Y1244187D01*
X615717Y1248685D01*
X614217Y1256183D01*
Y1260681D01*
X615717Y1268179D01*
X618716Y1272677D01*
X623214Y1274177D01*
X626213D01*
X607170Y1238189D02*
X586177Y1274177D01*
X584077D02*
Y1242687D01*
Y1274177D02*
X573581D01*
X569083Y1272677D01*
X566084Y1269678D01*
X564584Y1266679D01*
X563085Y1262181D01*
Y1254683D01*
X564584Y1250185D01*
X566084Y1247186D01*
X569083Y1244187D01*
X573581Y1242687D01*
X584077D01*
X553038Y1274177D02*
X536544D01*
X545540Y1262181D01*
X541042D01*
X538043Y1260681D01*
X536544Y1259182D01*
X535044Y1254683D01*
Y1251684D01*
X536544Y1247186D01*
X539543Y1244187D01*
X544041Y1242687D01*
X548539D01*
X553038Y1244187D01*
X554538Y1245686D01*
X556037Y1248685D01*
X687992Y470466D02*
Y438976D01*
Y470466D02*
X677496D01*
X672997Y468966D01*
X669998Y465967D01*
X668499Y462968D01*
X666999Y458470D01*
Y450972D01*
X668499Y446474D01*
X669998Y443475D01*
X672997Y440476D01*
X677496Y438976D01*
X687992D01*
X638959Y470466D02*
X653954Y438976D01*
X659952Y470466D02*
X638959D01*
X665500Y561393D02*
X666999Y564392D01*
X669998Y567391D01*
X672997Y568891D01*
X678995D01*
X681994Y567391D01*
X684993Y564392D01*
X686493Y561393D01*
X687992Y556895D01*
Y549397D01*
X686493Y544899D01*
X684993Y541900D01*
X681994Y538901D01*
X678995Y537402D01*
X672997D01*
X669998Y538901D01*
X666999Y541900D01*
X665500Y544899D01*
X638659Y564392D02*
X640159Y567391D01*
X644657Y568891D01*
X647656D01*
X652154Y567391D01*
X655153Y562893D01*
X656653Y555395D01*
Y547898D01*
X655153Y541900D01*
X652154Y538901D01*
X647656Y537402D01*
X646156D01*
X641658Y538901D01*
X638659Y541900D01*
X637159Y546399D01*
Y547898D01*
X638659Y552396D01*
X641658Y555395D01*
X646156Y556895D01*
X647656D01*
X652154Y555395D01*
X655153Y552396D01*
X656653Y547898D01*
X687993Y671253D02*
Y639764D01*
Y671253D02*
X677496D01*
X672998Y669754D01*
X669999Y666755D01*
X668499Y663756D01*
X667000Y659257D01*
Y651760D01*
X668499Y647261D01*
X669999Y644262D01*
X672998Y641263D01*
X677496Y639764D01*
X687993D01*
X644957Y671253D02*
X659952Y650260D01*
X637460D01*
X644957Y671253D02*
Y639764D01*
X687992Y769678D02*
Y738189D01*
Y769678D02*
X677496D01*
X672997Y768179D01*
X669998Y765180D01*
X668499Y762181D01*
X666999Y757682D01*
Y750185D01*
X668499Y745686D01*
X669998Y742687D01*
X672997Y739688D01*
X677496Y738189D01*
X687992D01*
X650955Y769678D02*
X655453Y768179D01*
X658452Y763680D01*
X659952Y756183D01*
Y751684D01*
X658452Y744187D01*
X655453Y739688D01*
X650955Y738189D01*
X647956D01*
X643457Y739688D01*
X640458Y744187D01*
X638959Y751684D01*
Y756183D01*
X640458Y763680D01*
X643457Y768179D01*
X647956Y769678D01*
X650955D01*
X687992Y868103D02*
Y836614D01*
Y868103D02*
X677496D01*
X672997Y866604D01*
X669998Y863605D01*
X668499Y860606D01*
X666999Y856107D01*
Y848610D01*
X668499Y844111D01*
X669998Y841112D01*
X672997Y838114D01*
X677496Y836614D01*
X687992D01*
X659952Y862105D02*
X656953Y863605D01*
X652454Y868103D01*
Y836614D01*
X665500Y962968D02*
X667000Y965967D01*
X669999Y968966D01*
X672998Y970466D01*
X678996D01*
X681995Y968966D01*
X684994Y965967D01*
X686493Y962968D01*
X687993Y958470D01*
Y950972D01*
X686493Y946474D01*
X684994Y943475D01*
X681995Y940476D01*
X678996Y938976D01*
X672998D01*
X669999Y940476D01*
X667000Y943475D01*
X665500Y946474D01*
Y950972D01*
X672998D02*
X665500D01*
X658303Y970466D02*
Y938976D01*
Y970466D02*
X637310Y938976D01*
Y970466D02*
Y938976D01*
X628613Y970466D02*
Y938976D01*
Y970466D02*
X618116D01*
X613618Y968966D01*
X610619Y965967D01*
X609119Y962968D01*
X607620Y958470D01*
Y950972D01*
X609119Y946474D01*
X610619Y943475D01*
X613618Y940476D01*
X618116Y938976D01*
X628613D01*
X687992Y1171253D02*
Y1139764D01*
Y1171253D02*
X677496D01*
X672997Y1169754D01*
X669998Y1166755D01*
X668499Y1163756D01*
X666999Y1159257D01*
Y1151760D01*
X668499Y1147261D01*
X669998Y1144262D01*
X672997Y1141263D01*
X677496Y1139764D01*
X687992D01*
X658452Y1163756D02*
Y1165255D01*
X656953Y1168254D01*
X655453Y1169754D01*
X652454Y1171253D01*
X646456D01*
X643457Y1169754D01*
X641958Y1168254D01*
X640458Y1165255D01*
Y1162256D01*
X641958Y1159257D01*
X644957Y1154759D01*
X659952Y1139764D01*
X638959D01*
X1475394Y171253D02*
Y139764D01*
Y171253D02*
X1461898D01*
X1457400Y169754D01*
X1455900Y168254D01*
X1454401Y165255D01*
Y162256D01*
X1455900Y159257D01*
X1457400Y157758D01*
X1461898Y156258D01*
X1475394D02*
X1461898D01*
X1457400Y154759D01*
X1455900Y153259D01*
X1454401Y150260D01*
Y145762D01*
X1455900Y142763D01*
X1457400Y141263D01*
X1461898Y139764D01*
X1475394D01*
X1429359Y166755D02*
X1430859Y169754D01*
X1435357Y171253D01*
X1438356D01*
X1442855Y169754D01*
X1445854Y165255D01*
X1447353Y157758D01*
Y150260D01*
X1445854Y144262D01*
X1442855Y141263D01*
X1438356Y139764D01*
X1436857D01*
X1432358Y141263D01*
X1429359Y144262D01*
X1427860Y148761D01*
Y150260D01*
X1429359Y154759D01*
X1432358Y157758D01*
X1436857Y159257D01*
X1438356D01*
X1442855Y157758D01*
X1445854Y154759D01*
X1447353Y150260D01*
X1475394Y269678D02*
Y238189D01*
Y269678D02*
X1461898D01*
X1457400Y268179D01*
X1455900Y266679D01*
X1454401Y263680D01*
Y260681D01*
X1455900Y257682D01*
X1457400Y256183D01*
X1461898Y254683D01*
X1475394D02*
X1461898D01*
X1457400Y253184D01*
X1455900Y251684D01*
X1454401Y248685D01*
Y244187D01*
X1455900Y241188D01*
X1457400Y239688D01*
X1461898Y238189D01*
X1475394D01*
X1445854Y262181D02*
Y263680D01*
X1444354Y266679D01*
X1442855Y268179D01*
X1439856Y269678D01*
X1433858D01*
X1430859Y268179D01*
X1429359Y266679D01*
X1427860Y263680D01*
Y260681D01*
X1429359Y257682D01*
X1432358Y253184D01*
X1447353Y238189D01*
X1426360D01*
X1475394Y368103D02*
Y336614D01*
Y368103D02*
X1461898D01*
X1457400Y366604D01*
X1455900Y365104D01*
X1454401Y362105D01*
Y359106D01*
X1455900Y356107D01*
X1457400Y354608D01*
X1461898Y353108D01*
X1475394D02*
X1461898D01*
X1457400Y351609D01*
X1455900Y350109D01*
X1454401Y347111D01*
Y342612D01*
X1455900Y339613D01*
X1457400Y338113D01*
X1461898Y336614D01*
X1475394D01*
X1444354Y368103D02*
X1427860D01*
X1436857Y356107D01*
X1432358D01*
X1429359Y354608D01*
X1427860Y353108D01*
X1426360Y348610D01*
Y345611D01*
X1427860Y341113D01*
X1430859Y338113D01*
X1435357Y336614D01*
X1439856D01*
X1444354Y338113D01*
X1445854Y339613D01*
X1447353Y342612D01*
X1463583Y470466D02*
Y438976D01*
Y470466D02*
X1450087D01*
X1445589Y468966D01*
X1444089Y467467D01*
X1442590Y464468D01*
Y461469D01*
X1444089Y458470D01*
X1445589Y456970D01*
X1450087Y455471D01*
X1463583D02*
X1450087D01*
X1445589Y453971D01*
X1444089Y452472D01*
X1442590Y449473D01*
Y444974D01*
X1444089Y441975D01*
X1445589Y440476D01*
X1450087Y438976D01*
X1463583D01*
X1435542Y464468D02*
X1432543Y465967D01*
X1428045Y470466D01*
Y438976D01*
X1471457Y568891D02*
Y537402D01*
Y568891D02*
X1451963D01*
X1471457Y553896D02*
X1459461D01*
X1427372Y568891D02*
X1442367Y537402D01*
X1448365Y568891D02*
X1427372D01*
X1471457Y769678D02*
Y738189D01*
Y769678D02*
X1451963D01*
X1471457Y754683D02*
X1459461D01*
X1430371Y769678D02*
X1445366D01*
X1446865Y756183D01*
X1445366Y757682D01*
X1440867Y759182D01*
X1436369D01*
X1431870Y757682D01*
X1428871Y754683D01*
X1427372Y750185D01*
Y747186D01*
X1428871Y742687D01*
X1431870Y739688D01*
X1436369Y738189D01*
X1440867D01*
X1445366Y739688D01*
X1446865Y741188D01*
X1448365Y744187D01*
X1471457Y872040D02*
Y840551D01*
Y872040D02*
X1451963D01*
X1471457Y857045D02*
X1459461D01*
X1433370Y872040D02*
X1448365Y851048D01*
X1425872D01*
X1433370Y872040D02*
Y840551D01*
X1510827Y978340D02*
X1498831Y946850D01*
X1486835Y978340D02*
X1498831Y946850D01*
X1460294Y970842D02*
X1461793Y973841D01*
X1464793Y976840D01*
X1467792Y978340D01*
X1473789D01*
X1476788Y976840D01*
X1479787Y973841D01*
X1481287Y970842D01*
X1482786Y966344D01*
Y958846D01*
X1481287Y954348D01*
X1479787Y951349D01*
X1476788Y948350D01*
X1473789Y946850D01*
X1467792D01*
X1464793Y948350D01*
X1461793Y951349D01*
X1460294Y954348D01*
X1428955Y970842D02*
X1430454Y973841D01*
X1433453Y976840D01*
X1436452Y978340D01*
X1442450D01*
X1445449Y976840D01*
X1448448Y973841D01*
X1449947Y970842D01*
X1451447Y966344D01*
Y958846D01*
X1449947Y954348D01*
X1448448Y951349D01*
X1445449Y948350D01*
X1442450Y946850D01*
X1436452D01*
X1433453Y948350D01*
X1430454Y951349D01*
X1428955Y954348D01*
X1502953Y1068891D02*
Y1037401D01*
Y1068891D02*
X1489457D01*
X1484959Y1067391D01*
X1483459Y1065892D01*
X1481960Y1062893D01*
Y1059894D01*
X1483459Y1056895D01*
X1484959Y1055395D01*
X1489457Y1053896D01*
X1502953D01*
X1492456D02*
X1481960Y1037401D01*
X1453919Y1064392D02*
X1456918Y1067391D01*
X1461417Y1068891D01*
X1467415D01*
X1471913Y1067391D01*
X1474912Y1064392D01*
Y1061393D01*
X1473413Y1058394D01*
X1471913Y1056895D01*
X1468914Y1055395D01*
X1459918Y1052396D01*
X1456918Y1050897D01*
X1455419Y1049397D01*
X1453919Y1046399D01*
Y1041900D01*
X1456918Y1038901D01*
X1461417Y1037401D01*
X1467415D01*
X1471913Y1038901D01*
X1474912Y1041900D01*
X1436375Y1068891D02*
Y1037401D01*
X1446872Y1068891D02*
X1425879D01*
X1484398Y1163756D02*
X1485897Y1166755D01*
X1488896Y1169754D01*
X1491895Y1171253D01*
X1497893D01*
X1500892Y1169754D01*
X1503891Y1166755D01*
X1505390Y1163756D01*
X1506890Y1159257D01*
Y1151760D01*
X1505390Y1147261D01*
X1503891Y1144262D01*
X1500892Y1141263D01*
X1497893Y1139764D01*
X1491895D01*
X1488896Y1141263D01*
X1485897Y1144262D01*
X1484398Y1147261D01*
Y1151760D01*
X1491895D02*
X1484398D01*
X1477200Y1171253D02*
Y1139764D01*
Y1171253D02*
X1456207Y1139764D01*
Y1171253D02*
Y1139764D01*
X1447510Y1171253D02*
Y1139764D01*
Y1171253D02*
X1437013D01*
X1432515Y1169754D01*
X1429516Y1166755D01*
X1428016Y1163756D01*
X1426517Y1159257D01*
Y1151760D01*
X1428016Y1147261D01*
X1429516Y1144262D01*
X1432515Y1141263D01*
X1437013Y1139764D01*
X1447510D01*
X1514764Y1269678D02*
Y1238189D01*
Y1269678D02*
X1501268D01*
X1496770Y1268179D01*
X1495271Y1266679D01*
X1493771Y1263680D01*
Y1260681D01*
X1495271Y1257682D01*
X1496770Y1256183D01*
X1501268Y1254683D01*
X1514764D01*
X1504267D02*
X1493771Y1238189D01*
X1462732D02*
X1474727Y1269678D01*
X1486723Y1238189D01*
X1482225Y1248685D02*
X1467230D01*
X1455384Y1269678D02*
X1447887Y1238189D01*
X1440389Y1269678D02*
X1447887Y1238189D01*
X1440389Y1269678D02*
X1432892Y1238189D01*
X1425394Y1269678D02*
X1432892Y1238189D01*
X665500Y1061393D02*
X667000Y1064392D01*
X669999Y1067391D01*
X672998Y1068891D01*
X678996D01*
X681995Y1067391D01*
X684994Y1064392D01*
X686493Y1061393D01*
X687993Y1056895D01*
Y1049397D01*
X686493Y1044899D01*
X684994Y1041900D01*
X681995Y1038901D01*
X678996Y1037401D01*
X672998D01*
X669999Y1038901D01*
X667000Y1041900D01*
X665500Y1044899D01*
Y1049397D01*
X672998D02*
X665500D01*
X658303Y1068891D02*
Y1037401D01*
Y1068891D02*
X637310Y1037401D01*
Y1068891D02*
Y1037401D01*
X628613Y1068891D02*
Y1037401D01*
Y1068891D02*
X618116D01*
X613618Y1067391D01*
X610619Y1064392D01*
X609119Y1061393D01*
X607620Y1056895D01*
Y1049397D01*
X609119Y1044899D01*
X610619Y1041900D01*
X613618Y1038901D01*
X618116Y1037401D01*
X628613D01*
X1467520Y671253D02*
Y639764D01*
Y671253D02*
X1448026D01*
X1467520Y656258D02*
X1455524D01*
X1426434Y666755D02*
X1427933Y669754D01*
X1432432Y671253D01*
X1435431D01*
X1439929Y669754D01*
X1442928Y665255D01*
X1444428Y657758D01*
Y650260D01*
X1442928Y644262D01*
X1439929Y641263D01*
X1435431Y639764D01*
X1433931D01*
X1429433Y641263D01*
X1426434Y644262D01*
X1424934Y648761D01*
Y650260D01*
X1426434Y654759D01*
X1429433Y657758D01*
X1433931Y659257D01*
X1435431D01*
X1439929Y657758D01*
X1442928Y654759D01*
X1444428Y650260D01*
%TF.MD5,d68147dfeec303ba6d7ccf2a306db333*%
M02*
