%TF.GenerationSoftware,Altium Limited,Altium Designer,20.1.12 (249)*%
G04 Layer_Color=0*
%FSLAX26Y26*%
%MOIN*%
%TF.SameCoordinates,9E99BA8B-9897-4C81-AE0E-6E9FF3DC4262*%
%TF.FilePolarity,Positive*%
%TF.FileFunction,Profile,NP*%
%TF.Part,Single*%
G01*
G75*
%TA.AperFunction,Profile*%
%ADD31C,0.001000*%
G36*
X2177084Y619888D02*
Y622684D01*
X2175992Y628169D01*
X2173852Y633336D01*
X2170745Y637986D01*
X2166791Y641940D01*
X2162141Y645047D01*
X2156974Y647187D01*
X2151490Y648278D01*
X2148693D01*
X2145897D01*
X2140412Y647187D01*
X2135246Y645047D01*
X2130596Y641940D01*
X2126641Y637986D01*
X2123535Y633336D01*
X2121394Y628169D01*
X2120303Y622684D01*
Y619888D01*
Y617092D01*
X2121394Y611607D01*
X2123535Y606440D01*
X2126641Y601790D01*
X2130596Y597836D01*
X2135246Y594729D01*
X2140412Y592589D01*
X2145897Y591498D01*
X2148693D01*
X2151490D01*
X2156974Y592589D01*
X2162141Y594729D01*
X2166791Y597836D01*
X2170745Y601790D01*
X2173852Y606440D01*
X2175992Y611607D01*
X2177084Y617092D01*
Y619888D01*
D01*
D02*
G37*
G36*
X2177651Y552128D02*
Y554924D01*
X2176559Y560409D01*
X2174419Y565576D01*
X2171312Y570225D01*
X2167358Y574180D01*
X2162708Y577287D01*
X2157541Y579427D01*
X2152057Y580518D01*
X2149260D01*
X2146464D01*
X2140979Y579427D01*
X2135813Y577287D01*
X2131163Y574180D01*
X2127208Y570225D01*
X2124102Y565576D01*
X2121961Y560409D01*
X2120870Y554924D01*
Y552128D01*
Y549332D01*
X2121961Y543847D01*
X2124102Y538680D01*
X2127208Y534030D01*
X2131163Y530076D01*
X2135813Y526969D01*
X2140979Y524829D01*
X2146464Y523738D01*
X2149260D01*
X2152057D01*
X2157541Y524829D01*
X2162708Y526969D01*
X2167358Y530076D01*
X2171312Y534030D01*
X2174419Y538680D01*
X2176559Y543847D01*
X2177651Y549332D01*
Y552128D01*
D01*
D02*
G37*
G36*
Y485199D02*
Y487995D01*
X2176559Y493480D01*
X2174419Y498646D01*
X2171312Y503296D01*
X2167358Y507251D01*
X2162708Y510358D01*
X2157541Y512498D01*
X2152057Y513589D01*
X2149260D01*
X2146464D01*
X2140979Y512498D01*
X2135813Y510358D01*
X2131163Y507251D01*
X2127208Y503296D01*
X2124102Y498646D01*
X2121961Y493480D01*
X2120870Y487995D01*
Y485199D01*
Y482402D01*
X2121961Y476918D01*
X2124102Y471751D01*
X2127208Y467101D01*
X2131163Y463147D01*
X2135813Y460040D01*
X2140979Y457900D01*
X2146464Y456809D01*
X2149260D01*
X2152057D01*
X2157541Y457900D01*
X2162708Y460040D01*
X2167358Y463147D01*
X2171312Y467101D01*
X2174419Y471751D01*
X2176559Y476918D01*
X2177651Y482402D01*
Y485199D01*
D01*
D02*
G37*
G36*
X2280013D02*
Y487995D01*
X2278922Y493480D01*
X2276782Y498646D01*
X2273675Y503296D01*
X2269720Y507251D01*
X2265070Y510358D01*
X2259904Y512498D01*
X2254419Y513589D01*
X2251623D01*
X2248827D01*
X2243342Y512498D01*
X2238175Y510358D01*
X2233525Y507251D01*
X2229571Y503296D01*
X2226464Y498646D01*
X2224324Y493480D01*
X2223233Y487995D01*
Y485199D01*
Y482402D01*
X2224324Y476918D01*
X2226464Y471751D01*
X2229571Y467101D01*
X2233525Y463147D01*
X2238175Y460040D01*
X2243342Y457900D01*
X2248827Y456809D01*
X2251623D01*
X2254419D01*
X2259904Y457900D01*
X2265070Y460040D01*
X2269720Y463147D01*
X2273675Y467101D01*
X2276782Y471751D01*
X2278922Y476918D01*
X2280013Y482402D01*
Y485199D01*
D01*
D02*
G37*
G36*
Y552128D02*
Y554924D01*
X2278922Y560409D01*
X2276782Y565576D01*
X2273675Y570225D01*
X2269720Y574180D01*
X2265070Y577287D01*
X2259904Y579427D01*
X2254419Y580518D01*
X2251623D01*
X2248827D01*
X2243342Y579427D01*
X2238175Y577287D01*
X2233525Y574180D01*
X2229571Y570225D01*
X2226464Y565576D01*
X2224324Y560409D01*
X2223233Y554924D01*
Y552128D01*
Y549332D01*
X2224324Y543847D01*
X2226464Y538680D01*
X2229571Y534030D01*
X2233525Y530076D01*
X2238175Y526969D01*
X2243342Y524829D01*
X2248827Y523738D01*
X2251623D01*
X2254419D01*
X2259904Y524829D01*
X2265070Y526969D01*
X2269720Y530076D01*
X2273675Y534030D01*
X2276782Y538680D01*
X2278922Y543847D01*
X2280013Y549332D01*
Y552128D01*
D01*
D02*
G37*
G36*
X2279446Y619888D02*
Y622684D01*
X2278355Y628169D01*
X2276215Y633336D01*
X2273108Y637986D01*
X2269153Y641940D01*
X2264503Y645047D01*
X2259337Y647187D01*
X2253852Y648278D01*
X2251056D01*
X2248260D01*
X2242775Y647187D01*
X2237608Y645047D01*
X2232958Y641940D01*
X2229004Y637986D01*
X2225897Y633336D01*
X2223757Y628169D01*
X2222666Y622684D01*
Y619888D01*
Y617092D01*
X2223757Y611607D01*
X2225897Y606440D01*
X2229004Y601790D01*
X2232958Y597836D01*
X2237608Y594729D01*
X2242775Y592589D01*
X2248260Y591498D01*
X2251056D01*
X2253852D01*
X2259337Y592589D01*
X2264503Y594729D01*
X2269153Y597836D01*
X2273108Y601790D01*
X2276215Y606440D01*
X2278355Y611607D01*
X2279446Y617092D01*
Y619888D01*
D01*
D02*
G37*
G36*
X1225566Y1495248D02*
X1228362D01*
X1233847Y1496340D01*
X1239014Y1498480D01*
X1243664Y1501586D01*
X1247618Y1505541D01*
X1250725Y1510191D01*
X1252865Y1515358D01*
X1253956Y1520842D01*
Y1523639D01*
Y1526435D01*
X1252865Y1531920D01*
X1250725Y1537086D01*
X1247618Y1541736D01*
X1243664Y1545691D01*
X1239014Y1548797D01*
X1233847Y1550938D01*
X1228362Y1552029D01*
X1225566D01*
X1222770D01*
X1217285Y1550938D01*
X1212118Y1548797D01*
X1207468Y1545691D01*
X1203514Y1541736D01*
X1200407Y1537086D01*
X1198267Y1531920D01*
X1197176Y1526435D01*
Y1523639D01*
Y1520842D01*
X1198267Y1515358D01*
X1200407Y1510191D01*
X1203514Y1505541D01*
X1207468Y1501586D01*
X1212118Y1498480D01*
X1217285Y1496340D01*
X1222770Y1495248D01*
X1225566D01*
D01*
D02*
G37*
G36*
X1292495D02*
X1295291D01*
X1300776Y1496340D01*
X1305943Y1498480D01*
X1310593Y1501586D01*
X1314547Y1505541D01*
X1317654Y1510191D01*
X1319794Y1515358D01*
X1320885Y1520842D01*
Y1523639D01*
Y1526435D01*
X1319794Y1531920D01*
X1317654Y1537086D01*
X1314547Y1541736D01*
X1310593Y1545691D01*
X1305943Y1548797D01*
X1300776Y1550938D01*
X1295291Y1552029D01*
X1292495D01*
X1289699D01*
X1284214Y1550938D01*
X1279047Y1548797D01*
X1274397Y1545691D01*
X1270443Y1541736D01*
X1267336Y1537086D01*
X1265196Y1531920D01*
X1264105Y1526435D01*
Y1523639D01*
Y1520842D01*
X1265196Y1515358D01*
X1267336Y1510191D01*
X1270443Y1505541D01*
X1274397Y1501586D01*
X1279047Y1498480D01*
X1284214Y1496340D01*
X1289699Y1495248D01*
X1292495D01*
D01*
D02*
G37*
G36*
X1360255Y1495815D02*
X1363051D01*
X1368536Y1496907D01*
X1373703Y1499047D01*
X1378353Y1502153D01*
X1382307Y1506108D01*
X1385414Y1510758D01*
X1387554Y1515925D01*
X1388645Y1521409D01*
Y1524206D01*
Y1527002D01*
X1387554Y1532487D01*
X1385414Y1537653D01*
X1382307Y1542303D01*
X1378353Y1546258D01*
X1373703Y1549364D01*
X1368536Y1551505D01*
X1363051Y1552596D01*
X1360255D01*
X1357459D01*
X1351974Y1551505D01*
X1346807Y1549364D01*
X1342158Y1546258D01*
X1338203Y1542303D01*
X1335096Y1537653D01*
X1332956Y1532487D01*
X1331865Y1527002D01*
Y1524206D01*
Y1521409D01*
X1332956Y1515925D01*
X1335096Y1510758D01*
X1338203Y1506108D01*
X1342158Y1502153D01*
X1346807Y1499047D01*
X1351974Y1496907D01*
X1357459Y1495815D01*
X1360255D01*
D01*
D02*
G37*
G36*
X98137Y1735472D02*
X649318D01*
Y2286653D01*
X98137D01*
Y1735472D01*
D02*
G37*
G36*
X1596562Y1735472D02*
X2147744D01*
Y2286653D01*
X1596562D01*
Y1735472D01*
D02*
G37*
G36*
X98137Y2484685D02*
X649318D01*
Y3035866D01*
X98137D01*
Y2484685D01*
D02*
G37*
G36*
X1596562Y2484685D02*
X2147744D01*
Y3035866D01*
X1596562D01*
Y2484685D01*
D02*
G37*
G36*
X847350Y1735472D02*
X1398531D01*
Y2286653D01*
X847350D01*
Y1735472D01*
D02*
G37*
G36*
Y2484685D02*
X1398531D01*
Y3035866D01*
X847350D01*
Y2484685D01*
D02*
G37*
D31*
X5975Y44370D02*
G03*
X45345Y5000I39370J0D01*
G01*
Y5078D01*
X2074873Y5000D01*
D02*
G03*
X2114243Y44370I0J39370D01*
G01*
X2114173Y44440D01*
Y449970D01*
X2286417D01*
Y98386D01*
X2286571D01*
D02*
G03*
X2379738Y5219I93167J0D01*
G01*
Y5216D01*
X3833427Y5000D01*
Y5197D01*
D02*
G03*
X3926594Y98364I0J93167D01*
G01*
X3926269D01*
X3926581Y2154619D01*
X3926829D01*
D02*
G03*
X3834008Y2247440I-92821J0D01*
G01*
X3834008Y2247659D01*
X2379526Y2248016D01*
Y2248120D01*
D02*
G03*
X2286358Y2154953I0J-93167D01*
G01*
X2287401D01*
X2287402Y658465D01*
X2286417Y657480D01*
X2114243D01*
X2114243Y1344796D01*
X2110839D01*
D02*
G02*
X1973044Y1482591I0J137795D01*
G01*
Y1484252D01*
X1417169D01*
Y1562008D01*
X2154734Y1562008D01*
Y1562161D01*
D02*
G03*
X2247901Y1655329I0J93167D01*
G01*
X2248120D01*
X2248120Y3109017D01*
X2247923D01*
D02*
G03*
X2154756Y3202184I-93167J0D01*
G01*
Y3201859D01*
X98501Y3202172D01*
Y3202419D01*
D02*
G03*
X5680Y3109599I0J-92821D01*
G01*
X5461Y3109599D01*
X5104Y1655116D01*
X5000D01*
D02*
G03*
X98167Y1561949I93167J0D01*
G01*
Y1562008D01*
X1169532Y1562008D01*
Y1481653D01*
X142795Y1481653D01*
Y1481299D01*
D02*
G02*
X5000Y1343504I-137795J0D01*
G01*
X5147Y1343504D01*
X5975Y44370D01*
%TF.MD5,8bbb0972ad56849fa49e1f644f8b2434*%
M02*
