%TF.GenerationSoftware,Altium Limited,Altium Designer,20.1.12 (249)*%
G04 Layer_Color=65535*
%FSLAX26Y26*%
%MOIN*%
%TF.SameCoordinates,48E641B1-37B0-44A9-B879-09A3BD72E7FB*%
%TF.FilePolarity,Positive*%
%TF.FileFunction,Legend,Top*%
%TF.Part,Single*%
G01*
G75*
%TA.AperFunction,NonConductor*%
%ADD19C,0.010000*%
G36*
X123425Y99409D02*
D01*
D02*
G37*
G36*
X872638D02*
D01*
D02*
G37*
G36*
X123425Y848622D02*
D01*
D02*
G37*
G36*
Y1597835D02*
D01*
D02*
G37*
G36*
X872874Y847598D02*
D01*
D02*
G37*
G36*
X1621850Y99409D02*
D01*
D02*
G37*
G36*
X1622087Y847598D02*
D01*
D02*
G37*
G36*
X872638Y1597835D02*
D01*
D02*
G37*
G36*
X1621850D02*
D01*
D02*
G37*
D19*
X123425Y99409D02*
Y650591D01*
Y99409D02*
X674606D01*
X123425Y650591D02*
X674606D01*
Y99409D02*
Y650591D01*
X123425Y848622D02*
Y1399803D01*
Y848622D02*
X674606D01*
X123425Y1399803D02*
X674606D01*
Y848622D02*
Y1399803D01*
X872874Y847598D02*
Y1398780D01*
Y847598D02*
X1424055D01*
X872874Y1398780D02*
X1424055D01*
Y847598D02*
Y1398780D01*
X1622087Y847598D02*
Y1398780D01*
Y847598D02*
X2173268D01*
X1622087Y1398780D02*
X2173268D01*
Y847598D02*
Y1398780D01*
X872638Y99409D02*
Y650591D01*
Y99409D02*
X1423819D01*
X872638Y650591D02*
X1423819D01*
Y99409D02*
Y650591D01*
X1621850Y99409D02*
Y650591D01*
Y99409D02*
X2173031D01*
X1621850Y650591D02*
X2173031D01*
Y99409D02*
Y650591D01*
X123425Y1597835D02*
Y2149016D01*
Y1597835D02*
X674606D01*
X123425Y2149016D02*
X674606D01*
Y1597835D02*
Y2149016D01*
X872638Y1597835D02*
Y2149016D01*
Y1597835D02*
X1423819D01*
X872638Y2149016D02*
X1423819D01*
Y1597835D02*
Y2149016D01*
X1621850Y1597835D02*
Y2149016D01*
Y1597835D02*
X2173031D01*
X1621850Y2149016D02*
X2173031D01*
Y1597835D02*
Y2149016D01*
X1622083Y649567D02*
X1689685D01*
X1622083Y596453D02*
Y649567D01*
X1626382Y2244315D02*
Y2184335D01*
Y2204328D01*
X1666369Y2244315D01*
X1636379Y2214325D01*
X1666369Y2184335D01*
X1686362Y2234318D02*
X1696359Y2244315D01*
X1716353D01*
X1726350Y2234318D01*
Y2224322D01*
X1716353Y2214325D01*
X1706356D01*
X1716353D01*
X1726350Y2204328D01*
Y2194331D01*
X1716353Y2184335D01*
X1696359D01*
X1686362Y2194331D01*
X877169Y2244315D02*
Y2184335D01*
Y2204328D01*
X917156Y2244315D01*
X887166Y2214325D01*
X917156Y2184335D01*
X977137D02*
X937150D01*
X977137Y2224322D01*
Y2234318D01*
X967140Y2244315D01*
X947147D01*
X937150Y2234318D01*
X127957Y2244315D02*
Y2184335D01*
Y2204328D01*
X167944Y2244315D01*
X137953Y2214325D01*
X167944Y2184335D01*
X187937D02*
X207931D01*
X197934D01*
Y2244315D01*
X187937Y2234318D01*
X1626382Y745890D02*
Y685909D01*
Y705903D01*
X1666369Y745890D01*
X1636379Y715900D01*
X1666369Y685909D01*
X1686362Y695906D02*
X1696359Y685909D01*
X1716353D01*
X1726350Y695906D01*
Y735893D01*
X1716353Y745890D01*
X1696359D01*
X1686362Y735893D01*
Y725896D01*
X1696359Y715900D01*
X1726350D01*
X877169Y745890D02*
Y685909D01*
Y705903D01*
X917156Y745890D01*
X887166Y715900D01*
X917156Y685909D01*
X937150Y735893D02*
X947147Y745890D01*
X967140D01*
X977137Y735893D01*
Y725896D01*
X967140Y715900D01*
X977137Y705903D01*
Y695906D01*
X967140Y685909D01*
X947147D01*
X937150Y695906D01*
Y705903D01*
X947147Y715900D01*
X937150Y725896D01*
Y735893D01*
X947147Y715900D02*
X967140D01*
X1626618Y1494079D02*
Y1434098D01*
Y1454092D01*
X1666605Y1494079D01*
X1636615Y1464089D01*
X1666605Y1434098D01*
X1726586Y1494079D02*
X1706592Y1484082D01*
X1686599Y1464089D01*
Y1444095D01*
X1696595Y1434098D01*
X1716589D01*
X1726586Y1444095D01*
Y1454092D01*
X1716589Y1464089D01*
X1686599D01*
X877405Y1494079D02*
Y1434098D01*
Y1454092D01*
X917393Y1494079D01*
X887402Y1464089D01*
X917393Y1434098D01*
X977373Y1494079D02*
X937386D01*
Y1464089D01*
X957380Y1474085D01*
X967376D01*
X977373Y1464089D01*
Y1444095D01*
X967376Y1434098D01*
X947383D01*
X937386Y1444095D01*
X127957Y1495103D02*
Y1435122D01*
Y1455116D01*
X167944Y1495103D01*
X137953Y1465112D01*
X167944Y1435122D01*
X217928D02*
Y1495103D01*
X187937Y1465112D01*
X227924D01*
X127957Y745890D02*
Y685909D01*
Y705903D01*
X167944Y745890D01*
X137953Y715900D01*
X167944Y685909D01*
X187937Y745890D02*
X227924D01*
Y735893D01*
X187937Y695906D01*
Y685909D01*
%TF.MD5,b1f35c0ec5fffa82d825bde67f8918d4*%
M02*
