%TF.GenerationSoftware,Altium Limited,Altium Designer,20.1.12 (249)*%
G04 Layer_Physical_Order=2*
G04 Layer_Color=16711680*
%FSLAX26Y26*%
%MOIN*%
%TF.SameCoordinates,48E641B1-37B0-44A9-B879-09A3BD72E7FB*%
%TF.FilePolarity,Positive*%
%TF.FileFunction,Copper,L2,Bot,Signal*%
%TF.Part,Single*%
G01*
G75*
%TA.AperFunction,ComponentPad*%
%ADD10C,0.069016*%
%ADD11R,0.069016X0.069016*%
%ADD12C,0.159449*%
%ADD13C,0.086614*%
%ADD14C,0.074803*%
%ADD15C,0.066929*%
%ADD16C,0.055118*%
%TA.AperFunction,ViaPad*%
%ADD17C,0.082677*%
%TA.AperFunction,Conductor*%
%ADD18C,0.010000*%
D10*
X848854Y1624174D02*
D03*
Y2224174D02*
D03*
Y2024174D02*
D03*
Y1824174D02*
D03*
Y1924174D02*
D03*
Y1424174D02*
D03*
Y1524174D02*
D03*
Y1224174D02*
D03*
Y2124174D02*
D03*
Y1724174D02*
D03*
Y1324174D02*
D03*
X1448854Y1624174D02*
D03*
Y2324174D02*
D03*
Y2024174D02*
D03*
Y2224174D02*
D03*
Y1824174D02*
D03*
Y1924174D02*
D03*
Y1424174D02*
D03*
Y1524174D02*
D03*
Y1224174D02*
D03*
Y1724174D02*
D03*
Y1324174D02*
D03*
Y2124174D02*
D03*
D11*
X848854Y2324174D02*
D03*
D12*
X397047Y375000D02*
D03*
Y1124213D02*
D03*
X1146496Y1123189D02*
D03*
X1895709D02*
D03*
X1146260Y375000D02*
D03*
X1895472D02*
D03*
X397047Y1873425D02*
D03*
X1146260D02*
D03*
X1895472D02*
D03*
D13*
X246457Y474409D02*
D03*
X496457Y574409D02*
D03*
X246457Y1223622D02*
D03*
X496457Y1323622D02*
D03*
X995905Y1222598D02*
D03*
X1245906Y1322598D02*
D03*
X1745118Y1222598D02*
D03*
X1995118Y1322598D02*
D03*
X995669Y474409D02*
D03*
X1245669Y574409D02*
D03*
X1744882Y474409D02*
D03*
X1994882Y574409D02*
D03*
X246457Y1972835D02*
D03*
X496457Y2072835D02*
D03*
X995669Y1972835D02*
D03*
X1245669Y2072835D02*
D03*
X1744882Y1972835D02*
D03*
X1994882Y2072835D02*
D03*
D14*
X178543Y374409D02*
D03*
X612008D02*
D03*
X178543Y1123622D02*
D03*
X612008D02*
D03*
X927992Y1122598D02*
D03*
X1361457D02*
D03*
X1677205D02*
D03*
X2110669D02*
D03*
X927756Y374409D02*
D03*
X1361220D02*
D03*
X1676968D02*
D03*
X2110433D02*
D03*
X178543Y1872835D02*
D03*
X612008D02*
D03*
X927756D02*
D03*
X1361220D02*
D03*
X1676968D02*
D03*
X2110433D02*
D03*
D15*
X195472Y374409D02*
D03*
X595472D02*
D03*
X195472Y1123622D02*
D03*
X595472D02*
D03*
X944921Y1122598D02*
D03*
X1344921D02*
D03*
X1694134D02*
D03*
X2094134D02*
D03*
X944685Y374409D02*
D03*
X1344685D02*
D03*
X1693898D02*
D03*
X2093898D02*
D03*
X195472Y1872835D02*
D03*
X595472D02*
D03*
X944685D02*
D03*
X1344685D02*
D03*
X1693898D02*
D03*
X2093898D02*
D03*
D16*
X1788740Y2229291D02*
D03*
Y2410394D02*
D03*
X2048583Y2229291D02*
D03*
Y2410394D02*
D03*
D17*
X5543110Y2590551D02*
D03*
Y177165D02*
D03*
X7956496Y2590551D02*
D03*
D03*
D03*
Y177165D02*
D03*
X5035433D02*
D03*
Y2590551D02*
D03*
D03*
D03*
X2622047Y177165D02*
D03*
Y2590551D02*
D03*
D18*
X1448854Y2124174D02*
X1596531Y2271850D01*
X1910039D01*
X2048583Y2410394D01*
X1283141Y1258460D02*
X1448854Y1424174D01*
X1147807Y1258460D02*
X1283141D01*
X993386Y1104039D02*
X1147807Y1258460D01*
X993386Y988880D02*
Y1104039D01*
X478915Y474409D02*
X993386Y988880D01*
X246457Y474409D02*
X478915D01*
X1241220Y1116540D02*
X1448854Y1324174D01*
X1241220Y1083953D02*
Y1116540D01*
X995669Y838402D02*
X1241220Y1083953D01*
X995669Y474409D02*
Y838402D01*
X1448854Y770437D02*
X1744882Y474409D01*
X1448854Y770437D02*
Y1224174D01*
Y1521518D02*
Y1524174D01*
Y1521518D02*
X1745118Y1225254D01*
Y1222598D02*
Y1225254D01*
X1397481Y1624174D02*
X1448854D01*
X995905Y1222598D02*
X1397481Y1624174D01*
X1298362Y1773682D02*
X1468377D01*
X1667530Y1972835D01*
X1744882D01*
X848854Y1324174D02*
X1298362Y1773682D01*
X848854Y1424174D02*
X995669Y1570989D01*
Y1972835D01*
X848578Y1223898D02*
X848854Y1224174D01*
X246732Y1223898D02*
X848578D01*
X246457Y1223622D02*
X246732Y1223898D01*
X246457Y1972835D02*
X431598D01*
X547008Y1857425D01*
Y1826020D02*
Y1857425D01*
Y1826020D02*
X848854Y1524174D01*
%TF.MD5,cb424e799db4d172ef50e9f36b172e99*%
M02*
