%TF.GenerationSoftware,Altium Limited,Altium Designer,20.1.12 (249)*%
G04 Layer_Color=255*
%FSLAX26Y26*%
%MOIN*%
%TF.SameCoordinates,C6B7DB02-E56D-4098-84F2-B1512E134489*%
%TF.FilePolarity,Positive*%
%TF.FileFunction,Pads,Bot*%
%TF.Part,Single*%
G01*
G75*
%TA.AperFunction,ComponentPad*%
%ADD11C,0.062992*%
%ADD12R,0.062992X0.062992*%
%ADD13C,0.159449*%
%ADD14C,0.086614*%
%ADD15C,0.074803*%
%ADD16C,0.066929*%
%ADD17C,0.069016*%
%ADD18R,0.069016X0.069016*%
%ADD19C,0.055118*%
%ADD20R,0.062992X0.062992*%
%TA.AperFunction,ViaPad*%
%ADD21C,0.082677*%
D11*
X2049764Y1511653D02*
D03*
X2037716Y748189D02*
D03*
X1320158Y760276D02*
D03*
X273701Y720079D02*
D03*
X249606Y1479528D02*
D03*
X237520Y2247008D02*
D03*
X775984Y1035197D02*
D03*
Y220118D02*
D03*
X1519370Y216102D02*
D03*
D12*
X1742677Y1511653D02*
D03*
X1730630Y748189D02*
D03*
X1013071Y760276D02*
D03*
X580787Y720079D02*
D03*
X556693Y1479528D02*
D03*
X544606Y2247008D02*
D03*
D13*
X1895472Y375000D02*
D03*
X1146260D02*
D03*
X397047D02*
D03*
Y1124213D02*
D03*
X1146496Y1123189D02*
D03*
X1895709D02*
D03*
X1895472Y1873425D02*
D03*
X1146260D02*
D03*
X397047D02*
D03*
D14*
X1744882Y474409D02*
D03*
X1994882Y574409D02*
D03*
X995669Y474409D02*
D03*
X1245669Y574409D02*
D03*
X246457Y474409D02*
D03*
X496457Y574409D02*
D03*
X246457Y1223622D02*
D03*
X496457Y1323622D02*
D03*
X995905Y1222598D02*
D03*
X1245906Y1322598D02*
D03*
X1745118Y1222598D02*
D03*
X1995118Y1322598D02*
D03*
X1744882Y1972835D02*
D03*
X1994882Y2072835D02*
D03*
X995669Y1972835D02*
D03*
X1245669Y2072835D02*
D03*
X246457Y1972835D02*
D03*
X496457Y2072835D02*
D03*
D15*
X1676968Y374409D02*
D03*
X2110433D02*
D03*
X927756D02*
D03*
X1361220D02*
D03*
X178543D02*
D03*
X612008D02*
D03*
X178543Y1123622D02*
D03*
X612008D02*
D03*
X927992Y1122598D02*
D03*
X1361457D02*
D03*
X1677205D02*
D03*
X2110669D02*
D03*
X1676968Y1872835D02*
D03*
X2110433D02*
D03*
X927756D02*
D03*
X1361220D02*
D03*
X178543D02*
D03*
X612008D02*
D03*
D16*
X1693898Y374409D02*
D03*
X2093898D02*
D03*
X944685D02*
D03*
X1344685D02*
D03*
X195472D02*
D03*
X595472D02*
D03*
X195472Y1123622D02*
D03*
X595472D02*
D03*
X944921Y1122598D02*
D03*
X1344921D02*
D03*
X1694134D02*
D03*
X2094134D02*
D03*
X1693898Y1872835D02*
D03*
X2093898D02*
D03*
X944685D02*
D03*
X1344685D02*
D03*
X195472D02*
D03*
X595472D02*
D03*
D17*
X1448854Y2124174D02*
D03*
Y1324174D02*
D03*
Y1724174D02*
D03*
Y1224174D02*
D03*
Y1524174D02*
D03*
Y1424174D02*
D03*
Y1924174D02*
D03*
Y1824174D02*
D03*
Y2224174D02*
D03*
Y2024174D02*
D03*
Y2324174D02*
D03*
Y1624174D02*
D03*
X848854Y1324174D02*
D03*
Y1724174D02*
D03*
Y2124174D02*
D03*
Y1224174D02*
D03*
Y1524174D02*
D03*
Y1424174D02*
D03*
Y1924174D02*
D03*
Y1824174D02*
D03*
Y2024174D02*
D03*
Y2224174D02*
D03*
Y1624174D02*
D03*
D18*
Y2324174D02*
D03*
D19*
X1788740Y2229291D02*
D03*
Y2410394D02*
D03*
X2048583Y2229291D02*
D03*
Y2410394D02*
D03*
D20*
X775984Y728110D02*
D03*
Y527205D02*
D03*
X1519370Y523189D02*
D03*
D21*
X5543110Y2590551D02*
D03*
Y177165D02*
D03*
X7956496Y2590551D02*
D03*
D03*
D03*
Y177165D02*
D03*
X5035433D02*
D03*
Y2590551D02*
D03*
D03*
D03*
X2622047Y177165D02*
D03*
Y2590551D02*
D03*
%TF.MD5,4611ffafeb06ffde71b45c8364fae656*%
M02*
