%TF.GenerationSoftware,Altium Limited,Altium Designer,20.1.12 (249)*%
G04 Layer_Color=65535*
%FSLAX26Y26*%
%MOIN*%
%TF.SameCoordinates,C6B7DB02-E56D-4098-84F2-B1512E134489*%
%TF.FilePolarity,Positive*%
%TF.FileFunction,Legend,Top*%
%TF.Part,Single*%
G01*
G75*
%TA.AperFunction,NonConductor*%
%ADD23C,0.010000*%
%ADD24C,0.007874*%
G36*
X6967339Y1993953D02*
X6983339D01*
Y1985953D01*
X6991339D01*
Y1977953D01*
X6999339D01*
Y1969953D01*
Y1961953D01*
X7007339D01*
Y1953953D01*
Y1945953D01*
X7015339D01*
Y1937953D01*
Y1929953D01*
Y1921953D01*
Y1913953D01*
Y1905953D01*
X7007339D01*
Y1897953D01*
Y1889953D01*
X6999339D01*
Y1881953D01*
X6991339D01*
Y1873953D01*
Y1865953D01*
Y1857953D01*
X6999339D01*
Y1849953D01*
X7007339D01*
Y1841953D01*
Y1833953D01*
X7015339D01*
Y1825953D01*
Y1817953D01*
Y1809953D01*
X7023339D01*
Y1801953D01*
X7031339D01*
Y1793953D01*
Y1785953D01*
X7039339D01*
Y1777953D01*
Y1769953D01*
Y1761953D01*
X7047339D01*
Y1753953D01*
Y1745953D01*
X7055339D01*
Y1737953D01*
Y1729953D01*
X7063339D01*
Y1721953D01*
Y1713953D01*
X7071339D01*
Y1705953D01*
Y1697953D01*
X7079339D01*
Y1689953D01*
Y1681953D01*
Y1673953D01*
X7087339D01*
Y1665953D01*
Y1657953D01*
Y1649953D01*
X7095339D01*
Y1641953D01*
Y1633953D01*
Y1625953D01*
X7103339D01*
Y1617953D01*
Y1609953D01*
Y1601953D01*
X7111339D01*
Y1593953D01*
Y1585953D01*
Y1577953D01*
X7119339D01*
Y1569953D01*
Y1561953D01*
Y1553953D01*
X7127339D01*
Y1545953D01*
Y1537953D01*
Y1529953D01*
X7135339D01*
Y1521953D01*
Y1513953D01*
Y1505953D01*
X7143339D01*
Y1497953D01*
Y1489953D01*
Y1481953D01*
Y1473953D01*
Y1465953D01*
X7151339D01*
Y1457953D01*
Y1449953D01*
Y1441953D01*
X7159339D01*
Y1433953D01*
Y1425953D01*
Y1417953D01*
Y1409953D01*
X7167339D01*
Y1401953D01*
Y1393953D01*
Y1385953D01*
X7175339D01*
Y1377953D01*
Y1369953D01*
Y1361953D01*
Y1353953D01*
X7183339D01*
Y1345953D01*
Y1337953D01*
Y1329953D01*
Y1321953D01*
X7191339D01*
Y1313953D01*
Y1305953D01*
Y1297953D01*
Y1289953D01*
Y1281953D01*
Y1273953D01*
X7199339D01*
Y1265953D01*
Y1257953D01*
Y1249953D01*
Y1241953D01*
Y1233953D01*
Y1225953D01*
Y1217953D01*
Y1209953D01*
Y1201953D01*
X7207339D01*
Y1193953D01*
Y1185953D01*
Y1177953D01*
Y1169953D01*
Y1161953D01*
Y1153953D01*
Y1145953D01*
Y1137953D01*
Y1129953D01*
Y1121953D01*
Y1113953D01*
X7215339D01*
Y1105953D01*
Y1097953D01*
Y1089953D01*
Y1081953D01*
Y1073953D01*
Y1065953D01*
Y1057953D01*
Y1049953D01*
Y1041953D01*
Y1033953D01*
Y1025953D01*
Y1017953D01*
Y1009953D01*
Y1001953D01*
Y993953D01*
Y985953D01*
Y977953D01*
Y969953D01*
X7207339D01*
Y961953D01*
Y953953D01*
X7199339D01*
Y945953D01*
X7191339D01*
Y937953D01*
X7167339D01*
Y929953D01*
X7143339D01*
Y921953D01*
X7111339D01*
Y913953D01*
X7071339D01*
Y905953D01*
X7015339D01*
Y897953D01*
X6919339D01*
Y889953D01*
X6647339D01*
Y897953D01*
X6471339D01*
Y905953D01*
X6407339D01*
Y913953D01*
X6375339D01*
Y921953D01*
X6343339D01*
Y929953D01*
X6327339D01*
Y937953D01*
X6311339D01*
Y945953D01*
X6303339D01*
Y953953D01*
X6295339D01*
Y961953D01*
Y969953D01*
X6287339D01*
Y977953D01*
Y985953D01*
Y993953D01*
Y1001953D01*
Y1009953D01*
Y1017953D01*
Y1025953D01*
Y1033953D01*
Y1041953D01*
Y1049953D01*
Y1057953D01*
X6279339D01*
Y1065953D01*
Y1073953D01*
Y1081953D01*
Y1089953D01*
Y1097953D01*
Y1105953D01*
Y1113953D01*
Y1121953D01*
Y1129953D01*
Y1137953D01*
Y1145953D01*
X6287339D01*
Y1153953D01*
Y1161953D01*
Y1169953D01*
Y1177953D01*
Y1185953D01*
Y1193953D01*
Y1201953D01*
Y1209953D01*
Y1217953D01*
Y1225953D01*
Y1233953D01*
X6295339D01*
Y1241953D01*
Y1249953D01*
Y1257953D01*
Y1265953D01*
Y1273953D01*
Y1281953D01*
X6303339D01*
Y1289953D01*
Y1297953D01*
Y1305953D01*
Y1313953D01*
Y1321953D01*
X6311339D01*
Y1329953D01*
Y1337953D01*
Y1345953D01*
Y1353953D01*
X6319339D01*
Y1361953D01*
Y1369953D01*
Y1377953D01*
Y1385953D01*
X6327339D01*
Y1393953D01*
Y1401953D01*
Y1409953D01*
Y1417953D01*
Y1425953D01*
X6335339D01*
Y1433953D01*
Y1441953D01*
Y1449953D01*
Y1457953D01*
X6343339D01*
Y1465953D01*
Y1473953D01*
Y1481953D01*
X6351339D01*
Y1489953D01*
Y1497953D01*
Y1505953D01*
X6359339D01*
Y1513953D01*
Y1521953D01*
Y1529953D01*
Y1537953D01*
X6367339D01*
Y1545953D01*
Y1553953D01*
Y1561953D01*
X6375339D01*
Y1569953D01*
Y1577953D01*
Y1585953D01*
Y1593953D01*
X6383339D01*
Y1601953D01*
Y1609953D01*
Y1617953D01*
X6391339D01*
Y1625953D01*
Y1633953D01*
X6399339D01*
Y1641953D01*
Y1649953D01*
Y1657953D01*
X6407339D01*
Y1665953D01*
Y1673953D01*
Y1681953D01*
X6415339D01*
Y1689953D01*
Y1697953D01*
X6423339D01*
Y1705953D01*
Y1713953D01*
X6431339D01*
Y1721953D01*
Y1729953D01*
X6439339D01*
Y1737953D01*
Y1745953D01*
Y1753953D01*
X6447339D01*
Y1761953D01*
Y1769953D01*
X6455339D01*
Y1777953D01*
Y1785953D01*
X6463339D01*
Y1793953D01*
Y1801953D01*
X6471339D01*
Y1809953D01*
Y1817953D01*
X6479339D01*
Y1825953D01*
X6487339D01*
Y1833953D01*
Y1841953D01*
X6495339D01*
Y1849953D01*
X6503339D01*
Y1857953D01*
Y1865953D01*
Y1873953D01*
X6487339D01*
Y1881953D01*
X6479339D01*
Y1889953D01*
Y1897953D01*
X6471339D01*
Y1905953D01*
Y1913953D01*
Y1921953D01*
Y1929953D01*
Y1937953D01*
Y1945953D01*
Y1953953D01*
X6479339D01*
Y1961953D01*
Y1969953D01*
X6487339D01*
Y1977953D01*
X6503339D01*
Y1985953D01*
X6519339D01*
Y1993953D01*
X6551339D01*
Y1985953D01*
X6567339D01*
Y1977953D01*
X6583339D01*
Y1969953D01*
X6591339D01*
Y1961953D01*
Y1953953D01*
X6607339D01*
Y1961953D01*
X6623339D01*
Y1969953D01*
X6647339D01*
Y1977953D01*
X6671339D01*
Y1985953D01*
X6727339D01*
Y1993953D01*
X6799339D01*
Y1985953D01*
X6831339D01*
Y1977953D01*
X6855339D01*
Y1969953D01*
X6871339D01*
Y1961953D01*
X6887339D01*
Y1969953D01*
X6895339D01*
Y1977953D01*
X6903339D01*
Y1985953D01*
X6911339D01*
Y1993953D01*
X6927339D01*
Y2001953D01*
X6967339D01*
Y1993953D01*
D02*
G37*
%LPC*%
G36*
Y1985953D02*
X6927339D01*
Y1977953D01*
X6911339D01*
Y1969953D01*
X6903339D01*
Y1961953D01*
Y1953953D01*
Y1945953D01*
X6911339D01*
Y1937953D01*
X6927339D01*
Y1929953D01*
X6935339D01*
Y1921953D01*
X6943339D01*
Y1913953D01*
X6951339D01*
Y1905953D01*
X6959339D01*
Y1897953D01*
X6967339D01*
Y1889953D01*
X6991339D01*
Y1897953D01*
Y1905953D01*
X6999339D01*
Y1913953D01*
Y1921953D01*
Y1929953D01*
Y1937953D01*
Y1945953D01*
Y1953953D01*
X6991339D01*
Y1961953D01*
Y1969953D01*
X6983339D01*
Y1977953D01*
X6967339D01*
Y1985953D01*
D02*
G37*
G36*
X6559339Y1977953D02*
X6511339D01*
Y1969953D01*
X6503339D01*
Y1961953D01*
X6495339D01*
Y1953953D01*
X6487339D01*
Y1945953D01*
X6479339D01*
Y1937953D01*
Y1929953D01*
Y1921953D01*
Y1913953D01*
Y1905953D01*
X6487339D01*
Y1897953D01*
Y1889953D01*
X6495339D01*
Y1881953D01*
X6519339D01*
Y1889953D01*
X6527339D01*
Y1897953D01*
X6535339D01*
Y1905953D01*
X6543339D01*
Y1913953D01*
X6551339D01*
Y1921953D01*
X6559339D01*
Y1929953D01*
X6575339D01*
Y1937953D01*
X6583339D01*
Y1945953D01*
Y1953953D01*
X6575339D01*
Y1961953D01*
X6567339D01*
Y1969953D01*
X6559339D01*
Y1977953D01*
D02*
G37*
G36*
X6815339D02*
X6695339D01*
Y1969953D01*
X6663339D01*
Y1961953D01*
X6639339D01*
Y1953953D01*
X6623339D01*
Y1945953D01*
X6607339D01*
Y1937953D01*
X6591339D01*
Y1929953D01*
X6583339D01*
Y1921953D01*
X6575339D01*
Y1913953D01*
X6559339D01*
Y1905953D01*
X6551339D01*
Y1897953D01*
X6543339D01*
Y1889953D01*
X6535339D01*
Y1881953D01*
X6527339D01*
Y1873953D01*
Y1865953D01*
X6519339D01*
Y1857953D01*
X6511339D01*
Y1849953D01*
Y1841953D01*
X6503339D01*
Y1833953D01*
Y1825953D01*
X6495339D01*
Y1817953D01*
X6487339D01*
Y1809953D01*
Y1801953D01*
X6479339D01*
Y1793953D01*
X6471339D01*
Y1785953D01*
Y1777953D01*
X6463339D01*
Y1769953D01*
Y1761953D01*
Y1753953D01*
X6455339D01*
Y1745953D01*
Y1737953D01*
X6447339D01*
Y1729953D01*
Y1721953D01*
X6439339D01*
Y1713953D01*
Y1705953D01*
X6431339D01*
Y1697953D01*
Y1689953D01*
X6423339D01*
Y1681953D01*
Y1673953D01*
Y1665953D01*
X6415339D01*
Y1657953D01*
Y1649953D01*
Y1641953D01*
X6407339D01*
Y1633953D01*
Y1625953D01*
X6399339D01*
Y1617953D01*
Y1609953D01*
Y1601953D01*
X6391339D01*
Y1593953D01*
Y1585953D01*
Y1577953D01*
X6383339D01*
Y1569953D01*
Y1561953D01*
Y1553953D01*
X6375339D01*
Y1545953D01*
Y1537953D01*
Y1529953D01*
Y1521953D01*
X6367339D01*
Y1513953D01*
Y1505953D01*
Y1497953D01*
Y1489953D01*
X6359339D01*
Y1481953D01*
Y1473953D01*
Y1465953D01*
X6351339D01*
Y1457953D01*
Y1449953D01*
Y1441953D01*
X6343339D01*
Y1433953D01*
Y1425953D01*
Y1417953D01*
Y1409953D01*
X6335339D01*
Y1401953D01*
Y1393953D01*
Y1385953D01*
Y1377953D01*
Y1369953D01*
X6327339D01*
Y1361953D01*
Y1353953D01*
Y1345953D01*
Y1337953D01*
X6319339D01*
Y1329953D01*
Y1321953D01*
Y1313953D01*
Y1305953D01*
X6311339D01*
Y1297953D01*
Y1289953D01*
Y1281953D01*
Y1273953D01*
Y1265953D01*
X6303339D01*
Y1257953D01*
Y1249953D01*
Y1241953D01*
Y1233953D01*
Y1225953D01*
Y1217953D01*
Y1209953D01*
X6295339D01*
Y1201953D01*
Y1193953D01*
Y1185953D01*
Y1177953D01*
Y1169953D01*
Y1161953D01*
Y1153953D01*
Y1145953D01*
Y1137953D01*
Y1129953D01*
Y1121953D01*
Y1113953D01*
Y1105953D01*
Y1097953D01*
Y1089953D01*
Y1081953D01*
Y1073953D01*
Y1065953D01*
Y1057953D01*
Y1049953D01*
Y1041953D01*
Y1033953D01*
Y1025953D01*
Y1017953D01*
Y1009953D01*
Y1001953D01*
Y993953D01*
Y985953D01*
X6303339D01*
Y977953D01*
Y969953D01*
X6311339D01*
Y961953D01*
Y953953D01*
X6327339D01*
Y945953D01*
X6343339D01*
Y937953D01*
X6359339D01*
Y929953D01*
X6391339D01*
Y921953D01*
X6439339D01*
Y913953D01*
X6551339D01*
Y905953D01*
X6975339D01*
Y913953D01*
X7039339D01*
Y921953D01*
X7087339D01*
Y929953D01*
X7127339D01*
Y937953D01*
X7159339D01*
Y945953D01*
X7175339D01*
Y953953D01*
X7183339D01*
Y961953D01*
X7191339D01*
Y969953D01*
X7199339D01*
Y977953D01*
Y985953D01*
Y993953D01*
Y1001953D01*
X7207339D01*
Y1009953D01*
Y1017953D01*
Y1025953D01*
Y1033953D01*
Y1041953D01*
Y1049953D01*
Y1057953D01*
Y1065953D01*
X7199339D01*
Y1073953D01*
Y1081953D01*
Y1089953D01*
Y1097953D01*
Y1105953D01*
Y1113953D01*
Y1121953D01*
Y1129953D01*
Y1137953D01*
Y1145953D01*
Y1153953D01*
Y1161953D01*
X7191339D01*
Y1169953D01*
Y1177953D01*
Y1185953D01*
Y1193953D01*
Y1201953D01*
Y1209953D01*
Y1217953D01*
Y1225953D01*
Y1233953D01*
Y1241953D01*
Y1249953D01*
X7183339D01*
Y1257953D01*
Y1265953D01*
Y1273953D01*
Y1281953D01*
Y1289953D01*
Y1297953D01*
Y1305953D01*
X7175339D01*
Y1313953D01*
Y1321953D01*
Y1329953D01*
Y1337953D01*
Y1345953D01*
X7167339D01*
Y1353953D01*
Y1361953D01*
Y1369953D01*
X7159339D01*
Y1377953D01*
Y1385953D01*
Y1393953D01*
Y1401953D01*
X7151339D01*
Y1409953D01*
Y1417953D01*
Y1425953D01*
X7143339D01*
Y1433953D01*
Y1441953D01*
Y1449953D01*
Y1457953D01*
X7135339D01*
Y1465953D01*
Y1473953D01*
Y1481953D01*
Y1489953D01*
X7127339D01*
Y1497953D01*
Y1505953D01*
Y1513953D01*
Y1521953D01*
X7119339D01*
Y1529953D01*
Y1537953D01*
Y1545953D01*
X7111339D01*
Y1553953D01*
Y1561953D01*
Y1569953D01*
X7103339D01*
Y1577953D01*
Y1585953D01*
Y1593953D01*
X7095339D01*
Y1601953D01*
Y1609953D01*
X7087339D01*
Y1617953D01*
Y1625953D01*
Y1633953D01*
Y1641953D01*
X7079339D01*
Y1649953D01*
Y1657953D01*
Y1665953D01*
X7071339D01*
Y1673953D01*
Y1681953D01*
X7063339D01*
Y1689953D01*
Y1697953D01*
Y1705953D01*
X7055339D01*
Y1713953D01*
Y1721953D01*
X7047339D01*
Y1729953D01*
Y1737953D01*
X7039339D01*
Y1745953D01*
Y1753953D01*
X7031339D01*
Y1761953D01*
Y1769953D01*
X7023339D01*
Y1777953D01*
Y1785953D01*
X7015339D01*
Y1793953D01*
Y1801953D01*
X7007339D01*
Y1809953D01*
Y1817953D01*
X6999339D01*
Y1825953D01*
Y1833953D01*
X6991339D01*
Y1841953D01*
Y1849953D01*
X6983339D01*
Y1857953D01*
Y1865953D01*
X6975339D01*
Y1873953D01*
X6967339D01*
Y1881953D01*
X6959339D01*
Y1889953D01*
X6951339D01*
Y1897953D01*
X6943339D01*
Y1905953D01*
X6935339D01*
Y1913953D01*
X6919339D01*
Y1921953D01*
X6911339D01*
Y1929953D01*
X6903339D01*
Y1937953D01*
X6887339D01*
Y1945953D01*
X6879339D01*
Y1953953D01*
X6863339D01*
Y1961953D01*
X6839339D01*
Y1969953D01*
X6815339D01*
Y1977953D01*
D02*
G37*
%LPD*%
G36*
X6655339Y1817953D02*
Y1809953D01*
Y1801953D01*
X6639339D01*
Y1809953D01*
X6631339D01*
Y1801953D01*
X6639339D01*
Y1793953D01*
X6615339D01*
Y1801953D01*
Y1809953D01*
X6623339D01*
Y1817953D01*
X6639339D01*
Y1825953D01*
X6655339D01*
Y1817953D01*
D02*
G37*
G36*
X6863339Y1809953D02*
X6879339D01*
Y1801953D01*
X6887339D01*
Y1793953D01*
Y1785953D01*
X6863339D01*
Y1793953D01*
X6847339D01*
Y1801953D01*
X6839339D01*
Y1809953D01*
X6847339D01*
Y1817953D01*
X6863339D01*
Y1809953D01*
D02*
G37*
G36*
X6767339Y1769953D02*
X6775339D01*
Y1761953D01*
X6767339D01*
Y1753953D01*
X6759339D01*
Y1761953D01*
Y1769953D01*
X6743339D01*
Y1777953D01*
X6767339D01*
Y1769953D01*
D02*
G37*
G36*
X6743339Y1761953D02*
Y1753953D01*
X6735339D01*
Y1761953D01*
X6727339D01*
Y1769953D01*
X6743339D01*
Y1761953D01*
D02*
G37*
G36*
X6855339Y1769953D02*
X6863339D01*
Y1761953D01*
Y1753953D01*
X6871339D01*
Y1745953D01*
Y1737953D01*
Y1729953D01*
Y1721953D01*
Y1713953D01*
Y1705953D01*
X6863339D01*
Y1713953D01*
Y1721953D01*
Y1729953D01*
Y1737953D01*
X6855339D01*
Y1745953D01*
Y1753953D01*
X6847339D01*
Y1761953D01*
Y1769953D01*
X6839339D01*
Y1777953D01*
X6855339D01*
Y1769953D01*
D02*
G37*
G36*
X6671339Y1777953D02*
Y1769953D01*
X6663339D01*
Y1761953D01*
Y1753953D01*
X6655339D01*
Y1745953D01*
X6647339D01*
Y1737953D01*
Y1729953D01*
Y1721953D01*
Y1713953D01*
Y1705953D01*
Y1697953D01*
Y1689953D01*
X6655339D01*
Y1681953D01*
X6663339D01*
Y1673953D01*
X6671339D01*
Y1665953D01*
X6687339D01*
Y1657953D01*
X6711339D01*
Y1649953D01*
X6735339D01*
Y1641953D01*
X6687339D01*
Y1649953D01*
X6671339D01*
Y1657953D01*
X6655339D01*
Y1665953D01*
X6647339D01*
Y1673953D01*
Y1681953D01*
X6639339D01*
Y1689953D01*
X6631339D01*
Y1697953D01*
Y1705953D01*
Y1713953D01*
Y1721953D01*
Y1729953D01*
Y1737953D01*
X6639339D01*
Y1745953D01*
Y1753953D01*
X6647339D01*
Y1761953D01*
Y1769953D01*
X6655339D01*
Y1777953D01*
X6663339D01*
Y1785953D01*
X6671339D01*
Y1777953D01*
D02*
G37*
G36*
X6863339Y1665953D02*
X6855339D01*
Y1657953D01*
X6847339D01*
Y1649953D01*
X6831339D01*
Y1641953D01*
X6815339D01*
Y1633953D01*
X6783339D01*
Y1641953D01*
Y1649953D01*
X6823339D01*
Y1657953D01*
X6831339D01*
Y1665953D01*
X6839339D01*
Y1673953D01*
X6863339D01*
Y1665953D01*
D02*
G37*
G36*
X6847339Y1401953D02*
X6871339D01*
Y1393953D01*
X6887339D01*
Y1385953D01*
X6895339D01*
Y1377953D01*
X6903339D01*
Y1369953D01*
Y1361953D01*
X6911339D01*
Y1353953D01*
Y1345953D01*
X6919339D01*
Y1353953D01*
X6927339D01*
Y1361953D01*
X6943339D01*
Y1369953D01*
X6959339D01*
Y1361953D01*
X6951339D01*
Y1353953D01*
X6943339D01*
Y1345953D01*
X6935339D01*
Y1337953D01*
X6919339D01*
Y1329953D01*
X6911339D01*
Y1321953D01*
X6903339D01*
Y1313953D01*
Y1305953D01*
X6895339D01*
Y1297953D01*
X6887339D01*
Y1289953D01*
X6879339D01*
Y1281953D01*
Y1273953D01*
X6871339D01*
Y1265953D01*
Y1257953D01*
Y1249953D01*
X6863339D01*
Y1241953D01*
Y1233953D01*
Y1225953D01*
Y1217953D01*
X6871339D01*
Y1209953D01*
Y1201953D01*
X6879339D01*
Y1193953D01*
X6895339D01*
Y1185953D01*
X6975339D01*
Y1193953D01*
X6999339D01*
Y1201953D01*
X7015339D01*
Y1209953D01*
X7023339D01*
Y1217953D01*
X7039339D01*
Y1209953D01*
Y1201953D01*
X7023339D01*
Y1193953D01*
X7015339D01*
Y1185953D01*
X6991339D01*
Y1177953D01*
X6967339D01*
Y1169953D01*
X6903339D01*
Y1177953D01*
X6871339D01*
Y1169953D01*
X6863339D01*
Y1161953D01*
X6855339D01*
Y1153953D01*
X6847339D01*
Y1145953D01*
X6839339D01*
Y1137953D01*
X6823339D01*
Y1129953D01*
X6815339D01*
Y1121953D01*
X6807339D01*
Y1113953D01*
X6791339D01*
Y1105953D01*
X6783339D01*
Y1097953D01*
X6743339D01*
Y1105953D01*
X6727339D01*
Y1113953D01*
X6711339D01*
Y1121953D01*
X6695339D01*
Y1129953D01*
X6687339D01*
Y1137953D01*
X6671339D01*
Y1145953D01*
X6663339D01*
Y1153953D01*
X6655339D01*
Y1161953D01*
X6647339D01*
Y1169953D01*
X6639339D01*
Y1177953D01*
X6631339D01*
Y1185953D01*
X6623339D01*
Y1177953D01*
X6591339D01*
Y1169953D01*
X6559339D01*
Y1177953D01*
X6535339D01*
Y1185953D01*
X6519339D01*
Y1193953D01*
X6503339D01*
Y1201953D01*
X6487339D01*
Y1209953D01*
X6479339D01*
Y1217953D01*
X6463339D01*
Y1225953D01*
Y1233953D01*
X6479339D01*
Y1225953D01*
X6487339D01*
Y1217953D01*
X6503339D01*
Y1209953D01*
X6511339D01*
Y1201953D01*
X6527339D01*
Y1193953D01*
X6551339D01*
Y1185953D01*
X6607339D01*
Y1193953D01*
X6623339D01*
Y1201953D01*
X6631339D01*
Y1209953D01*
X6639339D01*
Y1217953D01*
Y1225953D01*
Y1233953D01*
Y1241953D01*
Y1249953D01*
Y1257953D01*
Y1265953D01*
X6631339D01*
Y1273953D01*
Y1281953D01*
X6623339D01*
Y1289953D01*
Y1297953D01*
X6615339D01*
Y1305953D01*
X6607339D01*
Y1313953D01*
X6599339D01*
Y1321953D01*
X6591339D01*
Y1329953D01*
X6583339D01*
Y1337953D01*
X6575339D01*
Y1345953D01*
X6559339D01*
Y1353953D01*
X6551339D01*
Y1361953D01*
X6543339D01*
Y1369953D01*
X6559339D01*
Y1361953D01*
X6575339D01*
Y1353953D01*
X6583339D01*
Y1345953D01*
X6599339D01*
Y1353953D01*
Y1361953D01*
X6607339D01*
Y1369953D01*
Y1377953D01*
X6615339D01*
Y1385953D01*
X6623339D01*
Y1393953D01*
X6639339D01*
Y1401953D01*
X6655339D01*
Y1409953D01*
X6695339D01*
Y1401953D01*
X6719339D01*
Y1393953D01*
X6735339D01*
Y1385953D01*
X6743339D01*
Y1377953D01*
X6751339D01*
Y1369953D01*
X6767339D01*
Y1377953D01*
X6775339D01*
Y1385953D01*
X6783339D01*
Y1393953D01*
X6799339D01*
Y1401953D01*
X6831339D01*
Y1409953D01*
X6847339D01*
Y1401953D01*
D02*
G37*
%LPC*%
G36*
X6871339Y1801953D02*
X6863339D01*
Y1793953D01*
X6871339D01*
Y1801953D01*
D02*
G37*
G36*
X6863339Y1393953D02*
X6815339D01*
Y1385953D01*
X6799339D01*
Y1377953D01*
X6783339D01*
Y1369953D01*
X6775339D01*
Y1361953D01*
Y1353953D01*
X6767339D01*
Y1345953D01*
X6751339D01*
Y1353953D01*
X6743339D01*
Y1361953D01*
Y1369953D01*
X6735339D01*
Y1377953D01*
X6719339D01*
Y1385953D01*
X6703339D01*
Y1393953D01*
X6647339D01*
Y1385953D01*
X6639339D01*
Y1377953D01*
X6623339D01*
Y1369953D01*
Y1361953D01*
X6615339D01*
Y1353953D01*
X6607339D01*
Y1345953D01*
Y1337953D01*
Y1329953D01*
Y1321953D01*
X6615339D01*
Y1313953D01*
X6623339D01*
Y1305953D01*
X6631339D01*
Y1297953D01*
Y1289953D01*
X6639339D01*
Y1281953D01*
Y1273953D01*
X6647339D01*
Y1265953D01*
Y1257953D01*
Y1249953D01*
X6655339D01*
Y1241953D01*
Y1233953D01*
Y1225953D01*
Y1217953D01*
X6647339D01*
Y1209953D01*
Y1201953D01*
X6639339D01*
Y1193953D01*
Y1185953D01*
X6647339D01*
Y1177953D01*
X6655339D01*
Y1169953D01*
X6663339D01*
Y1161953D01*
X6679339D01*
Y1153953D01*
X6687339D01*
Y1145953D01*
X6695339D01*
Y1137953D01*
X6711339D01*
Y1129953D01*
X6727339D01*
Y1121953D01*
X6743339D01*
Y1113953D01*
X6759339D01*
Y1105953D01*
X6767339D01*
Y1113953D01*
X6783339D01*
Y1121953D01*
X6791339D01*
Y1129953D01*
X6807339D01*
Y1137953D01*
X6815339D01*
Y1145953D01*
X6823339D01*
Y1153953D01*
X6831339D01*
Y1161953D01*
X6839339D01*
Y1169953D01*
X6855339D01*
Y1177953D01*
X6863339D01*
Y1185953D01*
Y1193953D01*
Y1201953D01*
X6855339D01*
Y1209953D01*
Y1217953D01*
Y1225953D01*
Y1233953D01*
Y1241953D01*
Y1249953D01*
Y1257953D01*
Y1265953D01*
X6863339D01*
Y1273953D01*
Y1281953D01*
Y1289953D01*
X6871339D01*
Y1297953D01*
X6879339D01*
Y1305953D01*
Y1313953D01*
X6887339D01*
Y1321953D01*
X6895339D01*
Y1329953D01*
X6903339D01*
Y1337953D01*
Y1345953D01*
X6895339D01*
Y1353953D01*
Y1361953D01*
X6887339D01*
Y1369953D01*
Y1377953D01*
X6879339D01*
Y1385953D01*
X6863339D01*
Y1393953D01*
D02*
G37*
%LPD*%
D23*
X1621850Y99409D02*
Y650591D01*
Y99409D02*
X2173031D01*
X1621850Y650591D02*
X2173031D01*
Y99409D02*
Y650591D01*
X872638Y99409D02*
Y650591D01*
Y99409D02*
X1423819D01*
X872638Y650591D02*
X1423819D01*
Y99409D02*
Y650591D01*
X123425Y99409D02*
Y650591D01*
Y99409D02*
X674606D01*
X123425Y650591D02*
X674606D01*
Y99409D02*
Y650591D01*
X123425Y848622D02*
Y1399803D01*
Y848622D02*
X674606D01*
X123425Y1399803D02*
X674606D01*
Y848622D02*
Y1399803D01*
X872874Y847598D02*
Y1398780D01*
Y847598D02*
X1424055D01*
X872874Y1398780D02*
X1424055D01*
Y847598D02*
Y1398780D01*
X1622087Y847598D02*
Y1398780D01*
Y847598D02*
X2173268D01*
X1622087Y1398780D02*
X2173268D01*
Y847598D02*
Y1398780D01*
X1621850Y1597835D02*
Y2149016D01*
Y1597835D02*
X2173031D01*
X1621850Y2149016D02*
X2173031D01*
Y1597835D02*
Y2149016D01*
X872638Y1597835D02*
Y2149016D01*
Y1597835D02*
X1423819D01*
X872638Y2149016D02*
X1423819D01*
Y1597835D02*
Y2149016D01*
X123425Y1597835D02*
Y2149016D01*
Y1597835D02*
X674606D01*
X123425Y2149016D02*
X674606D01*
Y1597835D02*
Y2149016D01*
X1622083Y649567D02*
X1689685D01*
X1622083Y596453D02*
Y649567D01*
X1584859Y1539833D02*
Y1479852D01*
X1614849D01*
X1624846Y1489849D01*
Y1529836D01*
X1614849Y1539833D01*
X1584859D01*
X1644839Y1529836D02*
X1654836Y1539833D01*
X1674830D01*
X1684826Y1529836D01*
Y1519839D01*
X1674830Y1509842D01*
X1664833D01*
X1674830D01*
X1684826Y1499846D01*
Y1489849D01*
X1674830Y1479852D01*
X1654836D01*
X1644839Y1489849D01*
X1556315Y774085D02*
Y714104D01*
X1586306D01*
X1596303Y724101D01*
Y764088D01*
X1586306Y774085D01*
X1556315D01*
X1656283D02*
X1636290Y764088D01*
X1616296Y744095D01*
Y724101D01*
X1626293Y714104D01*
X1646286D01*
X1656283Y724101D01*
Y734098D01*
X1646286Y744095D01*
X1616296D01*
X857496Y787864D02*
Y727884D01*
X887487D01*
X897484Y737880D01*
Y777867D01*
X887487Y787864D01*
X857496D01*
X957464D02*
X917477D01*
Y757874D01*
X937471Y767871D01*
X947467D01*
X957464Y757874D01*
Y737880D01*
X947467Y727884D01*
X927474D01*
X917477Y737880D01*
X116355Y750463D02*
Y690482D01*
X146345D01*
X156342Y700479D01*
Y740466D01*
X146345Y750463D01*
X116355D01*
X176335D02*
X216322D01*
Y740466D01*
X176335Y700479D01*
Y690482D01*
X88796Y1504400D02*
Y1444419D01*
X118786D01*
X128783Y1454416D01*
Y1494403D01*
X118786Y1504400D01*
X88796D01*
X178767Y1444419D02*
Y1504400D01*
X148776Y1474409D01*
X188763D01*
X101745Y2276053D02*
Y2216073D01*
X131736D01*
X141732Y2226070D01*
Y2266057D01*
X131736Y2276053D01*
X101745D01*
X161726Y2216073D02*
X181719D01*
X171723D01*
Y2276053D01*
X161726Y2266057D01*
X1674426Y622510D02*
Y562529D01*
Y582523D01*
X1714413Y622510D01*
X1684422Y592520D01*
X1714413Y562529D01*
X1734406Y572526D02*
X1744403Y562529D01*
X1764397D01*
X1774393Y572526D01*
Y612513D01*
X1764397Y622510D01*
X1744403D01*
X1734406Y612513D01*
Y602516D01*
X1744403Y592520D01*
X1774393D01*
X922457Y622510D02*
Y562529D01*
Y582523D01*
X962444Y622510D01*
X932454Y592520D01*
X962444Y562529D01*
X982438Y612513D02*
X992434Y622510D01*
X1012428D01*
X1022425Y612513D01*
Y602516D01*
X1012428Y592520D01*
X1022425Y582523D01*
Y572526D01*
X1012428Y562529D01*
X992434D01*
X982438Y572526D01*
Y582523D01*
X992434Y592520D01*
X982438Y602516D01*
Y612513D01*
X992434Y592520D02*
X1012428D01*
X169504Y618573D02*
Y558592D01*
Y578586D01*
X209492Y618573D01*
X179501Y588583D01*
X209492Y558592D01*
X229485Y618573D02*
X269472D01*
Y608576D01*
X229485Y568589D01*
Y558592D01*
X169504Y1365620D02*
Y1305640D01*
Y1325633D01*
X209492Y1365620D01*
X179501Y1335630D01*
X209492Y1305640D01*
X259475D02*
Y1365620D01*
X229485Y1335630D01*
X269472D01*
X919504Y1369557D02*
Y1309577D01*
Y1329570D01*
X959491Y1369557D01*
X929501Y1339567D01*
X959491Y1309577D01*
X1019472Y1369557D02*
X979485D01*
Y1339567D01*
X999479Y1349564D01*
X1009475D01*
X1019472Y1339567D01*
Y1319573D01*
X1009475Y1309577D01*
X989482D01*
X979485Y1319573D01*
X1660646Y1358730D02*
Y1298750D01*
Y1318743D01*
X1700633Y1358730D01*
X1670643Y1328740D01*
X1700633Y1298750D01*
X1760614Y1358730D02*
X1740620Y1348734D01*
X1720627Y1328740D01*
Y1308747D01*
X1730623Y1298750D01*
X1750617D01*
X1760614Y1308747D01*
Y1318743D01*
X1750617Y1328740D01*
X1720627D01*
X1673441Y2112668D02*
Y2052687D01*
Y2072680D01*
X1713428Y2112668D01*
X1683438Y2082677D01*
X1713428Y2052687D01*
X1733422Y2102671D02*
X1743419Y2112668D01*
X1763412D01*
X1773409Y2102671D01*
Y2092674D01*
X1763412Y2082677D01*
X1753416D01*
X1763412D01*
X1773409Y2072680D01*
Y2062684D01*
X1763412Y2052687D01*
X1743419D01*
X1733422Y2062684D01*
X921473Y2109715D02*
Y2049734D01*
Y2069728D01*
X961460Y2109715D01*
X931470Y2079724D01*
X961460Y2049734D01*
X1021441D02*
X981453D01*
X1021441Y2089721D01*
Y2099718D01*
X1011444Y2109715D01*
X991450D01*
X981453Y2099718D01*
X164737Y2105778D02*
Y2045797D01*
Y2065791D01*
X204725Y2105778D01*
X174734Y2075787D01*
X204725Y2045797D01*
X224718D02*
X244712D01*
X234715D01*
Y2105778D01*
X224718Y2095781D01*
X732984Y1160217D02*
Y1100236D01*
X762975D01*
X772971Y1110233D01*
Y1150220D01*
X762975Y1160217D01*
X732984D01*
X832952Y1100236D02*
X792965D01*
X832952Y1140223D01*
Y1150220D01*
X822955Y1160217D01*
X802962D01*
X792965Y1150220D01*
X1475890Y648579D02*
Y588598D01*
X1505880D01*
X1515877Y598595D01*
Y638582D01*
X1505880Y648579D01*
X1475890D01*
X1535870Y598595D02*
X1545867Y588598D01*
X1565861D01*
X1575858Y598595D01*
Y638582D01*
X1565861Y648579D01*
X1545867D01*
X1535870Y638582D01*
Y628586D01*
X1545867Y618589D01*
X1575858D01*
X732890Y653083D02*
Y593102D01*
X762880D01*
X772877Y603099D01*
Y643086D01*
X762880Y653083D01*
X732890D01*
X792870Y643086D02*
X802867Y653083D01*
X822861D01*
X832857Y643086D01*
Y633089D01*
X822861Y623093D01*
X832857Y613096D01*
Y603099D01*
X822861Y593102D01*
X802867D01*
X792870Y603099D01*
Y613096D01*
X802867Y623093D01*
X792870Y633089D01*
Y643086D01*
X802867Y623093D02*
X822861D01*
D24*
X1826339Y1462441D02*
Y1560866D01*
X1819449Y1462441D02*
Y1560866D01*
X1812559Y1462441D02*
Y1560866D01*
X1805669Y1462441D02*
Y1560866D01*
X1798780Y1462441D02*
Y1560866D01*
X1791890Y1462441D02*
Y1560866D01*
X1785000Y1462441D02*
X2007441D01*
X1785000Y1560866D02*
X2007441D01*
X1785000Y1462441D02*
Y1560866D01*
X2007441Y1462441D02*
Y1560866D01*
X1814291Y698976D02*
Y797402D01*
X1807402Y698976D02*
Y797402D01*
X1800512Y698976D02*
Y797402D01*
X1793622Y698976D02*
Y797402D01*
X1786732Y698976D02*
Y797402D01*
X1779842Y698976D02*
Y797402D01*
X1772953Y698976D02*
X1995394D01*
X1772953Y797402D02*
X1995394D01*
X1772953Y698976D02*
Y797402D01*
X1995394Y698976D02*
Y797402D01*
X1096732Y711063D02*
Y809488D01*
X1089843Y711063D02*
Y809488D01*
X1082953Y711063D02*
Y809488D01*
X1076063Y711063D02*
Y809488D01*
X1069173Y711063D02*
Y809488D01*
X1062283Y711063D02*
Y809488D01*
X1055394Y711063D02*
X1277835D01*
X1055394Y809488D02*
X1277835D01*
X1055394Y711063D02*
Y809488D01*
X1277835Y711063D02*
Y809488D01*
X497126Y670866D02*
Y769291D01*
X504016Y670866D02*
Y769291D01*
X510906Y670866D02*
Y769291D01*
X517795Y670866D02*
Y769291D01*
X524685Y670866D02*
Y769291D01*
X531575Y670866D02*
Y769291D01*
X316024D02*
X538465D01*
X316024Y670866D02*
X538465D01*
Y769291D01*
X316024Y670866D02*
Y769291D01*
X473031Y1430315D02*
Y1528740D01*
X479921Y1430315D02*
Y1528740D01*
X486811Y1430315D02*
Y1528740D01*
X493701Y1430315D02*
Y1528740D01*
X500591Y1430315D02*
Y1528740D01*
X507480Y1430315D02*
Y1528740D01*
X291929D02*
X514370D01*
X291929Y1430315D02*
X514370D01*
Y1528740D01*
X291929Y1430315D02*
Y1528740D01*
X460945Y2197795D02*
Y2296220D01*
X467835Y2197795D02*
Y2296220D01*
X474724Y2197795D02*
Y2296220D01*
X481614Y2197795D02*
Y2296220D01*
X488504Y2197795D02*
Y2296220D01*
X495394Y2197795D02*
Y2296220D01*
X279842D02*
X502284D01*
X279842Y2197795D02*
X502284D01*
Y2296220D01*
X279842Y2197795D02*
Y2296220D01*
X726772Y811772D02*
X825197D01*
X726772Y804882D02*
X825197D01*
X726772Y797992D02*
X825197D01*
X726772Y791102D02*
X825197D01*
X726772Y784212D02*
X825197D01*
X726772Y777323D02*
X825197D01*
Y770433D02*
Y992874D01*
X726772Y770433D02*
Y992874D01*
Y770433D02*
X825197D01*
X726772Y992874D02*
X825197D01*
X726772Y443543D02*
X825197D01*
X726772Y450433D02*
X825197D01*
X726772Y457323D02*
X825197D01*
X726772Y464213D02*
X825197D01*
X726772Y471102D02*
X825197D01*
X726772Y477992D02*
X825197D01*
X726772Y262441D02*
Y484882D01*
X825197Y262441D02*
Y484882D01*
X726772D02*
X825197D01*
X726772Y262441D02*
X825197D01*
X1470158Y439527D02*
X1568583D01*
X1470158Y446417D02*
X1568583D01*
X1470158Y453307D02*
X1568583D01*
X1470158Y460197D02*
X1568583D01*
X1470158Y467087D02*
X1568583D01*
X1470158Y473976D02*
X1568583D01*
X1470158Y258425D02*
Y480866D01*
X1568583Y258425D02*
Y480866D01*
X1470158D02*
X1568583D01*
X1470158Y258425D02*
X1568583D01*
%TF.MD5,d3ec826857d55c59bd089c1305724dcc*%
M02*
