%TF.GenerationSoftware,Altium Limited,Altium Designer,20.1.12 (249)*%
G04 Layer_Color=0*
%FSLAX26Y26*%
%MOIN*%
%TF.SameCoordinates,C6B7DB02-E56D-4098-84F2-B1512E134489*%
%TF.FilePolarity,Positive*%
%TF.FileFunction,Profile,NP*%
%TF.Part,Single*%
G01*
G75*
%TA.AperFunction,Profile*%
%ADD38C,0.001000*%
G36*
X2291339Y917323D02*
Y914527D01*
X2292430Y909042D01*
X2294570Y903875D01*
X2297677Y899225D01*
X2301631Y895271D01*
X2306281Y892164D01*
X2311448Y890024D01*
X2316932Y888933D01*
X2319729D01*
X2322525D01*
X2328010Y890024D01*
X2333176Y892164D01*
X2337826Y895271D01*
X2341781Y899225D01*
X2344888Y903875D01*
X2347028Y909042D01*
X2348119Y914527D01*
Y917323D01*
Y920119D01*
X2347028Y925604D01*
X2344888Y930770D01*
X2341781Y935420D01*
X2337826Y939375D01*
X2333176Y942482D01*
X2328010Y944622D01*
X2322525Y945713D01*
X2319729D01*
X2316932D01*
X2311448Y944622D01*
X2306281Y942482D01*
X2301631Y939375D01*
X2297677Y935420D01*
X2294570Y930770D01*
X2292430Y925604D01*
X2291339Y920119D01*
Y917323D01*
D01*
D02*
G37*
G36*
X2393701D02*
Y914527D01*
X2394792Y909042D01*
X2396932Y903875D01*
X2400039Y899225D01*
X2403993Y895271D01*
X2408643Y892164D01*
X2413810Y890024D01*
X2419295Y888933D01*
X2422091D01*
X2424887D01*
X2430372Y890024D01*
X2435539Y892164D01*
X2440189Y895271D01*
X2444143Y899225D01*
X2447250Y903875D01*
X2449390Y909042D01*
X2450481Y914527D01*
Y917323D01*
Y920119D01*
X2449390Y925604D01*
X2447250Y930770D01*
X2444143Y935420D01*
X2440189Y939375D01*
X2435539Y942482D01*
X2430372Y944622D01*
X2424887Y945713D01*
X2422091D01*
X2419295D01*
X2413810Y944622D01*
X2408643Y942482D01*
X2403993Y939375D01*
X2400039Y935420D01*
X2396932Y930770D01*
X2394792Y925604D01*
X2393701Y920119D01*
Y917323D01*
D01*
D02*
G37*
G36*
X2291339Y850394D02*
Y847597D01*
X2292430Y842113D01*
X2294570Y836946D01*
X2297677Y832296D01*
X2301631Y828342D01*
X2306281Y825235D01*
X2311448Y823095D01*
X2316932Y822004D01*
X2319729D01*
X2322525D01*
X2328010Y823095D01*
X2333176Y825235D01*
X2337826Y828342D01*
X2341781Y832296D01*
X2344888Y836946D01*
X2347028Y842113D01*
X2348119Y847597D01*
Y850394D01*
Y853190D01*
X2347028Y858675D01*
X2344888Y863841D01*
X2341781Y868491D01*
X2337826Y872446D01*
X2333176Y875553D01*
X2328010Y877693D01*
X2322525Y878784D01*
X2319729D01*
X2316932D01*
X2311448Y877693D01*
X2306281Y875553D01*
X2301631Y872446D01*
X2297677Y868491D01*
X2294570Y863841D01*
X2292430Y858675D01*
X2291339Y853190D01*
Y850394D01*
D01*
D02*
G37*
G36*
X2393701D02*
Y847597D01*
X2394792Y842113D01*
X2396932Y836946D01*
X2400039Y832296D01*
X2403993Y828342D01*
X2408643Y825235D01*
X2413810Y823095D01*
X2419295Y822004D01*
X2422091D01*
X2424887D01*
X2430372Y823095D01*
X2435539Y825235D01*
X2440189Y828342D01*
X2444143Y832296D01*
X2447250Y836946D01*
X2449390Y842113D01*
X2450481Y847597D01*
Y850394D01*
Y853190D01*
X2449390Y858675D01*
X2447250Y863841D01*
X2444143Y868491D01*
X2440189Y872446D01*
X2435539Y875553D01*
X2430372Y877693D01*
X2424887Y878784D01*
X2422091D01*
X2419295D01*
X2413810Y877693D01*
X2408643Y875553D01*
X2403993Y872446D01*
X2400039Y868491D01*
X2396932Y863841D01*
X2394792Y858675D01*
X2393701Y853190D01*
Y850394D01*
D01*
D02*
G37*
G36*
X2291906Y782634D02*
Y779837D01*
X2292997Y774352D01*
X2295137Y769186D01*
X2298244Y764536D01*
X2302198Y760581D01*
X2306848Y757475D01*
X2312015Y755334D01*
X2317499Y754243D01*
X2320296D01*
X2323092D01*
X2328577Y755334D01*
X2333743Y757475D01*
X2338393Y760581D01*
X2342348Y764536D01*
X2345455Y769186D01*
X2347595Y774352D01*
X2348686Y779837D01*
Y782634D01*
Y785430D01*
X2347595Y790914D01*
X2345455Y796081D01*
X2342348Y800731D01*
X2338393Y804686D01*
X2333743Y807792D01*
X2328577Y809933D01*
X2323092Y811024D01*
X2320296D01*
X2317499D01*
X2312015Y809933D01*
X2306848Y807792D01*
X2302198Y804686D01*
X2298244Y800731D01*
X2295137Y796081D01*
X2292997Y790914D01*
X2291906Y785430D01*
Y782634D01*
D01*
D02*
G37*
G36*
X2394268D02*
Y779837D01*
X2395359Y774352D01*
X2397499Y769186D01*
X2400606Y764536D01*
X2404560Y760581D01*
X2409210Y757475D01*
X2414377Y755334D01*
X2419862Y754243D01*
X2422658D01*
X2425454D01*
X2430939Y755334D01*
X2436106Y757475D01*
X2440756Y760581D01*
X2444710Y764536D01*
X2447817Y769186D01*
X2449957Y774352D01*
X2451048Y779837D01*
Y782634D01*
Y785430D01*
X2449957Y790914D01*
X2447817Y796081D01*
X2444710Y800731D01*
X2440756Y804686D01*
X2436106Y807792D01*
X2430939Y809933D01*
X2425454Y811024D01*
X2422658D01*
X2419862D01*
X2414377Y809933D01*
X2409210Y807792D01*
X2404560Y804686D01*
X2400606Y800731D01*
X2397499Y796081D01*
X2395359Y790914D01*
X2394268Y785430D01*
Y782634D01*
D01*
D02*
G37*
G36*
X2291906Y715704D02*
Y712908D01*
X2292997Y707423D01*
X2295137Y702257D01*
X2298244Y697607D01*
X2302198Y693652D01*
X2306848Y690545D01*
X2312015Y688405D01*
X2317499Y687314D01*
X2320296D01*
X2323092D01*
X2328577Y688405D01*
X2333743Y690545D01*
X2338393Y693652D01*
X2342348Y697607D01*
X2345455Y702257D01*
X2347595Y707423D01*
X2348686Y712908D01*
Y715704D01*
Y718500D01*
X2347595Y723985D01*
X2345455Y729152D01*
X2342348Y733802D01*
X2338393Y737756D01*
X2333743Y740863D01*
X2328577Y743003D01*
X2323092Y744095D01*
X2320296D01*
X2317499D01*
X2312015Y743003D01*
X2306848Y740863D01*
X2302198Y737756D01*
X2298244Y733802D01*
X2295137Y729152D01*
X2292997Y723985D01*
X2291906Y718500D01*
Y715704D01*
D01*
D02*
G37*
G36*
X2394268D02*
Y712908D01*
X2395359Y707423D01*
X2397499Y702257D01*
X2400606Y697607D01*
X2404560Y693652D01*
X2409210Y690545D01*
X2414377Y688405D01*
X2419862Y687314D01*
X2422658D01*
X2425454D01*
X2430939Y688405D01*
X2436106Y690545D01*
X2440756Y693652D01*
X2444710Y697607D01*
X2447817Y702257D01*
X2449957Y707423D01*
X2451048Y712908D01*
Y715704D01*
Y718500D01*
X2449957Y723985D01*
X2447817Y729152D01*
X2444710Y733802D01*
X2440756Y737756D01*
X2436106Y740863D01*
X2430939Y743003D01*
X2425454Y744095D01*
X2422658D01*
X2419862D01*
X2414377Y743003D01*
X2409210Y740863D01*
X2404560Y737756D01*
X2400606Y733802D01*
X2397499Y729152D01*
X2395359Y723985D01*
X2394268Y718500D01*
Y715704D01*
D01*
D02*
G37*
G36*
X2291906Y648775D02*
Y645979D01*
X2292997Y640494D01*
X2295137Y635327D01*
X2298244Y630678D01*
X2302198Y626723D01*
X2306848Y623616D01*
X2312015Y621476D01*
X2317499Y620385D01*
X2320296D01*
X2323092D01*
X2328577Y621476D01*
X2333743Y623616D01*
X2338393Y626723D01*
X2342348Y630678D01*
X2345455Y635327D01*
X2347595Y640494D01*
X2348686Y645979D01*
Y648775D01*
Y651571D01*
X2347595Y657056D01*
X2345455Y662223D01*
X2342348Y666873D01*
X2338393Y670827D01*
X2333743Y673934D01*
X2328577Y676074D01*
X2323092Y677165D01*
X2320296D01*
X2317499D01*
X2312015Y676074D01*
X2306848Y673934D01*
X2302198Y670827D01*
X2298244Y666873D01*
X2295137Y662223D01*
X2292997Y657056D01*
X2291906Y651571D01*
Y648775D01*
D01*
D02*
G37*
G36*
X2394268D02*
Y645979D01*
X2395359Y640494D01*
X2397499Y635327D01*
X2400606Y630678D01*
X2404560Y626723D01*
X2409210Y623616D01*
X2414377Y621476D01*
X2419862Y620385D01*
X2422658D01*
X2425454D01*
X2430939Y621476D01*
X2436106Y623616D01*
X2440756Y626723D01*
X2444710Y630678D01*
X2447817Y635327D01*
X2449957Y640494D01*
X2451048Y645979D01*
Y648775D01*
Y651571D01*
X2449957Y657056D01*
X2447817Y662223D01*
X2444710Y666873D01*
X2440756Y670827D01*
X2436106Y673934D01*
X2430939Y676074D01*
X2425454Y677165D01*
X2422658D01*
X2419862D01*
X2414377Y676074D01*
X2409210Y673934D01*
X2404560Y670827D01*
X2400606Y666873D01*
X2397499Y662223D01*
X2395359Y657056D01*
X2394268Y651571D01*
Y648775D01*
D01*
D02*
G37*
G36*
X2291838Y583624D02*
Y580828D01*
X2292929Y575343D01*
X2295069Y570176D01*
X2298176Y565526D01*
X2302130Y561572D01*
X2306780Y558465D01*
X2311947Y556325D01*
X2317432Y555234D01*
X2320228D01*
X2323024D01*
X2328509Y556325D01*
X2333675Y558465D01*
X2338325Y561572D01*
X2342280Y565526D01*
X2345387Y570176D01*
X2347527Y575343D01*
X2348618Y580828D01*
Y583624D01*
Y586420D01*
X2347527Y591905D01*
X2345387Y597072D01*
X2342280Y601721D01*
X2338325Y605676D01*
X2333675Y608783D01*
X2328509Y610923D01*
X2323024Y612014D01*
X2320228D01*
X2317432D01*
X2311947Y610923D01*
X2306780Y608783D01*
X2302130Y605676D01*
X2298176Y601721D01*
X2295069Y597072D01*
X2292929Y591905D01*
X2291838Y586420D01*
Y583624D01*
D01*
D02*
G37*
G36*
X2394200D02*
Y580828D01*
X2395291Y575343D01*
X2397431Y570176D01*
X2400538Y565526D01*
X2404492Y561572D01*
X2409142Y558465D01*
X2414309Y556325D01*
X2419794Y555234D01*
X2422590D01*
X2425386D01*
X2430871Y556325D01*
X2436038Y558465D01*
X2440688Y561572D01*
X2444642Y565526D01*
X2447749Y570176D01*
X2449889Y575343D01*
X2450980Y580828D01*
Y583624D01*
Y586420D01*
X2449889Y591905D01*
X2447749Y597072D01*
X2444642Y601721D01*
X2440688Y605676D01*
X2436038Y608783D01*
X2430871Y610923D01*
X2425386Y612014D01*
X2422590D01*
X2419794D01*
X2414309Y610923D01*
X2409142Y608783D01*
X2404492Y605676D01*
X2400538Y601721D01*
X2397431Y597072D01*
X2395291Y591905D01*
X2394200Y586420D01*
Y583624D01*
D01*
D02*
G37*
G36*
X2291454Y517078D02*
Y514282D01*
X2292545Y508797D01*
X2294685Y503630D01*
X2297792Y498980D01*
X2301747Y495026D01*
X2306397Y491919D01*
X2311563Y489779D01*
X2317048Y488688D01*
X2319844D01*
X2322640D01*
X2328125Y489779D01*
X2333292Y491919D01*
X2337942Y495026D01*
X2341896Y498980D01*
X2345003Y503630D01*
X2347143Y508797D01*
X2348235Y514282D01*
Y517078D01*
Y519874D01*
X2347143Y525359D01*
X2345003Y530526D01*
X2341896Y535176D01*
X2337942Y539130D01*
X2333292Y542237D01*
X2328125Y544377D01*
X2322640Y545468D01*
X2319844D01*
X2317048D01*
X2311563Y544377D01*
X2306397Y542237D01*
X2301747Y539130D01*
X2297792Y535176D01*
X2294685Y530526D01*
X2292545Y525359D01*
X2291454Y519874D01*
Y517078D01*
D01*
D02*
G37*
G36*
X2393816D02*
Y514282D01*
X2394907Y508797D01*
X2397048Y503630D01*
X2400155Y498980D01*
X2404109Y495026D01*
X2408759Y491919D01*
X2413925Y489779D01*
X2419410Y488688D01*
X2422207D01*
X2425003D01*
X2430488Y489779D01*
X2435654Y491919D01*
X2440304Y495026D01*
X2444259Y498980D01*
X2447365Y503630D01*
X2449506Y508797D01*
X2450597Y514282D01*
Y517078D01*
Y519874D01*
X2449506Y525359D01*
X2447365Y530526D01*
X2444259Y535176D01*
X2440304Y539130D01*
X2435654Y542237D01*
X2430488Y544377D01*
X2425003Y545468D01*
X2422207D01*
X2419410D01*
X2413925Y544377D01*
X2408759Y542237D01*
X2404109Y539130D01*
X2400155Y535176D01*
X2397048Y530526D01*
X2394907Y525359D01*
X2393816Y519874D01*
Y517078D01*
D01*
D02*
G37*
G36*
X5212599Y913386D02*
Y910590D01*
X5213690Y905105D01*
X5215830Y899938D01*
X5218936Y895288D01*
X5222891Y891334D01*
X5227541Y888227D01*
X5232708Y886087D01*
X5238192Y884996D01*
X5240989D01*
X5243785D01*
X5249270Y886087D01*
X5254436Y888227D01*
X5259086Y891334D01*
X5263041Y895288D01*
X5266148Y899938D01*
X5268288Y905105D01*
X5269379Y910590D01*
Y913386D01*
Y916182D01*
X5268288Y921667D01*
X5266148Y926833D01*
X5263041Y931483D01*
X5259086Y935438D01*
X5254436Y938545D01*
X5249270Y940685D01*
X5243785Y941776D01*
X5240989D01*
X5238192D01*
X5232708Y940685D01*
X5227541Y938545D01*
X5222891Y935438D01*
X5218936Y931483D01*
X5215830Y926833D01*
X5213690Y921667D01*
X5212599Y916182D01*
Y913386D01*
D01*
D02*
G37*
G36*
Y846457D02*
Y843660D01*
X5213690Y838176D01*
X5215830Y833009D01*
X5218936Y828359D01*
X5222891Y824405D01*
X5227541Y821298D01*
X5232708Y819158D01*
X5238192Y818067D01*
X5240989D01*
X5243785D01*
X5249270Y819158D01*
X5254436Y821298D01*
X5259086Y824405D01*
X5263041Y828359D01*
X5266148Y833009D01*
X5268288Y838176D01*
X5269379Y843660D01*
Y846457D01*
Y849253D01*
X5268288Y854738D01*
X5266148Y859904D01*
X5263041Y864554D01*
X5259086Y868509D01*
X5254436Y871616D01*
X5249270Y873756D01*
X5243785Y874847D01*
X5240989D01*
X5238192D01*
X5232708Y873756D01*
X5227541Y871616D01*
X5222891Y868509D01*
X5218936Y864554D01*
X5215830Y859904D01*
X5213690Y854738D01*
X5212599Y849253D01*
Y846457D01*
D01*
D02*
G37*
G36*
X5213166Y778697D02*
Y775900D01*
X5214257Y770415D01*
X5216397Y765249D01*
X5219503Y760599D01*
X5223458Y756644D01*
X5228108Y753538D01*
X5233275Y751397D01*
X5238759Y750306D01*
X5241556D01*
X5244352D01*
X5249837Y751397D01*
X5255003Y753538D01*
X5259653Y756644D01*
X5263608Y760599D01*
X5266715Y765249D01*
X5268855Y770415D01*
X5269946Y775900D01*
Y778697D01*
Y781493D01*
X5268855Y786977D01*
X5266715Y792144D01*
X5263608Y796794D01*
X5259653Y800749D01*
X5255003Y803855D01*
X5249837Y805995D01*
X5244352Y807087D01*
X5241556D01*
X5238759D01*
X5233275Y805995D01*
X5228108Y803855D01*
X5223458Y800749D01*
X5219503Y796794D01*
X5216397Y792144D01*
X5214257Y786977D01*
X5213166Y781493D01*
Y778697D01*
D01*
D02*
G37*
G36*
Y711767D02*
Y708971D01*
X5214257Y703486D01*
X5216397Y698320D01*
X5219503Y693670D01*
X5223458Y689715D01*
X5228108Y686608D01*
X5233275Y684468D01*
X5238759Y683377D01*
X5241556D01*
X5244352D01*
X5249837Y684468D01*
X5255003Y686608D01*
X5259653Y689715D01*
X5263608Y693670D01*
X5266715Y698320D01*
X5268855Y703486D01*
X5269946Y708971D01*
Y711767D01*
Y714563D01*
X5268855Y720048D01*
X5266715Y725215D01*
X5263608Y729865D01*
X5259653Y733819D01*
X5255003Y736926D01*
X5249837Y739066D01*
X5244352Y740158D01*
X5241556D01*
X5238759D01*
X5233275Y739066D01*
X5228108Y736926D01*
X5223458Y733819D01*
X5219503Y729865D01*
X5216397Y725215D01*
X5214257Y720048D01*
X5213166Y714563D01*
Y711767D01*
D01*
D02*
G37*
G36*
Y644838D02*
Y642042D01*
X5214257Y636557D01*
X5216397Y631390D01*
X5219503Y626741D01*
X5223458Y622786D01*
X5228108Y619679D01*
X5233275Y617539D01*
X5238759Y616448D01*
X5241556D01*
X5244352D01*
X5249837Y617539D01*
X5255003Y619679D01*
X5259653Y622786D01*
X5263608Y626741D01*
X5266715Y631390D01*
X5268855Y636557D01*
X5269946Y642042D01*
Y644838D01*
Y647634D01*
X5268855Y653119D01*
X5266715Y658286D01*
X5263608Y662936D01*
X5259653Y666890D01*
X5255003Y669997D01*
X5249837Y672137D01*
X5244352Y673228D01*
X5241556D01*
X5238759D01*
X5233275Y672137D01*
X5228108Y669997D01*
X5223458Y666890D01*
X5219503Y662936D01*
X5216397Y658286D01*
X5214257Y653119D01*
X5213166Y647634D01*
Y644838D01*
D01*
D02*
G37*
G36*
X5213098Y579687D02*
Y576891D01*
X5214189Y571406D01*
X5216329Y566239D01*
X5219436Y561589D01*
X5223390Y557635D01*
X5228040Y554528D01*
X5233207Y552388D01*
X5238691Y551297D01*
X5241488D01*
X5244284D01*
X5249769Y552388D01*
X5254935Y554528D01*
X5259585Y557635D01*
X5263540Y561589D01*
X5266647Y566239D01*
X5268787Y571406D01*
X5269878Y576891D01*
Y579687D01*
Y582483D01*
X5268787Y587968D01*
X5266647Y593135D01*
X5263540Y597784D01*
X5259585Y601739D01*
X5254935Y604846D01*
X5249769Y606986D01*
X5244284Y608077D01*
X5241488D01*
X5238691D01*
X5233207Y606986D01*
X5228040Y604846D01*
X5223390Y601739D01*
X5219436Y597784D01*
X5216329Y593135D01*
X5214189Y587968D01*
X5213098Y582483D01*
Y579687D01*
D01*
D02*
G37*
G36*
X5212714Y513141D02*
Y510345D01*
X5213805Y504860D01*
X5215945Y499693D01*
X5219052Y495043D01*
X5223007Y491089D01*
X5227657Y487982D01*
X5232823Y485842D01*
X5238308Y484751D01*
X5241104D01*
X5243900D01*
X5249385Y485842D01*
X5254552Y487982D01*
X5259202Y491089D01*
X5263156Y495043D01*
X5266263Y499693D01*
X5268403Y504860D01*
X5269494Y510345D01*
Y513141D01*
Y515937D01*
X5268403Y521422D01*
X5266263Y526589D01*
X5263156Y531239D01*
X5259202Y535193D01*
X5254552Y538300D01*
X5249385Y540440D01*
X5243900Y541531D01*
X5241104D01*
X5238308D01*
X5232823Y540440D01*
X5227657Y538300D01*
X5223007Y535193D01*
X5219052Y531239D01*
X5215945Y526589D01*
X5213805Y521422D01*
X5212714Y515937D01*
Y513141D01*
D01*
D02*
G37*
G36*
X5315076D02*
Y510345D01*
X5316167Y504860D01*
X5318307Y499693D01*
X5321414Y495043D01*
X5325369Y491089D01*
X5330019Y487982D01*
X5335185Y485842D01*
X5340670Y484751D01*
X5343467D01*
X5346263D01*
X5351748Y485842D01*
X5356914Y487982D01*
X5361564Y491089D01*
X5365519Y495043D01*
X5368625Y499693D01*
X5370766Y504860D01*
X5371857Y510345D01*
Y513141D01*
Y515937D01*
X5370766Y521422D01*
X5368625Y526589D01*
X5365519Y531239D01*
X5361564Y535193D01*
X5356914Y538300D01*
X5351748Y540440D01*
X5346263Y541531D01*
X5343467D01*
X5340670D01*
X5335185Y540440D01*
X5330019Y538300D01*
X5325369Y535193D01*
X5321414Y531239D01*
X5318307Y526589D01*
X5316167Y521422D01*
X5315076Y515937D01*
Y513141D01*
D01*
D02*
G37*
G36*
X5315460Y579687D02*
Y576891D01*
X5316551Y571406D01*
X5318691Y566239D01*
X5321798Y561589D01*
X5325752Y557635D01*
X5330402Y554528D01*
X5335569Y552388D01*
X5341054Y551297D01*
X5343850D01*
X5346646D01*
X5352131Y552388D01*
X5357298Y554528D01*
X5361948Y557635D01*
X5365902Y561589D01*
X5369009Y566239D01*
X5371149Y571406D01*
X5372240Y576891D01*
Y579687D01*
Y582483D01*
X5371149Y587968D01*
X5369009Y593135D01*
X5365902Y597784D01*
X5361948Y601739D01*
X5357298Y604846D01*
X5352131Y606986D01*
X5346646Y608077D01*
X5343850D01*
X5341054D01*
X5335569Y606986D01*
X5330402Y604846D01*
X5325752Y601739D01*
X5321798Y597784D01*
X5318691Y593135D01*
X5316551Y587968D01*
X5315460Y582483D01*
Y579687D01*
D01*
D02*
G37*
G36*
X5315528Y644838D02*
Y642042D01*
X5316619Y636557D01*
X5318759Y631390D01*
X5321866Y626741D01*
X5325820Y622786D01*
X5330470Y619679D01*
X5335637Y617539D01*
X5341122Y616448D01*
X5343918D01*
X5346714D01*
X5352199Y617539D01*
X5357365Y619679D01*
X5362015Y622786D01*
X5365970Y626741D01*
X5369077Y631390D01*
X5371217Y636557D01*
X5372308Y642042D01*
Y644838D01*
Y647634D01*
X5371217Y653119D01*
X5369077Y658286D01*
X5365970Y662936D01*
X5362015Y666890D01*
X5357365Y669997D01*
X5352199Y672137D01*
X5346714Y673228D01*
X5343918D01*
X5341122D01*
X5335637Y672137D01*
X5330470Y669997D01*
X5325820Y666890D01*
X5321866Y662936D01*
X5318759Y658286D01*
X5316619Y653119D01*
X5315528Y647634D01*
Y644838D01*
D01*
D02*
G37*
G36*
Y711767D02*
Y708971D01*
X5316619Y703486D01*
X5318759Y698320D01*
X5321866Y693670D01*
X5325820Y689715D01*
X5330470Y686608D01*
X5335637Y684468D01*
X5341122Y683377D01*
X5343918D01*
X5346714D01*
X5352199Y684468D01*
X5357365Y686608D01*
X5362015Y689715D01*
X5365970Y693670D01*
X5369077Y698320D01*
X5371217Y703486D01*
X5372308Y708971D01*
Y711767D01*
Y714563D01*
X5371217Y720048D01*
X5369077Y725215D01*
X5365970Y729865D01*
X5362015Y733819D01*
X5357365Y736926D01*
X5352199Y739066D01*
X5346714Y740158D01*
X5343918D01*
X5341122D01*
X5335637Y739066D01*
X5330470Y736926D01*
X5325820Y733819D01*
X5321866Y729865D01*
X5318759Y725215D01*
X5316619Y720048D01*
X5315528Y714563D01*
Y711767D01*
D01*
D02*
G37*
G36*
Y778697D02*
Y775900D01*
X5316619Y770415D01*
X5318759Y765249D01*
X5321866Y760599D01*
X5325820Y756644D01*
X5330470Y753538D01*
X5335637Y751397D01*
X5341122Y750306D01*
X5343918D01*
X5346714D01*
X5352199Y751397D01*
X5357365Y753538D01*
X5362015Y756644D01*
X5365970Y760599D01*
X5369077Y765249D01*
X5371217Y770415D01*
X5372308Y775900D01*
Y778697D01*
Y781493D01*
X5371217Y786977D01*
X5369077Y792144D01*
X5365970Y796794D01*
X5362015Y800749D01*
X5357365Y803855D01*
X5352199Y805995D01*
X5346714Y807087D01*
X5343918D01*
X5341122D01*
X5335637Y805995D01*
X5330470Y803855D01*
X5325820Y800749D01*
X5321866Y796794D01*
X5318759Y792144D01*
X5316619Y786977D01*
X5315528Y781493D01*
Y778697D01*
D01*
D02*
G37*
G36*
X5314961Y846457D02*
Y843660D01*
X5316052Y838176D01*
X5318192Y833009D01*
X5321299Y828359D01*
X5325253Y824405D01*
X5329903Y821298D01*
X5335070Y819158D01*
X5340555Y818067D01*
X5343351D01*
X5346147D01*
X5351632Y819158D01*
X5356798Y821298D01*
X5361448Y824405D01*
X5365403Y828359D01*
X5368510Y833009D01*
X5370650Y838176D01*
X5371741Y843660D01*
Y846457D01*
Y849253D01*
X5370650Y854738D01*
X5368510Y859904D01*
X5365403Y864554D01*
X5361448Y868509D01*
X5356798Y871616D01*
X5351632Y873756D01*
X5346147Y874847D01*
X5343351D01*
X5340555D01*
X5335070Y873756D01*
X5329903Y871616D01*
X5325253Y868509D01*
X5321299Y864554D01*
X5318192Y859904D01*
X5316052Y854738D01*
X5314961Y849253D01*
Y846457D01*
D01*
D02*
G37*
G36*
Y913386D02*
Y910590D01*
X5316052Y905105D01*
X5318192Y899938D01*
X5321299Y895288D01*
X5325253Y891334D01*
X5329903Y888227D01*
X5335070Y886087D01*
X5340555Y884996D01*
X5343351D01*
X5346147D01*
X5351632Y886087D01*
X5356798Y888227D01*
X5361448Y891334D01*
X5365403Y895288D01*
X5368510Y899938D01*
X5370650Y905105D01*
X5371741Y910590D01*
Y913386D01*
Y916182D01*
X5370650Y921667D01*
X5368510Y926833D01*
X5365403Y931483D01*
X5361448Y935438D01*
X5356798Y938545D01*
X5351632Y940685D01*
X5346147Y941776D01*
X5343351D01*
X5340555D01*
X5335070Y940685D01*
X5329903Y938545D01*
X5325253Y935438D01*
X5321299Y931483D01*
X5318192Y926833D01*
X5316052Y921667D01*
X5314961Y916182D01*
Y913386D01*
D01*
D02*
G37*
G36*
X2804882Y361260D02*
X3356063D01*
Y912441D01*
X2804882D01*
Y361260D01*
D02*
G37*
G36*
Y1859685D02*
X3356063D01*
Y2410866D01*
X2804882D01*
Y1859685D01*
D02*
G37*
G36*
X4303307Y361260D02*
X4854488D01*
Y912441D01*
X4303307D01*
Y361260D01*
D02*
G37*
G36*
X4307087Y1842520D02*
X4858268D01*
Y2393701D01*
X4307087D01*
Y1842520D01*
D02*
G37*
G36*
X2804882Y1110472D02*
X3356063D01*
Y1661653D01*
X2804882D01*
Y1110472D01*
D02*
G37*
G36*
X4303307Y1110472D02*
X4854488D01*
Y1661653D01*
X4303307D01*
Y1110472D01*
D02*
G37*
G36*
X3554094Y361260D02*
X4105275D01*
Y912441D01*
X3554094D01*
Y361260D01*
D02*
G37*
G36*
Y1859685D02*
X4105275D01*
Y2410866D01*
X3554094D01*
Y1859685D01*
D02*
G37*
G36*
Y1110472D02*
X4105275D01*
Y1661653D01*
X3554094D01*
Y1110472D01*
D02*
G37*
D38*
X110433Y5000D02*
X2183189D01*
D02*
G03*
X2288465Y110276I-0J105276D01*
G01*
X2289488Y111299D01*
Y479370D01*
X2450433D01*
Y241654D01*
X2450866Y241221D01*
D02*
G03*
X2687087Y5000I236220J0D01*
G01*
Y5000D01*
X4974055Y5000D01*
Y5118D01*
D02*
G03*
X5210276Y241339I0J236220D01*
G01*
X5210433Y241496D01*
Y477047D01*
X5371732D01*
Y241378D01*
X5371890Y241221D01*
D02*
G03*
X5608110Y5000I236220J0D01*
G01*
Y5000D01*
X7895079Y5000D01*
Y5118D01*
D02*
G03*
X8131299Y241339I0J236220D01*
G01*
X8131181D01*
X8131181Y2530197D01*
X8130787D01*
D02*
G03*
X7894567Y2766418I-236220J0D01*
G01*
X5607756Y2766765D01*
Y2766929D01*
D02*
G03*
X5371535Y2530709I0J-236220D01*
G01*
X5371732D01*
X5371732Y948819D01*
X5210158D01*
X5210158Y2530197D01*
X5209764D01*
D02*
G03*
X4973543Y2766418I-236220J0D01*
G01*
X2686732Y2766765D01*
Y2766929D01*
D02*
G03*
X2450512Y2530709I0J-236220D01*
G01*
X2450709D01*
X2450709Y954291D01*
X2288622D01*
X2288622Y2382362D01*
X2288465D01*
D02*
G03*
X2185512Y2485315I-102953J-0D01*
G01*
Y2485315D01*
X110276D01*
D02*
G03*
X5000Y2380039I0J-105276D01*
G01*
X5000D01*
Y110433D01*
D02*
G03*
X110433Y5000I105433J0D01*
G01*
%TF.MD5,510b0acb8fbf2b17497aa09ed9c83679*%
M02*
