%TF.GenerationSoftware,Altium Limited,Altium Designer,20.1.12 (249)*%
G04 Layer_Physical_Order=2*
G04 Layer_Color=16711680*
%FSLAX26Y26*%
%MOIN*%
%TF.SameCoordinates,C6B7DB02-E56D-4098-84F2-B1512E134489*%
%TF.FilePolarity,Positive*%
%TF.FileFunction,Copper,L2,Bot,Signal*%
%TF.Part,Single*%
G01*
G75*
%TA.AperFunction,Conductor*%
%ADD10C,0.010000*%
%TA.AperFunction,ComponentPad*%
%ADD11C,0.062992*%
%ADD12R,0.062992X0.062992*%
%ADD13C,0.159449*%
%ADD14C,0.086614*%
%ADD15C,0.074803*%
%ADD16C,0.066929*%
%ADD17C,0.069016*%
%ADD18R,0.069016X0.069016*%
%ADD19C,0.055118*%
%ADD20R,0.062992X0.062992*%
%TA.AperFunction,ViaPad*%
%ADD21C,0.082677*%
%ADD22C,0.023622*%
D10*
X1744882Y1735169D02*
Y1972835D01*
Y1598063D02*
Y1735169D01*
X1448854Y1224174D02*
X1562677Y1337997D01*
Y1415859D01*
X1744882Y1598063D01*
X1004567Y956693D02*
X1537449D01*
X1582677Y1001921D02*
Y1381890D01*
X1702039Y1501252D01*
X1537449Y956693D02*
X1582677Y1001921D01*
X1702039Y1501252D02*
X1732275D01*
X1742677Y1511653D01*
X1302074Y527205D02*
X1515354D01*
X1083557Y532716D02*
X1100171Y516102D01*
X1290971D02*
X1302074Y527205D01*
X1515354D02*
X1519370Y523189D01*
X908395Y527205D02*
X913907Y532716D01*
X1083557D01*
X775984Y527205D02*
X908395D01*
X1100171Y516102D02*
X1290971D01*
X580787Y720079D02*
X747165Y553701D01*
X749488D01*
X775984Y527205D01*
X580787Y720079D02*
X664409Y803701D01*
Y1201732D01*
X618110Y1248032D02*
X664409Y1201732D01*
X708661Y744096D02*
Y1982953D01*
Y744096D02*
X724647Y728110D01*
X544606Y2147008D02*
X708661Y1982953D01*
X995787Y1830984D02*
X1311024Y1515748D01*
X995669Y1831102D02*
X995787Y1830984D01*
Y1222716D02*
Y1830984D01*
X995669Y1831102D02*
Y1972835D01*
X1125984Y1543307D02*
X1245118Y1424174D01*
X1448854D01*
X724647Y728110D02*
X775984D01*
X766246Y1506782D02*
Y2175692D01*
X544606Y2147008D02*
Y2247008D01*
X995787Y1222716D02*
X995905Y1222598D01*
X848854Y2124174D02*
X855822Y2131142D01*
X1355822D01*
X1448854Y2224174D01*
X848854Y2024174D02*
Y2124174D01*
X1762363D02*
X2048583Y2410394D01*
X1448854Y2124174D02*
X1762363D01*
X1635074Y2410394D02*
X1788740D01*
X1448854Y2224174D02*
X1635074Y2410394D01*
X2045433Y1515984D02*
X2049764Y1511653D01*
X2045433Y1515984D02*
Y2022284D01*
X1994882Y2072835D02*
X2045433Y2022284D01*
X2037716Y748189D02*
Y1280000D01*
X1995118Y1322598D02*
X2037716Y1280000D01*
X1519370Y216102D02*
X1604130D01*
X1742362Y354335D01*
Y355850D01*
X1946262Y559750D01*
X1980222D01*
X1994882Y574409D01*
X775984Y728110D02*
X1004567Y956693D01*
X273701Y720079D02*
X419370Y574409D01*
X496457D01*
X249606Y1479528D02*
X340551D01*
X496457Y1323622D01*
X1212740Y713779D02*
X1568110D01*
X1602520Y748189D01*
X1730630D01*
X1013071Y760276D02*
X1166244D01*
X1212740Y713779D01*
X1745118Y972177D02*
Y1222598D01*
Y972177D02*
X1777126Y940169D01*
Y524624D02*
Y940169D01*
X1744882Y492380D02*
X1777126Y524624D01*
X1744882Y474409D02*
Y492380D01*
Y1735169D02*
X1789173Y1690878D01*
Y1266654D02*
Y1690878D01*
X1745118Y1222598D02*
X1789173Y1266654D01*
X246457Y955411D02*
Y1223622D01*
X227205Y936159D02*
X246457Y955411D01*
X227205Y514393D02*
Y936159D01*
Y514393D02*
X246457Y495141D01*
Y474409D02*
Y495141D01*
Y1721789D02*
Y1972835D01*
X203110Y1678443D02*
X246457Y1721789D01*
X203110Y1266968D02*
Y1678443D01*
Y1266968D02*
X246457Y1223622D01*
X237520Y2247008D02*
X411693Y2072835D01*
X496457D01*
X544606Y2247008D02*
X694929D01*
X766246Y1506782D02*
X848854Y1424174D01*
X694929Y2247008D02*
X766246Y2175692D01*
D11*
X2049764Y1511653D02*
D03*
X2037716Y748189D02*
D03*
X1320158Y760276D02*
D03*
X273701Y720079D02*
D03*
X249606Y1479528D02*
D03*
X237520Y2247008D02*
D03*
X775984Y1035197D02*
D03*
Y220118D02*
D03*
X1519370Y216102D02*
D03*
D12*
X1742677Y1511653D02*
D03*
X1730630Y748189D02*
D03*
X1013071Y760276D02*
D03*
X580787Y720079D02*
D03*
X556693Y1479528D02*
D03*
X544606Y2247008D02*
D03*
D13*
X1895472Y375000D02*
D03*
X1146260D02*
D03*
X397047D02*
D03*
Y1124213D02*
D03*
X1146496Y1123189D02*
D03*
X1895709D02*
D03*
X1895472Y1873425D02*
D03*
X1146260D02*
D03*
X397047D02*
D03*
D14*
X1744882Y474409D02*
D03*
X1994882Y574409D02*
D03*
X995669Y474409D02*
D03*
X1245669Y574409D02*
D03*
X246457Y474409D02*
D03*
X496457Y574409D02*
D03*
X246457Y1223622D02*
D03*
X496457Y1323622D02*
D03*
X995905Y1222598D02*
D03*
X1245906Y1322598D02*
D03*
X1745118Y1222598D02*
D03*
X1995118Y1322598D02*
D03*
X1744882Y1972835D02*
D03*
X1994882Y2072835D02*
D03*
X995669Y1972835D02*
D03*
X1245669Y2072835D02*
D03*
X246457Y1972835D02*
D03*
X496457Y2072835D02*
D03*
D15*
X1676968Y374409D02*
D03*
X2110433D02*
D03*
X927756D02*
D03*
X1361220D02*
D03*
X178543D02*
D03*
X612008D02*
D03*
X178543Y1123622D02*
D03*
X612008D02*
D03*
X927992Y1122598D02*
D03*
X1361457D02*
D03*
X1677205D02*
D03*
X2110669D02*
D03*
X1676968Y1872835D02*
D03*
X2110433D02*
D03*
X927756D02*
D03*
X1361220D02*
D03*
X178543D02*
D03*
X612008D02*
D03*
D16*
X1693898Y374409D02*
D03*
X2093898D02*
D03*
X944685D02*
D03*
X1344685D02*
D03*
X195472D02*
D03*
X595472D02*
D03*
X195472Y1123622D02*
D03*
X595472D02*
D03*
X944921Y1122598D02*
D03*
X1344921D02*
D03*
X1694134D02*
D03*
X2094134D02*
D03*
X1693898Y1872835D02*
D03*
X2093898D02*
D03*
X944685D02*
D03*
X1344685D02*
D03*
X195472D02*
D03*
X595472D02*
D03*
D17*
X1448854Y2124174D02*
D03*
Y1324174D02*
D03*
Y1724174D02*
D03*
Y1224174D02*
D03*
Y1524174D02*
D03*
Y1424174D02*
D03*
Y1924174D02*
D03*
Y1824174D02*
D03*
Y2224174D02*
D03*
Y2024174D02*
D03*
Y2324174D02*
D03*
Y1624174D02*
D03*
X848854Y1324174D02*
D03*
Y1724174D02*
D03*
Y2124174D02*
D03*
Y1224174D02*
D03*
Y1524174D02*
D03*
Y1424174D02*
D03*
Y1924174D02*
D03*
Y1824174D02*
D03*
Y2024174D02*
D03*
Y2224174D02*
D03*
Y1624174D02*
D03*
D18*
Y2324174D02*
D03*
D19*
X1788740Y2229291D02*
D03*
Y2410394D02*
D03*
X2048583Y2229291D02*
D03*
Y2410394D02*
D03*
D20*
X775984Y728110D02*
D03*
Y527205D02*
D03*
X1519370Y523189D02*
D03*
D21*
X5543110Y2590551D02*
D03*
Y177165D02*
D03*
X7956496Y2590551D02*
D03*
D03*
D03*
Y177165D02*
D03*
X5035433D02*
D03*
Y2590551D02*
D03*
D03*
D03*
X2622047Y177165D02*
D03*
Y2590551D02*
D03*
D22*
X618110Y1248032D02*
D03*
X1311024Y1515748D02*
D03*
X1125984Y1543307D02*
D03*
%TF.MD5,aea20c2a2e561c321fca07d27ae00758*%
M02*
