%TF.GenerationSoftware,Altium Limited,Altium Designer,20.1.12 (249)*%
G04 Layer_Physical_Order=1*
G04 Layer_Color=255*
%FSLAX26Y26*%
%MOIN*%
%TF.SameCoordinates,D75832AC-A100-412D-90FB-EBA7F01B91C8*%
%TF.FilePolarity,Positive*%
%TF.FileFunction,Copper,L1,Top,Signal*%
%TF.Part,Single*%
G01*
G75*
%TA.AperFunction,Conductor*%
%ADD10C,0.010000*%
%TA.AperFunction,ComponentPad*%
%ADD11C,0.159449*%
%ADD12C,0.074803*%
%ADD13C,0.066929*%
%ADD14C,0.086614*%
%ADD15C,0.069016*%
%ADD16R,0.069016X0.069016*%
%ADD17C,0.055118*%
%TA.AperFunction,ViaPad*%
%ADD18C,0.023622*%
G36*
X5782598Y8184882D02*
D01*
D02*
G37*
D10*
X1517716Y2879134D02*
Y3002016D01*
X2055943Y3050038D02*
X2112598Y3106693D01*
X1565738Y3050038D02*
X2055943D01*
X1517716Y3002016D02*
X1565738Y3050038D01*
X1387795Y2749213D02*
X1517716Y2879134D01*
X1068898Y2048228D02*
Y2068110D01*
X787795Y2349213D02*
X1068898Y2068110D01*
X976332Y2018701D02*
X1086614D01*
X945821Y2049213D02*
X976332Y2018701D01*
X1086614D02*
X1205610Y1899705D01*
X995689Y1874433D02*
Y1956317D01*
X937382Y1816126D02*
X995689Y1874433D01*
X937382Y1182953D02*
Y1816126D01*
X768273Y1998720D02*
X953285D01*
X995689Y1956317D01*
X1205610Y1899705D02*
X1407318D01*
X787795Y2049213D02*
X945821D01*
X738287Y2028706D02*
X768273Y1998720D01*
X989173Y1639742D02*
Y1700787D01*
Y1639742D02*
X2195175Y433740D01*
X2435807D01*
X708661Y1870079D02*
X787795Y1949213D01*
X708661Y1091535D02*
Y1870079D01*
X738287Y2099705D02*
X787795Y2149213D01*
X738287Y2028706D02*
Y2099705D01*
X1759842Y1461614D02*
Y1547180D01*
X1407318Y1899705D02*
X1759842Y1547180D01*
X787795Y2849213D02*
X881102Y2755905D01*
X1053150D01*
D11*
X1087382Y1832165D02*
D03*
X1836594Y2581378D02*
D03*
X1087389Y2581381D02*
D03*
X338169Y333740D02*
D03*
X1087382D02*
D03*
X1836594Y333740D02*
D03*
X2585807D02*
D03*
X1836605Y1082953D02*
D03*
X338169D02*
D03*
X1087382D02*
D03*
X2585807Y1082953D02*
D03*
X338169Y1832165D02*
D03*
X1836605D02*
D03*
X2585807Y1832165D02*
D03*
X338176Y2581381D02*
D03*
X2585807Y2581378D02*
D03*
D12*
X1303917Y1832165D02*
D03*
X870846D02*
D03*
X2053130Y2581378D02*
D03*
X1620059D02*
D03*
X1303925Y2581381D02*
D03*
X870854D02*
D03*
X554705Y333740D02*
D03*
X121634D02*
D03*
X1303917D02*
D03*
X870846D02*
D03*
X2053130Y333740D02*
D03*
X1620059D02*
D03*
X2802343D02*
D03*
X2369272D02*
D03*
X2053140Y1082953D02*
D03*
X1620070D02*
D03*
X554705D02*
D03*
X121634D02*
D03*
X1303918D02*
D03*
X870846D02*
D03*
X2802343Y1082953D02*
D03*
X2369272D02*
D03*
X554705Y1832165D02*
D03*
X121634D02*
D03*
X2053140D02*
D03*
X1620069D02*
D03*
X2802343Y1832165D02*
D03*
X2369272D02*
D03*
X554712Y2581381D02*
D03*
X121641D02*
D03*
X2802343Y2581378D02*
D03*
X2369272D02*
D03*
D13*
X1287382Y1832165D02*
D03*
X887382D02*
D03*
X2036594Y2581378D02*
D03*
X1636594D02*
D03*
X1287389Y2581381D02*
D03*
X887389D02*
D03*
X538169Y333740D02*
D03*
X138169D02*
D03*
X1287382D02*
D03*
X887382D02*
D03*
X2036594Y333740D02*
D03*
X1636594D02*
D03*
X2785807D02*
D03*
X2385807D02*
D03*
X2036605Y1082953D02*
D03*
X1636605D02*
D03*
X538169D02*
D03*
X138169D02*
D03*
X1287382D02*
D03*
X887382D02*
D03*
X2785807Y1082953D02*
D03*
X2385807D02*
D03*
X538169Y1832165D02*
D03*
X138169D02*
D03*
X2036605D02*
D03*
X1636605D02*
D03*
X2785807Y1832165D02*
D03*
X2385807D02*
D03*
X538176Y2581381D02*
D03*
X138176D02*
D03*
X2785807Y2581378D02*
D03*
X2385807D02*
D03*
D14*
X1187382Y2032165D02*
D03*
X937382Y1932165D02*
D03*
X1936594Y2781378D02*
D03*
X1686594Y2681378D02*
D03*
X1187389Y2781381D02*
D03*
X937389Y2681381D02*
D03*
X438169Y533740D02*
D03*
X188169Y433740D02*
D03*
X1187382Y533740D02*
D03*
X937382Y433740D02*
D03*
X1936594Y533740D02*
D03*
X1686594Y433740D02*
D03*
X2685807Y533740D02*
D03*
X2435807Y433740D02*
D03*
X1936605Y1282953D02*
D03*
X1686605Y1182953D02*
D03*
X438169Y1282953D02*
D03*
X188169Y1182953D02*
D03*
X1187382Y1282953D02*
D03*
X937382Y1182953D02*
D03*
X2685807Y1282953D02*
D03*
X2435807Y1182953D02*
D03*
X438169Y2032165D02*
D03*
X188169Y1932165D02*
D03*
X1936605Y2032165D02*
D03*
X1686605Y1932165D02*
D03*
X2685807Y2032165D02*
D03*
X2435807Y1932165D02*
D03*
X438176Y2781381D02*
D03*
X188176Y2681381D02*
D03*
X2685807Y2781378D02*
D03*
X2435807Y2681378D02*
D03*
D15*
X787795Y2249213D02*
D03*
Y2849213D02*
D03*
Y2649213D02*
D03*
Y2449213D02*
D03*
Y2549213D02*
D03*
Y2049213D02*
D03*
Y2149213D02*
D03*
Y1849213D02*
D03*
Y2749213D02*
D03*
Y2349213D02*
D03*
Y1949213D02*
D03*
X1387795Y2249213D02*
D03*
Y2949213D02*
D03*
Y2649213D02*
D03*
Y2849213D02*
D03*
Y2449213D02*
D03*
Y2549213D02*
D03*
Y2049213D02*
D03*
Y2149213D02*
D03*
Y1849213D02*
D03*
Y2349213D02*
D03*
Y1949213D02*
D03*
Y2749213D02*
D03*
D16*
X787795Y2949213D02*
D03*
D17*
X2112598Y3106693D02*
D03*
Y2925591D02*
D03*
X1852756Y3106693D02*
D03*
Y2925591D02*
D03*
D18*
X1068898Y2048228D02*
D03*
X989173Y1700787D02*
D03*
X708661Y1091535D02*
D03*
X1759842Y1461614D02*
D03*
X1053150Y2755905D02*
D03*
%TF.MD5,c94ea0d12c746c26b4190a4fac4b432e*%
M02*
