%TF.GenerationSoftware,Altium Limited,Altium Designer,20.1.12 (249)*%
G04 Layer_Color=32896*
%FSLAX26Y26*%
%MOIN*%
%TF.SameCoordinates,D75832AC-A100-412D-90FB-EBA7F01B91C8*%
%TF.FilePolarity,Positive*%
%TF.FileFunction,Legend,Bot*%
%TF.Part,Single*%
G01*
G75*
%TA.AperFunction,NonConductor*%
%ADD19C,0.010000*%
%ADD20C,0.007874*%
%ADD21C,0.005906*%
D19*
X1257795Y3099213D02*
X1437795D01*
X739173Y1799213D02*
X1437795D01*
X739173Y3099213D02*
X907795D01*
X1005295Y3089213D02*
X1160295D01*
X739173Y1799213D02*
X739173Y3099213D01*
X1437795Y1799213D02*
X1437795Y3099213D01*
X1160295Y3089213D02*
X1170295Y3099213D01*
X1257795D01*
X995295D02*
X1005295Y3089213D01*
X907795Y3099213D02*
X995295D01*
X739173Y2997441D02*
X835630D01*
Y2901969D02*
Y2997441D01*
X740158Y2901969D02*
X835630D01*
X2213848Y3035348D02*
X2223845Y3045345D01*
X2243839D01*
X2253836Y3035348D01*
Y3025351D01*
X2243839Y3015354D01*
X2223845D01*
X2213848Y3005358D01*
Y2995361D01*
X2223845Y2985364D01*
X2243839D01*
X2253836Y2995361D01*
X2193855Y3045345D02*
Y2985364D01*
X2173861Y3005358D01*
X2153868Y2985364D01*
Y3045345D01*
X2133874Y2985364D02*
X2113881D01*
X2123878D01*
Y3045345D01*
X2133874Y3035348D01*
X704554Y3073297D02*
Y3023314D01*
X694557Y3013317D01*
X674564D01*
X664567Y3023314D01*
Y3073297D01*
X644573Y3013317D02*
X624580D01*
X634577D01*
Y3073297D01*
X644573Y3063301D01*
D20*
X1888189Y2898032D02*
Y3134252D01*
Y2898032D02*
X2077165D01*
Y3134252D01*
X1943307Y3126378D02*
X2022047D01*
X1935433Y3134252D02*
X1943307Y3126378D01*
X1888189Y3134252D02*
X1935433D01*
X2022047Y3126378D02*
X2029921Y3134252D01*
X2077165D01*
D21*
X1503937Y2364560D02*
Y2333071D01*
Y2364560D02*
X1484444D01*
X1503937Y2349565D02*
X1491941D01*
X1462851Y2360062D02*
X1464351Y2363061D01*
X1468849Y2364560D01*
X1471848D01*
X1476346Y2363061D01*
X1479345Y2358562D01*
X1480845Y2351065D01*
Y2343567D01*
X1479345Y2337569D01*
X1476346Y2334570D01*
X1471848Y2333071D01*
X1470348D01*
X1465850Y2334570D01*
X1462851Y2337569D01*
X1461351Y2342068D01*
Y2343567D01*
X1462851Y2348066D01*
X1465850Y2351065D01*
X1470348Y2352564D01*
X1471848D01*
X1476346Y2351065D01*
X1479345Y2348066D01*
X1480845Y2343567D01*
X690106Y2754700D02*
X691606Y2757700D01*
X694605Y2760698D01*
X697604Y2762198D01*
X703602D01*
X706601Y2760698D01*
X709600Y2757700D01*
X711099Y2754700D01*
X712599Y2750202D01*
Y2742704D01*
X711099Y2738206D01*
X709600Y2735207D01*
X706601Y2732208D01*
X703602Y2730709D01*
X697604D01*
X694605Y2732208D01*
X691606Y2735207D01*
X690106Y2738206D01*
Y2742704D01*
X697604D02*
X690106D01*
X682909Y2762198D02*
Y2730709D01*
Y2762198D02*
X661916Y2730709D01*
Y2762198D02*
Y2730709D01*
X653219Y2762198D02*
Y2730709D01*
Y2762198D02*
X642722D01*
X638224Y2760698D01*
X635225Y2757700D01*
X633726Y2754700D01*
X632226Y2750202D01*
Y2742704D01*
X633726Y2738206D01*
X635225Y2735207D01*
X638224Y2732208D01*
X642722Y2730709D01*
X653219D01*
X1551181Y2962985D02*
Y2931496D01*
Y2962985D02*
X1537686D01*
X1533187Y2961486D01*
X1531688Y2959986D01*
X1530188Y2956987D01*
Y2953988D01*
X1531688Y2950989D01*
X1533187Y2949490D01*
X1537686Y2947990D01*
X1551181D01*
X1540685D02*
X1530188Y2931496D01*
X1499149D02*
X1511145Y2962985D01*
X1523141Y2931496D01*
X1518642Y2941992D02*
X1503647D01*
X1491801Y2962985D02*
X1484304Y2931496D01*
X1476806Y2962985D02*
X1484304Y2931496D01*
X1476806Y2962985D02*
X1469309Y2931496D01*
X1461811Y2962985D02*
X1469309Y2931496D01*
X1520815Y2857063D02*
X1522314Y2860062D01*
X1525313Y2863061D01*
X1528312Y2864560D01*
X1534310D01*
X1537309Y2863061D01*
X1540308Y2860062D01*
X1541808Y2857063D01*
X1543307Y2852564D01*
Y2845067D01*
X1541808Y2840568D01*
X1540308Y2837569D01*
X1537309Y2834570D01*
X1534310Y2833071D01*
X1528312D01*
X1525313Y2834570D01*
X1522314Y2837569D01*
X1520815Y2840568D01*
Y2845067D01*
X1528312D02*
X1520815D01*
X1513617Y2864560D02*
Y2833071D01*
Y2864560D02*
X1492624Y2833071D01*
Y2864560D02*
Y2833071D01*
X1483927Y2864560D02*
Y2833071D01*
Y2864560D02*
X1473431D01*
X1468932Y2863061D01*
X1465933Y2860062D01*
X1464434Y2857063D01*
X1462934Y2852564D01*
Y2845067D01*
X1464434Y2840568D01*
X1465933Y2837569D01*
X1468932Y2834570D01*
X1473431Y2833071D01*
X1483927D01*
X1539370Y2762198D02*
Y2730709D01*
Y2762198D02*
X1525875D01*
X1521376Y2760698D01*
X1519877Y2759199D01*
X1518377Y2756200D01*
Y2753201D01*
X1519877Y2750202D01*
X1521376Y2748702D01*
X1525875Y2747203D01*
X1539370D01*
X1528874D02*
X1518377Y2730709D01*
X1490337Y2757700D02*
X1493336Y2760698D01*
X1497834Y2762198D01*
X1503832D01*
X1508331Y2760698D01*
X1511330Y2757700D01*
Y2754700D01*
X1509830Y2751702D01*
X1508331Y2750202D01*
X1505332Y2748702D01*
X1496335Y2745704D01*
X1493336Y2744204D01*
X1491836Y2742704D01*
X1490337Y2739706D01*
Y2735207D01*
X1493336Y2732208D01*
X1497834Y2730709D01*
X1503832D01*
X1508331Y2732208D01*
X1511330Y2735207D01*
X1472793Y2762198D02*
Y2730709D01*
X1483289Y2762198D02*
X1462296D01*
X1547244Y2671647D02*
X1535248Y2640157D01*
X1523252Y2671647D02*
X1535248Y2640157D01*
X1496711Y2664149D02*
X1498211Y2667148D01*
X1501210Y2670147D01*
X1504209Y2671647D01*
X1510207D01*
X1513206Y2670147D01*
X1516205Y2667148D01*
X1517704Y2664149D01*
X1519204Y2659651D01*
Y2652153D01*
X1517704Y2647655D01*
X1516205Y2644656D01*
X1513206Y2641657D01*
X1510207Y2640157D01*
X1504209D01*
X1501210Y2641657D01*
X1498211Y2644656D01*
X1496711Y2647655D01*
X1465372Y2664149D02*
X1466871Y2667148D01*
X1469870Y2670147D01*
X1472869Y2671647D01*
X1478867D01*
X1481866Y2670147D01*
X1484865Y2667148D01*
X1486365Y2664149D01*
X1487864Y2659651D01*
Y2652153D01*
X1486365Y2647655D01*
X1484865Y2644656D01*
X1481866Y2641657D01*
X1478867Y2640157D01*
X1472869D01*
X1469870Y2641657D01*
X1466871Y2644656D01*
X1465372Y2647655D01*
X1507874Y2565348D02*
Y2533858D01*
Y2565348D02*
X1488381D01*
X1507874Y2550353D02*
X1495878D01*
X1469787Y2565348D02*
X1484782Y2544355D01*
X1462290D01*
X1469787Y2565348D02*
Y2533858D01*
X1507874Y2462985D02*
Y2431496D01*
Y2462985D02*
X1488381D01*
X1507874Y2447990D02*
X1495878D01*
X1466788Y2462985D02*
X1481783D01*
X1483282Y2449490D01*
X1481783Y2450989D01*
X1477284Y2452489D01*
X1472786D01*
X1468287Y2450989D01*
X1465289Y2447990D01*
X1463789Y2443492D01*
Y2440493D01*
X1465289Y2435994D01*
X1468287Y2432995D01*
X1472786Y2431496D01*
X1477284D01*
X1481783Y2432995D01*
X1483282Y2434495D01*
X1484782Y2437494D01*
X1507874Y2262198D02*
Y2230709D01*
Y2262198D02*
X1488381D01*
X1507874Y2247203D02*
X1495878D01*
X1463789Y2262198D02*
X1478784Y2230709D01*
X1484782Y2262198D02*
X1463789D01*
X1500000Y2163773D02*
Y2132283D01*
Y2163773D02*
X1486505D01*
X1482006Y2162273D01*
X1480507Y2160774D01*
X1479007Y2157775D01*
Y2154776D01*
X1480507Y2151777D01*
X1482006Y2150277D01*
X1486505Y2148778D01*
X1500000D02*
X1486505D01*
X1482006Y2147278D01*
X1480507Y2145779D01*
X1479007Y2142780D01*
Y2138281D01*
X1480507Y2135282D01*
X1482006Y2133783D01*
X1486505Y2132283D01*
X1500000D01*
X1471960Y2157775D02*
X1468961Y2159274D01*
X1464462Y2163773D01*
Y2132283D01*
X1511811Y2061410D02*
Y2029921D01*
Y2061410D02*
X1498316D01*
X1493817Y2059911D01*
X1492318Y2058412D01*
X1490818Y2055412D01*
Y2052414D01*
X1492318Y2049414D01*
X1493817Y2047915D01*
X1498316Y2046416D01*
X1511811D02*
X1498316D01*
X1493817Y2044916D01*
X1492318Y2043417D01*
X1490818Y2040418D01*
Y2035919D01*
X1492318Y2032920D01*
X1493817Y2031421D01*
X1498316Y2029921D01*
X1511811D01*
X1480772Y2061410D02*
X1464277D01*
X1473274Y2049414D01*
X1468776D01*
X1465777Y2047915D01*
X1464277Y2046416D01*
X1462778Y2041917D01*
Y2038918D01*
X1464277Y2034420D01*
X1467276Y2031421D01*
X1471775Y2029921D01*
X1476273D01*
X1480772Y2031421D01*
X1482271Y2032920D01*
X1483771Y2035919D01*
X1511811Y1962985D02*
Y1931496D01*
Y1962985D02*
X1498316D01*
X1493817Y1961486D01*
X1492318Y1959986D01*
X1490818Y1956987D01*
Y1953988D01*
X1492318Y1950989D01*
X1493817Y1949490D01*
X1498316Y1947990D01*
X1511811D02*
X1498316D01*
X1493817Y1946491D01*
X1492318Y1944991D01*
X1490818Y1941993D01*
Y1937494D01*
X1492318Y1934495D01*
X1493817Y1932995D01*
X1498316Y1931496D01*
X1511811D01*
X1482271Y1955488D02*
Y1956987D01*
X1480772Y1959986D01*
X1479272Y1961486D01*
X1476273Y1962985D01*
X1470275D01*
X1467276Y1961486D01*
X1465777Y1959986D01*
X1464277Y1956987D01*
Y1953988D01*
X1465777Y1950989D01*
X1468776Y1946491D01*
X1483771Y1931496D01*
X1462778D01*
X1511811Y1864560D02*
Y1833071D01*
Y1864560D02*
X1498316D01*
X1493817Y1863061D01*
X1492318Y1861561D01*
X1490818Y1858562D01*
Y1855563D01*
X1492318Y1852564D01*
X1493817Y1851065D01*
X1498316Y1849565D01*
X1511811D02*
X1498316D01*
X1493817Y1848066D01*
X1492318Y1846566D01*
X1490818Y1843567D01*
Y1839069D01*
X1492318Y1836070D01*
X1493817Y1834570D01*
X1498316Y1833071D01*
X1511811D01*
X1465777Y1860062D02*
X1467276Y1863061D01*
X1471775Y1864560D01*
X1474774D01*
X1479272Y1863061D01*
X1482271Y1858562D01*
X1483771Y1851065D01*
Y1843567D01*
X1482271Y1837569D01*
X1479272Y1834570D01*
X1474774Y1833071D01*
X1473274D01*
X1468776Y1834570D01*
X1465777Y1837569D01*
X1464277Y1842068D01*
Y1843567D01*
X1465777Y1848066D01*
X1468776Y1851065D01*
X1473274Y1852564D01*
X1474774D01*
X1479272Y1851065D01*
X1482271Y1848066D01*
X1483771Y1843567D01*
X712598Y2864560D02*
Y2833071D01*
Y2864560D02*
X702102D01*
X697604Y2863061D01*
X694605Y2860062D01*
X693105Y2857063D01*
X691606Y2852564D01*
Y2845067D01*
X693105Y2840568D01*
X694605Y2837569D01*
X697604Y2834570D01*
X702102Y2833071D01*
X712598D01*
X683058Y2857063D02*
Y2858562D01*
X681559Y2861561D01*
X680059Y2863061D01*
X677061Y2864560D01*
X671063D01*
X668064Y2863061D01*
X666564Y2861561D01*
X665065Y2858562D01*
Y2855563D01*
X666564Y2852564D01*
X669563Y2848066D01*
X684558Y2833071D01*
X663565D01*
X690106Y2656275D02*
X691606Y2659274D01*
X694605Y2662273D01*
X697604Y2663773D01*
X703602D01*
X706601Y2662273D01*
X709600Y2659274D01*
X711099Y2656275D01*
X712599Y2651777D01*
Y2644279D01*
X711099Y2639781D01*
X709600Y2636782D01*
X706601Y2633783D01*
X703602Y2632283D01*
X697604D01*
X694605Y2633783D01*
X691606Y2636782D01*
X690106Y2639781D01*
Y2644279D01*
X697604D02*
X690106D01*
X682909Y2663773D02*
Y2632283D01*
Y2663773D02*
X661916Y2632283D01*
Y2663773D02*
Y2632283D01*
X653219Y2663773D02*
Y2632283D01*
Y2663773D02*
X642722D01*
X638224Y2662273D01*
X635225Y2659274D01*
X633726Y2656275D01*
X632226Y2651777D01*
Y2644279D01*
X633726Y2639781D01*
X635225Y2636782D01*
X638224Y2633783D01*
X642722Y2632283D01*
X653219D01*
X712598Y2561410D02*
Y2529921D01*
Y2561410D02*
X702102D01*
X697604Y2559911D01*
X694605Y2556912D01*
X693105Y2553913D01*
X691606Y2549414D01*
Y2541917D01*
X693105Y2537419D01*
X694605Y2534420D01*
X697604Y2531421D01*
X702102Y2529921D01*
X712598D01*
X684558Y2555412D02*
X681559Y2556912D01*
X677061Y2561410D01*
Y2529921D01*
X712598Y2462985D02*
Y2431496D01*
Y2462985D02*
X702102D01*
X697604Y2461486D01*
X694605Y2458487D01*
X693105Y2455488D01*
X691606Y2450989D01*
Y2443492D01*
X693105Y2438994D01*
X694605Y2435994D01*
X697604Y2432995D01*
X702102Y2431496D01*
X712598D01*
X675561Y2462985D02*
X680059Y2461486D01*
X683058Y2456987D01*
X684558Y2449490D01*
Y2444991D01*
X683058Y2437494D01*
X680059Y2432995D01*
X675561Y2431496D01*
X672562D01*
X668064Y2432995D01*
X665065Y2437494D01*
X663565Y2444991D01*
Y2449490D01*
X665065Y2456987D01*
X668064Y2461486D01*
X672562Y2462985D01*
X675561D01*
X712599Y2364560D02*
Y2333071D01*
Y2364560D02*
X702102D01*
X697604Y2363061D01*
X694605Y2360062D01*
X693106Y2357063D01*
X691606Y2352564D01*
Y2345067D01*
X693106Y2340568D01*
X694605Y2337569D01*
X697604Y2334570D01*
X702102Y2333071D01*
X712599D01*
X669563Y2364560D02*
X684558Y2343567D01*
X662066D01*
X669563Y2364560D02*
Y2333071D01*
X690106Y2254700D02*
X691606Y2257700D01*
X694605Y2260698D01*
X697604Y2262198D01*
X703601D01*
X706601Y2260698D01*
X709600Y2257700D01*
X711099Y2254700D01*
X712598Y2250202D01*
Y2242704D01*
X711099Y2238206D01*
X709600Y2235207D01*
X706601Y2232208D01*
X703601Y2230709D01*
X697604D01*
X694605Y2232208D01*
X691606Y2235207D01*
X690106Y2238206D01*
X663265Y2257700D02*
X664765Y2260698D01*
X669263Y2262198D01*
X672262D01*
X676761Y2260698D01*
X679760Y2256200D01*
X681259Y2248702D01*
Y2241205D01*
X679760Y2235207D01*
X676761Y2232208D01*
X672262Y2230709D01*
X670763D01*
X666264Y2232208D01*
X663265Y2235207D01*
X661766Y2239706D01*
Y2241205D01*
X663265Y2245704D01*
X666264Y2248702D01*
X670763Y2250202D01*
X672262D01*
X676761Y2248702D01*
X679760Y2245704D01*
X681259Y2241205D01*
X712598Y2163773D02*
Y2132283D01*
Y2163773D02*
X702102D01*
X697604Y2162273D01*
X694605Y2159274D01*
X693105Y2156275D01*
X691606Y2151777D01*
Y2144279D01*
X693105Y2139781D01*
X694605Y2136782D01*
X697604Y2133783D01*
X702102Y2132283D01*
X712598D01*
X663565Y2163773D02*
X678560Y2132283D01*
X684558Y2163773D02*
X663565D01*
X702102Y2967484D02*
Y2935994D01*
X712598Y2967484D02*
X691606D01*
X687857D02*
X666864Y2935994D01*
Y2967484D02*
X687857Y2935994D01*
X650819Y2967484D02*
X655318Y2965984D01*
X658317Y2961486D01*
X659816Y2953988D01*
Y2949490D01*
X658317Y2941992D01*
X655318Y2937494D01*
X650819Y2935994D01*
X647821D01*
X643322Y2937494D01*
X640323Y2941992D01*
X638823Y2949490D01*
Y2953988D01*
X640323Y2961486D01*
X643322Y2965984D01*
X647821Y2967484D01*
X650819D01*
X631776Y2931496D02*
X610783Y2967484D01*
X608684D02*
Y2935994D01*
Y2967484D02*
X598187D01*
X593689Y2965984D01*
X590690Y2962985D01*
X589190Y2959986D01*
X587691Y2955488D01*
Y2947990D01*
X589190Y2943492D01*
X590690Y2940493D01*
X593689Y2937494D01*
X598187Y2935994D01*
X608684D01*
X577644Y2967484D02*
X561150D01*
X570147Y2955488D01*
X565648D01*
X562649Y2953988D01*
X561150Y2952489D01*
X559650Y2947990D01*
Y2944992D01*
X561150Y2940493D01*
X564149Y2937494D01*
X568647Y2935994D01*
X573146D01*
X577644Y2937494D01*
X579144Y2938994D01*
X580643Y2941992D01*
X693105Y2065348D02*
X712598D01*
Y2033858D01*
X693105D01*
X712598Y2050353D02*
X700603D01*
X669863Y2060849D02*
X671362Y2063848D01*
X675861Y2065348D01*
X678860D01*
X683358Y2063848D01*
X686357Y2059350D01*
X687857Y2051852D01*
Y2044355D01*
X686357Y2038357D01*
X683358Y2035358D01*
X678860Y2033858D01*
X677360D01*
X672862Y2035358D01*
X669863Y2038357D01*
X668364Y2042855D01*
Y2044355D01*
X669863Y2048853D01*
X672862Y2051852D01*
X677360Y2053352D01*
X678860D01*
X683358Y2051852D01*
X686357Y2048853D01*
X687857Y2044355D01*
X712599Y1962985D02*
Y1931496D01*
Y1962985D02*
X699104D01*
X694605Y1961486D01*
X693106Y1959986D01*
X691606Y1956987D01*
Y1953988D01*
X693106Y1950989D01*
X694605Y1949490D01*
X699104Y1947990D01*
X712599D02*
X699104D01*
X694605Y1946491D01*
X693106Y1944991D01*
X691606Y1941993D01*
Y1937494D01*
X693106Y1934495D01*
X694605Y1932995D01*
X699104Y1931496D01*
X712599D01*
X669563Y1962985D02*
X684558Y1941993D01*
X662066D01*
X669563Y1962985D02*
Y1931496D01*
X712598Y1860623D02*
Y1829134D01*
Y1860623D02*
X699103D01*
X694605Y1859124D01*
X693105Y1857624D01*
X691606Y1854625D01*
Y1851626D01*
X693105Y1848627D01*
X694605Y1847128D01*
X699103Y1845628D01*
X712598D02*
X699103D01*
X694605Y1844129D01*
X693105Y1842629D01*
X691606Y1839630D01*
Y1835132D01*
X693105Y1832133D01*
X694605Y1830633D01*
X699103Y1829134D01*
X712598D01*
X666564Y1860623D02*
X681559D01*
X683058Y1847128D01*
X681559Y1848627D01*
X677061Y1850127D01*
X672562D01*
X668064Y1848627D01*
X665065Y1845628D01*
X663565Y1841130D01*
Y1838131D01*
X665065Y1833632D01*
X668064Y1830633D01*
X672562Y1829134D01*
X677061D01*
X681559Y1830633D01*
X683058Y1832133D01*
X684558Y1835132D01*
%TF.MD5,676bad290e5e9ad33a0722cb37c06e90*%
M02*
