%TF.GenerationSoftware,Altium Limited,Altium Designer,20.1.12 (249)*%
G04 Layer_Color=32896*
%FSLAX26Y26*%
%MOIN*%
%TF.SameCoordinates,4EBFCD2D-B14F-4313-BC4F-D652A0771492*%
%TF.FilePolarity,Positive*%
%TF.FileFunction,Legend,Bot*%
%TF.Part,Single*%
G01*
G75*
%TA.AperFunction,NonConductor*%
%ADD18C,0.010000*%
%ADD19C,0.007874*%
%ADD20C,0.005906*%
D18*
X742126Y1373228D02*
X837598D01*
Y1468701D01*
X741142D02*
X837598D01*
X909764Y1570472D02*
X997264D01*
X1007264Y1560472D01*
X1172264Y1570472D02*
X1259764D01*
X1162264Y1560472D02*
X1172264Y1570472D01*
X1439764Y270472D02*
X1439764Y1570472D01*
X741142Y270472D02*
X741142Y1570472D01*
X1007264Y1560472D02*
X1162264D01*
X741142Y1570472D02*
X909764D01*
X741142Y270472D02*
X1439764D01*
X1259764Y1570472D02*
X1439764D01*
X706522Y1544557D02*
Y1494573D01*
X696526Y1484577D01*
X676532D01*
X666535Y1494573D01*
Y1544557D01*
X646542Y1484577D02*
X626548D01*
X636545D01*
Y1544557D01*
X646542Y1534560D01*
X2073691Y1531017D02*
X2083688Y1541014D01*
X2103681D01*
X2113678Y1531017D01*
Y1521020D01*
X2103681Y1511024D01*
X2083688D01*
X2073691Y1501027D01*
Y1491030D01*
X2083688Y1481033D01*
X2103681D01*
X2113678Y1491030D01*
X2053698Y1541014D02*
Y1481033D01*
X2033704Y1501027D01*
X2013710Y1481033D01*
Y1541014D01*
X1993717Y1481033D02*
X1973723D01*
X1983720D01*
Y1541014D01*
X1993717Y1531017D01*
D19*
X1889764Y1629921D02*
X1937008D01*
X1881890Y1622047D02*
X1889764Y1629921D01*
X1748032D02*
X1795276D01*
X1803150Y1622047D01*
X1881890D01*
X1937008Y1393701D02*
Y1629921D01*
X1748032Y1393701D02*
X1937008D01*
X1748032D02*
Y1629921D01*
D20*
X714567Y331883D02*
Y300394D01*
Y331883D02*
X701072D01*
X696573Y330383D01*
X695074Y328884D01*
X693574Y325885D01*
Y322886D01*
X695074Y319887D01*
X696573Y318387D01*
X701072Y316888D01*
X714567D02*
X701072D01*
X696573Y315388D01*
X695074Y313889D01*
X693574Y310890D01*
Y306392D01*
X695074Y303392D01*
X696573Y301893D01*
X701072Y300394D01*
X714567D01*
X668533Y331883D02*
X683528D01*
X685027Y318387D01*
X683528Y319887D01*
X679029Y321386D01*
X674531D01*
X670032Y319887D01*
X667033Y316888D01*
X665534Y312389D01*
Y309390D01*
X667033Y304892D01*
X670032Y301893D01*
X674531Y300394D01*
X679029D01*
X683528Y301893D01*
X685027Y303392D01*
X686527Y306392D01*
X714567Y434245D02*
Y402756D01*
Y434245D02*
X701072D01*
X696573Y432746D01*
X695074Y431246D01*
X693574Y428247D01*
Y425248D01*
X695074Y422249D01*
X696573Y420750D01*
X701072Y419250D01*
X714567D02*
X701072D01*
X696573Y417751D01*
X695074Y416251D01*
X693574Y413252D01*
Y408754D01*
X695074Y405755D01*
X696573Y404255D01*
X701072Y402756D01*
X714567D01*
X671532Y434245D02*
X686527Y413252D01*
X664034D01*
X671532Y434245D02*
Y402756D01*
X695074Y536607D02*
X714567D01*
Y505118D01*
X695074D01*
X714567Y521612D02*
X702571D01*
X671832Y532109D02*
X673331Y535108D01*
X677830Y536607D01*
X680828D01*
X685327Y535108D01*
X688326Y530609D01*
X689825Y523112D01*
Y515615D01*
X688326Y509616D01*
X685327Y506618D01*
X680828Y505118D01*
X679329D01*
X674831Y506618D01*
X671832Y509616D01*
X670332Y514115D01*
Y515615D01*
X671832Y520113D01*
X674831Y523112D01*
X679329Y524611D01*
X680828D01*
X685327Y523112D01*
X688326Y520113D01*
X689825Y515615D01*
X704071Y1438744D02*
Y1407254D01*
X714567Y1438744D02*
X693574D01*
X689825D02*
X668832Y1407254D01*
Y1438744D02*
X689825Y1407254D01*
X652788Y1438744D02*
X657286Y1437244D01*
X660285Y1432746D01*
X661785Y1425248D01*
Y1420750D01*
X660285Y1413252D01*
X657286Y1408754D01*
X652788Y1407254D01*
X649789D01*
X645290Y1408754D01*
X642292Y1413252D01*
X640792Y1420750D01*
Y1425248D01*
X642292Y1432746D01*
X645290Y1437244D01*
X649789Y1438744D01*
X652788D01*
X633744Y1402756D02*
X612751Y1438744D01*
X610652D02*
Y1407254D01*
Y1438744D02*
X600156D01*
X595657Y1437244D01*
X592658Y1434245D01*
X591159Y1431246D01*
X589659Y1426748D01*
Y1419250D01*
X591159Y1414752D01*
X592658Y1411753D01*
X595657Y1408754D01*
X600156Y1407254D01*
X610652D01*
X579613Y1438744D02*
X563118D01*
X572115Y1426748D01*
X567617D01*
X564618Y1425248D01*
X563118Y1423749D01*
X561619Y1419250D01*
Y1416251D01*
X563118Y1411753D01*
X566117Y1408754D01*
X570616Y1407254D01*
X575114D01*
X579613Y1408754D01*
X581112Y1410253D01*
X582612Y1413252D01*
X714567Y635033D02*
Y603543D01*
Y635033D02*
X704071D01*
X699572Y633533D01*
X696573Y630534D01*
X695074Y627535D01*
X693574Y623037D01*
Y615539D01*
X695074Y611041D01*
X696573Y608042D01*
X699572Y605043D01*
X704071Y603543D01*
X714567D01*
X665534Y635033D02*
X680529Y603543D01*
X686527Y635033D02*
X665534D01*
X692075Y725960D02*
X693574Y728959D01*
X696573Y731958D01*
X699572Y733458D01*
X705570D01*
X708569Y731958D01*
X711568Y728959D01*
X713067Y725960D01*
X714567Y721462D01*
Y713964D01*
X713067Y709466D01*
X711568Y706467D01*
X708569Y703468D01*
X705570Y701968D01*
X699572D01*
X696573Y703468D01*
X693574Y706467D01*
X692075Y709466D01*
X665234Y728959D02*
X666733Y731958D01*
X671232Y733458D01*
X674231D01*
X678729Y731958D01*
X681728Y727460D01*
X683228Y719962D01*
Y712465D01*
X681728Y706467D01*
X678729Y703468D01*
X674231Y701968D01*
X672731D01*
X668233Y703468D01*
X665234Y706467D01*
X663734Y710965D01*
Y712465D01*
X665234Y716963D01*
X668233Y719962D01*
X672731Y721462D01*
X674231D01*
X678729Y719962D01*
X681728Y716963D01*
X683228Y712465D01*
X714567Y835820D02*
Y804331D01*
Y835820D02*
X704071D01*
X699572Y834321D01*
X696573Y831322D01*
X695074Y828322D01*
X693574Y823824D01*
Y816327D01*
X695074Y811828D01*
X696573Y808829D01*
X699572Y805830D01*
X704071Y804331D01*
X714567D01*
X671532Y835820D02*
X686527Y814827D01*
X664034D01*
X671532Y835820D02*
Y804331D01*
X714567Y934245D02*
Y902756D01*
Y934245D02*
X704071D01*
X699572Y932746D01*
X696573Y929747D01*
X695074Y926748D01*
X693574Y922249D01*
Y914752D01*
X695074Y910253D01*
X696573Y907254D01*
X699572Y904255D01*
X704071Y902756D01*
X714567D01*
X677529Y934245D02*
X682028Y932746D01*
X685027Y928247D01*
X686527Y920750D01*
Y916251D01*
X685027Y908754D01*
X682028Y904255D01*
X677529Y902756D01*
X674531D01*
X670032Y904255D01*
X667033Y908754D01*
X665534Y916251D01*
Y920750D01*
X667033Y928247D01*
X670032Y932746D01*
X674531Y934245D01*
X677529D01*
X714567Y1032670D02*
Y1001181D01*
Y1032670D02*
X704071D01*
X699572Y1031171D01*
X696573Y1028172D01*
X695074Y1025173D01*
X693574Y1020674D01*
Y1013177D01*
X695074Y1008678D01*
X696573Y1005679D01*
X699572Y1002680D01*
X704071Y1001181D01*
X714567D01*
X686527Y1026672D02*
X683528Y1028172D01*
X679029Y1032670D01*
Y1001181D01*
X692075Y1127535D02*
X693574Y1130534D01*
X696573Y1133533D01*
X699572Y1135033D01*
X705570D01*
X708569Y1133533D01*
X711568Y1130534D01*
X713067Y1127535D01*
X714567Y1123037D01*
Y1115539D01*
X713067Y1111041D01*
X711568Y1108042D01*
X708569Y1105043D01*
X705570Y1103543D01*
X699572D01*
X696573Y1105043D01*
X693574Y1108042D01*
X692075Y1111041D01*
Y1115539D01*
X699572D02*
X692075D01*
X684877Y1135033D02*
Y1103543D01*
Y1135033D02*
X663884Y1103543D01*
Y1135033D02*
Y1103543D01*
X655187Y1135033D02*
Y1103543D01*
Y1135033D02*
X644691D01*
X640192Y1133533D01*
X637193Y1130534D01*
X635694Y1127535D01*
X634194Y1123037D01*
Y1115539D01*
X635694Y1111041D01*
X637193Y1108042D01*
X640192Y1105043D01*
X644691Y1103543D01*
X655187D01*
X714567Y1335820D02*
Y1304331D01*
Y1335820D02*
X704071D01*
X699572Y1334321D01*
X696573Y1331322D01*
X695074Y1328322D01*
X693574Y1323824D01*
Y1316326D01*
X695074Y1311828D01*
X696573Y1308829D01*
X699572Y1305830D01*
X704071Y1304331D01*
X714567D01*
X685027Y1328322D02*
Y1329822D01*
X683528Y1332821D01*
X682028Y1334321D01*
X679029Y1335820D01*
X673031D01*
X670032Y1334321D01*
X668533Y1332821D01*
X667033Y1329822D01*
Y1326823D01*
X668533Y1323824D01*
X671532Y1319325D01*
X686527Y1304331D01*
X665534D01*
X1513780Y335820D02*
Y304331D01*
Y335820D02*
X1500284D01*
X1495786Y334320D01*
X1494286Y332821D01*
X1492787Y329822D01*
Y326823D01*
X1494286Y323824D01*
X1495786Y322325D01*
X1500284Y320825D01*
X1513780D02*
X1500284D01*
X1495786Y319325D01*
X1494286Y317826D01*
X1492787Y314827D01*
Y310329D01*
X1494286Y307330D01*
X1495786Y305830D01*
X1500284Y304331D01*
X1513780D01*
X1467745Y331322D02*
X1469245Y334320D01*
X1473743Y335820D01*
X1476742D01*
X1481241Y334320D01*
X1484240Y329822D01*
X1485739Y322325D01*
Y314827D01*
X1484240Y308829D01*
X1481241Y305830D01*
X1476742Y304331D01*
X1475243D01*
X1470744Y305830D01*
X1467745Y308829D01*
X1466246Y313328D01*
Y314827D01*
X1467745Y319325D01*
X1470744Y322325D01*
X1475243Y323824D01*
X1476742D01*
X1481241Y322325D01*
X1484240Y319325D01*
X1485739Y314827D01*
X1513780Y434245D02*
Y402756D01*
Y434245D02*
X1500284D01*
X1495786Y432746D01*
X1494286Y431246D01*
X1492787Y428247D01*
Y425248D01*
X1494286Y422249D01*
X1495786Y420750D01*
X1500284Y419250D01*
X1513780D02*
X1500284D01*
X1495786Y417751D01*
X1494286Y416251D01*
X1492787Y413252D01*
Y408754D01*
X1494286Y405755D01*
X1495786Y404255D01*
X1500284Y402756D01*
X1513780D01*
X1484240Y426748D02*
Y428247D01*
X1482740Y431246D01*
X1481241Y432746D01*
X1478242Y434245D01*
X1472244D01*
X1469245Y432746D01*
X1467745Y431246D01*
X1466246Y428247D01*
Y425248D01*
X1467745Y422249D01*
X1470744Y417751D01*
X1485739Y402756D01*
X1464746D01*
X1513780Y532670D02*
Y501181D01*
Y532670D02*
X1500284D01*
X1495786Y531171D01*
X1494286Y529671D01*
X1492787Y526672D01*
Y523673D01*
X1494286Y520674D01*
X1495786Y519175D01*
X1500284Y517675D01*
X1513780D02*
X1500284D01*
X1495786Y516176D01*
X1494286Y514676D01*
X1492787Y511677D01*
Y507179D01*
X1494286Y504180D01*
X1495786Y502680D01*
X1500284Y501181D01*
X1513780D01*
X1482740Y532670D02*
X1466246D01*
X1475243Y520674D01*
X1470744D01*
X1467745Y519175D01*
X1466246Y517675D01*
X1464746Y513177D01*
Y510178D01*
X1466246Y505679D01*
X1469245Y502680D01*
X1473743Y501181D01*
X1478242D01*
X1482740Y502680D01*
X1484240Y504180D01*
X1485739Y507179D01*
X1501969Y635033D02*
Y603543D01*
Y635033D02*
X1488473D01*
X1483975Y633533D01*
X1482475Y632034D01*
X1480976Y629035D01*
Y626036D01*
X1482475Y623037D01*
X1483975Y621537D01*
X1488473Y620038D01*
X1501969D02*
X1488473D01*
X1483975Y618538D01*
X1482475Y617039D01*
X1480976Y614040D01*
Y609541D01*
X1482475Y606542D01*
X1483975Y605043D01*
X1488473Y603543D01*
X1501969D01*
X1473928Y629035D02*
X1470929Y630534D01*
X1466431Y635033D01*
Y603543D01*
X1509843Y733458D02*
Y701968D01*
Y733458D02*
X1490349D01*
X1509843Y718463D02*
X1497847D01*
X1465757Y733458D02*
X1480752Y701968D01*
X1486750Y733458D02*
X1465757D01*
X1509843Y934245D02*
Y902756D01*
Y934245D02*
X1490349D01*
X1509843Y919250D02*
X1497847D01*
X1468756Y934245D02*
X1483751D01*
X1485251Y920750D01*
X1483751Y922249D01*
X1479253Y923749D01*
X1474755D01*
X1470256Y922249D01*
X1467257Y919250D01*
X1465757Y914752D01*
Y911753D01*
X1467257Y907254D01*
X1470256Y904255D01*
X1474755Y902756D01*
X1479253D01*
X1483751Y904255D01*
X1485251Y905755D01*
X1486750Y908754D01*
X1509843Y1036607D02*
Y1005118D01*
Y1036607D02*
X1490349D01*
X1509843Y1021612D02*
X1497847D01*
X1471755Y1036607D02*
X1486750Y1015615D01*
X1464258D01*
X1471755Y1036607D02*
Y1005118D01*
X1549213Y1142907D02*
X1537217Y1111417D01*
X1525221Y1142907D02*
X1537217Y1111417D01*
X1498680Y1135409D02*
X1500179Y1138408D01*
X1503178Y1141407D01*
X1506177Y1142907D01*
X1512175D01*
X1515174Y1141407D01*
X1518173Y1138408D01*
X1519673Y1135409D01*
X1521172Y1130911D01*
Y1123413D01*
X1519673Y1118915D01*
X1518173Y1115916D01*
X1515174Y1112917D01*
X1512175Y1111417D01*
X1506177D01*
X1503178Y1112917D01*
X1500179Y1115916D01*
X1498680Y1118915D01*
X1467340Y1135409D02*
X1468840Y1138408D01*
X1471839Y1141407D01*
X1474838Y1142907D01*
X1480836D01*
X1483835Y1141407D01*
X1486834Y1138408D01*
X1488333Y1135409D01*
X1489833Y1130911D01*
Y1123413D01*
X1488333Y1118915D01*
X1486834Y1115916D01*
X1483835Y1112917D01*
X1480836Y1111417D01*
X1474838D01*
X1471839Y1112917D01*
X1468840Y1115916D01*
X1467340Y1118915D01*
X1541339Y1233458D02*
Y1201968D01*
Y1233458D02*
X1527843D01*
X1523345Y1231958D01*
X1521845Y1230459D01*
X1520346Y1227460D01*
Y1224461D01*
X1521845Y1221462D01*
X1523345Y1219962D01*
X1527843Y1218463D01*
X1541339D01*
X1530842D02*
X1520346Y1201968D01*
X1492305Y1228959D02*
X1495304Y1231958D01*
X1499803Y1233458D01*
X1505801D01*
X1510299Y1231958D01*
X1513298Y1228959D01*
Y1225960D01*
X1511799Y1222961D01*
X1510299Y1221462D01*
X1507300Y1219962D01*
X1498303Y1216963D01*
X1495304Y1215464D01*
X1493805Y1213964D01*
X1492305Y1210965D01*
Y1206467D01*
X1495304Y1203468D01*
X1499803Y1201968D01*
X1505801D01*
X1510299Y1203468D01*
X1513298Y1206467D01*
X1474761Y1233458D02*
Y1201968D01*
X1485258Y1233458D02*
X1464265D01*
X1522783Y1328322D02*
X1524283Y1331322D01*
X1527282Y1334321D01*
X1530281Y1335820D01*
X1536279D01*
X1539278Y1334321D01*
X1542277Y1331322D01*
X1543776Y1328322D01*
X1545276Y1323824D01*
Y1316326D01*
X1543776Y1311828D01*
X1542277Y1308829D01*
X1539278Y1305830D01*
X1536279Y1304331D01*
X1530281D01*
X1527282Y1305830D01*
X1524283Y1308829D01*
X1522783Y1311828D01*
Y1316326D01*
X1530281D02*
X1522783D01*
X1515586Y1335820D02*
Y1304331D01*
Y1335820D02*
X1494593Y1304331D01*
Y1335820D02*
Y1304331D01*
X1485896Y1335820D02*
Y1304331D01*
Y1335820D02*
X1475399D01*
X1470901Y1334321D01*
X1467902Y1331322D01*
X1466402Y1328322D01*
X1464903Y1323824D01*
Y1316326D01*
X1466402Y1311828D01*
X1467902Y1308829D01*
X1470901Y1305830D01*
X1475399Y1304331D01*
X1485896D01*
X1553150Y1434245D02*
Y1402756D01*
Y1434245D02*
X1539654D01*
X1535156Y1432746D01*
X1533656Y1431246D01*
X1532157Y1428247D01*
Y1425248D01*
X1533656Y1422249D01*
X1535156Y1420750D01*
X1539654Y1419250D01*
X1553150D01*
X1542653D02*
X1532157Y1402756D01*
X1501117D02*
X1513113Y1434245D01*
X1525109Y1402756D01*
X1520611Y1413252D02*
X1505616D01*
X1493770Y1434245D02*
X1486272Y1402756D01*
X1478775Y1434245D02*
X1486272Y1402756D01*
X1478775Y1434245D02*
X1471277Y1402756D01*
X1463780Y1434245D02*
X1471277Y1402756D01*
X692075Y1225960D02*
X693574Y1228959D01*
X696573Y1231958D01*
X699572Y1233458D01*
X705570D01*
X708569Y1231958D01*
X711568Y1228959D01*
X713067Y1225960D01*
X714567Y1221462D01*
Y1213964D01*
X713067Y1209466D01*
X711568Y1206467D01*
X708569Y1203468D01*
X705570Y1201968D01*
X699572D01*
X696573Y1203468D01*
X693574Y1206467D01*
X692075Y1209466D01*
Y1213964D01*
X699572D02*
X692075D01*
X684877Y1233458D02*
Y1201968D01*
Y1233458D02*
X663884Y1201968D01*
Y1233458D02*
Y1201968D01*
X655187Y1233458D02*
Y1201968D01*
Y1233458D02*
X644691D01*
X640192Y1231958D01*
X637193Y1228959D01*
X635694Y1225960D01*
X634194Y1221462D01*
Y1213964D01*
X635694Y1209466D01*
X637193Y1206467D01*
X640192Y1203468D01*
X644691Y1201968D01*
X655187D01*
X1505906Y835820D02*
Y804331D01*
Y835820D02*
X1486412D01*
X1505906Y820825D02*
X1493910D01*
X1464820Y831322D02*
X1466319Y834321D01*
X1470818Y835820D01*
X1473816D01*
X1478315Y834321D01*
X1481314Y829822D01*
X1482813Y822324D01*
Y814827D01*
X1481314Y808829D01*
X1478315Y805830D01*
X1473816Y804331D01*
X1472317D01*
X1467819Y805830D01*
X1464820Y808829D01*
X1463320Y813328D01*
Y814827D01*
X1464820Y819326D01*
X1467819Y822324D01*
X1472317Y823824D01*
X1473816D01*
X1478315Y822324D01*
X1481314Y819326D01*
X1482813Y814827D01*
%TF.MD5,463a11e84fa476b11aa6b1ea46929fb2*%
M02*
