%TF.GenerationSoftware,Altium Limited,Altium Designer,20.1.12 (249)*%
G04 Layer_Color=32896*
%FSLAX26Y26*%
%MOIN*%
%TF.SameCoordinates,640B0342-330B-4233-912D-79817A26F3FE*%
%TF.FilePolarity,Positive*%
%TF.FileFunction,Legend,Bot*%
%TF.Part,Single*%
G01*
G75*
G36*
X1277433Y1346236D02*
X1285433D01*
Y1338236D01*
Y1330236D01*
X1277433D01*
Y1338236D01*
X1269433D01*
Y1330236D01*
X1277433D01*
Y1322236D01*
X1269433D01*
Y1314236D01*
X1253433D01*
Y1322236D01*
X1245433D01*
Y1330236D01*
X1237433D01*
Y1322236D01*
X1245433D01*
Y1314236D01*
X1253433D01*
Y1306236D01*
X1245433D01*
Y1298236D01*
X1229433D01*
Y1290236D01*
X1221433D01*
Y1282236D01*
X1197433D01*
Y1290236D01*
Y1298236D01*
Y1306236D01*
X1205433D01*
Y1314236D01*
Y1322236D01*
X1221433D01*
Y1330236D01*
X1229433D01*
Y1338236D01*
X1245433D01*
Y1346236D01*
X1261433D01*
Y1354236D01*
X1277433D01*
Y1346236D01*
D02*
G37*
G36*
X1509433Y1354236D02*
X1517433D01*
Y1346236D01*
X1533433D01*
Y1338236D01*
X1541433D01*
Y1330236D01*
X1557433D01*
Y1322236D01*
X1565433D01*
Y1314236D01*
X1573433D01*
Y1306236D01*
Y1298236D01*
X1541433D01*
Y1306236D01*
X1525433D01*
Y1314236D01*
X1517433D01*
Y1322236D01*
X1501433D01*
Y1330236D01*
X1493433D01*
Y1338236D01*
X1485433D01*
Y1346236D01*
Y1354236D01*
X1493433D01*
Y1362236D01*
X1509433D01*
Y1354236D01*
D02*
G37*
G36*
X1413433Y1242236D02*
X1429433D01*
Y1234236D01*
X1453433D01*
Y1226236D01*
X1461433D01*
Y1234236D01*
X1477433D01*
Y1242236D01*
X1501433D01*
Y1234236D01*
Y1226236D01*
X1493433D01*
Y1234236D01*
X1485433D01*
Y1226236D01*
X1493433D01*
Y1218236D01*
X1485433D01*
Y1210236D01*
X1429433D01*
Y1218236D01*
X1413433D01*
Y1226236D01*
X1397433D01*
Y1234236D01*
X1389433D01*
Y1226236D01*
X1373433D01*
Y1218236D01*
X1365433D01*
Y1210236D01*
X1309433D01*
Y1218236D01*
X1293433D01*
Y1226236D01*
Y1234236D01*
X1317433D01*
Y1226236D01*
X1349433D01*
Y1234236D01*
X1365433D01*
Y1242236D01*
X1373433D01*
Y1250236D01*
X1413433D01*
Y1242236D01*
D02*
G37*
G36*
X1381433Y1866236D02*
X1397433D01*
Y1858236D01*
X1413433D01*
Y1850236D01*
X1421433D01*
Y1842236D01*
X1429433D01*
Y1834236D01*
Y1826236D01*
X1437433D01*
Y1818236D01*
X1445433D01*
Y1810236D01*
Y1802236D01*
X1453433D01*
Y1794236D01*
Y1786236D01*
Y1778236D01*
X1461433D01*
Y1770236D01*
Y1762236D01*
Y1754236D01*
X1469433D01*
Y1746236D01*
Y1738236D01*
Y1730236D01*
X1477433D01*
Y1722236D01*
Y1714236D01*
Y1706236D01*
X1485433D01*
Y1698236D01*
Y1690236D01*
Y1682236D01*
X1493433D01*
Y1674236D01*
Y1666236D01*
Y1658236D01*
Y1650236D01*
X1501433D01*
Y1642236D01*
Y1634236D01*
Y1626236D01*
X1509433D01*
Y1618236D01*
Y1610236D01*
Y1602236D01*
Y1594236D01*
Y1586236D01*
Y1578236D01*
X1517433D01*
Y1570236D01*
Y1562236D01*
Y1554236D01*
Y1546236D01*
Y1538236D01*
X1565433D01*
Y1530236D01*
X1589433D01*
Y1522236D01*
X1605433D01*
Y1514236D01*
X1621433D01*
Y1506236D01*
X1629433D01*
Y1498236D01*
X1645433D01*
Y1490236D01*
X1653433D01*
Y1482236D01*
X1661433D01*
Y1474236D01*
X1669433D01*
Y1466236D01*
X1677433D01*
Y1458236D01*
X1685433D01*
Y1450236D01*
X1693433D01*
Y1442236D01*
X1701433D01*
Y1434236D01*
X1709433D01*
Y1426236D01*
X1717433D01*
Y1418236D01*
X1725433D01*
Y1410236D01*
X1733433D01*
Y1402236D01*
X1741433D01*
Y1394236D01*
X1749433D01*
Y1386236D01*
X1757433D01*
Y1378236D01*
X1765433D01*
Y1370236D01*
X1773433D01*
Y1362236D01*
X1789433D01*
Y1354236D01*
X1797433D01*
Y1346236D01*
X1805433D01*
Y1338236D01*
X1813433D01*
Y1330236D01*
X1821433D01*
Y1322236D01*
X1829433D01*
Y1314236D01*
X1837433D01*
Y1306236D01*
X1845433D01*
Y1298236D01*
Y1290236D01*
X1853433D01*
Y1282236D01*
Y1274236D01*
Y1266236D01*
Y1258236D01*
Y1250236D01*
Y1242236D01*
Y1234236D01*
X1845433D01*
Y1226236D01*
Y1218236D01*
X1837433D01*
Y1226236D01*
X1829433D01*
Y1234236D01*
X1837433D01*
Y1242236D01*
Y1250236D01*
Y1258236D01*
Y1266236D01*
Y1274236D01*
Y1282236D01*
X1829433D01*
Y1290236D01*
Y1298236D01*
X1821433D01*
Y1306236D01*
X1813433D01*
Y1314236D01*
X1805433D01*
Y1322236D01*
X1797433D01*
Y1330236D01*
X1789433D01*
Y1338236D01*
X1781433D01*
Y1346236D01*
X1765433D01*
Y1354236D01*
X1757433D01*
Y1362236D01*
X1749433D01*
Y1370236D01*
X1741433D01*
Y1378236D01*
X1733433D01*
Y1386236D01*
X1725433D01*
Y1394236D01*
X1717433D01*
Y1402236D01*
X1709433D01*
Y1410236D01*
X1701433D01*
Y1418236D01*
Y1426236D01*
X1693433D01*
Y1434236D01*
X1685433D01*
Y1442236D01*
X1677433D01*
Y1450236D01*
X1669433D01*
Y1458236D01*
X1653433D01*
Y1466236D01*
X1645433D01*
Y1474236D01*
X1637433D01*
Y1482236D01*
X1629433D01*
Y1490236D01*
X1621433D01*
Y1498236D01*
X1605433D01*
Y1506236D01*
X1589433D01*
Y1514236D01*
X1565433D01*
Y1522236D01*
X1525433D01*
Y1530236D01*
X1509433D01*
Y1538236D01*
X1501433D01*
Y1546236D01*
Y1554236D01*
Y1562236D01*
Y1570236D01*
Y1578236D01*
Y1586236D01*
X1493433D01*
Y1594236D01*
Y1602236D01*
Y1610236D01*
X1485433D01*
Y1618236D01*
Y1626236D01*
Y1634236D01*
X1477433D01*
Y1642236D01*
Y1650236D01*
Y1658236D01*
Y1666236D01*
X1469433D01*
Y1674236D01*
Y1682236D01*
Y1690236D01*
X1461433D01*
Y1698236D01*
Y1706236D01*
Y1714236D01*
X1453433D01*
Y1722236D01*
Y1730236D01*
Y1738236D01*
X1445433D01*
Y1746236D01*
Y1754236D01*
Y1762236D01*
X1437433D01*
Y1770236D01*
Y1778236D01*
Y1786236D01*
X1429433D01*
Y1794236D01*
Y1802236D01*
X1421433D01*
Y1810236D01*
Y1818236D01*
X1413433D01*
Y1826236D01*
X1405433D01*
Y1834236D01*
X1397433D01*
Y1842236D01*
X1389433D01*
Y1850236D01*
X1373433D01*
Y1858236D01*
X1349433D01*
Y1850236D01*
X1333433D01*
Y1842236D01*
X1325433D01*
Y1834236D01*
X1317433D01*
Y1826236D01*
X1309433D01*
Y1818236D01*
Y1810236D01*
X1301433D01*
Y1802236D01*
Y1794236D01*
Y1786236D01*
Y1778236D01*
Y1770236D01*
Y1762236D01*
Y1754236D01*
Y1746236D01*
Y1738236D01*
Y1730236D01*
Y1722236D01*
Y1714236D01*
X1309433D01*
Y1706236D01*
Y1698236D01*
Y1690236D01*
X1317433D01*
Y1682236D01*
Y1674236D01*
X1325433D01*
Y1666236D01*
Y1658236D01*
X1333433D01*
Y1650236D01*
Y1642236D01*
X1341433D01*
Y1634236D01*
Y1626236D01*
X1349433D01*
Y1618236D01*
Y1610236D01*
Y1602236D01*
X1357433D01*
Y1594236D01*
Y1586236D01*
Y1578236D01*
X1365433D01*
Y1570236D01*
Y1562236D01*
Y1554236D01*
X1373433D01*
Y1546236D01*
X1389433D01*
Y1554236D01*
X1405433D01*
Y1546236D01*
X1413433D01*
Y1538236D01*
X1397433D01*
Y1530236D01*
X1333433D01*
Y1522236D01*
X1285433D01*
Y1514236D01*
X1261433D01*
Y1522236D01*
X1269433D01*
Y1530236D01*
X1309433D01*
Y1538236D01*
X1293433D01*
Y1546236D01*
Y1554236D01*
X1285433D01*
Y1562236D01*
Y1570236D01*
Y1578236D01*
X1277433D01*
Y1586236D01*
Y1594236D01*
Y1602236D01*
X1269433D01*
Y1610236D01*
Y1618236D01*
X1261433D01*
Y1626236D01*
Y1634236D01*
Y1642236D01*
X1253433D01*
Y1650236D01*
Y1658236D01*
Y1666236D01*
X1245433D01*
Y1674236D01*
Y1682236D01*
X1237433D01*
Y1690236D01*
Y1698236D01*
Y1706236D01*
X1229433D01*
Y1714236D01*
Y1722236D01*
X1221433D01*
Y1730236D01*
X1213433D01*
Y1738236D01*
Y1746236D01*
X1205433D01*
Y1754236D01*
X1197433D01*
Y1762236D01*
X1189433D01*
Y1770236D01*
X1181433D01*
Y1778236D01*
X1173433D01*
Y1786236D01*
X1165433D01*
Y1794236D01*
X1117433D01*
Y1786236D01*
X1101433D01*
Y1778236D01*
X1093433D01*
Y1770236D01*
X1085433D01*
Y1762236D01*
X1077433D01*
Y1754236D01*
X1069433D01*
Y1746236D01*
Y1738236D01*
Y1730236D01*
Y1722236D01*
Y1714236D01*
Y1706236D01*
Y1698236D01*
Y1690236D01*
Y1682236D01*
Y1674236D01*
X1077433D01*
Y1666236D01*
Y1658236D01*
X1085433D01*
Y1650236D01*
Y1642236D01*
X1093433D01*
Y1634236D01*
Y1626236D01*
X1101433D01*
Y1618236D01*
X1109433D01*
Y1610236D01*
Y1602236D01*
X1117433D01*
Y1594236D01*
Y1586236D01*
X1125433D01*
Y1578236D01*
X1133433D01*
Y1570236D01*
Y1562236D01*
X1141433D01*
Y1554236D01*
Y1546236D01*
X1149433D01*
Y1538236D01*
Y1530236D01*
X1157433D01*
Y1522236D01*
Y1514236D01*
X1165433D01*
Y1506236D01*
Y1498236D01*
X1157433D01*
Y1490236D01*
X1149433D01*
Y1482236D01*
X1141433D01*
Y1474236D01*
X1125433D01*
Y1466236D01*
X1117433D01*
Y1458236D01*
X1109433D01*
Y1450236D01*
X1101433D01*
Y1442236D01*
X1093433D01*
Y1434236D01*
X1085433D01*
Y1426236D01*
X1077433D01*
Y1434236D01*
X1069433D01*
Y1442236D01*
X1077433D01*
Y1450236D01*
X1085433D01*
Y1458236D01*
X1093433D01*
Y1466236D01*
X1101433D01*
Y1474236D01*
X1109433D01*
Y1482236D01*
X1125433D01*
Y1490236D01*
X1133433D01*
Y1498236D01*
X1141433D01*
Y1506236D01*
Y1514236D01*
Y1522236D01*
X1133433D01*
Y1530236D01*
Y1538236D01*
X1125433D01*
Y1546236D01*
Y1554236D01*
X1117433D01*
Y1562236D01*
Y1570236D01*
X1109433D01*
Y1578236D01*
Y1586236D01*
X1101433D01*
Y1594236D01*
Y1602236D01*
X1093433D01*
Y1610236D01*
X1085433D01*
Y1618236D01*
Y1626236D01*
X1077433D01*
Y1634236D01*
Y1642236D01*
X1069433D01*
Y1650236D01*
Y1658236D01*
Y1666236D01*
X1061433D01*
Y1674236D01*
Y1682236D01*
Y1690236D01*
X1053433D01*
Y1698236D01*
Y1706236D01*
Y1714236D01*
Y1722236D01*
Y1730236D01*
Y1738236D01*
X1061433D01*
Y1746236D01*
Y1754236D01*
Y1762236D01*
X1069433D01*
Y1770236D01*
X1077433D01*
Y1778236D01*
X1085433D01*
Y1786236D01*
X1093433D01*
Y1794236D01*
X1101433D01*
Y1802236D01*
X1117433D01*
Y1810236D01*
X1157433D01*
Y1802236D01*
X1173433D01*
Y1794236D01*
X1189433D01*
Y1786236D01*
X1197433D01*
Y1778236D01*
X1205433D01*
Y1770236D01*
X1213433D01*
Y1762236D01*
X1221433D01*
Y1754236D01*
X1229433D01*
Y1746236D01*
Y1738236D01*
X1237433D01*
Y1730236D01*
X1245433D01*
Y1722236D01*
Y1714236D01*
X1253433D01*
Y1706236D01*
Y1698236D01*
Y1690236D01*
X1261433D01*
Y1682236D01*
Y1674236D01*
Y1666236D01*
X1269433D01*
Y1658236D01*
Y1650236D01*
X1277433D01*
Y1642236D01*
Y1634236D01*
Y1626236D01*
X1285433D01*
Y1618236D01*
Y1610236D01*
Y1602236D01*
Y1594236D01*
X1293433D01*
Y1586236D01*
Y1578236D01*
Y1570236D01*
X1301433D01*
Y1562236D01*
Y1554236D01*
Y1546236D01*
X1309433D01*
Y1538236D01*
X1325433D01*
Y1546236D01*
X1365433D01*
Y1554236D01*
X1357433D01*
Y1562236D01*
Y1570236D01*
X1349433D01*
Y1578236D01*
Y1586236D01*
Y1594236D01*
X1341433D01*
Y1602236D01*
Y1610236D01*
X1333433D01*
Y1618236D01*
Y1626236D01*
Y1634236D01*
X1325433D01*
Y1642236D01*
X1317433D01*
Y1650236D01*
Y1658236D01*
X1309433D01*
Y1666236D01*
Y1674236D01*
X1301433D01*
Y1682236D01*
Y1690236D01*
X1293433D01*
Y1698236D01*
Y1706236D01*
Y1714236D01*
X1285433D01*
Y1722236D01*
Y1730236D01*
Y1738236D01*
Y1746236D01*
Y1754236D01*
Y1762236D01*
Y1770236D01*
Y1778236D01*
Y1786236D01*
Y1794236D01*
Y1802236D01*
Y1810236D01*
Y1818236D01*
X1293433D01*
Y1826236D01*
Y1834236D01*
X1301433D01*
Y1842236D01*
X1309433D01*
Y1850236D01*
X1317433D01*
Y1858236D01*
X1333433D01*
Y1866236D01*
X1365433D01*
Y1874236D01*
X1381433D01*
Y1866236D01*
D02*
G37*
G36*
X1829433Y1218236D02*
X1837433D01*
Y1210236D01*
X1829433D01*
Y1202236D01*
X1813433D01*
Y1194236D01*
X1797433D01*
Y1202236D01*
X1789433D01*
Y1210236D01*
X1805433D01*
Y1218236D01*
X1821433D01*
Y1226236D01*
X1829433D01*
Y1218236D01*
D02*
G37*
G36*
X1069433Y1426236D02*
X1077433D01*
Y1418236D01*
X1069433D01*
Y1410236D01*
X1061433D01*
Y1402236D01*
X1053433D01*
Y1394236D01*
Y1386236D01*
X1045433D01*
Y1378236D01*
X1037433D01*
Y1370236D01*
X1029433D01*
Y1362236D01*
Y1354236D01*
X1021433D01*
Y1346236D01*
Y1338236D01*
Y1330236D01*
X1013433D01*
Y1322236D01*
Y1314236D01*
X1005433D01*
Y1306236D01*
Y1298236D01*
Y1290236D01*
Y1282236D01*
X997433D01*
Y1274236D01*
Y1266236D01*
Y1258236D01*
Y1250236D01*
Y1242236D01*
X989433D01*
Y1234236D01*
Y1226236D01*
Y1218236D01*
Y1210236D01*
Y1202236D01*
X981433D01*
Y1194236D01*
Y1186236D01*
Y1178236D01*
Y1170236D01*
Y1162236D01*
X973433D01*
Y1154236D01*
Y1146236D01*
Y1138236D01*
X965433D01*
Y1130236D01*
Y1122236D01*
Y1114236D01*
Y1106236D01*
X957433D01*
Y1098236D01*
X949433D01*
Y1090236D01*
Y1082236D01*
X941433D01*
Y1074236D01*
Y1066236D01*
X933433D01*
Y1058236D01*
Y1050236D01*
X925433D01*
Y1042236D01*
Y1034236D01*
Y1026236D01*
Y1018236D01*
Y1010236D01*
Y1002236D01*
X933433D01*
Y994236D01*
X941433D01*
Y986236D01*
X1029433D01*
Y994236D01*
X1069433D01*
Y1002236D01*
X1165433D01*
Y994236D01*
X1213433D01*
Y986236D01*
X1245433D01*
Y978236D01*
X1301433D01*
Y970236D01*
X1333433D01*
Y962236D01*
X1517433D01*
Y970236D01*
X1565433D01*
Y978236D01*
X1629433D01*
Y986236D01*
X1669433D01*
Y994236D01*
X1693433D01*
Y1002236D01*
X1717433D01*
Y1010236D01*
X1733433D01*
Y1018236D01*
X1749433D01*
Y1010236D01*
X1757433D01*
Y1018236D01*
X1749433D01*
Y1026236D01*
X1757433D01*
Y1034236D01*
X1765433D01*
Y1026236D01*
X1773433D01*
Y1034236D01*
X1765433D01*
Y1042236D01*
X1773433D01*
Y1050236D01*
Y1058236D01*
X1781433D01*
Y1066236D01*
Y1074236D01*
Y1082236D01*
Y1090236D01*
Y1098236D01*
X1789433D01*
Y1106236D01*
Y1114236D01*
Y1122236D01*
Y1130236D01*
Y1138236D01*
Y1146236D01*
X1781433D01*
Y1154236D01*
Y1162236D01*
Y1170236D01*
Y1178236D01*
X1773433D01*
Y1186236D01*
Y1194236D01*
Y1202236D01*
X1789433D01*
Y1194236D01*
X1797433D01*
Y1186236D01*
Y1178236D01*
Y1170236D01*
X1805433D01*
Y1162236D01*
Y1154236D01*
Y1146236D01*
Y1138236D01*
Y1130236D01*
Y1122236D01*
Y1114236D01*
Y1106236D01*
Y1098236D01*
Y1090236D01*
X1797433D01*
Y1082236D01*
Y1074236D01*
Y1066236D01*
Y1058236D01*
X1789433D01*
Y1050236D01*
Y1042236D01*
Y1034236D01*
X1781433D01*
Y1026236D01*
Y1018236D01*
X1773433D01*
Y1010236D01*
X1765433D01*
Y1002236D01*
X1741433D01*
Y994236D01*
X1725433D01*
Y986236D01*
X1709433D01*
Y978236D01*
X1677433D01*
Y970236D01*
X1645433D01*
Y962236D01*
X1605433D01*
Y954236D01*
X1557433D01*
Y946236D01*
X1493433D01*
Y938236D01*
X1365433D01*
Y946236D01*
X1301433D01*
Y954236D01*
X1261433D01*
Y962236D01*
X1221433D01*
Y970236D01*
X1181433D01*
Y978236D01*
X1029433D01*
Y970236D01*
X941433D01*
Y978236D01*
X925433D01*
Y986236D01*
X917433D01*
Y994236D01*
X909433D01*
Y1002236D01*
Y1010236D01*
Y1018236D01*
Y1026236D01*
Y1034236D01*
Y1042236D01*
Y1050236D01*
Y1058236D01*
X917433D01*
Y1066236D01*
Y1074236D01*
X925433D01*
Y1082236D01*
Y1090236D01*
X933433D01*
Y1098236D01*
X941433D01*
Y1106236D01*
Y1114236D01*
X949433D01*
Y1122236D01*
Y1130236D01*
X957433D01*
Y1138236D01*
Y1146236D01*
Y1154236D01*
X965433D01*
Y1162236D01*
Y1170236D01*
Y1178236D01*
Y1186236D01*
Y1194236D01*
Y1202236D01*
Y1210236D01*
X973433D01*
Y1218236D01*
Y1226236D01*
Y1234236D01*
Y1242236D01*
Y1250236D01*
X981433D01*
Y1258236D01*
Y1266236D01*
Y1274236D01*
Y1282236D01*
X989433D01*
Y1290236D01*
Y1298236D01*
Y1306236D01*
Y1314236D01*
X997433D01*
Y1322236D01*
Y1330236D01*
X1005433D01*
Y1338236D01*
Y1346236D01*
Y1354236D01*
X1013433D01*
Y1362236D01*
Y1370236D01*
X1021433D01*
Y1378236D01*
Y1386236D01*
X1029433D01*
Y1394236D01*
X1037433D01*
Y1402236D01*
Y1410236D01*
X1045433D01*
Y1418236D01*
X1053433D01*
Y1426236D01*
X1061433D01*
Y1434236D01*
X1069433D01*
Y1426236D01*
D02*
G37*
%LPC*%
G36*
X1261433Y1338236D02*
X1253433D01*
Y1330236D01*
Y1322236D01*
X1261433D01*
Y1330236D01*
Y1338236D01*
D02*
G37*
G36*
X1221433Y1314236D02*
X1213433D01*
Y1306236D01*
Y1298236D01*
X1221433D01*
Y1306236D01*
Y1314236D01*
D02*
G37*
G36*
X1525433Y1338236D02*
X1509433D01*
Y1330236D01*
X1525433D01*
Y1322236D01*
X1541433D01*
Y1330236D01*
X1525433D01*
Y1338236D01*
D02*
G37*
G36*
X1557433Y1314236D02*
X1549433D01*
Y1306236D01*
X1557433D01*
Y1314236D01*
D02*
G37*
G36*
X1413433Y1242236D02*
X1405433D01*
Y1234236D01*
X1413433D01*
Y1242236D01*
D02*
G37*
G36*
X1429433Y1234236D02*
X1421433D01*
Y1226236D01*
X1429433D01*
Y1234236D01*
D02*
G37*
G36*
X1477433Y1226236D02*
X1469433D01*
Y1218236D01*
X1477433D01*
Y1226236D01*
D02*
G37*
G36*
X1397433Y1858236D02*
X1389433D01*
Y1850236D01*
X1397433D01*
Y1858236D01*
D02*
G37*
G36*
X1421433Y1834236D02*
X1413433D01*
Y1826236D01*
X1421433D01*
Y1818236D01*
X1429433D01*
Y1826236D01*
X1421433D01*
Y1834236D01*
D02*
G37*
G36*
X1453433Y1770236D02*
X1445433D01*
Y1762236D01*
X1453433D01*
Y1770236D01*
D02*
G37*
G36*
X1317433Y962236D02*
X1309433D01*
Y954236D01*
X1317433D01*
Y962236D01*
D02*
G37*
%LPD*%
%TF.MD5,f0e67cc602cf76b0c83bc00ce58d78d9*%
M02*
