%TF.GenerationSoftware,Altium Limited,Altium Designer,20.1.12 (249)*%
G04 Layer_Physical_Order=2*
G04 Layer_Color=16711680*
%FSLAX26Y26*%
%MOIN*%
%TF.SameCoordinates,B967F61E-ED45-4387-9E05-25525081BA1A*%
%TF.FilePolarity,Positive*%
%TF.FileFunction,Copper,L2,Bot,Signal*%
%TF.Part,Single*%
G01*
G75*
%TA.AperFunction,ComponentPad*%
%ADD10C,0.159449*%
%ADD11C,0.074803*%
%ADD12C,0.066929*%
%ADD13C,0.086614*%
%ADD14C,0.069016*%
%ADD15R,0.069016X0.069016*%
%ADD16C,0.055118*%
%TA.AperFunction,Conductor*%
%ADD17C,0.010000*%
D10*
X399016Y375000D02*
D03*
Y1124213D02*
D03*
X1148465Y1123189D02*
D03*
X1897677D02*
D03*
X1148228Y375000D02*
D03*
X1897441D02*
D03*
X399016Y1873425D02*
D03*
X1148228D02*
D03*
X1897441D02*
D03*
D11*
X615551Y375000D02*
D03*
X182480D02*
D03*
Y1124213D02*
D03*
X615551D02*
D03*
X1365000Y1123189D02*
D03*
X931929D02*
D03*
X1681142D02*
D03*
X2114213D02*
D03*
X1364764Y375000D02*
D03*
X931693D02*
D03*
X1680905D02*
D03*
X2113976D02*
D03*
X615551Y1873425D02*
D03*
X182480D02*
D03*
X931693D02*
D03*
X1364764D02*
D03*
X2113976D02*
D03*
X1680905D02*
D03*
D12*
X599016Y375000D02*
D03*
X199016D02*
D03*
Y1124213D02*
D03*
X599016D02*
D03*
X1348465Y1123189D02*
D03*
X948465D02*
D03*
X1697677D02*
D03*
X2097677D02*
D03*
X1348228Y375000D02*
D03*
X948228D02*
D03*
X1697441D02*
D03*
X2097441D02*
D03*
X599016Y1873425D02*
D03*
X199016D02*
D03*
X948228D02*
D03*
X1348228D02*
D03*
X2097441D02*
D03*
X1697441D02*
D03*
D13*
X499016Y575000D02*
D03*
X249016Y475000D02*
D03*
Y1224213D02*
D03*
X499016Y1324213D02*
D03*
X1248465Y1323189D02*
D03*
X998465Y1223189D02*
D03*
X1747677D02*
D03*
X1997677Y1323189D02*
D03*
X1248228Y575000D02*
D03*
X998228Y475000D02*
D03*
X1747441D02*
D03*
X1997441Y575000D02*
D03*
X499016Y2073425D02*
D03*
X249016Y1973425D02*
D03*
X998228D02*
D03*
X1248228Y2073425D02*
D03*
X1997441D02*
D03*
X1747441Y1973425D02*
D03*
D14*
X1448854Y2124174D02*
D03*
Y1324174D02*
D03*
Y1724174D02*
D03*
Y1224174D02*
D03*
Y1524174D02*
D03*
Y1424174D02*
D03*
Y1924174D02*
D03*
Y1824174D02*
D03*
Y2224174D02*
D03*
Y2024174D02*
D03*
Y2324174D02*
D03*
Y1624174D02*
D03*
X848854Y1324174D02*
D03*
Y1724174D02*
D03*
Y2124174D02*
D03*
Y1224174D02*
D03*
Y1524174D02*
D03*
Y1424174D02*
D03*
Y1924174D02*
D03*
Y1824174D02*
D03*
Y2024174D02*
D03*
Y2224174D02*
D03*
Y1624174D02*
D03*
D15*
Y2324174D02*
D03*
D16*
X1788740Y2229291D02*
D03*
Y2410394D02*
D03*
X2048583Y2229291D02*
D03*
Y2410394D02*
D03*
D17*
X998465Y1223189D02*
X1399449Y1624174D01*
X249016Y1972835D02*
X453347D01*
X1668120Y1973425D02*
X1747441D01*
X1678976Y1222598D02*
X1745118D01*
X1657480Y1244094D02*
X1678976Y1222598D01*
X1657480Y1244094D02*
Y1312892D01*
X1448854Y1521518D02*
X1657480Y1312892D01*
X1448854Y770437D02*
X1745866Y473425D01*
X249016Y475000D02*
X520276D01*
X993386Y948110D01*
X998228Y475000D02*
Y810236D01*
X1273622Y1085630D01*
X998228Y1573548D02*
Y1973425D01*
X848854Y1424174D02*
X998228Y1573548D01*
X246457Y1223622D02*
X249016D01*
X249292Y1223898D01*
X848578D01*
X993386Y948110D02*
Y1104039D01*
X1273622Y1085630D02*
Y1148941D01*
X1448854Y1324174D01*
X453347Y1972835D02*
X520669Y1905512D01*
Y1852359D02*
X848854Y1524174D01*
X520669Y1852359D02*
Y1905512D01*
X1448854Y2124174D02*
X1596531Y2271850D01*
X1910039D01*
X2048583Y2410394D01*
X1283141Y1258460D02*
X1448854Y1424174D01*
X1147807Y1258460D02*
X1283141D01*
X993386Y1104039D02*
X1147807Y1258460D01*
X1448854Y770437D02*
Y1224174D01*
Y1521518D02*
Y1524174D01*
X1399449Y1624174D02*
X1448854D01*
X1298362Y1773682D02*
X1468377D01*
X1668120Y1973425D01*
X848854Y1324174D02*
X1298362Y1773682D01*
X848578Y1223898D02*
X848854Y1224174D01*
%TF.MD5,b999b4d4200084a327aae91653d1bfd9*%
M02*
