%TF.GenerationSoftware,Altium Limited,Altium Designer,20.1.12 (249)*%
G04 Layer_Color=0*
%FSLAX26Y26*%
%MOIN*%
%TF.SameCoordinates,D75832AC-A100-412D-90FB-EBA7F01B91C8*%
%TF.FilePolarity,Positive*%
%TF.FileFunction,Plated,1,2,PTH,Drill*%
%TF.Part,Single*%
G01*
G75*
%TA.AperFunction,ComponentDrill*%
%ADD31C,0.159449*%
%ADD32C,0.074803*%
%ADD33C,0.066929*%
%ADD34C,0.062992*%
%ADD35C,0.042992*%
%ADD36C,0.031496*%
%TA.AperFunction,ViaDrill,NotFilled*%
%ADD37C,0.011811*%
D31*
X1087382Y1832165D02*
D03*
X1836594Y2581378D02*
D03*
X1087389Y2581381D02*
D03*
X338169Y333740D02*
D03*
X1087382D02*
D03*
X1836594Y333740D02*
D03*
X2585807D02*
D03*
X1836605Y1082953D02*
D03*
X338169D02*
D03*
X1087382D02*
D03*
X2585807Y1082953D02*
D03*
X338169Y1832165D02*
D03*
X1836605D02*
D03*
X2585807Y1832165D02*
D03*
X338176Y2581381D02*
D03*
X2585807Y2581378D02*
D03*
D32*
X1303917Y1832165D02*
D03*
X870846D02*
D03*
X2053130Y2581378D02*
D03*
X1620059D02*
D03*
X1303925Y2581381D02*
D03*
X870854D02*
D03*
X554705Y333740D02*
D03*
X121634D02*
D03*
X1303917D02*
D03*
X870846D02*
D03*
X2053130Y333740D02*
D03*
X1620059D02*
D03*
X2802343D02*
D03*
X2369272D02*
D03*
X2053140Y1082953D02*
D03*
X1620070D02*
D03*
X554705D02*
D03*
X121634D02*
D03*
X1303918D02*
D03*
X870846D02*
D03*
X2802343Y1082953D02*
D03*
X2369272D02*
D03*
X554705Y1832165D02*
D03*
X121634D02*
D03*
X2053140D02*
D03*
X1620069D02*
D03*
X2802343Y1832165D02*
D03*
X2369272D02*
D03*
X554712Y2581381D02*
D03*
X121641D02*
D03*
X2802343Y2581378D02*
D03*
X2369272D02*
D03*
D33*
X1287382Y1832165D02*
D03*
X887382D02*
D03*
X2036594Y2581378D02*
D03*
X1636594D02*
D03*
X1287389Y2581381D02*
D03*
X887389D02*
D03*
X538169Y333740D02*
D03*
X138169D02*
D03*
X1287382D02*
D03*
X887382D02*
D03*
X2036594Y333740D02*
D03*
X1636594D02*
D03*
X2785807D02*
D03*
X2385807D02*
D03*
X2036605Y1082953D02*
D03*
X1636605D02*
D03*
X538169D02*
D03*
X138169D02*
D03*
X1287382D02*
D03*
X887382D02*
D03*
X2785807Y1082953D02*
D03*
X2385807D02*
D03*
X538169Y1832165D02*
D03*
X138169D02*
D03*
X2036605D02*
D03*
X1636605D02*
D03*
X2785807Y1832165D02*
D03*
X2385807D02*
D03*
X538176Y2581381D02*
D03*
X138176D02*
D03*
X2785807Y2581378D02*
D03*
X2385807D02*
D03*
D34*
X1187382Y2032165D02*
D03*
X937382Y1932165D02*
D03*
X1936594Y2781378D02*
D03*
X1686594Y2681378D02*
D03*
X1187389Y2781381D02*
D03*
X937389Y2681381D02*
D03*
X438169Y533740D02*
D03*
X188169Y433740D02*
D03*
X1187382Y533740D02*
D03*
X937382Y433740D02*
D03*
X1936594Y533740D02*
D03*
X1686594Y433740D02*
D03*
X2685807Y533740D02*
D03*
X2435807Y433740D02*
D03*
X1936605Y1282953D02*
D03*
X1686605Y1182953D02*
D03*
X438169Y1282953D02*
D03*
X188169Y1182953D02*
D03*
X1187382Y1282953D02*
D03*
X937382Y1182953D02*
D03*
X2685807Y1282953D02*
D03*
X2435807Y1182953D02*
D03*
X438169Y2032165D02*
D03*
X188169Y1932165D02*
D03*
X1936605Y2032165D02*
D03*
X1686605Y1932165D02*
D03*
X2685807Y2032165D02*
D03*
X2435807Y1932165D02*
D03*
X438176Y2781381D02*
D03*
X188176Y2681381D02*
D03*
X2685807Y2781378D02*
D03*
X2435807Y2681378D02*
D03*
D35*
X787795Y2249213D02*
D03*
Y2949213D02*
D03*
Y2849213D02*
D03*
Y2649213D02*
D03*
Y2449213D02*
D03*
Y2549213D02*
D03*
Y2049213D02*
D03*
Y2149213D02*
D03*
Y1849213D02*
D03*
Y2749213D02*
D03*
Y2349213D02*
D03*
Y1949213D02*
D03*
X1387795Y2249213D02*
D03*
Y2949213D02*
D03*
Y2649213D02*
D03*
Y2849213D02*
D03*
Y2449213D02*
D03*
Y2549213D02*
D03*
Y2049213D02*
D03*
Y2149213D02*
D03*
Y1849213D02*
D03*
Y2349213D02*
D03*
Y1949213D02*
D03*
Y2749213D02*
D03*
D36*
X2112598Y3106693D02*
D03*
Y2925591D02*
D03*
X1852756Y3106693D02*
D03*
Y2925591D02*
D03*
D37*
X1068898Y2048228D02*
D03*
X989173Y1700787D02*
D03*
X708661Y1091535D02*
D03*
X1759842Y1461614D02*
D03*
X1053150Y2755905D02*
D03*
%TF.MD5,a0737c87d52af6d292d0caf84d82127b*%
M02*
