%TF.GenerationSoftware,Altium Limited,Altium Designer,20.1.12 (249)*%
G04 Layer_Physical_Order=2*
G04 Layer_Color=16711680*
%FSLAX26Y26*%
%MOIN*%
%TF.SameCoordinates,D75832AC-A100-412D-90FB-EBA7F01B91C8*%
%TF.FilePolarity,Positive*%
%TF.FileFunction,Copper,L2,Bot,Signal*%
%TF.Part,Single*%
G01*
G75*
%TA.AperFunction,Conductor*%
%ADD10C,0.010000*%
%TA.AperFunction,ComponentPad*%
%ADD11C,0.159449*%
%ADD12C,0.074803*%
%ADD13C,0.066929*%
%ADD14C,0.086614*%
%ADD15C,0.069016*%
%ADD16R,0.069016X0.069016*%
%ADD17C,0.055118*%
%TA.AperFunction,ViaPad*%
%ADD18C,0.023622*%
G36*
X2879266Y3167173D02*
X2889297Y3163018D01*
X2898325Y3156986D01*
X2906002Y3149309D01*
X2912034Y3140281D01*
X2916189Y3130251D01*
X2918307Y3119602D01*
Y3114173D01*
Y60039D01*
Y54611D01*
X2916189Y43962D01*
X2912034Y33931D01*
X2906002Y24904D01*
X2898325Y17226D01*
X2889297Y11194D01*
X2879266Y7039D01*
X2868618Y4921D01*
X2863189Y4921D01*
X52836D01*
X42568Y6964D01*
X32895Y10970D01*
X24190Y16787D01*
X16787Y24190D01*
X10970Y32895D01*
X6964Y42568D01*
X4921Y52836D01*
Y58071D01*
Y3114173D01*
Y3119602D01*
X7039Y3130251D01*
X11194Y3140281D01*
X17226Y3149309D01*
X24904Y3156986D01*
X33931Y3163018D01*
X43962Y3167173D01*
X54611Y3169291D01*
X2868618D01*
X2879266Y3167173D01*
D02*
G37*
%LPC*%
G36*
X1857756Y3143918D02*
Y3111693D01*
X1889981D01*
X1889348Y3116498D01*
X1885564Y3125635D01*
X1879543Y3133481D01*
X1871697Y3139501D01*
X1862561Y3143285D01*
X1857756Y3143918D01*
D02*
G37*
G36*
X1847756D02*
X1842951Y3143285D01*
X1833814Y3139501D01*
X1825968Y3133481D01*
X1819948Y3125635D01*
X1816164Y3116498D01*
X1815531Y3111693D01*
X1847756D01*
Y3143918D01*
D02*
G37*
G36*
X1889981Y3101693D02*
X1857756D01*
Y3069468D01*
X1862561Y3070101D01*
X1871697Y3073885D01*
X1879543Y3079906D01*
X1885564Y3087752D01*
X1889348Y3096888D01*
X1889981Y3101693D01*
D02*
G37*
G36*
X1847756D02*
X1815531D01*
X1816164Y3096888D01*
X1819948Y3087752D01*
X1825968Y3079906D01*
X1833814Y3073885D01*
X1842951Y3070101D01*
X1847756Y3069468D01*
Y3101693D01*
D02*
G37*
G36*
X2112598Y3144576D02*
X2102794Y3143285D01*
X2093657Y3139501D01*
X2085811Y3133481D01*
X2079791Y3125635D01*
X2076006Y3116498D01*
X2074715Y3106693D01*
X2076006Y3096888D01*
X2079791Y3087751D01*
X2085811Y3079906D01*
X2093657Y3073885D01*
X2102794Y3070101D01*
X2112598Y3068810D01*
X2122403Y3070101D01*
X2131540Y3073885D01*
X2139386Y3079906D01*
X2145406Y3087751D01*
X2149191Y3096888D01*
X2150481Y3106693D01*
X2149191Y3116498D01*
X2145406Y3125635D01*
X2139386Y3133481D01*
X2131540Y3139501D01*
X2122403Y3143285D01*
X2112598Y3144576D01*
D02*
G37*
G36*
X1387795Y2994104D02*
X1376176Y2992575D01*
X1365349Y2988090D01*
X1356052Y2980956D01*
X1348918Y2971659D01*
X1344433Y2960831D01*
X1342903Y2949213D01*
X1344433Y2937594D01*
X1348918Y2926767D01*
X1356052Y2917469D01*
X1365349Y2910335D01*
X1376176Y2905850D01*
X1387795Y2904321D01*
X1399414Y2905850D01*
X1410241Y2910335D01*
X1419539Y2917469D01*
X1426673Y2926767D01*
X1431158Y2937594D01*
X1432687Y2949213D01*
X1431158Y2960831D01*
X1426673Y2971659D01*
X1419539Y2980956D01*
X1410241Y2988090D01*
X1399414Y2992575D01*
X1387795Y2994104D01*
D02*
G37*
G36*
X2112598Y2963474D02*
X2102794Y2962183D01*
X2093657Y2958398D01*
X2085811Y2952378D01*
X2079791Y2944532D01*
X2076006Y2935396D01*
X2074715Y2925591D01*
X2076006Y2915786D01*
X2079791Y2906649D01*
X2085811Y2898803D01*
X2093657Y2892783D01*
X2102794Y2888998D01*
X2112598Y2887708D01*
X2122403Y2888998D01*
X2131540Y2892783D01*
X2139386Y2898803D01*
X2145406Y2906649D01*
X2149191Y2915786D01*
X2150481Y2925591D01*
X2149191Y2935396D01*
X2145406Y2944532D01*
X2139386Y2952378D01*
X2131540Y2958398D01*
X2122403Y2962183D01*
X2112598Y2963474D01*
D02*
G37*
G36*
X1852756D02*
X1842951Y2962183D01*
X1833814Y2958398D01*
X1825968Y2952378D01*
X1819948Y2944532D01*
X1816164Y2935396D01*
X1814873Y2925591D01*
X1816164Y2915786D01*
X1819948Y2906649D01*
X1825968Y2898803D01*
X1833814Y2892783D01*
X1842951Y2888998D01*
X1852756Y2887708D01*
X1862561Y2888998D01*
X1871697Y2892783D01*
X1879543Y2898803D01*
X1885564Y2906649D01*
X1889348Y2915786D01*
X1890639Y2925591D01*
X1889348Y2935396D01*
X1885564Y2944532D01*
X1879543Y2952378D01*
X1871697Y2958398D01*
X1862561Y2962183D01*
X1852756Y2963474D01*
D02*
G37*
G36*
X1392795Y2893446D02*
Y2854213D01*
X1432029D01*
X1431158Y2860831D01*
X1426673Y2871659D01*
X1419539Y2880956D01*
X1410241Y2888090D01*
X1399414Y2892575D01*
X1392795Y2893446D01*
D02*
G37*
G36*
X1382795D02*
X1376176Y2892575D01*
X1365349Y2888090D01*
X1356052Y2880956D01*
X1348918Y2871659D01*
X1344433Y2860831D01*
X1343562Y2854213D01*
X1382795D01*
Y2893446D01*
D02*
G37*
G36*
X1432029Y2844213D02*
X1392795D01*
Y2804979D01*
X1399414Y2805850D01*
X1410241Y2810335D01*
X1419539Y2817469D01*
X1426673Y2826767D01*
X1431158Y2837594D01*
X1432029Y2844213D01*
D02*
G37*
G36*
X1382795D02*
X1343562D01*
X1344433Y2837594D01*
X1348918Y2826767D01*
X1356052Y2817469D01*
X1365349Y2810335D01*
X1376176Y2805850D01*
X1382795Y2804979D01*
Y2844213D01*
D02*
G37*
G36*
X787795Y2894104D02*
X776176Y2892575D01*
X765349Y2888090D01*
X756052Y2880956D01*
X748918Y2871659D01*
X744433Y2860831D01*
X742903Y2849213D01*
X744433Y2837594D01*
X748918Y2826767D01*
X756052Y2817469D01*
X765349Y2810335D01*
X776176Y2805850D01*
X787795Y2804321D01*
X799414Y2805850D01*
X810241Y2810335D01*
X819539Y2817469D01*
X826673Y2826767D01*
X831158Y2837594D01*
X832687Y2849213D01*
X831158Y2860831D01*
X826673Y2871659D01*
X819539Y2880956D01*
X810241Y2888090D01*
X799414Y2892575D01*
X787795Y2894104D01*
D02*
G37*
G36*
X1192389Y2834490D02*
Y2786381D01*
X1240498D01*
X1239324Y2795297D01*
X1233953Y2808265D01*
X1225408Y2819401D01*
X1214273Y2827945D01*
X1201305Y2833316D01*
X1192389Y2834490D01*
D02*
G37*
G36*
X1182389D02*
X1173473Y2833316D01*
X1160505Y2827945D01*
X1149370Y2819401D01*
X1140825Y2808265D01*
X1135454Y2795297D01*
X1134280Y2786381D01*
X1182389D01*
Y2834490D01*
D02*
G37*
G36*
X443176D02*
Y2786381D01*
X491285D01*
X490111Y2795297D01*
X484740Y2808265D01*
X476195Y2819401D01*
X465060Y2827945D01*
X452092Y2833316D01*
X443176Y2834490D01*
D02*
G37*
G36*
X433176D02*
X424260Y2833316D01*
X411293Y2827945D01*
X400157Y2819401D01*
X391613Y2808265D01*
X386241Y2795297D01*
X385068Y2786381D01*
X433176D01*
Y2834490D01*
D02*
G37*
G36*
X2690807Y2834487D02*
Y2786378D01*
X2738916D01*
X2737742Y2795294D01*
X2732371Y2808262D01*
X2723826Y2819397D01*
X2712691Y2827942D01*
X2699723Y2833313D01*
X2690807Y2834487D01*
D02*
G37*
G36*
X2680807D02*
X2671891Y2833313D01*
X2658924Y2827942D01*
X2647788Y2819397D01*
X2639243Y2808262D01*
X2633872Y2795294D01*
X2632698Y2786378D01*
X2680807D01*
Y2834487D01*
D02*
G37*
G36*
X1941594Y2834487D02*
Y2786378D01*
X1989703D01*
X1988530Y2795294D01*
X1983158Y2808261D01*
X1974614Y2819397D01*
X1963478Y2827942D01*
X1950510Y2833313D01*
X1941594Y2834487D01*
D02*
G37*
G36*
X1931594D02*
X1922679Y2833313D01*
X1909711Y2827942D01*
X1898575Y2819397D01*
X1890031Y2808261D01*
X1884659Y2795294D01*
X1883486Y2786378D01*
X1931594D01*
Y2834487D01*
D02*
G37*
G36*
X792795Y2793446D02*
Y2754213D01*
X832029D01*
X831158Y2760831D01*
X826673Y2771659D01*
X819539Y2780956D01*
X810241Y2788090D01*
X799414Y2792575D01*
X792795Y2793446D01*
D02*
G37*
G36*
X782795D02*
X776176Y2792575D01*
X765349Y2788090D01*
X756052Y2780956D01*
X748918Y2771659D01*
X744433Y2760831D01*
X743562Y2754213D01*
X782795D01*
Y2793446D01*
D02*
G37*
G36*
X1240498Y2776381D02*
X1192389D01*
Y2728273D01*
X1201305Y2729447D01*
X1214273Y2734818D01*
X1225408Y2743362D01*
X1233953Y2754498D01*
X1239324Y2767466D01*
X1240498Y2776381D01*
D02*
G37*
G36*
X1182389D02*
X1134280D01*
X1135454Y2767466D01*
X1140825Y2754498D01*
X1149370Y2743362D01*
X1160505Y2734818D01*
X1173473Y2729447D01*
X1182389Y2728273D01*
Y2776381D01*
D02*
G37*
G36*
X491285D02*
X443176D01*
Y2728273D01*
X452092Y2729447D01*
X465060Y2734818D01*
X476195Y2743362D01*
X484740Y2754498D01*
X490111Y2767466D01*
X491285Y2776381D01*
D02*
G37*
G36*
X433176D02*
X385068D01*
X386241Y2767466D01*
X391613Y2754498D01*
X400157Y2743362D01*
X411293Y2734818D01*
X424260Y2729447D01*
X433176Y2728273D01*
Y2776381D01*
D02*
G37*
G36*
X2738916Y2776378D02*
X2690807D01*
Y2728269D01*
X2699723Y2729443D01*
X2712691Y2734814D01*
X2723826Y2743359D01*
X2732371Y2754494D01*
X2737742Y2767462D01*
X2738916Y2776378D01*
D02*
G37*
G36*
X2680807D02*
X2632698D01*
X2633872Y2767462D01*
X2639243Y2754494D01*
X2647788Y2743359D01*
X2658924Y2734814D01*
X2671891Y2729443D01*
X2680807Y2728269D01*
Y2776378D01*
D02*
G37*
G36*
X832303Y2993720D02*
X743288D01*
Y2904705D01*
X810674D01*
X922095Y2793284D01*
Y2732746D01*
X910505Y2727945D01*
X899370Y2719401D01*
X890825Y2708265D01*
X885454Y2695297D01*
X883622Y2681381D01*
X883678Y2680959D01*
X879193Y2678748D01*
X848406Y2709535D01*
X843444Y2712850D01*
X837591Y2714014D01*
X822794D01*
X820724Y2719014D01*
X826673Y2726767D01*
X831158Y2737594D01*
X832029Y2744213D01*
X743562D01*
X744433Y2737594D01*
X748918Y2726767D01*
X754866Y2719014D01*
X752797Y2714014D01*
X517275D01*
X511422Y2712850D01*
X506460Y2709535D01*
X493601Y2696675D01*
X239541D01*
X234740Y2708265D01*
X226196Y2719401D01*
X215060Y2727945D01*
X202092Y2733316D01*
X188176Y2735149D01*
X174261Y2733316D01*
X161293Y2727945D01*
X150157Y2719401D01*
X141613Y2708265D01*
X136241Y2695297D01*
X134409Y2681381D01*
X136241Y2667466D01*
X141613Y2654498D01*
X150157Y2643362D01*
X161293Y2634818D01*
X174261Y2629447D01*
X188176Y2627614D01*
X202092Y2629447D01*
X215060Y2634818D01*
X226196Y2643362D01*
X234740Y2654498D01*
X239541Y2666088D01*
X295706D01*
X296959Y2661088D01*
X288087Y2656346D01*
X274425Y2645133D01*
X263212Y2631471D01*
X254881Y2615884D01*
X249750Y2598971D01*
X248018Y2581381D01*
X249750Y2563792D01*
X254881Y2546879D01*
X263212Y2531292D01*
X274425Y2517630D01*
X288087Y2506417D01*
X303674Y2498086D01*
X320587Y2492955D01*
X338176Y2491223D01*
X355765Y2492955D01*
X372679Y2498086D01*
X388266Y2506417D01*
X401928Y2517630D01*
X413140Y2531292D01*
X421472Y2546879D01*
X426603Y2563792D01*
X428335Y2581381D01*
X426603Y2598971D01*
X421472Y2615884D01*
X413140Y2631471D01*
X401928Y2645133D01*
X388266Y2656346D01*
X379394Y2661088D01*
X380647Y2666088D01*
X499936D01*
X505788Y2667252D01*
X510750Y2670567D01*
X523610Y2683427D01*
X751645D01*
X754111Y2678427D01*
X748918Y2671659D01*
X744433Y2660831D01*
X743562Y2654213D01*
X832029D01*
X831158Y2660831D01*
X826673Y2671659D01*
X821480Y2678427D01*
X823945Y2683427D01*
X831256D01*
X881903Y2632781D01*
X879567Y2628045D01*
X870854Y2629192D01*
X858479Y2627563D01*
X846948Y2622787D01*
X837046Y2615189D01*
X829448Y2605287D01*
X824672Y2593756D01*
X823396Y2584063D01*
X822554Y2583385D01*
X818090Y2582068D01*
X810241Y2588090D01*
X799414Y2592575D01*
X787795Y2594104D01*
X776176Y2592575D01*
X765349Y2588090D01*
X756052Y2580956D01*
X748918Y2571659D01*
X744433Y2560831D01*
X742903Y2549213D01*
X744433Y2537594D01*
X748918Y2526767D01*
X756052Y2517469D01*
X765349Y2510335D01*
X776176Y2505850D01*
X787795Y2504321D01*
X799414Y2505850D01*
X810241Y2510335D01*
X819539Y2517469D01*
X826673Y2526767D01*
X831158Y2537594D01*
X832218Y2545653D01*
X835515Y2546965D01*
X837472Y2547248D01*
X846948Y2539976D01*
X858479Y2535200D01*
X870854Y2533571D01*
X883228Y2535200D01*
X889577Y2537830D01*
X898735Y2539036D01*
X909309Y2543415D01*
X918388Y2550382D01*
X925355Y2559462D01*
X929735Y2570035D01*
X931229Y2581381D01*
X929735Y2592728D01*
X925571Y2602780D01*
X926954Y2606544D01*
X927564Y2607780D01*
X995121D01*
X996493Y2608053D01*
X1000408Y2603734D01*
X998963Y2598971D01*
X997231Y2581381D01*
X998963Y2563792D01*
X1004093Y2546879D01*
X1012425Y2531292D01*
X1023637Y2517630D01*
X1037300Y2506417D01*
X1052887Y2498086D01*
X1069800Y2492955D01*
X1087389Y2491223D01*
X1104978Y2492955D01*
X1121891Y2498086D01*
X1137478Y2506417D01*
X1151141Y2517630D01*
X1162353Y2531292D01*
X1170685Y2546879D01*
X1175815Y2563792D01*
X1177547Y2581381D01*
X1175815Y2598971D01*
X1170685Y2615884D01*
X1162353Y2631471D01*
X1151141Y2645133D01*
X1138129Y2655812D01*
X1138668Y2660812D01*
X1276972D01*
X1303768Y2634016D01*
X1301801Y2628912D01*
X1291550Y2627563D01*
X1285201Y2624933D01*
X1276043Y2623727D01*
X1265469Y2619348D01*
X1256390Y2612381D01*
X1249423Y2603301D01*
X1245043Y2592728D01*
X1243549Y2581381D01*
X1245043Y2570035D01*
X1249423Y2559462D01*
X1256390Y2550382D01*
X1265469Y2543415D01*
X1276043Y2539036D01*
X1285201Y2537830D01*
X1291550Y2535200D01*
X1303925Y2533571D01*
X1316299Y2535200D01*
X1327830Y2539976D01*
X1337732Y2547574D01*
X1338025Y2547957D01*
X1343253Y2546557D01*
X1344433Y2537594D01*
X1348918Y2526767D01*
X1356052Y2517469D01*
X1365349Y2510335D01*
X1376176Y2505850D01*
X1387795Y2504321D01*
X1399414Y2505850D01*
X1410241Y2510335D01*
X1419539Y2517469D01*
X1426673Y2526767D01*
X1431158Y2537594D01*
X1432687Y2549213D01*
X1431158Y2560831D01*
X1426673Y2571659D01*
X1419539Y2580956D01*
X1410241Y2588090D01*
X1399414Y2592575D01*
X1387795Y2594104D01*
X1387037Y2594005D01*
X1380850Y2600192D01*
X1383185Y2604928D01*
X1387795Y2604321D01*
X1399414Y2605850D01*
X1410241Y2610335D01*
X1419539Y2617469D01*
X1426673Y2626767D01*
X1431158Y2637594D01*
X1432687Y2649213D01*
X1431158Y2660831D01*
X1426673Y2671659D01*
X1420724Y2679411D01*
X1422794Y2684411D01*
X1482599D01*
X1488452Y2685575D01*
X1493414Y2688890D01*
X1528915Y2724391D01*
X1647306D01*
X1648914Y2719656D01*
X1648575Y2719397D01*
X1640031Y2708261D01*
X1634659Y2695294D01*
X1633835Y2689029D01*
X1612318D01*
X1606465Y2687865D01*
X1601503Y2684550D01*
X1406566Y2489612D01*
X1399414Y2492575D01*
X1387795Y2494104D01*
X1376176Y2492575D01*
X1365349Y2488090D01*
X1356052Y2480956D01*
X1348918Y2471659D01*
X1344433Y2460831D01*
X1342903Y2449213D01*
X1344433Y2437594D01*
X1348918Y2426767D01*
X1356052Y2417469D01*
X1365349Y2410335D01*
X1376176Y2405850D01*
X1387795Y2404321D01*
X1399414Y2405850D01*
X1410241Y2410335D01*
X1419539Y2417469D01*
X1426673Y2426767D01*
X1431158Y2437594D01*
X1432687Y2449213D01*
X1431158Y2460831D01*
X1428195Y2467983D01*
X1618653Y2658441D01*
X1638396D01*
X1640031Y2654494D01*
X1648575Y2643359D01*
X1659711Y2634814D01*
X1672679Y2629443D01*
X1686594Y2627611D01*
X1700510Y2629443D01*
X1713478Y2634814D01*
X1724614Y2643359D01*
X1733158Y2654494D01*
X1738530Y2667462D01*
X1740362Y2681378D01*
X1738530Y2695294D01*
X1733158Y2708261D01*
X1724614Y2719397D01*
X1724275Y2719656D01*
X1725883Y2724391D01*
X1889494D01*
X1943321Y2670564D01*
X1948283Y2667248D01*
X1954136Y2666084D01*
X2384443D01*
X2389243Y2654494D01*
X2397788Y2643359D01*
X2408924Y2634814D01*
X2421891Y2629443D01*
X2435807Y2627611D01*
X2449723Y2629443D01*
X2462691Y2634814D01*
X2473826Y2643359D01*
X2482371Y2654494D01*
X2487742Y2667462D01*
X2489574Y2681378D01*
X2487742Y2695294D01*
X2482371Y2708262D01*
X2473826Y2719397D01*
X2462691Y2727942D01*
X2449723Y2733313D01*
X2435807Y2735145D01*
X2421891Y2733313D01*
X2408924Y2727942D01*
X2397788Y2719397D01*
X2389243Y2708262D01*
X2384443Y2696672D01*
X1960471D01*
X1933961Y2723182D01*
X1936172Y2727666D01*
X1936594Y2727611D01*
X1950510Y2729443D01*
X1963478Y2734814D01*
X1974614Y2743359D01*
X1983158Y2754494D01*
X1988530Y2767462D01*
X1989703Y2776378D01*
X1883486D01*
X1884659Y2767462D01*
X1888108Y2759136D01*
X1885330Y2754979D01*
X1522580D01*
X1516727Y2753815D01*
X1511765Y2750499D01*
X1476264Y2714999D01*
X1423945D01*
X1421480Y2719999D01*
X1426673Y2726767D01*
X1431158Y2737594D01*
X1432687Y2749213D01*
X1431158Y2760831D01*
X1426673Y2771659D01*
X1419539Y2780956D01*
X1410241Y2788090D01*
X1399414Y2792575D01*
X1387795Y2794104D01*
X1376176Y2792575D01*
X1365349Y2788090D01*
X1356052Y2780956D01*
X1348918Y2771659D01*
X1344433Y2760831D01*
X1342903Y2749213D01*
X1344433Y2737594D01*
X1348918Y2726767D01*
X1354111Y2719999D01*
X1351645Y2714999D01*
X1115685D01*
X1075287Y2755397D01*
X1075388Y2755905D01*
X1073695Y2764416D01*
X1068874Y2771630D01*
X1061660Y2776451D01*
X1053150Y2778144D01*
X1044639Y2776451D01*
X1037425Y2771630D01*
X1032604Y2764416D01*
X1030911Y2755905D01*
X1032604Y2747395D01*
X1037425Y2740181D01*
X1044639Y2735360D01*
X1053150Y2733667D01*
X1053658Y2733768D01*
X1091407Y2696019D01*
X1089494Y2691400D01*
X1048153D01*
X1042300Y2690236D01*
X1037339Y2686920D01*
X988787Y2638368D01*
X976677D01*
X975070Y2643103D01*
X975408Y2643362D01*
X983953Y2654498D01*
X989324Y2667466D01*
X991156Y2681381D01*
X989324Y2695297D01*
X983953Y2708265D01*
X975408Y2719401D01*
X964273Y2727945D01*
X952683Y2732746D01*
Y2799619D01*
X951519Y2805472D01*
X948203Y2810433D01*
X832303Y2926334D01*
Y2993720D01*
D02*
G37*
G36*
X832029Y2644213D02*
X792795D01*
Y2604979D01*
X799414Y2605850D01*
X810241Y2610335D01*
X819539Y2617469D01*
X826673Y2626767D01*
X831158Y2637594D01*
X832029Y2644213D01*
D02*
G37*
G36*
X782795D02*
X743562D01*
X744433Y2637594D01*
X748918Y2626767D01*
X756052Y2617469D01*
X765349Y2610335D01*
X776176Y2605850D01*
X782795Y2604979D01*
Y2644213D01*
D02*
G37*
G36*
X554712Y2629192D02*
X542338Y2627563D01*
X535989Y2624933D01*
X526830Y2623727D01*
X516257Y2619348D01*
X507177Y2612381D01*
X500210Y2603301D01*
X495831Y2592728D01*
X494337Y2581381D01*
X495831Y2570035D01*
X500210Y2559462D01*
X507177Y2550382D01*
X516257Y2543415D01*
X526830Y2539036D01*
X535989Y2537830D01*
X542338Y2535200D01*
X554712Y2533571D01*
X567086Y2535200D01*
X578617Y2539976D01*
X588519Y2547574D01*
X596117Y2557476D01*
X600893Y2569007D01*
X602522Y2581381D01*
X600893Y2593756D01*
X596117Y2605287D01*
X588519Y2615189D01*
X578617Y2622787D01*
X567086Y2627563D01*
X554712Y2629192D01*
D02*
G37*
G36*
X121641D02*
X109267Y2627563D01*
X97736Y2622787D01*
X87834Y2615189D01*
X80236Y2605287D01*
X75460Y2593756D01*
X73830Y2581381D01*
X75460Y2569007D01*
X80236Y2557476D01*
X87834Y2547574D01*
X97736Y2539976D01*
X109267Y2535200D01*
X121641Y2533571D01*
X134015Y2535200D01*
X140364Y2537830D01*
X149523Y2539036D01*
X160096Y2543415D01*
X169176Y2550382D01*
X176143Y2559462D01*
X180522Y2570035D01*
X182016Y2581381D01*
X180522Y2592728D01*
X176143Y2603301D01*
X169176Y2612381D01*
X160096Y2619348D01*
X149523Y2623727D01*
X140364Y2624933D01*
X134015Y2627563D01*
X121641Y2629192D01*
D02*
G37*
G36*
X2802343Y2629189D02*
X2789968Y2627559D01*
X2783619Y2624930D01*
X2774461Y2623724D01*
X2763887Y2619344D01*
X2754808Y2612377D01*
X2747841Y2603298D01*
X2743461Y2592724D01*
X2741968Y2581378D01*
X2743461Y2570032D01*
X2747841Y2559458D01*
X2754808Y2550379D01*
X2763887Y2543412D01*
X2774461Y2539032D01*
X2783619Y2537826D01*
X2789968Y2535197D01*
X2802343Y2533568D01*
X2814717Y2535197D01*
X2826248Y2539973D01*
X2836150Y2547571D01*
X2843748Y2557473D01*
X2848524Y2569004D01*
X2850153Y2581378D01*
X2848524Y2593752D01*
X2843748Y2605283D01*
X2836150Y2615185D01*
X2826248Y2622783D01*
X2814717Y2627559D01*
X2802343Y2629189D01*
D02*
G37*
G36*
X2369272D02*
X2356897Y2627559D01*
X2345366Y2622783D01*
X2335465Y2615185D01*
X2327867Y2605283D01*
X2323090Y2593752D01*
X2321461Y2581378D01*
X2323090Y2569004D01*
X2327867Y2557473D01*
X2335465Y2547571D01*
X2345366Y2539973D01*
X2356897Y2535197D01*
X2369272Y2533568D01*
X2381646Y2535197D01*
X2387995Y2537826D01*
X2397153Y2539032D01*
X2407727Y2543412D01*
X2416806Y2550379D01*
X2423773Y2559458D01*
X2428153Y2570032D01*
X2429647Y2581378D01*
X2428153Y2592724D01*
X2423773Y2603298D01*
X2416806Y2612377D01*
X2407727Y2619344D01*
X2397153Y2623724D01*
X2387995Y2624930D01*
X2381646Y2627559D01*
X2369272Y2629189D01*
D02*
G37*
G36*
X2053130Y2629188D02*
X2040756Y2627559D01*
X2034407Y2624930D01*
X2025248Y2623724D01*
X2014675Y2619344D01*
X2005595Y2612377D01*
X1998628Y2603298D01*
X1994249Y2592724D01*
X1992755Y2581378D01*
X1994249Y2570031D01*
X1998628Y2559458D01*
X2005595Y2550379D01*
X2014675Y2543412D01*
X2025248Y2539032D01*
X2034407Y2537826D01*
X2040756Y2535197D01*
X2053130Y2533567D01*
X2065504Y2535197D01*
X2077035Y2539973D01*
X2086937Y2547571D01*
X2094535Y2557473D01*
X2099311Y2569004D01*
X2100941Y2581378D01*
X2099311Y2593752D01*
X2094535Y2605283D01*
X2086937Y2615185D01*
X2077035Y2622783D01*
X2065504Y2627559D01*
X2053130Y2629188D01*
D02*
G37*
G36*
X1620059D02*
X1607685Y2627559D01*
X1596154Y2622783D01*
X1586252Y2615185D01*
X1578654Y2605283D01*
X1573878Y2593752D01*
X1572248Y2581378D01*
X1573878Y2569004D01*
X1578654Y2557473D01*
X1586252Y2547571D01*
X1596154Y2539973D01*
X1607685Y2535197D01*
X1620059Y2533567D01*
X1632433Y2535197D01*
X1638782Y2537826D01*
X1647941Y2539032D01*
X1658514Y2543412D01*
X1667594Y2550379D01*
X1674561Y2559458D01*
X1678940Y2570031D01*
X1680434Y2581378D01*
X1678940Y2592724D01*
X1674561Y2603298D01*
X1667594Y2612377D01*
X1658514Y2619344D01*
X1647941Y2623724D01*
X1638782Y2624930D01*
X1632433Y2627559D01*
X1620059Y2629188D01*
D02*
G37*
G36*
X2585807Y2671537D02*
X2568218Y2669804D01*
X2551305Y2664674D01*
X2535718Y2656342D01*
X2522055Y2645130D01*
X2510843Y2631467D01*
X2502512Y2615880D01*
X2497381Y2598967D01*
X2495649Y2581378D01*
X2497381Y2563789D01*
X2502512Y2546876D01*
X2510843Y2531289D01*
X2522055Y2517626D01*
X2535718Y2506414D01*
X2551305Y2498082D01*
X2568218Y2492952D01*
X2585807Y2491220D01*
X2603396Y2492952D01*
X2620309Y2498082D01*
X2635896Y2506414D01*
X2649559Y2517626D01*
X2660771Y2531289D01*
X2669103Y2546876D01*
X2674233Y2563789D01*
X2675966Y2581378D01*
X2674233Y2598967D01*
X2669103Y2615880D01*
X2660771Y2631467D01*
X2649559Y2645130D01*
X2635896Y2656342D01*
X2620309Y2664674D01*
X2603396Y2669804D01*
X2585807Y2671537D01*
D02*
G37*
G36*
X1836594Y2671536D02*
X1819005Y2669804D01*
X1802092Y2664673D01*
X1786505Y2656342D01*
X1772843Y2645130D01*
X1761630Y2631467D01*
X1753299Y2615880D01*
X1748168Y2598967D01*
X1746436Y2581378D01*
X1748168Y2563789D01*
X1753299Y2546876D01*
X1761630Y2531289D01*
X1772843Y2517626D01*
X1786505Y2506414D01*
X1802092Y2498082D01*
X1819005Y2492952D01*
X1836594Y2491219D01*
X1854184Y2492952D01*
X1871097Y2498082D01*
X1886684Y2506414D01*
X1900346Y2517626D01*
X1911559Y2531289D01*
X1919890Y2546876D01*
X1925021Y2563789D01*
X1926753Y2581378D01*
X1925021Y2598967D01*
X1919890Y2615880D01*
X1911559Y2631467D01*
X1900346Y2645130D01*
X1886684Y2656342D01*
X1871097Y2664673D01*
X1854184Y2669804D01*
X1836594Y2671536D01*
D02*
G37*
G36*
X787795Y2494104D02*
X776176Y2492575D01*
X765349Y2488090D01*
X756052Y2480956D01*
X748918Y2471659D01*
X744433Y2460831D01*
X742903Y2449213D01*
X744433Y2437594D01*
X748918Y2426767D01*
X754866Y2419014D01*
X752797Y2414014D01*
X683968D01*
X681439Y2415704D01*
X675586Y2416869D01*
X657579D01*
X651726Y2415704D01*
X646764Y2412389D01*
X213675Y1979300D01*
X202085Y1984100D01*
X188169Y1985932D01*
X174253Y1984100D01*
X161286Y1978729D01*
X150150Y1970185D01*
X141606Y1959049D01*
X136234Y1946081D01*
X134402Y1932165D01*
X136234Y1918249D01*
X141606Y1905282D01*
X150150Y1894146D01*
X161286Y1885602D01*
X174253Y1880230D01*
X188169Y1878398D01*
X202085Y1880230D01*
X215053Y1885602D01*
X226188Y1894146D01*
X234733Y1905282D01*
X240104Y1918249D01*
X241936Y1932165D01*
X240104Y1946081D01*
X235304Y1957671D01*
X663914Y2386281D01*
X670058D01*
X672588Y2384591D01*
X678441Y2383427D01*
X751645D01*
X754111Y2378427D01*
X748918Y2371659D01*
X744433Y2360831D01*
X742903Y2349213D01*
X744433Y2337594D01*
X748918Y2326767D01*
X756052Y2317469D01*
X765349Y2310335D01*
X776176Y2305850D01*
X787795Y2304321D01*
X799414Y2305850D01*
X810241Y2310335D01*
X819539Y2317469D01*
X826673Y2326767D01*
X831158Y2337594D01*
X832687Y2349213D01*
X831158Y2360831D01*
X826673Y2371659D01*
X821480Y2378427D01*
X823945Y2383427D01*
X1331953D01*
X1347396Y2367983D01*
X1344433Y2360831D01*
X1342903Y2349213D01*
X1344433Y2337594D01*
X1348918Y2326767D01*
X1354866Y2319014D01*
X1352797Y2314014D01*
X1130787D01*
X1124935Y2312850D01*
X1119973Y2309535D01*
X1074945Y2264506D01*
X829635D01*
X826673Y2271659D01*
X819539Y2280956D01*
X810241Y2288090D01*
X799414Y2292575D01*
X787795Y2294104D01*
X776176Y2292575D01*
X765349Y2288090D01*
X756052Y2280956D01*
X748918Y2271659D01*
X744433Y2260831D01*
X742903Y2249213D01*
X744433Y2237594D01*
X748918Y2226767D01*
X756052Y2217469D01*
X765349Y2210335D01*
X776176Y2205850D01*
X787795Y2204321D01*
X799414Y2205850D01*
X810241Y2210335D01*
X819539Y2217469D01*
X826673Y2226767D01*
X829635Y2233919D01*
X1081280D01*
X1087132Y2235083D01*
X1092094Y2238398D01*
X1137122Y2283427D01*
X1351645D01*
X1354111Y2278427D01*
X1348918Y2271659D01*
X1344433Y2260831D01*
X1342903Y2249213D01*
X1344433Y2237594D01*
X1348918Y2226767D01*
X1356052Y2217469D01*
X1365349Y2210335D01*
X1376176Y2205850D01*
X1387795Y2204321D01*
X1399414Y2205850D01*
X1400118Y2206142D01*
X1417232Y2189028D01*
X1413928Y2185261D01*
X1410241Y2188090D01*
X1399414Y2192575D01*
X1387795Y2194104D01*
X1376176Y2192575D01*
X1365349Y2188090D01*
X1356052Y2180956D01*
X1348918Y2171659D01*
X1345955Y2164506D01*
X1071970D01*
X1066118Y2163342D01*
X1061156Y2160027D01*
X835047Y1933918D01*
X830808Y1936750D01*
X831158Y1937594D01*
X832687Y1949213D01*
X831158Y1960832D01*
X826673Y1971659D01*
X819539Y1980956D01*
X810241Y1988090D01*
X799414Y1992575D01*
X787795Y1994104D01*
X776176Y1992575D01*
X765349Y1988090D01*
X756052Y1980956D01*
X748918Y1971659D01*
X744433Y1960832D01*
X742903Y1949213D01*
X744433Y1937594D01*
X748918Y1926767D01*
X756052Y1917469D01*
X758143Y1915865D01*
X758000Y1911499D01*
X757214Y1910275D01*
X474244Y1627305D01*
X470929Y1622343D01*
X469765Y1616491D01*
Y1486177D01*
X213675Y1230087D01*
X202085Y1234888D01*
X188169Y1236720D01*
X174253Y1234888D01*
X161286Y1229516D01*
X150150Y1220972D01*
X141606Y1209836D01*
X136234Y1196869D01*
X134402Y1182953D01*
X136234Y1169037D01*
X141606Y1156069D01*
X150150Y1144934D01*
X161286Y1136389D01*
X174253Y1131018D01*
X188169Y1129186D01*
X202085Y1131018D01*
X215053Y1136389D01*
X226188Y1144934D01*
X234733Y1156069D01*
X240104Y1169037D01*
X241936Y1182953D01*
X240104Y1196869D01*
X235304Y1208458D01*
X495873Y1469028D01*
X499188Y1473989D01*
X500353Y1479842D01*
Y1610156D01*
X738040Y1847844D01*
X743320Y1846052D01*
X744433Y1837594D01*
X748918Y1826767D01*
X756052Y1817469D01*
X765349Y1810335D01*
X776176Y1805850D01*
X787795Y1804321D01*
X799414Y1805850D01*
X800837Y1806439D01*
X917303Y1689973D01*
X922265Y1686658D01*
X928117Y1685494D01*
X973160D01*
X973448Y1685062D01*
X980663Y1680242D01*
X989173Y1678549D01*
X997683Y1680242D01*
X1004898Y1685062D01*
X1009719Y1692277D01*
X1011412Y1700787D01*
X1009719Y1709298D01*
X1004898Y1716512D01*
X997683Y1721333D01*
X989173Y1723026D01*
X980663Y1721333D01*
X973448Y1716512D01*
X973160Y1716081D01*
X934452D01*
X871003Y1779531D01*
X872970Y1784634D01*
X883221Y1785984D01*
X889570Y1788614D01*
X898728Y1789820D01*
X909302Y1794199D01*
X918381Y1801166D01*
X925348Y1810246D01*
X929728Y1820819D01*
X931221Y1832165D01*
X929728Y1843512D01*
X925348Y1854085D01*
X918381Y1863165D01*
X909302Y1870132D01*
X898728Y1874511D01*
X889570Y1875717D01*
X883221Y1878347D01*
X870846Y1879976D01*
X858472Y1878347D01*
X846941Y1873571D01*
X837039Y1865973D01*
X835351Y1863773D01*
X829627Y1864526D01*
X826673Y1871659D01*
X820724Y1879411D01*
X822158Y1883536D01*
X822528Y1884156D01*
X822835Y1884485D01*
X828315Y1885575D01*
X833277Y1888890D01*
X879186Y1934799D01*
X883670Y1932588D01*
X883615Y1932165D01*
X885447Y1918249D01*
X890818Y1905282D01*
X899363Y1894146D01*
X910498Y1885602D01*
X923466Y1880230D01*
X937382Y1878398D01*
X951298Y1880230D01*
X964265Y1885602D01*
X975401Y1894146D01*
X983946Y1905282D01*
X989317Y1918249D01*
X991149Y1932165D01*
X989317Y1946081D01*
X987963Y1949351D01*
X1065315Y2026703D01*
X1068898Y2025990D01*
X1077408Y2027683D01*
X1084622Y2032503D01*
X1089443Y2039718D01*
X1091136Y2048228D01*
X1089443Y2056738D01*
X1084622Y2063953D01*
X1077408Y2068774D01*
X1068898Y2070467D01*
X1060387Y2068774D01*
X1053173Y2063953D01*
X1048352Y2056738D01*
X1047423Y2052069D01*
X969821Y1974466D01*
X964265Y1978729D01*
X951298Y1984100D01*
X937382Y1985932D01*
X936960Y1985877D01*
X934748Y1990361D01*
X1078305Y2133919D01*
X1345955D01*
X1348918Y2126767D01*
X1356052Y2117469D01*
X1365349Y2110335D01*
X1376176Y2105850D01*
X1387795Y2104321D01*
X1399414Y2105850D01*
X1410241Y2110335D01*
X1419539Y2117469D01*
X1426673Y2126767D01*
X1431158Y2137594D01*
X1432687Y2149213D01*
X1431158Y2160831D01*
X1426673Y2171659D01*
X1423844Y2175345D01*
X1427611Y2178649D01*
X1643154Y1963106D01*
X1640041Y1959049D01*
X1634670Y1946081D01*
X1632838Y1932165D01*
X1634670Y1918249D01*
X1640041Y1905282D01*
X1648586Y1894146D01*
X1659721Y1885602D01*
X1672689Y1880230D01*
X1686605Y1878398D01*
X1700521Y1880230D01*
X1713488Y1885602D01*
X1724624Y1894146D01*
X1733169Y1905282D01*
X1738540Y1918249D01*
X1740372Y1932165D01*
X1738540Y1946081D01*
X1733169Y1959049D01*
X1728144Y1965597D01*
X1731911Y1968901D01*
X1779461Y1921351D01*
X1784423Y1918036D01*
X1790276Y1916871D01*
X1794134D01*
X1795387Y1911871D01*
X1786515Y1907130D01*
X1772853Y1895917D01*
X1761641Y1882255D01*
X1753309Y1866668D01*
X1748179Y1849755D01*
X1746446Y1832165D01*
X1748179Y1814576D01*
X1753309Y1797663D01*
X1761641Y1782076D01*
X1772853Y1768414D01*
X1786515Y1757201D01*
X1802103Y1748870D01*
X1819016Y1743739D01*
X1836605Y1742007D01*
X1854194Y1743739D01*
X1871107Y1748870D01*
X1886694Y1757201D01*
X1900357Y1768414D01*
X1911569Y1782076D01*
X1919900Y1797663D01*
X1925031Y1814576D01*
X1926763Y1832165D01*
X1925031Y1849755D01*
X1919900Y1866668D01*
X1911569Y1882255D01*
X1900357Y1895917D01*
X1886694Y1907130D01*
X1877823Y1911871D01*
X1879075Y1916871D01*
X2384443D01*
X2389243Y1905282D01*
X2397788Y1894146D01*
X2408924Y1885602D01*
X2421891Y1880230D01*
X2435807Y1878398D01*
X2449723Y1880230D01*
X2462691Y1885602D01*
X2473826Y1894146D01*
X2482371Y1905282D01*
X2487742Y1918249D01*
X2489574Y1932165D01*
X2487742Y1946081D01*
X2482371Y1959049D01*
X2473826Y1970184D01*
X2462691Y1978729D01*
X2449723Y1984100D01*
X2435807Y1985932D01*
X2421891Y1984100D01*
X2408924Y1978729D01*
X2397788Y1970184D01*
X2389243Y1959049D01*
X2384443Y1947459D01*
X1796611D01*
X1434535Y2309535D01*
X1429573Y2312850D01*
X1423720Y2314014D01*
X1422794D01*
X1420724Y2319014D01*
X1426673Y2326767D01*
X1431158Y2337594D01*
X1432687Y2349213D01*
X1431158Y2360831D01*
X1426673Y2371659D01*
X1419539Y2380956D01*
X1410241Y2388090D01*
X1399414Y2392575D01*
X1387795Y2394104D01*
X1376176Y2392575D01*
X1369024Y2389612D01*
X1349102Y2409535D01*
X1344140Y2412850D01*
X1338287Y2414014D01*
X822794D01*
X820724Y2419014D01*
X826673Y2426767D01*
X831158Y2437594D01*
X832687Y2449213D01*
X831158Y2460831D01*
X826673Y2471659D01*
X819539Y2480956D01*
X810241Y2488090D01*
X799414Y2492575D01*
X787795Y2494104D01*
D02*
G37*
G36*
Y2194104D02*
X776176Y2192575D01*
X765349Y2188090D01*
X756052Y2180956D01*
X748918Y2171659D01*
X744433Y2160831D01*
X742903Y2149213D01*
X744433Y2137594D01*
X748918Y2126767D01*
X756052Y2117469D01*
X765349Y2110335D01*
X776176Y2105850D01*
X787795Y2104321D01*
X799414Y2105850D01*
X810241Y2110335D01*
X819539Y2117469D01*
X826673Y2126767D01*
X831158Y2137594D01*
X832687Y2149213D01*
X831158Y2160831D01*
X826673Y2171659D01*
X819539Y2180956D01*
X810241Y2188090D01*
X799414Y2192575D01*
X787795Y2194104D01*
D02*
G37*
G36*
X1941605Y2085274D02*
Y2037165D01*
X1989714D01*
X1988540Y2046081D01*
X1983169Y2059049D01*
X1974624Y2070184D01*
X1963488Y2078729D01*
X1950521Y2084100D01*
X1941605Y2085274D01*
D02*
G37*
G36*
X1931605D02*
X1922689Y2084100D01*
X1909721Y2078729D01*
X1898586Y2070184D01*
X1890041Y2059049D01*
X1884670Y2046081D01*
X1883496Y2037165D01*
X1931605D01*
Y2085274D01*
D02*
G37*
G36*
X1192382D02*
Y2037165D01*
X1240491D01*
X1239317Y2046081D01*
X1233946Y2059049D01*
X1225401Y2070184D01*
X1214265Y2078729D01*
X1201298Y2084100D01*
X1192382Y2085274D01*
D02*
G37*
G36*
X1182382D02*
X1173466Y2084100D01*
X1160498Y2078729D01*
X1149363Y2070184D01*
X1140818Y2059049D01*
X1135447Y2046081D01*
X1134273Y2037165D01*
X1182382D01*
Y2085274D01*
D02*
G37*
G36*
X443169D02*
Y2037165D01*
X491278D01*
X490104Y2046081D01*
X484733Y2059049D01*
X476188Y2070184D01*
X465053Y2078729D01*
X452085Y2084100D01*
X443169Y2085274D01*
D02*
G37*
G36*
X433169D02*
X424253Y2084100D01*
X411286Y2078729D01*
X400150Y2070184D01*
X391606Y2059049D01*
X386234Y2046081D01*
X385060Y2037165D01*
X433169D01*
Y2085274D01*
D02*
G37*
G36*
X2690807Y2085274D02*
Y2037165D01*
X2738916D01*
X2737742Y2046081D01*
X2732371Y2059049D01*
X2723826Y2070184D01*
X2712691Y2078729D01*
X2699723Y2084100D01*
X2690807Y2085274D01*
D02*
G37*
G36*
X2680807D02*
X2671891Y2084100D01*
X2658924Y2078729D01*
X2647788Y2070184D01*
X2639243Y2059049D01*
X2633872Y2046081D01*
X2632698Y2037165D01*
X2680807D01*
Y2085274D01*
D02*
G37*
G36*
X787795Y2094104D02*
X776176Y2092575D01*
X765349Y2088090D01*
X756052Y2080956D01*
X748918Y2071659D01*
X744433Y2060831D01*
X742903Y2049213D01*
X744433Y2037594D01*
X748918Y2026767D01*
X756052Y2017469D01*
X765349Y2010335D01*
X776176Y2005850D01*
X787795Y2004321D01*
X799414Y2005850D01*
X810241Y2010335D01*
X819539Y2017469D01*
X826673Y2026767D01*
X831158Y2037594D01*
X832687Y2049213D01*
X831158Y2060831D01*
X826673Y2071659D01*
X819539Y2080956D01*
X810241Y2088090D01*
X799414Y2092575D01*
X787795Y2094104D01*
D02*
G37*
G36*
X1989714Y2027165D02*
X1941605D01*
Y1979057D01*
X1950521Y1980230D01*
X1963488Y1985602D01*
X1974624Y1994146D01*
X1983169Y2005282D01*
X1988540Y2018249D01*
X1989714Y2027165D01*
D02*
G37*
G36*
X1931605D02*
X1883496D01*
X1884670Y2018249D01*
X1890041Y2005282D01*
X1898586Y1994146D01*
X1909721Y1985602D01*
X1922689Y1980230D01*
X1931605Y1979057D01*
Y2027165D01*
D02*
G37*
G36*
X1240491D02*
X1192382D01*
Y1979057D01*
X1201298Y1980230D01*
X1214265Y1985602D01*
X1225401Y1994146D01*
X1233946Y2005282D01*
X1239317Y2018249D01*
X1240491Y2027165D01*
D02*
G37*
G36*
X1182382D02*
X1134273D01*
X1135447Y2018249D01*
X1140818Y2005282D01*
X1149363Y1994146D01*
X1160498Y1985602D01*
X1173466Y1980230D01*
X1182382Y1979057D01*
Y2027165D01*
D02*
G37*
G36*
X491278D02*
X443169D01*
Y1979057D01*
X452085Y1980230D01*
X465053Y1985602D01*
X476188Y1994146D01*
X484733Y2005282D01*
X490104Y2018249D01*
X491278Y2027165D01*
D02*
G37*
G36*
X433169D02*
X385060D01*
X386234Y2018249D01*
X391606Y2005282D01*
X400150Y1994146D01*
X411286Y1985602D01*
X424253Y1980230D01*
X433169Y1979057D01*
Y2027165D01*
D02*
G37*
G36*
X2738916Y2027165D02*
X2690807D01*
Y1979056D01*
X2699723Y1980230D01*
X2712691Y1985602D01*
X2723826Y1994146D01*
X2732371Y2005282D01*
X2737742Y2018249D01*
X2738916Y2027165D01*
D02*
G37*
G36*
X2680807D02*
X2632698D01*
X2633872Y2018249D01*
X2639243Y2005282D01*
X2647788Y1994146D01*
X2658924Y1985602D01*
X2671891Y1980230D01*
X2680807Y1979056D01*
Y2027165D01*
D02*
G37*
G36*
X1387795Y2094104D02*
X1376176Y2092575D01*
X1365349Y2088090D01*
X1356052Y2080956D01*
X1348918Y2071659D01*
X1344433Y2060831D01*
X1342903Y2049213D01*
X1344433Y2037594D01*
X1348918Y2026767D01*
X1356052Y2017469D01*
X1365349Y2010335D01*
X1376176Y2005850D01*
X1387795Y2004321D01*
X1399414Y2005850D01*
X1406566Y2008813D01*
X1520223Y1895157D01*
Y1842611D01*
X1521387Y1836759D01*
X1524702Y1831797D01*
X1671311Y1685188D01*
Y1234317D01*
X1659721Y1229516D01*
X1648586Y1220972D01*
X1640041Y1209836D01*
X1634670Y1196869D01*
X1632838Y1182953D01*
X1632893Y1182530D01*
X1628409Y1180319D01*
X1403089Y1405639D01*
Y1807373D01*
X1410241Y1810335D01*
X1419539Y1817469D01*
X1426673Y1826767D01*
X1431158Y1837594D01*
X1432687Y1849213D01*
X1431158Y1860832D01*
X1426673Y1871659D01*
X1419539Y1880956D01*
X1410241Y1888090D01*
X1399414Y1892575D01*
X1387795Y1894104D01*
X1376176Y1892575D01*
X1365349Y1888090D01*
X1356052Y1880956D01*
X1348918Y1871659D01*
X1345674Y1863826D01*
X1339949Y1863073D01*
X1337725Y1865973D01*
X1327823Y1873571D01*
X1316292Y1878347D01*
X1303917Y1879976D01*
X1294055Y1878678D01*
X1291719Y1883413D01*
X1341336Y1933030D01*
X1346590Y1932386D01*
X1348918Y1926767D01*
X1356052Y1917469D01*
X1365349Y1910335D01*
X1376176Y1905850D01*
X1387795Y1904321D01*
X1399414Y1905850D01*
X1410241Y1910335D01*
X1419539Y1917469D01*
X1426673Y1926767D01*
X1431158Y1937594D01*
X1432687Y1949213D01*
X1431158Y1960832D01*
X1426673Y1971659D01*
X1419539Y1980956D01*
X1410241Y1988090D01*
X1399414Y1992575D01*
X1387795Y1994104D01*
X1376176Y1992575D01*
X1365349Y1988090D01*
X1356052Y1980956D01*
X1348918Y1971659D01*
X1345955Y1964506D01*
X1335890D01*
X1330037Y1963342D01*
X1325075Y1960027D01*
X1180964Y1815916D01*
X1176164Y1818186D01*
X1177540Y1832165D01*
X1175808Y1849755D01*
X1170678Y1866668D01*
X1162346Y1882255D01*
X1151134Y1895917D01*
X1137471Y1907130D01*
X1121884Y1915461D01*
X1104971Y1920591D01*
X1087382Y1922324D01*
X1069793Y1920591D01*
X1052880Y1915461D01*
X1037293Y1907130D01*
X1023630Y1895917D01*
X1012418Y1882255D01*
X1004086Y1866668D01*
X998956Y1849755D01*
X997223Y1832165D01*
X998956Y1814576D01*
X1004086Y1797663D01*
X1012418Y1782076D01*
X1023630Y1768414D01*
X1037293Y1757201D01*
X1052880Y1748870D01*
X1069793Y1743739D01*
X1087382Y1742007D01*
X1104134Y1743657D01*
X1107288Y1739740D01*
X829868Y1462320D01*
X828803Y1462108D01*
X823841Y1458793D01*
X431752Y1066703D01*
X426951Y1068974D01*
X428328Y1082953D01*
X426595Y1100542D01*
X421465Y1117455D01*
X413133Y1133042D01*
X401921Y1146705D01*
X388259Y1157917D01*
X372671Y1166248D01*
X355758Y1171379D01*
X338169Y1173111D01*
X320580Y1171379D01*
X303667Y1166248D01*
X288080Y1157917D01*
X274418Y1146705D01*
X263205Y1133042D01*
X254874Y1117455D01*
X249743Y1100542D01*
X248011Y1082953D01*
X249743Y1065364D01*
X254874Y1048451D01*
X263205Y1032863D01*
X274418Y1019201D01*
X288080Y1007989D01*
X303667Y999657D01*
X320580Y994527D01*
X338169Y992794D01*
X354921Y994444D01*
X358075Y990527D01*
X177355Y809807D01*
X174040Y804845D01*
X172875Y798992D01*
Y485104D01*
X161286Y480304D01*
X150150Y471759D01*
X141606Y460624D01*
X136234Y447656D01*
X134402Y433740D01*
X136234Y419824D01*
X141606Y406857D01*
X150150Y395721D01*
X161286Y387176D01*
X174253Y381805D01*
X188169Y379973D01*
X202085Y381805D01*
X215053Y387176D01*
X226188Y395721D01*
X234733Y406857D01*
X240104Y419824D01*
X241936Y433740D01*
X240104Y447656D01*
X234733Y460624D01*
X226188Y471759D01*
X215053Y480304D01*
X203463Y485104D01*
Y792657D01*
X443708Y1032902D01*
X447023Y1037864D01*
X447235Y1038929D01*
X489516Y1081210D01*
X494795Y1079418D01*
X495824Y1071606D01*
X500203Y1061033D01*
X507170Y1051954D01*
X516250Y1044987D01*
X526823Y1040607D01*
X535982Y1039401D01*
X542331Y1036771D01*
X554705Y1035142D01*
X567079Y1036771D01*
X578610Y1041548D01*
X588512Y1049146D01*
X596110Y1059048D01*
X600886Y1070579D01*
X602515Y1082953D01*
X600886Y1095327D01*
X596110Y1106858D01*
X588512Y1116760D01*
X578610Y1124358D01*
X567079Y1129134D01*
X554705Y1130763D01*
X544842Y1129465D01*
X542507Y1134201D01*
X841943Y1433637D01*
X843008Y1433849D01*
X847970Y1437164D01*
X1192921Y1782115D01*
X1196236Y1787076D01*
X1196448Y1788142D01*
X1238729Y1830422D01*
X1244008Y1828630D01*
X1245036Y1820819D01*
X1249416Y1810246D01*
X1256383Y1801166D01*
X1265462Y1794199D01*
X1276035Y1789820D01*
X1285194Y1788614D01*
X1291543Y1785984D01*
X1303917Y1784355D01*
X1316292Y1785984D01*
X1327823Y1790760D01*
X1337725Y1798358D01*
X1345322Y1808260D01*
X1349352Y1817988D01*
X1354718Y1819207D01*
X1356052Y1817469D01*
X1365349Y1810335D01*
X1372501Y1807373D01*
Y1399304D01*
X1373666Y1393451D01*
X1376981Y1388489D01*
X1631118Y1134352D01*
X1628783Y1129616D01*
X1620070Y1130763D01*
X1607695Y1129134D01*
X1596164Y1124358D01*
X1586262Y1116760D01*
X1578664Y1106858D01*
X1573888Y1095327D01*
X1572259Y1082953D01*
X1573888Y1070579D01*
X1578664Y1059048D01*
X1586262Y1049146D01*
X1596164Y1041548D01*
X1607695Y1036771D01*
X1620070Y1035142D01*
X1632444Y1036771D01*
X1638793Y1039401D01*
X1647951Y1040607D01*
X1658525Y1044987D01*
X1666301Y1050953D01*
X1671301Y1049117D01*
Y485104D01*
X1659711Y480304D01*
X1648575Y471759D01*
X1640031Y460624D01*
X1634659Y447656D01*
X1632827Y433740D01*
X1634659Y419824D01*
X1640031Y406857D01*
X1648575Y395721D01*
X1659711Y387176D01*
X1672679Y381805D01*
X1686594Y379973D01*
X1700510Y381805D01*
X1713478Y387176D01*
X1724614Y395721D01*
X1733158Y406857D01*
X1738530Y419824D01*
X1740362Y433740D01*
X1738530Y447656D01*
X1733158Y460624D01*
X1724614Y471759D01*
X1713478Y480304D01*
X1701888Y485104D01*
Y1101502D01*
X1700724Y1107355D01*
X1697409Y1112317D01*
X1684853Y1124873D01*
X1687494Y1129303D01*
X1700521Y1131018D01*
X1713489Y1136389D01*
X1724624Y1144934D01*
X1733169Y1156069D01*
X1738540Y1169037D01*
X1740372Y1182953D01*
X1738540Y1196869D01*
X1733169Y1209836D01*
X1724624Y1220972D01*
X1713489Y1229516D01*
X1701899Y1234317D01*
Y1691523D01*
X1700735Y1697376D01*
X1697419Y1702337D01*
X1620226Y1779531D01*
X1622193Y1784634D01*
X1632444Y1785984D01*
X1638793Y1788614D01*
X1647951Y1789820D01*
X1658525Y1794199D01*
X1667604Y1801166D01*
X1674571Y1810246D01*
X1678951Y1820819D01*
X1680444Y1832165D01*
X1678951Y1843512D01*
X1674571Y1854085D01*
X1667604Y1863165D01*
X1658525Y1870132D01*
X1647951Y1874511D01*
X1638793Y1875717D01*
X1632444Y1878347D01*
X1620069Y1879976D01*
X1607695Y1878347D01*
X1596164Y1873571D01*
X1586262Y1865973D01*
X1578664Y1856071D01*
X1573888Y1844540D01*
X1572539Y1834289D01*
X1567435Y1832322D01*
X1550810Y1848946D01*
Y1901492D01*
X1549646Y1907344D01*
X1546331Y1912306D01*
X1428195Y2030442D01*
X1431158Y2037594D01*
X1432687Y2049213D01*
X1431158Y2060831D01*
X1426673Y2071659D01*
X1419539Y2080956D01*
X1410241Y2088090D01*
X1399414Y2092575D01*
X1387795Y2094104D01*
D02*
G37*
G36*
X2053140Y1879976D02*
X2040766Y1878347D01*
X2034417Y1875717D01*
X2025258Y1874511D01*
X2014685Y1870132D01*
X2005606Y1863165D01*
X1998639Y1854085D01*
X1994259Y1843512D01*
X1992765Y1832165D01*
X1994259Y1820819D01*
X1998639Y1810246D01*
X2005606Y1801166D01*
X2014685Y1794199D01*
X2025258Y1789820D01*
X2034417Y1788614D01*
X2040766Y1785984D01*
X2053140Y1784355D01*
X2065515Y1785984D01*
X2077046Y1790760D01*
X2086948Y1798358D01*
X2094546Y1808260D01*
X2099322Y1819791D01*
X2100951Y1832165D01*
X2099322Y1844540D01*
X2094546Y1856071D01*
X2086948Y1865973D01*
X2077046Y1873571D01*
X2065515Y1878347D01*
X2053140Y1879976D01*
D02*
G37*
G36*
X554705D02*
X542331Y1878347D01*
X535982Y1875717D01*
X526823Y1874511D01*
X516250Y1870132D01*
X507170Y1863165D01*
X500203Y1854085D01*
X495824Y1843512D01*
X494330Y1832165D01*
X495824Y1820819D01*
X500203Y1810246D01*
X507170Y1801166D01*
X516250Y1794199D01*
X526823Y1789820D01*
X535982Y1788614D01*
X542331Y1785984D01*
X554705Y1784355D01*
X567079Y1785984D01*
X578610Y1790760D01*
X588512Y1798358D01*
X596110Y1808260D01*
X600886Y1819791D01*
X602515Y1832165D01*
X600886Y1844540D01*
X596110Y1856071D01*
X588512Y1865973D01*
X578610Y1873571D01*
X567079Y1878347D01*
X554705Y1879976D01*
D02*
G37*
G36*
X121634D02*
X109260Y1878347D01*
X97729Y1873571D01*
X87827Y1865973D01*
X80229Y1856071D01*
X75452Y1844540D01*
X73823Y1832165D01*
X75452Y1819791D01*
X80229Y1808260D01*
X87827Y1798358D01*
X97728Y1790760D01*
X109260Y1785984D01*
X121634Y1784355D01*
X134008Y1785984D01*
X140357Y1788614D01*
X149516Y1789820D01*
X160089Y1794199D01*
X169168Y1801166D01*
X176135Y1810246D01*
X180515Y1820819D01*
X182009Y1832165D01*
X180515Y1843512D01*
X176135Y1854085D01*
X169168Y1863165D01*
X160089Y1870132D01*
X149516Y1874511D01*
X140357Y1875717D01*
X134008Y1878347D01*
X121634Y1879976D01*
D02*
G37*
G36*
X2802343Y1879976D02*
X2789968Y1878347D01*
X2783619Y1875717D01*
X2774461Y1874511D01*
X2763887Y1870131D01*
X2754808Y1863165D01*
X2747841Y1854085D01*
X2743461Y1843512D01*
X2741968Y1832165D01*
X2743461Y1820819D01*
X2747841Y1810245D01*
X2754808Y1801166D01*
X2763887Y1794199D01*
X2774461Y1789820D01*
X2783619Y1788614D01*
X2789968Y1785984D01*
X2802343Y1784355D01*
X2814717Y1785984D01*
X2826248Y1790760D01*
X2836150Y1798358D01*
X2843748Y1808260D01*
X2848524Y1819791D01*
X2850153Y1832165D01*
X2848524Y1844540D01*
X2843748Y1856071D01*
X2836150Y1865972D01*
X2826248Y1873570D01*
X2814717Y1878347D01*
X2802343Y1879976D01*
D02*
G37*
G36*
X2369272D02*
X2356897Y1878347D01*
X2345366Y1873570D01*
X2335465Y1865972D01*
X2327867Y1856071D01*
X2323090Y1844540D01*
X2321461Y1832165D01*
X2323090Y1819791D01*
X2327867Y1808260D01*
X2335465Y1798358D01*
X2345366Y1790760D01*
X2356897Y1785984D01*
X2369272Y1784355D01*
X2381646Y1785984D01*
X2387995Y1788614D01*
X2397153Y1789820D01*
X2407727Y1794199D01*
X2416806Y1801166D01*
X2423773Y1810245D01*
X2428153Y1820819D01*
X2429647Y1832165D01*
X2428153Y1843512D01*
X2423773Y1854085D01*
X2416806Y1863165D01*
X2407727Y1870131D01*
X2397153Y1874511D01*
X2387995Y1875717D01*
X2381646Y1878347D01*
X2369272Y1879976D01*
D02*
G37*
G36*
X338169Y1922324D02*
X320580Y1920591D01*
X303667Y1915461D01*
X288080Y1907130D01*
X274418Y1895917D01*
X263205Y1882255D01*
X254874Y1866668D01*
X249743Y1849755D01*
X248011Y1832165D01*
X249743Y1814576D01*
X254874Y1797663D01*
X263205Y1782076D01*
X274418Y1768414D01*
X288080Y1757201D01*
X303667Y1748870D01*
X320580Y1743739D01*
X338169Y1742007D01*
X355758Y1743739D01*
X372671Y1748870D01*
X388259Y1757201D01*
X401921Y1768414D01*
X413133Y1782076D01*
X421465Y1797663D01*
X426595Y1814576D01*
X428328Y1832165D01*
X426595Y1849755D01*
X421465Y1866668D01*
X413133Y1882255D01*
X401921Y1895917D01*
X388259Y1907130D01*
X372671Y1915461D01*
X355758Y1920591D01*
X338169Y1922324D01*
D02*
G37*
G36*
X2585807Y1922324D02*
X2568218Y1920591D01*
X2551305Y1915461D01*
X2535718Y1907129D01*
X2522055Y1895917D01*
X2510843Y1882255D01*
X2502512Y1866668D01*
X2497381Y1849754D01*
X2495649Y1832165D01*
X2497381Y1814576D01*
X2502512Y1797663D01*
X2510843Y1782076D01*
X2522055Y1768414D01*
X2535718Y1757201D01*
X2551305Y1748870D01*
X2568218Y1743739D01*
X2585807Y1742007D01*
X2603396Y1743739D01*
X2620309Y1748870D01*
X2635896Y1757201D01*
X2649559Y1768414D01*
X2660771Y1782076D01*
X2669103Y1797663D01*
X2674233Y1814576D01*
X2675966Y1832165D01*
X2674233Y1849754D01*
X2669103Y1866668D01*
X2660771Y1882255D01*
X2649559Y1895917D01*
X2635896Y1907129D01*
X2620309Y1915461D01*
X2603396Y1920591D01*
X2585807Y1922324D01*
D02*
G37*
G36*
X1941605Y1336062D02*
Y1287953D01*
X1989714D01*
X1988540Y1296869D01*
X1983169Y1309836D01*
X1974624Y1320972D01*
X1963489Y1329516D01*
X1950521Y1334888D01*
X1941605Y1336062D01*
D02*
G37*
G36*
X1931605D02*
X1922689Y1334888D01*
X1909721Y1329516D01*
X1898586Y1320972D01*
X1890041Y1309836D01*
X1884670Y1296869D01*
X1883496Y1287953D01*
X1931605D01*
Y1336062D01*
D02*
G37*
G36*
X1192382D02*
Y1287953D01*
X1240491D01*
X1239317Y1296869D01*
X1233946Y1309836D01*
X1225401Y1320972D01*
X1214266Y1329516D01*
X1201298Y1334888D01*
X1192382Y1336062D01*
D02*
G37*
G36*
X1182382D02*
X1173466Y1334888D01*
X1160498Y1329516D01*
X1149363Y1320972D01*
X1140818Y1309836D01*
X1135447Y1296869D01*
X1134273Y1287953D01*
X1182382D01*
Y1336062D01*
D02*
G37*
G36*
X443169D02*
Y1287953D01*
X491278D01*
X490104Y1296869D01*
X484733Y1309836D01*
X476188Y1320972D01*
X465053Y1329516D01*
X452085Y1334888D01*
X443169Y1336062D01*
D02*
G37*
G36*
X433169D02*
X424253Y1334888D01*
X411286Y1329516D01*
X400150Y1320972D01*
X391606Y1309836D01*
X386234Y1296869D01*
X385060Y1287953D01*
X433169D01*
Y1336062D01*
D02*
G37*
G36*
X2690807Y1336062D02*
Y1287953D01*
X2738916D01*
X2737742Y1296869D01*
X2732371Y1309836D01*
X2723826Y1320972D01*
X2712691Y1329516D01*
X2699723Y1334888D01*
X2690807Y1336062D01*
D02*
G37*
G36*
X2680807D02*
X2671891Y1334888D01*
X2658924Y1329516D01*
X2647788Y1320972D01*
X2639243Y1309836D01*
X2633872Y1296869D01*
X2632698Y1287953D01*
X2680807D01*
Y1336062D01*
D02*
G37*
G36*
X1989714Y1277953D02*
X1941605D01*
Y1229844D01*
X1950521Y1231018D01*
X1963489Y1236389D01*
X1974624Y1244934D01*
X1983169Y1256069D01*
X1988540Y1269037D01*
X1989714Y1277953D01*
D02*
G37*
G36*
X1931605D02*
X1883496D01*
X1884670Y1269037D01*
X1890041Y1256069D01*
X1898586Y1244934D01*
X1909721Y1236389D01*
X1922689Y1231018D01*
X1931605Y1229844D01*
Y1277953D01*
D02*
G37*
G36*
X1240491D02*
X1192382D01*
Y1229844D01*
X1201298Y1231018D01*
X1214266Y1236389D01*
X1225401Y1244934D01*
X1233946Y1256069D01*
X1239317Y1269037D01*
X1240491Y1277953D01*
D02*
G37*
G36*
X1182382D02*
X1134273D01*
X1135447Y1269037D01*
X1140818Y1256069D01*
X1149363Y1244934D01*
X1160498Y1236389D01*
X1173466Y1231018D01*
X1182382Y1229844D01*
Y1277953D01*
D02*
G37*
G36*
X491278D02*
X443169D01*
Y1229844D01*
X452085Y1231018D01*
X465053Y1236389D01*
X476188Y1244934D01*
X484733Y1256069D01*
X490104Y1269037D01*
X491278Y1277953D01*
D02*
G37*
G36*
X433169D02*
X385060D01*
X386234Y1269037D01*
X391606Y1256069D01*
X400150Y1244934D01*
X411286Y1236389D01*
X424253Y1231018D01*
X433169Y1229844D01*
Y1277953D01*
D02*
G37*
G36*
X2738916Y1277953D02*
X2690807D01*
Y1229844D01*
X2699723Y1231018D01*
X2712691Y1236389D01*
X2723826Y1244934D01*
X2732371Y1256069D01*
X2737742Y1269037D01*
X2738916Y1277953D01*
D02*
G37*
G36*
X2680807D02*
X2632698D01*
X2633872Y1269037D01*
X2639243Y1256069D01*
X2647788Y1244934D01*
X2658924Y1236389D01*
X2671891Y1231018D01*
X2680807Y1229844D01*
Y1277953D01*
D02*
G37*
G36*
X937382Y1236720D02*
X923466Y1234888D01*
X910498Y1229516D01*
X899363Y1220972D01*
X890818Y1209836D01*
X885447Y1196869D01*
X883615Y1182953D01*
X885447Y1169037D01*
X890818Y1156069D01*
X899363Y1144934D01*
X910498Y1136389D01*
X923466Y1131018D01*
X937382Y1129186D01*
X951298Y1131018D01*
X964266Y1136389D01*
X975401Y1144934D01*
X983946Y1156069D01*
X989317Y1169037D01*
X991149Y1182953D01*
X989317Y1196869D01*
X983946Y1209836D01*
X975401Y1220972D01*
X964266Y1229516D01*
X951298Y1234888D01*
X937382Y1236720D01*
D02*
G37*
G36*
X1759842Y1483852D02*
X1751332Y1482160D01*
X1744118Y1477339D01*
X1739297Y1470124D01*
X1737604Y1461614D01*
X1739297Y1453104D01*
X1744118Y1445889D01*
X1751332Y1441069D01*
X1759842Y1439376D01*
X1768353Y1441069D01*
X1775567Y1445889D01*
X1775855Y1446320D01*
X1941793D01*
X2215975Y1172138D01*
X2220937Y1168823D01*
X2226790Y1167659D01*
X2384443D01*
X2389243Y1156069D01*
X2397788Y1144934D01*
X2408924Y1136389D01*
X2421891Y1131018D01*
X2435807Y1129186D01*
X2449723Y1131018D01*
X2462691Y1136389D01*
X2473826Y1144934D01*
X2482371Y1156069D01*
X2487742Y1169037D01*
X2489574Y1182953D01*
X2487742Y1196869D01*
X2482371Y1209836D01*
X2473826Y1220972D01*
X2462691Y1229516D01*
X2449723Y1234888D01*
X2435807Y1236720D01*
X2421891Y1234888D01*
X2408924Y1229516D01*
X2397788Y1220972D01*
X2389243Y1209836D01*
X2384443Y1198247D01*
X2233124D01*
X1958943Y1472429D01*
X1953981Y1475744D01*
X1948128Y1476908D01*
X1775855D01*
X1775567Y1477339D01*
X1768353Y1482160D01*
X1759842Y1483852D01*
D02*
G37*
G36*
X2053140Y1130763D02*
X2040766Y1129134D01*
X2034417Y1126504D01*
X2025258Y1125299D01*
X2014685Y1120919D01*
X2005606Y1113952D01*
X1998639Y1104873D01*
X1994259Y1094299D01*
X1992765Y1082953D01*
X1994259Y1071606D01*
X1998639Y1061033D01*
X2005606Y1051954D01*
X2014685Y1044987D01*
X2025258Y1040607D01*
X2034417Y1039401D01*
X2040766Y1036771D01*
X2053140Y1035142D01*
X2065515Y1036771D01*
X2077046Y1041548D01*
X2086948Y1049146D01*
X2094546Y1059048D01*
X2099322Y1070579D01*
X2100951Y1082953D01*
X2099322Y1095327D01*
X2094546Y1106858D01*
X2086948Y1116760D01*
X2077046Y1124358D01*
X2065515Y1129134D01*
X2053140Y1130763D01*
D02*
G37*
G36*
X1303918D02*
X1291543Y1129134D01*
X1285194Y1126504D01*
X1276035Y1125299D01*
X1265462Y1120919D01*
X1256383Y1113952D01*
X1249416Y1104873D01*
X1245036Y1094299D01*
X1243542Y1082953D01*
X1245036Y1071606D01*
X1249416Y1061033D01*
X1256383Y1051954D01*
X1265462Y1044987D01*
X1276035Y1040607D01*
X1285194Y1039401D01*
X1291543Y1036771D01*
X1303918Y1035142D01*
X1316292Y1036771D01*
X1327823Y1041548D01*
X1337725Y1049146D01*
X1345323Y1059048D01*
X1350099Y1070579D01*
X1351728Y1082953D01*
X1350099Y1095327D01*
X1345323Y1106858D01*
X1337725Y1116760D01*
X1327823Y1124358D01*
X1316292Y1129134D01*
X1303918Y1130763D01*
D02*
G37*
G36*
X870846D02*
X858472Y1129134D01*
X846941Y1124358D01*
X837039Y1116760D01*
X829441Y1106858D01*
X824665Y1095327D01*
X823036Y1082953D01*
X824665Y1070579D01*
X829441Y1059048D01*
X837039Y1049146D01*
X846941Y1041548D01*
X858472Y1036771D01*
X870846Y1035142D01*
X883221Y1036771D01*
X889570Y1039401D01*
X898728Y1040607D01*
X909302Y1044987D01*
X918381Y1051954D01*
X925348Y1061033D01*
X929728Y1071606D01*
X931221Y1082953D01*
X929728Y1094299D01*
X925348Y1104873D01*
X918381Y1113952D01*
X909302Y1120919D01*
X898728Y1125299D01*
X889570Y1126504D01*
X883221Y1129134D01*
X870846Y1130763D01*
D02*
G37*
G36*
X121634D02*
X109260Y1129134D01*
X97729Y1124358D01*
X87827Y1116760D01*
X80229Y1106858D01*
X75452Y1095327D01*
X73823Y1082953D01*
X75452Y1070579D01*
X80229Y1059048D01*
X87827Y1049146D01*
X97728Y1041548D01*
X109260Y1036771D01*
X121634Y1035142D01*
X134008Y1036771D01*
X140357Y1039401D01*
X149516Y1040607D01*
X160089Y1044987D01*
X169168Y1051954D01*
X176135Y1061033D01*
X180515Y1071606D01*
X182009Y1082953D01*
X180515Y1094299D01*
X176135Y1104873D01*
X169168Y1113952D01*
X160089Y1120919D01*
X149516Y1125299D01*
X140357Y1126504D01*
X134008Y1129134D01*
X121634Y1130763D01*
D02*
G37*
G36*
X2802343Y1130763D02*
X2789968Y1129134D01*
X2783619Y1126504D01*
X2774461Y1125299D01*
X2763887Y1120919D01*
X2754808Y1113952D01*
X2747841Y1104872D01*
X2743461Y1094299D01*
X2741968Y1082953D01*
X2743461Y1071606D01*
X2747841Y1061033D01*
X2754808Y1051953D01*
X2763887Y1044986D01*
X2774461Y1040607D01*
X2783619Y1039401D01*
X2789968Y1036771D01*
X2802343Y1035142D01*
X2814717Y1036771D01*
X2826248Y1041548D01*
X2836150Y1049146D01*
X2843748Y1059047D01*
X2848524Y1070578D01*
X2850153Y1082953D01*
X2848524Y1095327D01*
X2843748Y1106858D01*
X2836150Y1116760D01*
X2826248Y1124358D01*
X2814717Y1129134D01*
X2802343Y1130763D01*
D02*
G37*
G36*
X2369272D02*
X2356897Y1129134D01*
X2345366Y1124358D01*
X2335465Y1116760D01*
X2327867Y1106858D01*
X2323090Y1095327D01*
X2321461Y1082953D01*
X2323090Y1070578D01*
X2327867Y1059047D01*
X2335465Y1049146D01*
X2345366Y1041548D01*
X2356897Y1036771D01*
X2369272Y1035142D01*
X2381646Y1036771D01*
X2387995Y1039401D01*
X2397153Y1040607D01*
X2407727Y1044986D01*
X2416806Y1051953D01*
X2423773Y1061033D01*
X2428153Y1071606D01*
X2429647Y1082953D01*
X2428153Y1094299D01*
X2423773Y1104872D01*
X2416806Y1113952D01*
X2407727Y1120919D01*
X2397153Y1125299D01*
X2387995Y1126504D01*
X2381646Y1129134D01*
X2369272Y1130763D01*
D02*
G37*
G36*
X1836605Y1173111D02*
X1819016Y1171379D01*
X1802103Y1166248D01*
X1786516Y1157917D01*
X1772853Y1146705D01*
X1761641Y1133042D01*
X1753309Y1117455D01*
X1748179Y1100542D01*
X1746447Y1082953D01*
X1748179Y1065364D01*
X1753309Y1048451D01*
X1761641Y1032863D01*
X1772853Y1019201D01*
X1786516Y1007989D01*
X1802103Y999657D01*
X1819016Y994527D01*
X1836605Y992794D01*
X1854194Y994527D01*
X1871107Y999657D01*
X1886694Y1007989D01*
X1900357Y1019201D01*
X1911569Y1032863D01*
X1919901Y1048451D01*
X1925031Y1065364D01*
X1926764Y1082953D01*
X1925031Y1100542D01*
X1919901Y1117455D01*
X1911569Y1133042D01*
X1900357Y1146705D01*
X1886694Y1157917D01*
X1871107Y1166248D01*
X1854194Y1171379D01*
X1836605Y1173111D01*
D02*
G37*
G36*
X1087382D02*
X1069793Y1171379D01*
X1052880Y1166248D01*
X1037293Y1157917D01*
X1023630Y1146705D01*
X1012418Y1133042D01*
X1004086Y1117455D01*
X998956Y1100542D01*
X997223Y1082953D01*
X998956Y1065364D01*
X1004086Y1048451D01*
X1012418Y1032863D01*
X1023630Y1019201D01*
X1037293Y1007989D01*
X1052880Y999657D01*
X1069793Y994527D01*
X1087382Y992794D01*
X1104971Y994527D01*
X1121884Y999657D01*
X1137471Y1007989D01*
X1151134Y1019201D01*
X1162346Y1032863D01*
X1170678Y1048451D01*
X1175808Y1065364D01*
X1177541Y1082953D01*
X1175808Y1100542D01*
X1170678Y1117455D01*
X1162346Y1133042D01*
X1151134Y1146705D01*
X1137471Y1157917D01*
X1121884Y1166248D01*
X1104971Y1171379D01*
X1087382Y1173111D01*
D02*
G37*
G36*
X2585807Y1173111D02*
X2568218Y1171379D01*
X2551305Y1166248D01*
X2535718Y1157917D01*
X2522055Y1146704D01*
X2510843Y1133042D01*
X2502512Y1117455D01*
X2497381Y1100542D01*
X2495649Y1082953D01*
X2497381Y1065364D01*
X2502512Y1048450D01*
X2510843Y1032863D01*
X2522055Y1019201D01*
X2535718Y1007989D01*
X2551305Y999657D01*
X2568218Y994527D01*
X2585807Y992794D01*
X2603396Y994527D01*
X2620309Y999657D01*
X2635896Y1007989D01*
X2649559Y1019201D01*
X2660771Y1032863D01*
X2669103Y1048450D01*
X2674233Y1065364D01*
X2675966Y1082953D01*
X2674233Y1100542D01*
X2669103Y1117455D01*
X2660771Y1133042D01*
X2649559Y1146704D01*
X2635896Y1157917D01*
X2620309Y1166248D01*
X2603396Y1171379D01*
X2585807Y1173111D01*
D02*
G37*
G36*
X1192382Y586849D02*
Y538740D01*
X1240491D01*
X1239317Y547656D01*
X1233946Y560624D01*
X1225401Y571759D01*
X1214265Y580304D01*
X1201298Y585675D01*
X1192382Y586849D01*
D02*
G37*
G36*
X1182382D02*
X1173466Y585675D01*
X1160498Y580304D01*
X1149363Y571759D01*
X1140818Y560624D01*
X1135447Y547656D01*
X1134273Y538740D01*
X1182382D01*
Y586849D01*
D02*
G37*
G36*
X443169D02*
Y538740D01*
X491278D01*
X490104Y547656D01*
X484733Y560624D01*
X476188Y571759D01*
X465053Y580304D01*
X452085Y585675D01*
X443169Y586849D01*
D02*
G37*
G36*
X433169D02*
X424253Y585675D01*
X411286Y580304D01*
X400150Y571759D01*
X391606Y560624D01*
X386234Y547656D01*
X385060Y538740D01*
X433169D01*
Y586849D01*
D02*
G37*
G36*
X2690807Y586849D02*
Y538740D01*
X2738916D01*
X2737742Y547656D01*
X2732371Y560624D01*
X2723826Y571759D01*
X2712691Y580304D01*
X2699723Y585675D01*
X2690807Y586849D01*
D02*
G37*
G36*
X2680807D02*
X2671891Y585675D01*
X2658924Y580304D01*
X2647788Y571759D01*
X2639243Y560624D01*
X2633872Y547656D01*
X2632698Y538740D01*
X2680807D01*
Y586849D01*
D02*
G37*
G36*
X1941594D02*
Y538740D01*
X1989703D01*
X1988530Y547656D01*
X1983158Y560624D01*
X1974614Y571759D01*
X1963478Y580304D01*
X1950510Y585675D01*
X1941594Y586849D01*
D02*
G37*
G36*
X1931594D02*
X1922679Y585675D01*
X1909711Y580304D01*
X1898575Y571759D01*
X1890031Y560624D01*
X1884659Y547656D01*
X1883486Y538740D01*
X1931594D01*
Y586849D01*
D02*
G37*
G36*
X1240491Y528740D02*
X1192382D01*
Y480631D01*
X1201298Y481805D01*
X1214265Y487176D01*
X1225401Y495721D01*
X1233946Y506857D01*
X1239317Y519824D01*
X1240491Y528740D01*
D02*
G37*
G36*
X1182382D02*
X1134273D01*
X1135447Y519824D01*
X1140818Y506857D01*
X1149363Y495721D01*
X1160498Y487176D01*
X1173466Y481805D01*
X1182382Y480631D01*
Y528740D01*
D02*
G37*
G36*
X491278D02*
X443169D01*
Y480631D01*
X452085Y481805D01*
X465053Y487176D01*
X476188Y495721D01*
X484733Y506857D01*
X490104Y519824D01*
X491278Y528740D01*
D02*
G37*
G36*
X433169D02*
X385060D01*
X386234Y519824D01*
X391606Y506857D01*
X400150Y495721D01*
X411286Y487176D01*
X424253Y481805D01*
X433169Y480631D01*
Y528740D01*
D02*
G37*
G36*
X2738916Y528740D02*
X2690807D01*
Y480631D01*
X2699723Y481805D01*
X2712691Y487176D01*
X2723826Y495721D01*
X2732371Y506857D01*
X2737742Y519824D01*
X2738916Y528740D01*
D02*
G37*
G36*
X2680807D02*
X2632698D01*
X2633872Y519824D01*
X2639243Y506857D01*
X2647788Y495721D01*
X2658924Y487176D01*
X2671891Y481805D01*
X2680807Y480631D01*
Y528740D01*
D02*
G37*
G36*
X1989703D02*
X1941594D01*
Y480631D01*
X1950510Y481805D01*
X1963478Y487176D01*
X1974614Y495721D01*
X1983158Y506857D01*
X1988530Y519824D01*
X1989703Y528740D01*
D02*
G37*
G36*
X1931594D02*
X1883486D01*
X1884659Y519824D01*
X1890031Y506857D01*
X1898575Y495721D01*
X1909711Y487176D01*
X1922679Y481805D01*
X1931594Y480631D01*
Y528740D01*
D02*
G37*
G36*
X708661Y1113774D02*
X700151Y1112081D01*
X692937Y1107260D01*
X688116Y1100046D01*
X686423Y1091535D01*
X688116Y1083025D01*
X692937Y1075811D01*
X700151Y1070990D01*
X708661Y1069297D01*
X709170Y1069398D01*
X922088Y856480D01*
Y485104D01*
X910498Y480304D01*
X899363Y471759D01*
X890818Y460624D01*
X885447Y447656D01*
X883615Y433740D01*
X885447Y419824D01*
X890818Y406857D01*
X899363Y395721D01*
X910498Y387176D01*
X923466Y381805D01*
X937382Y379973D01*
X951298Y381805D01*
X964265Y387176D01*
X975401Y395721D01*
X983946Y406857D01*
X989317Y419824D01*
X991149Y433740D01*
X989317Y447656D01*
X983946Y460624D01*
X975401Y471759D01*
X964265Y480304D01*
X952676Y485104D01*
Y862815D01*
X951512Y868668D01*
X948196Y873629D01*
X730799Y1091027D01*
X730900Y1091535D01*
X729207Y1100046D01*
X724386Y1107260D01*
X717172Y1112081D01*
X708661Y1113774D01*
D02*
G37*
G36*
X2435807Y487507D02*
X2421891Y485675D01*
X2408924Y480304D01*
X2397788Y471759D01*
X2389243Y460624D01*
X2383872Y447656D01*
X2382040Y433740D01*
X2383872Y419824D01*
X2389243Y406857D01*
X2397788Y395721D01*
X2408924Y387176D01*
X2421891Y381805D01*
X2435807Y379973D01*
X2449723Y381805D01*
X2462691Y387176D01*
X2473826Y395721D01*
X2482371Y406857D01*
X2487742Y419824D01*
X2489574Y433740D01*
X2487742Y447656D01*
X2482371Y460624D01*
X2473826Y471759D01*
X2462691Y480304D01*
X2449723Y485675D01*
X2435807Y487507D01*
D02*
G37*
G36*
X1303917Y381551D02*
X1291543Y379922D01*
X1285194Y377292D01*
X1276035Y376086D01*
X1265462Y371706D01*
X1256383Y364740D01*
X1249416Y355660D01*
X1245036Y345087D01*
X1243542Y333740D01*
X1245036Y322394D01*
X1249416Y311820D01*
X1256383Y302741D01*
X1265462Y295774D01*
X1276035Y291394D01*
X1285194Y290189D01*
X1291543Y287559D01*
X1303917Y285930D01*
X1316292Y287559D01*
X1327823Y292335D01*
X1337725Y299933D01*
X1345322Y309835D01*
X1350099Y321366D01*
X1351728Y333740D01*
X1350099Y346115D01*
X1345322Y357645D01*
X1337725Y367547D01*
X1327823Y375145D01*
X1316292Y379922D01*
X1303917Y381551D01*
D02*
G37*
G36*
X870846D02*
X858472Y379922D01*
X846941Y375145D01*
X837039Y367547D01*
X829441Y357645D01*
X824665Y346115D01*
X823036Y333740D01*
X824665Y321366D01*
X829441Y309835D01*
X837039Y299933D01*
X846941Y292335D01*
X858472Y287559D01*
X870846Y285930D01*
X883221Y287559D01*
X889570Y290189D01*
X898728Y291394D01*
X909302Y295774D01*
X918381Y302741D01*
X925348Y311820D01*
X929728Y322394D01*
X931221Y333740D01*
X929728Y345087D01*
X925348Y355660D01*
X918381Y364740D01*
X909302Y371706D01*
X898728Y376086D01*
X889570Y377292D01*
X883221Y379922D01*
X870846Y381551D01*
D02*
G37*
G36*
X554705D02*
X542331Y379922D01*
X535982Y377292D01*
X526823Y376086D01*
X516250Y371706D01*
X507170Y364740D01*
X500203Y355660D01*
X495824Y345087D01*
X494330Y333740D01*
X495824Y322394D01*
X500203Y311820D01*
X507170Y302741D01*
X516250Y295774D01*
X526823Y291394D01*
X535982Y290189D01*
X542331Y287559D01*
X554705Y285930D01*
X567079Y287559D01*
X578610Y292335D01*
X588512Y299933D01*
X596110Y309835D01*
X600886Y321366D01*
X602515Y333740D01*
X600886Y346115D01*
X596110Y357645D01*
X588512Y367547D01*
X578610Y375145D01*
X567079Y379922D01*
X554705Y381551D01*
D02*
G37*
G36*
X121634D02*
X109260Y379922D01*
X97729Y375145D01*
X87827Y367547D01*
X80229Y357645D01*
X75452Y346115D01*
X73823Y333740D01*
X75452Y321366D01*
X80229Y309835D01*
X87827Y299933D01*
X97728Y292335D01*
X109260Y287559D01*
X121634Y285930D01*
X134008Y287559D01*
X140357Y290189D01*
X149516Y291394D01*
X160089Y295774D01*
X169168Y302741D01*
X176135Y311820D01*
X180515Y322394D01*
X182009Y333740D01*
X180515Y345087D01*
X176135Y355660D01*
X169168Y364740D01*
X160089Y371706D01*
X149516Y376086D01*
X140357Y377292D01*
X134008Y379922D01*
X121634Y381551D01*
D02*
G37*
G36*
X2802343Y381551D02*
X2789968Y379921D01*
X2783619Y377292D01*
X2774461Y376086D01*
X2763887Y371706D01*
X2754808Y364739D01*
X2747841Y355660D01*
X2743461Y345087D01*
X2741968Y333740D01*
X2743461Y322394D01*
X2747841Y311820D01*
X2754808Y302741D01*
X2763887Y295774D01*
X2774461Y291394D01*
X2783619Y290188D01*
X2789968Y287559D01*
X2802343Y285930D01*
X2814717Y287559D01*
X2826248Y292335D01*
X2836150Y299933D01*
X2843748Y309835D01*
X2848524Y321366D01*
X2850153Y333740D01*
X2848524Y346114D01*
X2843748Y357645D01*
X2836150Y367547D01*
X2826248Y375145D01*
X2814717Y379921D01*
X2802343Y381551D01*
D02*
G37*
G36*
X2369272D02*
X2356897Y379921D01*
X2345366Y375145D01*
X2335465Y367547D01*
X2327867Y357645D01*
X2323090Y346114D01*
X2321461Y333740D01*
X2323090Y321366D01*
X2327867Y309835D01*
X2335465Y299933D01*
X2345366Y292335D01*
X2356897Y287559D01*
X2369272Y285930D01*
X2381646Y287559D01*
X2387995Y290188D01*
X2397153Y291394D01*
X2407727Y295774D01*
X2416806Y302741D01*
X2423773Y311820D01*
X2428153Y322394D01*
X2429647Y333740D01*
X2428153Y345087D01*
X2423773Y355660D01*
X2416806Y364739D01*
X2407727Y371706D01*
X2397153Y376086D01*
X2387995Y377292D01*
X2381646Y379921D01*
X2369272Y381551D01*
D02*
G37*
G36*
X2053130D02*
X2040756Y379921D01*
X2034407Y377292D01*
X2025248Y376086D01*
X2014675Y371706D01*
X2005595Y364739D01*
X1998628Y355660D01*
X1994249Y345087D01*
X1992755Y333740D01*
X1994249Y322394D01*
X1998628Y311820D01*
X2005595Y302741D01*
X2014675Y295774D01*
X2025248Y291394D01*
X2034407Y290188D01*
X2040756Y287559D01*
X2053130Y285930D01*
X2065504Y287559D01*
X2077035Y292335D01*
X2086937Y299933D01*
X2094535Y309835D01*
X2099311Y321366D01*
X2100941Y333740D01*
X2099311Y346114D01*
X2094535Y357645D01*
X2086937Y367547D01*
X2077035Y375145D01*
X2065504Y379921D01*
X2053130Y381551D01*
D02*
G37*
G36*
X1620059D02*
X1607685Y379921D01*
X1596154Y375145D01*
X1586252Y367547D01*
X1578654Y357645D01*
X1573878Y346114D01*
X1572248Y333740D01*
X1573878Y321366D01*
X1578654Y309835D01*
X1586252Y299933D01*
X1596154Y292335D01*
X1607685Y287559D01*
X1620059Y285930D01*
X1632433Y287559D01*
X1638782Y290188D01*
X1647941Y291394D01*
X1658514Y295774D01*
X1667594Y302741D01*
X1674561Y311820D01*
X1678940Y322394D01*
X1680434Y333740D01*
X1678940Y345087D01*
X1674561Y355660D01*
X1667594Y364739D01*
X1658514Y371706D01*
X1647941Y376086D01*
X1638782Y377292D01*
X1632433Y379921D01*
X1620059Y381551D01*
D02*
G37*
G36*
X1087382Y423899D02*
X1069793Y422166D01*
X1052880Y417036D01*
X1037293Y408704D01*
X1023630Y397492D01*
X1012418Y383830D01*
X1004086Y368242D01*
X998956Y351329D01*
X997223Y333740D01*
X998956Y316151D01*
X1004086Y299238D01*
X1012418Y283651D01*
X1023630Y269988D01*
X1037293Y258776D01*
X1052880Y250445D01*
X1069793Y245314D01*
X1087382Y243582D01*
X1104971Y245314D01*
X1121884Y250445D01*
X1137471Y258776D01*
X1151134Y269988D01*
X1162346Y283651D01*
X1170678Y299238D01*
X1175808Y316151D01*
X1177540Y333740D01*
X1175808Y351329D01*
X1170678Y368242D01*
X1162346Y383830D01*
X1151134Y397492D01*
X1137471Y408704D01*
X1121884Y417036D01*
X1104971Y422166D01*
X1087382Y423899D01*
D02*
G37*
G36*
X338169D02*
X320580Y422166D01*
X303667Y417036D01*
X288080Y408704D01*
X274418Y397492D01*
X263205Y383830D01*
X254874Y368242D01*
X249743Y351329D01*
X248011Y333740D01*
X249743Y316151D01*
X254874Y299238D01*
X263205Y283651D01*
X274418Y269988D01*
X288080Y258776D01*
X303667Y250445D01*
X320580Y245314D01*
X338169Y243582D01*
X355758Y245314D01*
X372671Y250445D01*
X388259Y258776D01*
X401921Y269988D01*
X413133Y283651D01*
X421465Y299238D01*
X426595Y316151D01*
X428328Y333740D01*
X426595Y351329D01*
X421465Y368242D01*
X413133Y383830D01*
X401921Y397492D01*
X388259Y408704D01*
X372671Y417036D01*
X355758Y422166D01*
X338169Y423899D01*
D02*
G37*
G36*
X2585807Y423899D02*
X2568218Y422166D01*
X2551305Y417036D01*
X2535718Y408704D01*
X2522055Y397492D01*
X2510843Y383829D01*
X2502512Y368242D01*
X2497381Y351329D01*
X2495649Y333740D01*
X2497381Y316151D01*
X2502512Y299238D01*
X2510843Y283651D01*
X2522055Y269988D01*
X2535718Y258776D01*
X2551305Y250445D01*
X2568218Y245314D01*
X2585807Y243582D01*
X2603396Y245314D01*
X2620309Y250445D01*
X2635896Y258776D01*
X2649559Y269988D01*
X2660771Y283651D01*
X2669103Y299238D01*
X2674233Y316151D01*
X2675966Y333740D01*
X2674233Y351329D01*
X2669103Y368242D01*
X2660771Y383829D01*
X2649559Y397492D01*
X2635896Y408704D01*
X2620309Y417036D01*
X2603396Y422166D01*
X2585807Y423899D01*
D02*
G37*
G36*
X1836594D02*
X1819005Y422166D01*
X1802092Y417036D01*
X1786505Y408704D01*
X1772843Y397492D01*
X1761630Y383829D01*
X1753299Y368242D01*
X1748168Y351329D01*
X1746436Y333740D01*
X1748168Y316151D01*
X1753299Y299238D01*
X1761630Y283651D01*
X1772843Y269988D01*
X1786505Y258776D01*
X1802092Y250445D01*
X1819005Y245314D01*
X1836594Y243582D01*
X1854184Y245314D01*
X1871097Y250445D01*
X1886684Y258776D01*
X1900346Y269988D01*
X1911559Y283651D01*
X1919890Y299238D01*
X1925021Y316151D01*
X1926753Y333740D01*
X1925021Y351329D01*
X1919890Y368242D01*
X1911559Y383829D01*
X1900346Y397492D01*
X1886684Y408704D01*
X1871097Y417036D01*
X1854184Y422166D01*
X1836594Y423899D01*
D02*
G37*
%LPD*%
G36*
X1723340Y1977472D02*
X1720037Y1973705D01*
X1713488Y1978729D01*
X1700521Y1984100D01*
X1686605Y1985932D01*
X1672689Y1984100D01*
X1667547Y1981971D01*
X1424970Y2224548D01*
X1426673Y2226767D01*
X1431158Y2237594D01*
X1432687Y2249213D01*
X1431158Y2260831D01*
X1429919Y2263823D01*
X1434157Y2266655D01*
X1723340Y1977472D01*
D02*
G37*
D10*
X937382Y1932165D02*
X949149D01*
X1065212Y2048228D01*
X1068898D01*
X822463Y1899705D02*
X1071970Y2149213D01*
X1387795D01*
X768273Y1899705D02*
X822463D01*
X928117Y1700787D02*
X989173D01*
X787795Y1841110D02*
X928117Y1700787D01*
X787795Y1841110D02*
Y1849213D01*
X1663451Y1124646D02*
X1686594Y1101502D01*
Y433740D02*
Y1101502D01*
X1387795Y1399304D02*
Y1849213D01*
X1662454Y1124646D02*
X1663451D01*
X1387795Y1399304D02*
X1662454Y1124646D01*
X708661Y1091535D02*
X937382Y862815D01*
Y433740D02*
Y862815D01*
X834656Y1447978D02*
X837155D01*
X432894Y1043717D02*
Y1046216D01*
X188169Y798992D02*
X432894Y1043717D01*
Y1046216D02*
X834656Y1447978D01*
X837155D02*
X1182106Y1792929D01*
X1335890Y1949213D02*
X1387795D01*
X1182106Y1792929D02*
Y1795429D01*
X188169Y433740D02*
Y798992D01*
X1182106Y1795429D02*
X1335890Y1949213D01*
X485059Y1479842D02*
Y1616491D01*
X188169Y1182953D02*
X485059Y1479842D01*
Y1616491D02*
X768273Y1899705D01*
X1759842Y1461614D02*
X1948128D01*
X2226790Y1182953D02*
X2435807D01*
X1948128Y1461614D02*
X2226790Y1182953D01*
X1686605Y1182953D02*
Y1691523D01*
X1535516Y1842611D02*
X1686605Y1691523D01*
X1387795Y2049213D02*
X1387795D01*
X1535516Y1901492D01*
Y1842611D02*
Y1901492D01*
X787795Y2249213D02*
X1081280D01*
X1130787Y2298720D01*
X1423720D01*
X1790276Y1932165D01*
X2435807D01*
X1387795Y2240094D02*
Y2249213D01*
Y2240094D02*
X1686605Y1941284D01*
Y1932165D02*
Y1941284D01*
X1338287Y2398720D02*
X1387795Y2349213D01*
X678441Y2398720D02*
X1338287D01*
X675586Y2401575D02*
X678441Y2398720D01*
X188169Y1932165D02*
X657579Y2401575D01*
X675586D01*
X837591Y2698720D02*
X913237Y2623074D01*
X995121D01*
X517275Y2698720D02*
X837591D01*
X499936Y2681381D02*
X517275Y2698720D01*
X995121Y2623074D02*
X1048153Y2676106D01*
X1283307D01*
X188176Y2681381D02*
X499936D01*
X1283307Y2676106D02*
X1376503Y2582910D01*
Y2560505D02*
Y2582910D01*
Y2560505D02*
X1387795Y2549213D01*
X937389Y2681381D02*
Y2799619D01*
X787795Y2949213D02*
X937389Y2799619D01*
X1053150Y2755905D02*
X1109350Y2699705D01*
X1895829Y2739685D02*
X1954136Y2681378D01*
X1109350Y2699705D02*
X1482599D01*
X1954136Y2681378D02*
X2435807D01*
X1522580Y2739685D02*
X1895829D01*
X1482599Y2699705D02*
X1522580Y2739685D01*
X1678952Y2673735D02*
X1686594Y2681378D01*
X1612318Y2673735D02*
X1678952D01*
X1387795Y2449213D02*
X1612318Y2673735D01*
D11*
X1087382Y1832165D02*
D03*
X1836594Y2581378D02*
D03*
X1087389Y2581381D02*
D03*
X338169Y333740D02*
D03*
X1087382D02*
D03*
X1836594Y333740D02*
D03*
X2585807D02*
D03*
X1836605Y1082953D02*
D03*
X338169D02*
D03*
X1087382D02*
D03*
X2585807Y1082953D02*
D03*
X338169Y1832165D02*
D03*
X1836605D02*
D03*
X2585807Y1832165D02*
D03*
X338176Y2581381D02*
D03*
X2585807Y2581378D02*
D03*
D12*
X1303917Y1832165D02*
D03*
X870846D02*
D03*
X2053130Y2581378D02*
D03*
X1620059D02*
D03*
X1303925Y2581381D02*
D03*
X870854D02*
D03*
X554705Y333740D02*
D03*
X121634D02*
D03*
X1303917D02*
D03*
X870846D02*
D03*
X2053130Y333740D02*
D03*
X1620059D02*
D03*
X2802343D02*
D03*
X2369272D02*
D03*
X2053140Y1082953D02*
D03*
X1620070D02*
D03*
X554705D02*
D03*
X121634D02*
D03*
X1303918D02*
D03*
X870846D02*
D03*
X2802343Y1082953D02*
D03*
X2369272D02*
D03*
X554705Y1832165D02*
D03*
X121634D02*
D03*
X2053140D02*
D03*
X1620069D02*
D03*
X2802343Y1832165D02*
D03*
X2369272D02*
D03*
X554712Y2581381D02*
D03*
X121641D02*
D03*
X2802343Y2581378D02*
D03*
X2369272D02*
D03*
D13*
X1287382Y1832165D02*
D03*
X887382D02*
D03*
X2036594Y2581378D02*
D03*
X1636594D02*
D03*
X1287389Y2581381D02*
D03*
X887389D02*
D03*
X538169Y333740D02*
D03*
X138169D02*
D03*
X1287382D02*
D03*
X887382D02*
D03*
X2036594Y333740D02*
D03*
X1636594D02*
D03*
X2785807D02*
D03*
X2385807D02*
D03*
X2036605Y1082953D02*
D03*
X1636605D02*
D03*
X538169D02*
D03*
X138169D02*
D03*
X1287382D02*
D03*
X887382D02*
D03*
X2785807Y1082953D02*
D03*
X2385807D02*
D03*
X538169Y1832165D02*
D03*
X138169D02*
D03*
X2036605D02*
D03*
X1636605D02*
D03*
X2785807Y1832165D02*
D03*
X2385807D02*
D03*
X538176Y2581381D02*
D03*
X138176D02*
D03*
X2785807Y2581378D02*
D03*
X2385807D02*
D03*
D14*
X1187382Y2032165D02*
D03*
X937382Y1932165D02*
D03*
X1936594Y2781378D02*
D03*
X1686594Y2681378D02*
D03*
X1187389Y2781381D02*
D03*
X937389Y2681381D02*
D03*
X438169Y533740D02*
D03*
X188169Y433740D02*
D03*
X1187382Y533740D02*
D03*
X937382Y433740D02*
D03*
X1936594Y533740D02*
D03*
X1686594Y433740D02*
D03*
X2685807Y533740D02*
D03*
X2435807Y433740D02*
D03*
X1936605Y1282953D02*
D03*
X1686605Y1182953D02*
D03*
X438169Y1282953D02*
D03*
X188169Y1182953D02*
D03*
X1187382Y1282953D02*
D03*
X937382Y1182953D02*
D03*
X2685807Y1282953D02*
D03*
X2435807Y1182953D02*
D03*
X438169Y2032165D02*
D03*
X188169Y1932165D02*
D03*
X1936605Y2032165D02*
D03*
X1686605Y1932165D02*
D03*
X2685807Y2032165D02*
D03*
X2435807Y1932165D02*
D03*
X438176Y2781381D02*
D03*
X188176Y2681381D02*
D03*
X2685807Y2781378D02*
D03*
X2435807Y2681378D02*
D03*
D15*
X787795Y2249213D02*
D03*
Y2849213D02*
D03*
Y2649213D02*
D03*
Y2449213D02*
D03*
Y2549213D02*
D03*
Y2049213D02*
D03*
Y2149213D02*
D03*
Y1849213D02*
D03*
Y2749213D02*
D03*
Y2349213D02*
D03*
Y1949213D02*
D03*
X1387795Y2249213D02*
D03*
Y2949213D02*
D03*
Y2649213D02*
D03*
Y2849213D02*
D03*
Y2449213D02*
D03*
Y2549213D02*
D03*
Y2049213D02*
D03*
Y2149213D02*
D03*
Y1849213D02*
D03*
Y2349213D02*
D03*
Y1949213D02*
D03*
Y2749213D02*
D03*
D16*
X787795Y2949213D02*
D03*
D17*
X2112598Y3106693D02*
D03*
Y2925591D02*
D03*
X1852756Y3106693D02*
D03*
Y2925591D02*
D03*
D18*
X1068898Y2048228D02*
D03*
X989173Y1700787D02*
D03*
X708661Y1091535D02*
D03*
X1759842Y1461614D02*
D03*
X1053150Y2755905D02*
D03*
%TF.MD5,47129785a1a8f850e3fa4d7435df1c22*%
M02*
