%TF.GenerationSoftware,Altium Limited,Altium Designer,20.1.12 (249)*%
G04 Layer_Color=16711935*
%FSLAX26Y26*%
%MOIN*%
%TF.SameCoordinates,63403D4D-F3CE-4837-A966-4B93B91F9A20*%
%TF.FilePolarity,Negative*%
%TF.FileFunction,Soldermask,Bot*%
%TF.Part,Single*%
G01*
G75*
%TA.AperFunction,ComponentPad*%
%ADD13C,0.066929*%
%ADD14C,0.074803*%
%ADD15C,0.159449*%
%ADD21C,0.077016*%
%ADD22R,0.077016X0.077016*%
%ADD23C,0.094614*%
%ADD24C,0.074929*%
%ADD25C,0.082803*%
%ADD26C,0.167449*%
%ADD27C,0.063118*%
D13*
X140114Y339646D02*
D03*
X540114D02*
D03*
D14*
X123579D02*
D03*
X556650D02*
D03*
D15*
X340114D02*
D03*
D21*
X789764Y1514173D02*
D03*
Y2114173D02*
D03*
Y1914173D02*
D03*
Y1714173D02*
D03*
Y1814173D02*
D03*
Y1314173D02*
D03*
Y1414173D02*
D03*
Y1114173D02*
D03*
Y2014173D02*
D03*
Y1614173D02*
D03*
Y1214173D02*
D03*
X1389764Y1514173D02*
D03*
Y2214173D02*
D03*
Y1914173D02*
D03*
Y2114173D02*
D03*
Y1714173D02*
D03*
Y1814173D02*
D03*
Y1314173D02*
D03*
Y1414173D02*
D03*
Y1114173D02*
D03*
Y1614173D02*
D03*
Y1214173D02*
D03*
Y2014173D02*
D03*
D22*
X789764Y2214173D02*
D03*
D23*
X190114Y439646D02*
D03*
X440114Y539646D02*
D03*
X1688776Y1187835D02*
D03*
X1938776Y1287835D02*
D03*
X1938539Y2038071D02*
D03*
X1688539Y1938071D02*
D03*
Y439646D02*
D03*
X1938539Y539646D02*
D03*
X190114Y1188858D02*
D03*
X440114Y1288858D02*
D03*
Y2038071D02*
D03*
X190114Y1938071D02*
D03*
X1189327Y539646D02*
D03*
X939327Y439646D02*
D03*
X1189563Y1287835D02*
D03*
X939563Y1187835D02*
D03*
X939327Y1938071D02*
D03*
X1189327Y2038071D02*
D03*
D24*
X1638776Y1087835D02*
D03*
X2038776D02*
D03*
X2038539Y1838071D02*
D03*
X1638539D02*
D03*
Y339646D02*
D03*
X2038539D02*
D03*
X140114Y1088858D02*
D03*
X540114D02*
D03*
Y1838071D02*
D03*
X140114D02*
D03*
X1289327Y339646D02*
D03*
X889327D02*
D03*
X1289563Y1087835D02*
D03*
X889563D02*
D03*
X889327Y1838071D02*
D03*
X1289327D02*
D03*
D25*
X1622240Y1087835D02*
D03*
X2055311D02*
D03*
X2055075Y1838071D02*
D03*
X1622004D02*
D03*
Y339646D02*
D03*
X2055075D02*
D03*
X123579Y1088858D02*
D03*
X556650D02*
D03*
Y1838071D02*
D03*
X123579D02*
D03*
X1305862Y339646D02*
D03*
X872791D02*
D03*
X1306099Y1087835D02*
D03*
X873028D02*
D03*
X872791Y1838071D02*
D03*
X1305862D02*
D03*
D26*
X1838776Y1087835D02*
D03*
X1838539Y1838071D02*
D03*
Y339646D02*
D03*
X340114Y1088858D02*
D03*
Y1838071D02*
D03*
X1089327Y339646D02*
D03*
X1089563Y1087835D02*
D03*
X1089327Y1838071D02*
D03*
D27*
X1724409Y2161417D02*
D03*
Y2342520D02*
D03*
X1984252Y2161417D02*
D03*
Y2342520D02*
D03*
%TF.MD5,194e0274f198a6d2defd47042ae016ae*%
M02*
