%TF.GenerationSoftware,Altium Limited,Altium Designer,20.1.12 (249)*%
G04 Layer_Physical_Order=1*
G04 Layer_Color=255*
%FSLAX26Y26*%
%MOIN*%
%TF.SameCoordinates,F1925889-B8ED-483B-8674-5474D18B1AF1*%
%TF.FilePolarity,Positive*%
%TF.FileFunction,Copper,L1,Top,Signal*%
%TF.Part,Single*%
G01*
G75*
%TA.AperFunction,ComponentPad*%
%ADD10C,0.069016*%
%ADD11R,0.069016X0.069016*%
%ADD12C,0.159449*%
%ADD13C,0.086614*%
%ADD14C,0.074803*%
%ADD15C,0.066929*%
%ADD16C,0.055118*%
G36*
X2216175Y2477732D02*
X2228406Y2472666D01*
X2239414Y2465311D01*
X2254175Y2450549D01*
X2254175Y2450549D01*
X2261140Y2443585D01*
X2272083Y2427206D01*
X2279622Y2409007D01*
X2283465Y2389688D01*
Y2379838D01*
Y96737D01*
Y90117D01*
X2280882Y77132D01*
X2275815Y64901D01*
X2268460Y53893D01*
X2253699Y39132D01*
X2253699D01*
X2246734Y32167D01*
X2230356Y21224D01*
X2212157Y13685D01*
X2192837Y9842D01*
X90117D01*
X77132Y12425D01*
X64901Y17492D01*
X53893Y24847D01*
X30722Y48019D01*
X30722Y48019D01*
X30721Y48019D01*
X25757Y52983D01*
X17956Y64659D01*
X12582Y77632D01*
X9842Y91404D01*
Y98425D01*
Y2393421D01*
Y2400040D01*
X12425Y2413025D01*
X17492Y2425256D01*
X24847Y2436264D01*
X39608Y2451026D01*
X39608Y2451026D01*
Y2451026D01*
X46573Y2457990D01*
X62951Y2468934D01*
X81150Y2476472D01*
X100470Y2480315D01*
X2203190D01*
X2216175Y2477732D01*
D02*
G37*
G36*
X5782598Y8184882D02*
D01*
D02*
G37*
%LPC*%
G36*
X1793740Y2447619D02*
Y2415394D01*
X1825965D01*
X1825332Y2420199D01*
X1821548Y2429335D01*
X1815528Y2437181D01*
X1807682Y2443201D01*
X1798545Y2446986D01*
X1793740Y2447619D01*
D02*
G37*
G36*
X1783740Y2447619D02*
X1778935Y2446986D01*
X1769799Y2443201D01*
X1761953Y2437181D01*
X1755932Y2429335D01*
X1752148Y2420199D01*
X1751515Y2415394D01*
X1783740D01*
Y2447619D01*
D02*
G37*
G36*
X1825965Y2405394D02*
X1793740D01*
Y2373169D01*
X1798545Y2373801D01*
X1807682Y2377586D01*
X1815528Y2383606D01*
X1821548Y2391452D01*
X1825332Y2400589D01*
X1825965Y2405394D01*
D02*
G37*
G36*
X1783740D02*
X1751515D01*
X1752148Y2400589D01*
X1755932Y2391452D01*
X1761953Y2383606D01*
X1769799Y2377586D01*
X1778935Y2373801D01*
X1783740Y2373169D01*
Y2405394D01*
D02*
G37*
G36*
X2048583Y2448277D02*
X2038778Y2446986D01*
X2029641Y2443201D01*
X2021795Y2437181D01*
X2015775Y2429335D01*
X2011990Y2420199D01*
X2010700Y2410394D01*
X2011990Y2400589D01*
X2015775Y2391452D01*
X2021795Y2383606D01*
X2029641Y2377586D01*
X2038778Y2373801D01*
X2048583Y2372511D01*
X2058388Y2373801D01*
X2067524Y2377586D01*
X2075370Y2383606D01*
X2081390Y2391452D01*
X2085175Y2400589D01*
X2086466Y2410394D01*
X2085175Y2420199D01*
X2081390Y2429335D01*
X2075370Y2437181D01*
X2067524Y2443201D01*
X2058388Y2446986D01*
X2048583Y2448277D01*
D02*
G37*
G36*
X893362Y2368682D02*
X804346D01*
Y2279666D01*
X893362D01*
Y2368682D01*
D02*
G37*
G36*
X1448854Y2369066D02*
X1437235Y2367536D01*
X1426408Y2363051D01*
X1417111Y2355917D01*
X1409977Y2346620D01*
X1405492Y2335793D01*
X1403962Y2324174D01*
X1405492Y2312555D01*
X1409977Y2301728D01*
X1417111Y2292430D01*
X1426408Y2285296D01*
X1437235Y2280811D01*
X1448854Y2279282D01*
X1460473Y2280811D01*
X1471300Y2285296D01*
X1480598Y2292430D01*
X1487732Y2301728D01*
X1492216Y2312555D01*
X1493746Y2324174D01*
X1492216Y2335793D01*
X1487732Y2346620D01*
X1480598Y2355917D01*
X1471300Y2363051D01*
X1460473Y2367536D01*
X1448854Y2369066D01*
D02*
G37*
G36*
X1453854Y2268407D02*
Y2229174D01*
X1493088D01*
X1492216Y2235793D01*
X1487732Y2246620D01*
X1480598Y2255917D01*
X1471300Y2263051D01*
X1460473Y2267536D01*
X1453854Y2268407D01*
D02*
G37*
G36*
X1443854D02*
X1437235Y2267536D01*
X1426408Y2263051D01*
X1417111Y2255917D01*
X1409977Y2246620D01*
X1405492Y2235793D01*
X1404621Y2229174D01*
X1443854D01*
Y2268407D01*
D02*
G37*
G36*
X2048583Y2267174D02*
X2038778Y2265884D01*
X2029641Y2262099D01*
X2021795Y2256079D01*
X2015775Y2248233D01*
X2011990Y2239096D01*
X2010700Y2229291D01*
X2011990Y2219486D01*
X2015775Y2210350D01*
X2021795Y2202504D01*
X2029641Y2196484D01*
X2038778Y2192699D01*
X2048583Y2191408D01*
X2058388Y2192699D01*
X2067524Y2196484D01*
X2075370Y2202504D01*
X2081390Y2210350D01*
X2085175Y2219486D01*
X2086466Y2229291D01*
X2085175Y2239096D01*
X2081390Y2248233D01*
X2075370Y2256079D01*
X2067524Y2262099D01*
X2058388Y2265884D01*
X2048583Y2267174D01*
D02*
G37*
G36*
X1788740D02*
X1778935Y2265884D01*
X1769799Y2262099D01*
X1761953Y2256079D01*
X1755932Y2248233D01*
X1752148Y2239096D01*
X1750857Y2229291D01*
X1752148Y2219486D01*
X1755932Y2210350D01*
X1761953Y2202504D01*
X1769799Y2196484D01*
X1778935Y2192699D01*
X1788740Y2191408D01*
X1798545Y2192699D01*
X1807682Y2196484D01*
X1815528Y2202504D01*
X1821548Y2210350D01*
X1825332Y2219486D01*
X1826623Y2229291D01*
X1825332Y2239096D01*
X1821548Y2248233D01*
X1815528Y2256079D01*
X1807682Y2262099D01*
X1798545Y2265884D01*
X1788740Y2267174D01*
D02*
G37*
G36*
X1493088Y2219174D02*
X1453854D01*
Y2179940D01*
X1460473Y2180811D01*
X1471300Y2185296D01*
X1480598Y2192430D01*
X1487732Y2201728D01*
X1492216Y2212555D01*
X1493088Y2219174D01*
D02*
G37*
G36*
X1443854D02*
X1404621D01*
X1405492Y2212555D01*
X1409977Y2201728D01*
X1417111Y2192430D01*
X1426408Y2185296D01*
X1437235Y2180811D01*
X1443854Y2179940D01*
Y2219174D01*
D02*
G37*
G36*
X848854Y2269066D02*
X837235Y2267536D01*
X826408Y2263051D01*
X817111Y2255917D01*
X809977Y2246620D01*
X805492Y2235793D01*
X803962Y2224174D01*
X805492Y2212555D01*
X809977Y2201728D01*
X817111Y2192430D01*
X826408Y2185296D01*
X837235Y2180811D01*
X848854Y2179282D01*
X860473Y2180811D01*
X871300Y2185296D01*
X880598Y2192430D01*
X887732Y2201728D01*
X892216Y2212555D01*
X893746Y2224174D01*
X892216Y2235793D01*
X887732Y2246620D01*
X880598Y2255917D01*
X871300Y2263051D01*
X860473Y2267536D01*
X848854Y2269066D01*
D02*
G37*
G36*
X853854Y2168407D02*
Y2129174D01*
X893088D01*
X892216Y2135793D01*
X887732Y2146620D01*
X880598Y2155917D01*
X871300Y2163051D01*
X860473Y2167536D01*
X853854Y2168407D01*
D02*
G37*
G36*
X843854D02*
X837235Y2167536D01*
X826408Y2163051D01*
X817111Y2155917D01*
X809977Y2146620D01*
X805492Y2135793D01*
X804621Y2129174D01*
X843854D01*
Y2168407D01*
D02*
G37*
G36*
X893088Y2119174D02*
X853854D01*
Y2079940D01*
X860473Y2080811D01*
X871300Y2085296D01*
X880598Y2092430D01*
X887732Y2101728D01*
X892216Y2112555D01*
X893088Y2119174D01*
D02*
G37*
G36*
X843854D02*
X804621D01*
X805492Y2112555D01*
X809977Y2101728D01*
X817111Y2092430D01*
X826408Y2085296D01*
X837235Y2080811D01*
X843854Y2079940D01*
Y2119174D01*
D02*
G37*
G36*
X1448854Y2169066D02*
X1437235Y2167536D01*
X1426408Y2163051D01*
X1417111Y2155917D01*
X1409977Y2146620D01*
X1405492Y2135793D01*
X1403962Y2124174D01*
X1405492Y2112555D01*
X1409977Y2101728D01*
X1417111Y2092430D01*
X1426408Y2085296D01*
X1437235Y2080811D01*
X1448854Y2079282D01*
X1460473Y2080811D01*
X1471300Y2085296D01*
X1480598Y2092430D01*
X1487732Y2101728D01*
X1492216Y2112555D01*
X1493746Y2124174D01*
X1492216Y2135793D01*
X1487732Y2146620D01*
X1480598Y2155917D01*
X1471300Y2163051D01*
X1460473Y2167536D01*
X1448854Y2169066D01*
D02*
G37*
G36*
X1999882Y2125943D02*
Y2077835D01*
X2047991D01*
X2046817Y2086751D01*
X2041446Y2099718D01*
X2032901Y2110854D01*
X2021765Y2119398D01*
X2008798Y2124770D01*
X1999882Y2125943D01*
D02*
G37*
G36*
X1989882D02*
X1980966Y2124770D01*
X1967998Y2119398D01*
X1956863Y2110854D01*
X1948318Y2099718D01*
X1942947Y2086751D01*
X1941773Y2077835D01*
X1989882D01*
Y2125943D01*
D02*
G37*
G36*
X1250669D02*
Y2077835D01*
X1298778D01*
X1297604Y2086751D01*
X1292233Y2099718D01*
X1283688Y2110854D01*
X1272553Y2119398D01*
X1259585Y2124770D01*
X1250669Y2125943D01*
D02*
G37*
G36*
X1240669D02*
X1231753Y2124770D01*
X1218786Y2119398D01*
X1207650Y2110854D01*
X1199106Y2099718D01*
X1193734Y2086751D01*
X1192561Y2077835D01*
X1240669D01*
Y2125943D01*
D02*
G37*
G36*
X501457D02*
Y2077835D01*
X549565D01*
X548392Y2086751D01*
X543020Y2099718D01*
X534476Y2110854D01*
X523340Y2119398D01*
X510373Y2124770D01*
X501457Y2125943D01*
D02*
G37*
G36*
X491457D02*
X482541Y2124770D01*
X469573Y2119398D01*
X458438Y2110854D01*
X449893Y2099718D01*
X444522Y2086751D01*
X443348Y2077835D01*
X491457D01*
Y2125943D01*
D02*
G37*
G36*
X853854Y2068407D02*
Y2029174D01*
X893088D01*
X892216Y2035793D01*
X887732Y2046620D01*
X880598Y2055917D01*
X871300Y2063051D01*
X860473Y2067536D01*
X853854Y2068407D01*
D02*
G37*
G36*
X843854D02*
X837235Y2067536D01*
X826408Y2063051D01*
X817111Y2055917D01*
X809977Y2046620D01*
X805492Y2035793D01*
X804621Y2029174D01*
X843854D01*
Y2068407D01*
D02*
G37*
G36*
X2047991Y2067835D02*
X1999882D01*
Y2019726D01*
X2008798Y2020900D01*
X2021765Y2026271D01*
X2032901Y2034815D01*
X2041446Y2045951D01*
X2046817Y2058919D01*
X2047991Y2067835D01*
D02*
G37*
G36*
X1989882D02*
X1941773D01*
X1942947Y2058919D01*
X1948318Y2045951D01*
X1956863Y2034815D01*
X1967998Y2026271D01*
X1980966Y2020900D01*
X1989882Y2019726D01*
Y2067835D01*
D02*
G37*
G36*
X549565D02*
X501457D01*
Y2019726D01*
X510373Y2020900D01*
X523340Y2026271D01*
X534476Y2034815D01*
X543020Y2045951D01*
X548392Y2058919D01*
X549565Y2067835D01*
D02*
G37*
G36*
X491457D02*
X443348D01*
X444522Y2058919D01*
X449893Y2045951D01*
X458438Y2034815D01*
X469573Y2026271D01*
X482541Y2020900D01*
X491457Y2019726D01*
Y2067835D01*
D02*
G37*
G36*
X1298778D02*
X1250669D01*
Y2019726D01*
X1259585Y2020900D01*
X1272553Y2026271D01*
X1283688Y2034815D01*
X1292233Y2045951D01*
X1297604Y2058919D01*
X1298778Y2067835D01*
D02*
G37*
G36*
X1240669D02*
X1192561D01*
X1193734Y2058919D01*
X1199106Y2045951D01*
X1207650Y2034815D01*
X1218786Y2026271D01*
X1231753Y2020900D01*
X1240669Y2019726D01*
Y2067835D01*
D02*
G37*
G36*
X893088Y2019174D02*
X853854D01*
Y1979940D01*
X860473Y1980812D01*
X871300Y1985296D01*
X880598Y1992430D01*
X887732Y2001728D01*
X892216Y2012555D01*
X893088Y2019174D01*
D02*
G37*
G36*
X843854D02*
X804621D01*
X805492Y2012555D01*
X809977Y2001728D01*
X817111Y1992430D01*
X826408Y1985296D01*
X837235Y1980812D01*
X843854Y1979940D01*
Y2019174D01*
D02*
G37*
G36*
X1448854Y2069066D02*
X1437235Y2067536D01*
X1426408Y2063051D01*
X1417111Y2055917D01*
X1409977Y2046620D01*
X1405492Y2035793D01*
X1403962Y2024174D01*
X1405492Y2012555D01*
X1409977Y2001728D01*
X1417111Y1992430D01*
X1426408Y1985296D01*
X1437235Y1980812D01*
X1448854Y1979282D01*
X1460473Y1980812D01*
X1471300Y1985296D01*
X1480598Y1992430D01*
X1487732Y2001728D01*
X1492216Y2012555D01*
X1493746Y2024174D01*
X1492216Y2035793D01*
X1487732Y2046620D01*
X1480598Y2055917D01*
X1471300Y2063051D01*
X1460473Y2067536D01*
X1448854Y2069066D01*
D02*
G37*
G36*
X1744882Y2026602D02*
X1730966Y2024770D01*
X1717998Y2019398D01*
X1706863Y2010854D01*
X1698318Y1999718D01*
X1692947Y1986751D01*
X1691115Y1972835D01*
X1692947Y1958919D01*
X1698318Y1945951D01*
X1706863Y1934815D01*
X1717998Y1926271D01*
X1730966Y1920900D01*
X1744882Y1919068D01*
X1758798Y1920900D01*
X1771765Y1926271D01*
X1782901Y1934815D01*
X1791446Y1945951D01*
X1796817Y1958919D01*
X1798649Y1972835D01*
X1796817Y1986751D01*
X1791446Y1999718D01*
X1782901Y2010854D01*
X1771765Y2019398D01*
X1758798Y2024770D01*
X1744882Y2026602D01*
D02*
G37*
G36*
X995669D02*
X981753Y2024770D01*
X968786Y2019398D01*
X957650Y2010854D01*
X949106Y1999718D01*
X943734Y1986751D01*
X941902Y1972835D01*
X943734Y1958919D01*
X949106Y1945951D01*
X957650Y1934815D01*
X968786Y1926271D01*
X981753Y1920900D01*
X995669Y1919068D01*
X1009585Y1920900D01*
X1022553Y1926271D01*
X1033688Y1934815D01*
X1042233Y1945951D01*
X1047604Y1958919D01*
X1049436Y1972835D01*
X1047604Y1986751D01*
X1042233Y1999718D01*
X1033688Y2010854D01*
X1022553Y2019398D01*
X1009585Y2024770D01*
X995669Y2026602D01*
D02*
G37*
G36*
X246457D02*
X232541Y2024770D01*
X219573Y2019398D01*
X208438Y2010854D01*
X199893Y1999718D01*
X194522Y1986751D01*
X192690Y1972835D01*
X194522Y1958919D01*
X199893Y1945951D01*
X208438Y1934815D01*
X219573Y1926271D01*
X232541Y1920900D01*
X246457Y1919068D01*
X260373Y1920900D01*
X273340Y1926271D01*
X284476Y1934815D01*
X293020Y1945951D01*
X298392Y1958919D01*
X300224Y1972835D01*
X298392Y1986751D01*
X293020Y1999718D01*
X284476Y2010854D01*
X273340Y2019398D01*
X260373Y2024770D01*
X246457Y2026602D01*
D02*
G37*
G36*
X1448854Y1969066D02*
X1437235Y1967536D01*
X1426408Y1963051D01*
X1417111Y1955917D01*
X1409977Y1946620D01*
X1405492Y1935793D01*
X1403962Y1924174D01*
X1405492Y1912555D01*
X1409977Y1901728D01*
X1417111Y1892430D01*
X1426408Y1885296D01*
X1437235Y1880812D01*
X1448854Y1879282D01*
X1460473Y1880812D01*
X1471300Y1885296D01*
X1480598Y1892430D01*
X1487732Y1901728D01*
X1492216Y1912555D01*
X1493746Y1924174D01*
X1492216Y1935793D01*
X1487732Y1946620D01*
X1480598Y1955917D01*
X1471300Y1963051D01*
X1460473Y1967536D01*
X1448854Y1969066D01*
D02*
G37*
G36*
X848854D02*
X837235Y1967536D01*
X826408Y1963051D01*
X817111Y1955917D01*
X809977Y1946620D01*
X805492Y1935793D01*
X803962Y1924174D01*
X805492Y1912555D01*
X809977Y1901728D01*
X817111Y1892430D01*
X826408Y1885296D01*
X837235Y1880812D01*
X848854Y1879282D01*
X860473Y1880812D01*
X871300Y1885296D01*
X878481Y1890806D01*
X882588Y1887655D01*
X881574Y1885209D01*
X879945Y1872835D01*
X881427Y1861583D01*
X878823Y1859419D01*
X876955Y1858712D01*
X871300Y1863051D01*
X860473Y1867536D01*
X848854Y1869066D01*
X837235Y1867536D01*
X826408Y1863051D01*
X817111Y1855917D01*
X809977Y1846620D01*
X805492Y1835793D01*
X803962Y1824174D01*
X805492Y1812555D01*
X809977Y1801728D01*
X817111Y1792430D01*
X826408Y1785296D01*
X837235Y1780812D01*
X848854Y1779282D01*
X860473Y1780812D01*
X871300Y1785296D01*
X880598Y1792430D01*
X887732Y1801728D01*
X892216Y1812555D01*
X893746Y1824174D01*
X892471Y1833859D01*
X897062Y1836639D01*
X903851Y1831429D01*
X915382Y1826653D01*
X927756Y1825024D01*
X940130Y1826653D01*
X946296Y1829207D01*
X956032Y1830489D01*
X966605Y1834868D01*
X975684Y1841835D01*
X982651Y1850915D01*
X987031Y1861488D01*
X988525Y1872835D01*
X987031Y1884181D01*
X982651Y1894754D01*
X975684Y1903834D01*
X966605Y1910801D01*
X956032Y1915180D01*
X946296Y1916462D01*
X940130Y1919016D01*
X927756Y1920645D01*
X915382Y1919016D01*
X903851Y1914240D01*
X895753Y1908026D01*
X891646Y1911177D01*
X892216Y1912555D01*
X893746Y1924174D01*
X892216Y1935793D01*
X887732Y1946620D01*
X880598Y1955917D01*
X871300Y1963051D01*
X860473Y1967536D01*
X848854Y1969066D01*
D02*
G37*
G36*
X2110433Y1920645D02*
X2098059Y1919016D01*
X2091710Y1916386D01*
X2082551Y1915180D01*
X2071978Y1910801D01*
X2062898Y1903834D01*
X2055931Y1894754D01*
X2051552Y1884181D01*
X2050058Y1872835D01*
X2051552Y1861488D01*
X2055931Y1850915D01*
X2062898Y1841835D01*
X2071978Y1834868D01*
X2082551Y1830489D01*
X2091710Y1829283D01*
X2098059Y1826653D01*
X2110433Y1825024D01*
X2122807Y1826653D01*
X2134338Y1831429D01*
X2144240Y1839027D01*
X2151838Y1848929D01*
X2156614Y1860460D01*
X2158244Y1872835D01*
X2156614Y1885209D01*
X2151838Y1896740D01*
X2144240Y1906642D01*
X2134338Y1914240D01*
X2122807Y1919016D01*
X2110433Y1920645D01*
D02*
G37*
G36*
X1676968D02*
X1664594Y1919016D01*
X1653063Y1914240D01*
X1643161Y1906642D01*
X1635563Y1896740D01*
X1630787Y1885209D01*
X1629158Y1872835D01*
X1630787Y1860460D01*
X1635563Y1848929D01*
X1643161Y1839027D01*
X1653063Y1831429D01*
X1664594Y1826653D01*
X1676968Y1825024D01*
X1689343Y1826653D01*
X1695508Y1829207D01*
X1705244Y1830489D01*
X1715817Y1834868D01*
X1724897Y1841835D01*
X1731864Y1850915D01*
X1736243Y1861488D01*
X1737737Y1872835D01*
X1736243Y1884181D01*
X1731864Y1894754D01*
X1724897Y1903834D01*
X1715817Y1910801D01*
X1705244Y1915180D01*
X1695508Y1916462D01*
X1689343Y1919016D01*
X1676968Y1920645D01*
D02*
G37*
G36*
X1361220D02*
X1348846Y1919016D01*
X1342497Y1916386D01*
X1333339Y1915180D01*
X1322765Y1910801D01*
X1313686Y1903834D01*
X1306719Y1894754D01*
X1302339Y1884181D01*
X1300845Y1872835D01*
X1302339Y1861488D01*
X1306719Y1850915D01*
X1313686Y1841835D01*
X1322765Y1834868D01*
X1333339Y1830489D01*
X1342497Y1829283D01*
X1348846Y1826653D01*
X1361220Y1825024D01*
X1373595Y1826653D01*
X1385126Y1831429D01*
X1395028Y1839027D01*
X1402626Y1848929D01*
X1407402Y1860460D01*
X1409031Y1872835D01*
X1407402Y1885209D01*
X1402626Y1896740D01*
X1395028Y1906642D01*
X1385126Y1914240D01*
X1373595Y1919016D01*
X1361220Y1920645D01*
D02*
G37*
G36*
X612008D02*
X599634Y1919016D01*
X593285Y1916386D01*
X584126Y1915180D01*
X573553Y1910801D01*
X564473Y1903834D01*
X557506Y1894754D01*
X553126Y1884181D01*
X551633Y1872835D01*
X553126Y1861488D01*
X557506Y1850915D01*
X564473Y1841835D01*
X573553Y1834868D01*
X584126Y1830489D01*
X593285Y1829283D01*
X599634Y1826653D01*
X612008Y1825024D01*
X624382Y1826653D01*
X635913Y1831429D01*
X645815Y1839027D01*
X653413Y1848929D01*
X658189Y1860460D01*
X659818Y1872835D01*
X658189Y1885209D01*
X653413Y1896740D01*
X645815Y1906642D01*
X635913Y1914240D01*
X624382Y1919016D01*
X612008Y1920645D01*
D02*
G37*
G36*
X178543D02*
X166169Y1919016D01*
X154638Y1914240D01*
X144736Y1906642D01*
X137138Y1896740D01*
X132362Y1885209D01*
X130733Y1872835D01*
X132362Y1860460D01*
X137138Y1848929D01*
X144736Y1839027D01*
X154638Y1831429D01*
X166169Y1826653D01*
X178543Y1825024D01*
X190917Y1826653D01*
X197083Y1829207D01*
X206819Y1830489D01*
X217392Y1834868D01*
X226472Y1841835D01*
X233439Y1850915D01*
X237818Y1861488D01*
X239312Y1872835D01*
X237818Y1884181D01*
X233439Y1894754D01*
X226472Y1903834D01*
X217392Y1910801D01*
X206819Y1915180D01*
X197083Y1916462D01*
X190917Y1919016D01*
X178543Y1920645D01*
D02*
G37*
G36*
X1895472Y1963584D02*
X1877883Y1961851D01*
X1860970Y1956721D01*
X1845383Y1948389D01*
X1831721Y1937177D01*
X1820508Y1923515D01*
X1812177Y1907927D01*
X1807046Y1891014D01*
X1805314Y1873425D01*
X1807046Y1855836D01*
X1812177Y1838923D01*
X1820508Y1823336D01*
X1831721Y1809674D01*
X1845383Y1798461D01*
X1860970Y1790130D01*
X1877883Y1784999D01*
X1895472Y1783267D01*
X1913062Y1784999D01*
X1929975Y1790130D01*
X1945562Y1798461D01*
X1959224Y1809674D01*
X1970437Y1823336D01*
X1978768Y1838923D01*
X1983899Y1855836D01*
X1985631Y1873425D01*
X1983899Y1891014D01*
X1978768Y1907927D01*
X1970437Y1923515D01*
X1959224Y1937177D01*
X1945562Y1948389D01*
X1929975Y1956721D01*
X1913062Y1961851D01*
X1895472Y1963584D01*
D02*
G37*
G36*
X1146260D02*
X1128671Y1961851D01*
X1111758Y1956721D01*
X1096170Y1948389D01*
X1082508Y1937177D01*
X1071296Y1923515D01*
X1062964Y1907927D01*
X1057834Y1891014D01*
X1056101Y1873425D01*
X1057834Y1855836D01*
X1062964Y1838923D01*
X1071296Y1823336D01*
X1082508Y1809674D01*
X1096170Y1798461D01*
X1111758Y1790130D01*
X1128671Y1784999D01*
X1146260Y1783267D01*
X1163849Y1784999D01*
X1180762Y1790130D01*
X1196349Y1798461D01*
X1210012Y1809674D01*
X1221224Y1823336D01*
X1229555Y1838923D01*
X1234686Y1855836D01*
X1236418Y1873425D01*
X1234686Y1891014D01*
X1229555Y1907927D01*
X1221224Y1923515D01*
X1210012Y1937177D01*
X1196349Y1948389D01*
X1180762Y1956721D01*
X1163849Y1961851D01*
X1146260Y1963584D01*
D02*
G37*
G36*
X397047D02*
X379458Y1961851D01*
X362545Y1956721D01*
X346958Y1948389D01*
X333296Y1937177D01*
X322083Y1923515D01*
X313752Y1907927D01*
X308621Y1891014D01*
X306889Y1873425D01*
X308621Y1855836D01*
X313752Y1838923D01*
X322083Y1823336D01*
X333296Y1809674D01*
X346958Y1798461D01*
X362545Y1790130D01*
X379458Y1784999D01*
X397047Y1783267D01*
X414636Y1784999D01*
X431549Y1790130D01*
X447137Y1798461D01*
X460799Y1809674D01*
X472011Y1823336D01*
X480343Y1838923D01*
X485473Y1855836D01*
X487206Y1873425D01*
X485473Y1891014D01*
X480343Y1907927D01*
X472011Y1923515D01*
X460799Y1937177D01*
X447137Y1948389D01*
X431549Y1956721D01*
X414636Y1961851D01*
X397047Y1963584D01*
D02*
G37*
G36*
X1448854Y1869066D02*
X1437235Y1867536D01*
X1426408Y1863051D01*
X1417111Y1855917D01*
X1409977Y1846620D01*
X1405492Y1835793D01*
X1403962Y1824174D01*
X1405492Y1812555D01*
X1409977Y1801728D01*
X1417111Y1792430D01*
X1426408Y1785296D01*
X1437235Y1780812D01*
X1448854Y1779282D01*
X1460473Y1780812D01*
X1471300Y1785296D01*
X1480598Y1792430D01*
X1487732Y1801728D01*
X1492216Y1812555D01*
X1493746Y1824174D01*
X1492216Y1835793D01*
X1487732Y1846620D01*
X1480598Y1855917D01*
X1471300Y1863051D01*
X1460473Y1867536D01*
X1448854Y1869066D01*
D02*
G37*
G36*
Y1769066D02*
X1437235Y1767536D01*
X1426408Y1763051D01*
X1417111Y1755917D01*
X1409977Y1746620D01*
X1405492Y1735793D01*
X1403962Y1724174D01*
X1405492Y1712555D01*
X1409977Y1701728D01*
X1417111Y1692430D01*
X1426408Y1685296D01*
X1437235Y1680812D01*
X1448854Y1679282D01*
X1460473Y1680812D01*
X1471300Y1685296D01*
X1480598Y1692430D01*
X1487732Y1701728D01*
X1492216Y1712555D01*
X1493746Y1724174D01*
X1492216Y1735793D01*
X1487732Y1746620D01*
X1480598Y1755917D01*
X1471300Y1763051D01*
X1460473Y1767536D01*
X1448854Y1769066D01*
D02*
G37*
G36*
X848854D02*
X837235Y1767536D01*
X826408Y1763051D01*
X817111Y1755917D01*
X809977Y1746620D01*
X805492Y1735793D01*
X803962Y1724174D01*
X805492Y1712555D01*
X809977Y1701728D01*
X817111Y1692430D01*
X826408Y1685296D01*
X837235Y1680812D01*
X848854Y1679282D01*
X860473Y1680812D01*
X871300Y1685296D01*
X880598Y1692430D01*
X887732Y1701728D01*
X892216Y1712555D01*
X893746Y1724174D01*
X892216Y1735793D01*
X887732Y1746620D01*
X880598Y1755917D01*
X871300Y1763051D01*
X860473Y1767536D01*
X848854Y1769066D01*
D02*
G37*
G36*
X1448854Y1669066D02*
X1437235Y1667536D01*
X1426408Y1663051D01*
X1417111Y1655917D01*
X1409977Y1646620D01*
X1405492Y1635793D01*
X1403962Y1624174D01*
X1405492Y1612555D01*
X1409977Y1601728D01*
X1417111Y1592430D01*
X1426408Y1585296D01*
X1437235Y1580812D01*
X1448854Y1579282D01*
X1460473Y1580812D01*
X1471300Y1585296D01*
X1480598Y1592430D01*
X1487732Y1601728D01*
X1492216Y1612555D01*
X1493746Y1624174D01*
X1492216Y1635793D01*
X1487732Y1646620D01*
X1480598Y1655917D01*
X1471300Y1663051D01*
X1460473Y1667536D01*
X1448854Y1669066D01*
D02*
G37*
G36*
X848854D02*
X837235Y1667536D01*
X826408Y1663051D01*
X817111Y1655917D01*
X809977Y1646620D01*
X805492Y1635793D01*
X803962Y1624174D01*
X805492Y1612555D01*
X809977Y1601728D01*
X817111Y1592430D01*
X826408Y1585296D01*
X837235Y1580812D01*
X848854Y1579282D01*
X860473Y1580812D01*
X871300Y1585296D01*
X880598Y1592430D01*
X887732Y1601728D01*
X892216Y1612555D01*
X893746Y1624174D01*
X892216Y1635793D01*
X887732Y1646620D01*
X880598Y1655917D01*
X871300Y1663051D01*
X860473Y1667536D01*
X848854Y1669066D01*
D02*
G37*
G36*
X1448854Y1569066D02*
X1437235Y1567536D01*
X1426408Y1563051D01*
X1417111Y1555917D01*
X1409977Y1546620D01*
X1405492Y1535793D01*
X1403962Y1524174D01*
X1405492Y1512555D01*
X1409977Y1501728D01*
X1417111Y1492430D01*
X1426408Y1485296D01*
X1437235Y1480812D01*
X1448854Y1479282D01*
X1460473Y1480812D01*
X1471300Y1485296D01*
X1480598Y1492430D01*
X1487732Y1501728D01*
X1492216Y1512555D01*
X1493746Y1524174D01*
X1492216Y1535793D01*
X1487732Y1546620D01*
X1480598Y1555917D01*
X1471300Y1563051D01*
X1460473Y1567536D01*
X1448854Y1569066D01*
D02*
G37*
G36*
X848854D02*
X837235Y1567536D01*
X826408Y1563051D01*
X817111Y1555917D01*
X809977Y1546620D01*
X805492Y1535793D01*
X803962Y1524174D01*
X805492Y1512555D01*
X809977Y1501728D01*
X817111Y1492430D01*
X826408Y1485296D01*
X837235Y1480812D01*
X848854Y1479282D01*
X860473Y1480812D01*
X871300Y1485296D01*
X880598Y1492430D01*
X887732Y1501728D01*
X892216Y1512555D01*
X893746Y1524174D01*
X892216Y1535793D01*
X887732Y1546620D01*
X880598Y1555917D01*
X871300Y1563051D01*
X860473Y1567536D01*
X848854Y1569066D01*
D02*
G37*
G36*
X1448854Y1469066D02*
X1437235Y1467536D01*
X1426408Y1463051D01*
X1417111Y1455917D01*
X1409977Y1446620D01*
X1405492Y1435793D01*
X1403962Y1424174D01*
X1405492Y1412555D01*
X1409977Y1401728D01*
X1417111Y1392430D01*
X1426408Y1385296D01*
X1437235Y1380812D01*
X1448854Y1379282D01*
X1460473Y1380812D01*
X1471300Y1385296D01*
X1480598Y1392430D01*
X1487732Y1401728D01*
X1492216Y1412555D01*
X1493746Y1424174D01*
X1492216Y1435793D01*
X1487732Y1446620D01*
X1480598Y1455917D01*
X1471300Y1463051D01*
X1460473Y1467536D01*
X1448854Y1469066D01*
D02*
G37*
G36*
X848854D02*
X837235Y1467536D01*
X826408Y1463051D01*
X817111Y1455917D01*
X809977Y1446620D01*
X805492Y1435793D01*
X803962Y1424174D01*
X805492Y1412555D01*
X809977Y1401728D01*
X817111Y1392430D01*
X826408Y1385296D01*
X837235Y1380812D01*
X848854Y1379282D01*
X860473Y1380812D01*
X871300Y1385296D01*
X880598Y1392430D01*
X887732Y1401728D01*
X892216Y1412555D01*
X893746Y1424174D01*
X892216Y1435793D01*
X887732Y1446620D01*
X880598Y1455917D01*
X871300Y1463051D01*
X860473Y1467536D01*
X848854Y1469066D01*
D02*
G37*
G36*
X501457Y1376731D02*
Y1328622D01*
X549565D01*
X548392Y1337538D01*
X543020Y1350506D01*
X534476Y1361641D01*
X523340Y1370186D01*
X510373Y1375557D01*
X501457Y1376731D01*
D02*
G37*
G36*
X491457D02*
X482541Y1375557D01*
X469573Y1370186D01*
X458438Y1361641D01*
X449893Y1350506D01*
X444522Y1337538D01*
X443348Y1328622D01*
X491457D01*
Y1376731D01*
D02*
G37*
G36*
X2000118Y1375707D02*
Y1327598D01*
X2048227D01*
X2047053Y1336514D01*
X2041682Y1349482D01*
X2033137Y1360618D01*
X2022002Y1369162D01*
X2009034Y1374533D01*
X2000118Y1375707D01*
D02*
G37*
G36*
X1990118D02*
X1981202Y1374533D01*
X1968235Y1369162D01*
X1957099Y1360618D01*
X1948554Y1349482D01*
X1943183Y1336514D01*
X1942009Y1327598D01*
X1990118D01*
Y1375707D01*
D02*
G37*
G36*
X1250906D02*
Y1327598D01*
X1299014D01*
X1297841Y1336514D01*
X1292469Y1349482D01*
X1283925Y1360618D01*
X1272789Y1369162D01*
X1259821Y1374533D01*
X1250906Y1375707D01*
D02*
G37*
G36*
X1240906D02*
X1231990Y1374533D01*
X1219022Y1369162D01*
X1207886Y1360618D01*
X1199342Y1349482D01*
X1193970Y1336514D01*
X1192797Y1327598D01*
X1240906D01*
Y1375707D01*
D02*
G37*
G36*
X1448854Y1369066D02*
X1437235Y1367536D01*
X1426408Y1363051D01*
X1417111Y1355917D01*
X1409977Y1346620D01*
X1405492Y1335793D01*
X1403962Y1324174D01*
X1405492Y1312555D01*
X1409977Y1301728D01*
X1417111Y1292430D01*
X1426408Y1285296D01*
X1437235Y1280812D01*
X1448854Y1279282D01*
X1460473Y1280812D01*
X1471300Y1285296D01*
X1480598Y1292430D01*
X1487732Y1301728D01*
X1492216Y1312555D01*
X1493746Y1324174D01*
X1492216Y1335793D01*
X1487732Y1346620D01*
X1480598Y1355917D01*
X1471300Y1363051D01*
X1460473Y1367536D01*
X1448854Y1369066D01*
D02*
G37*
G36*
X848854D02*
X837235Y1367536D01*
X826408Y1363051D01*
X817111Y1355917D01*
X809977Y1346620D01*
X805492Y1335793D01*
X803962Y1324174D01*
X805492Y1312555D01*
X809977Y1301728D01*
X817111Y1292430D01*
X826408Y1285296D01*
X837235Y1280812D01*
X848854Y1279282D01*
X860473Y1280812D01*
X871300Y1285296D01*
X880598Y1292430D01*
X887732Y1301728D01*
X892216Y1312555D01*
X893746Y1324174D01*
X892216Y1335793D01*
X887732Y1346620D01*
X880598Y1355917D01*
X871300Y1363051D01*
X860473Y1367536D01*
X848854Y1369066D01*
D02*
G37*
G36*
X549565Y1318622D02*
X501457D01*
Y1270513D01*
X510373Y1271687D01*
X523340Y1277058D01*
X534476Y1285603D01*
X543020Y1296738D01*
X548392Y1309706D01*
X549565Y1318622D01*
D02*
G37*
G36*
X491457D02*
X443348D01*
X444522Y1309706D01*
X449893Y1296738D01*
X458438Y1285603D01*
X469573Y1277058D01*
X482541Y1271687D01*
X491457Y1270513D01*
Y1318622D01*
D02*
G37*
G36*
X2048227Y1317598D02*
X2000118D01*
Y1269490D01*
X2009034Y1270663D01*
X2022002Y1276035D01*
X2033137Y1284579D01*
X2041682Y1295715D01*
X2047053Y1308682D01*
X2048227Y1317598D01*
D02*
G37*
G36*
X1990118D02*
X1942009D01*
X1943183Y1308682D01*
X1948554Y1295715D01*
X1957099Y1284579D01*
X1968235Y1276035D01*
X1981202Y1270663D01*
X1990118Y1269490D01*
Y1317598D01*
D02*
G37*
G36*
X1299014D02*
X1250906D01*
Y1269490D01*
X1259821Y1270663D01*
X1272789Y1276035D01*
X1283925Y1284579D01*
X1292469Y1295715D01*
X1297841Y1308682D01*
X1299014Y1317598D01*
D02*
G37*
G36*
X1240906D02*
X1192797D01*
X1193970Y1308682D01*
X1199342Y1295715D01*
X1207886Y1284579D01*
X1219022Y1276035D01*
X1231990Y1270663D01*
X1240906Y1269490D01*
Y1317598D01*
D02*
G37*
G36*
X1448854Y1269066D02*
X1437235Y1267536D01*
X1426408Y1263051D01*
X1417111Y1255917D01*
X1409977Y1246620D01*
X1405492Y1235793D01*
X1403962Y1224174D01*
X1405492Y1212555D01*
X1409977Y1201728D01*
X1417111Y1192430D01*
X1426408Y1185296D01*
X1437235Y1180812D01*
X1448854Y1179282D01*
X1460473Y1180812D01*
X1471300Y1185296D01*
X1480598Y1192430D01*
X1487732Y1201728D01*
X1492216Y1212555D01*
X1493746Y1224174D01*
X1492216Y1235793D01*
X1487732Y1246620D01*
X1480598Y1255917D01*
X1471300Y1263051D01*
X1460473Y1267536D01*
X1448854Y1269066D01*
D02*
G37*
G36*
X848854D02*
X837235Y1267536D01*
X826408Y1263051D01*
X817111Y1255917D01*
X809977Y1246620D01*
X805492Y1235793D01*
X803962Y1224174D01*
X805492Y1212555D01*
X809977Y1201728D01*
X817111Y1192430D01*
X826408Y1185296D01*
X837235Y1180812D01*
X848854Y1179282D01*
X860473Y1180812D01*
X871300Y1185296D01*
X880598Y1192430D01*
X887732Y1201728D01*
X892216Y1212555D01*
X893746Y1224174D01*
X892216Y1235793D01*
X887732Y1246620D01*
X880598Y1255917D01*
X871300Y1263051D01*
X860473Y1267536D01*
X848854Y1269066D01*
D02*
G37*
G36*
X246457Y1277389D02*
X232541Y1275557D01*
X219573Y1270186D01*
X208438Y1261641D01*
X199893Y1250506D01*
X194522Y1237538D01*
X192690Y1223622D01*
X194522Y1209706D01*
X199893Y1196738D01*
X208438Y1185603D01*
X219573Y1177058D01*
X232541Y1171687D01*
X246457Y1169855D01*
X260373Y1171687D01*
X273340Y1177058D01*
X284476Y1185603D01*
X293020Y1196738D01*
X298392Y1209706D01*
X300224Y1223622D01*
X298392Y1237538D01*
X293020Y1250506D01*
X284476Y1261641D01*
X273340Y1270186D01*
X260373Y1275557D01*
X246457Y1277389D01*
D02*
G37*
G36*
X1745118Y1276366D02*
X1731202Y1274533D01*
X1718235Y1269162D01*
X1707099Y1260618D01*
X1698554Y1249482D01*
X1693183Y1236514D01*
X1691351Y1222598D01*
X1693183Y1208682D01*
X1698554Y1195715D01*
X1707099Y1184579D01*
X1718235Y1176035D01*
X1731202Y1170663D01*
X1745118Y1168831D01*
X1759034Y1170663D01*
X1772002Y1176035D01*
X1783137Y1184579D01*
X1791682Y1195715D01*
X1797053Y1208682D01*
X1798885Y1222598D01*
X1797053Y1236514D01*
X1791682Y1249482D01*
X1783137Y1260618D01*
X1772002Y1269162D01*
X1759034Y1274533D01*
X1745118Y1276366D01*
D02*
G37*
G36*
X995905D02*
X981990Y1274533D01*
X969022Y1269162D01*
X957886Y1260618D01*
X949342Y1249482D01*
X943971Y1236514D01*
X942138Y1222598D01*
X943971Y1208682D01*
X949342Y1195715D01*
X957886Y1184579D01*
X969022Y1176035D01*
X981990Y1170663D01*
X995905Y1168831D01*
X1009821Y1170663D01*
X1022789Y1176035D01*
X1033925Y1184579D01*
X1042469Y1195715D01*
X1047841Y1208682D01*
X1049673Y1222598D01*
X1047841Y1236514D01*
X1042469Y1249482D01*
X1033925Y1260618D01*
X1022789Y1269162D01*
X1009821Y1274533D01*
X995905Y1276366D01*
D02*
G37*
G36*
X612008Y1171432D02*
X599634Y1169803D01*
X593285Y1167174D01*
X584126Y1165968D01*
X573553Y1161588D01*
X564473Y1154621D01*
X557506Y1145542D01*
X553126Y1134968D01*
X551633Y1123622D01*
X553126Y1112275D01*
X557506Y1101702D01*
X564473Y1092623D01*
X573553Y1085656D01*
X584126Y1081276D01*
X593285Y1080070D01*
X599634Y1077441D01*
X612008Y1075812D01*
X624382Y1077441D01*
X635913Y1082217D01*
X645815Y1089815D01*
X653413Y1099717D01*
X658189Y1111248D01*
X659818Y1123622D01*
X658189Y1135996D01*
X653413Y1147527D01*
X645815Y1157429D01*
X635913Y1165027D01*
X624382Y1169803D01*
X612008Y1171432D01*
D02*
G37*
G36*
X178543D02*
X166169Y1169803D01*
X154638Y1165027D01*
X144736Y1157429D01*
X137138Y1147527D01*
X132362Y1135996D01*
X130733Y1123622D01*
X132362Y1111248D01*
X137138Y1099717D01*
X144736Y1089815D01*
X154638Y1082217D01*
X166169Y1077441D01*
X178543Y1075812D01*
X190917Y1077441D01*
X197083Y1079995D01*
X206819Y1081276D01*
X217392Y1085656D01*
X226472Y1092623D01*
X233439Y1101702D01*
X237818Y1112275D01*
X239312Y1123622D01*
X237818Y1134968D01*
X233439Y1145542D01*
X226472Y1154621D01*
X217392Y1161588D01*
X206819Y1165968D01*
X197083Y1167249D01*
X190917Y1169803D01*
X178543Y1171432D01*
D02*
G37*
G36*
X2110669Y1170409D02*
X2098295Y1168780D01*
X2091946Y1166150D01*
X2082787Y1164944D01*
X2072214Y1160565D01*
X2063135Y1153598D01*
X2056168Y1144518D01*
X2051788Y1133945D01*
X2050294Y1122598D01*
X2051788Y1111252D01*
X2056168Y1100679D01*
X2063135Y1091599D01*
X2072214Y1084632D01*
X2082787Y1080253D01*
X2091946Y1079047D01*
X2098295Y1076417D01*
X2110669Y1074788D01*
X2123044Y1076417D01*
X2134575Y1081193D01*
X2144476Y1088791D01*
X2152074Y1098693D01*
X2156851Y1110224D01*
X2158480Y1122598D01*
X2156851Y1134973D01*
X2152074Y1146504D01*
X2144476Y1156406D01*
X2134575Y1164004D01*
X2123044Y1168780D01*
X2110669Y1170409D01*
D02*
G37*
G36*
X1677205D02*
X1664830Y1168780D01*
X1653299Y1164004D01*
X1643398Y1156406D01*
X1635800Y1146504D01*
X1631023Y1134973D01*
X1629394Y1122598D01*
X1631023Y1110224D01*
X1635800Y1098693D01*
X1643398Y1088791D01*
X1653299Y1081193D01*
X1664830Y1076417D01*
X1677205Y1074788D01*
X1689579Y1076417D01*
X1695745Y1078971D01*
X1705480Y1080253D01*
X1716054Y1084632D01*
X1725133Y1091599D01*
X1732100Y1100679D01*
X1736480Y1111252D01*
X1737973Y1122598D01*
X1736480Y1133945D01*
X1732100Y1144518D01*
X1725133Y1153598D01*
X1716054Y1160565D01*
X1705480Y1164944D01*
X1695745Y1166226D01*
X1689579Y1168780D01*
X1677205Y1170409D01*
D02*
G37*
G36*
X1361457D02*
X1349082Y1168780D01*
X1342733Y1166150D01*
X1333575Y1164944D01*
X1323001Y1160565D01*
X1313922Y1153598D01*
X1306955Y1144518D01*
X1302575Y1133945D01*
X1301082Y1122598D01*
X1302575Y1111252D01*
X1306955Y1100679D01*
X1313922Y1091599D01*
X1323001Y1084632D01*
X1333575Y1080253D01*
X1342733Y1079047D01*
X1349082Y1076417D01*
X1361457Y1074788D01*
X1373831Y1076417D01*
X1385362Y1081193D01*
X1395264Y1088791D01*
X1402862Y1098693D01*
X1407638Y1110224D01*
X1409267Y1122598D01*
X1407638Y1134973D01*
X1402862Y1146504D01*
X1395264Y1156406D01*
X1385362Y1164004D01*
X1373831Y1168780D01*
X1361457Y1170409D01*
D02*
G37*
G36*
X927992D02*
X915618Y1168780D01*
X904087Y1164004D01*
X894185Y1156406D01*
X886587Y1146504D01*
X881811Y1134973D01*
X880182Y1122598D01*
X881811Y1110224D01*
X886587Y1098693D01*
X894185Y1088791D01*
X904087Y1081193D01*
X915618Y1076417D01*
X927992Y1074788D01*
X940366Y1076417D01*
X946532Y1078971D01*
X956268Y1080253D01*
X966841Y1084632D01*
X975920Y1091599D01*
X982887Y1100679D01*
X987267Y1111252D01*
X988761Y1122598D01*
X987267Y1133945D01*
X982887Y1144518D01*
X975920Y1153598D01*
X966841Y1160565D01*
X956268Y1164944D01*
X946532Y1166226D01*
X940366Y1168780D01*
X927992Y1170409D01*
D02*
G37*
G36*
X397047Y1214371D02*
X379458Y1212639D01*
X362545Y1207508D01*
X346958Y1199177D01*
X333296Y1187964D01*
X322083Y1174302D01*
X313752Y1158715D01*
X308621Y1141802D01*
X306889Y1124213D01*
X308621Y1106623D01*
X313752Y1089710D01*
X322083Y1074123D01*
X333296Y1060461D01*
X346958Y1049248D01*
X362545Y1040917D01*
X379458Y1035786D01*
X397047Y1034054D01*
X414636Y1035786D01*
X431549Y1040917D01*
X447137Y1049248D01*
X460799Y1060461D01*
X472011Y1074123D01*
X480343Y1089710D01*
X485473Y1106623D01*
X487206Y1124213D01*
X485473Y1141802D01*
X480343Y1158715D01*
X472011Y1174302D01*
X460799Y1187964D01*
X447137Y1199177D01*
X431549Y1207508D01*
X414636Y1212639D01*
X397047Y1214371D01*
D02*
G37*
G36*
X1895709Y1213348D02*
X1878120Y1211615D01*
X1861207Y1206485D01*
X1845619Y1198153D01*
X1831957Y1186941D01*
X1820745Y1173278D01*
X1812413Y1157691D01*
X1807283Y1140778D01*
X1805550Y1123189D01*
X1807283Y1105600D01*
X1812413Y1088687D01*
X1820745Y1073100D01*
X1831957Y1059437D01*
X1845619Y1048225D01*
X1861207Y1039893D01*
X1878120Y1034763D01*
X1895709Y1033031D01*
X1913298Y1034763D01*
X1930211Y1039893D01*
X1945798Y1048225D01*
X1959460Y1059437D01*
X1970673Y1073100D01*
X1979004Y1088687D01*
X1984135Y1105600D01*
X1985867Y1123189D01*
X1984135Y1140778D01*
X1979004Y1157691D01*
X1970673Y1173278D01*
X1959460Y1186941D01*
X1945798Y1198153D01*
X1930211Y1206485D01*
X1913298Y1211615D01*
X1895709Y1213348D01*
D02*
G37*
G36*
X1146496D02*
X1128907Y1211615D01*
X1111994Y1206485D01*
X1096407Y1198153D01*
X1082744Y1186941D01*
X1071532Y1173278D01*
X1063200Y1157691D01*
X1058070Y1140778D01*
X1056338Y1123189D01*
X1058070Y1105600D01*
X1063200Y1088687D01*
X1071532Y1073100D01*
X1082744Y1059437D01*
X1096407Y1048225D01*
X1111994Y1039893D01*
X1128907Y1034763D01*
X1146496Y1033031D01*
X1164085Y1034763D01*
X1180998Y1039893D01*
X1196585Y1048225D01*
X1210248Y1059437D01*
X1221460Y1073100D01*
X1229792Y1088687D01*
X1234922Y1105600D01*
X1236655Y1123189D01*
X1234922Y1140778D01*
X1229792Y1157691D01*
X1221460Y1173278D01*
X1210248Y1186941D01*
X1196585Y1198153D01*
X1180998Y1206485D01*
X1164085Y1211615D01*
X1146496Y1213348D01*
D02*
G37*
G36*
X1999882Y627518D02*
Y579409D01*
X2047991D01*
X2046817Y588325D01*
X2041446Y601293D01*
X2032901Y612428D01*
X2021765Y620973D01*
X2008798Y626344D01*
X1999882Y627518D01*
D02*
G37*
G36*
X1989882D02*
X1980966Y626344D01*
X1967998Y620973D01*
X1956863Y612428D01*
X1948318Y601293D01*
X1942947Y588325D01*
X1941773Y579409D01*
X1989882D01*
Y627518D01*
D02*
G37*
G36*
X1250669D02*
Y579409D01*
X1298778D01*
X1297604Y588325D01*
X1292233Y601293D01*
X1283688Y612428D01*
X1272553Y620973D01*
X1259585Y626344D01*
X1250669Y627518D01*
D02*
G37*
G36*
X1240669D02*
X1231753Y626344D01*
X1218786Y620973D01*
X1207650Y612428D01*
X1199105Y601293D01*
X1193734Y588325D01*
X1192560Y579409D01*
X1240669D01*
Y627518D01*
D02*
G37*
G36*
X501457D02*
Y579409D01*
X549565D01*
X548392Y588325D01*
X543020Y601293D01*
X534476Y612428D01*
X523340Y620973D01*
X510373Y626344D01*
X501457Y627518D01*
D02*
G37*
G36*
X491457D02*
X482541Y626344D01*
X469573Y620973D01*
X458438Y612428D01*
X449893Y601293D01*
X444522Y588325D01*
X443348Y579409D01*
X491457D01*
Y627518D01*
D02*
G37*
G36*
X2047991Y569409D02*
X1999882D01*
Y521301D01*
X2008798Y522474D01*
X2021765Y527846D01*
X2032901Y536390D01*
X2041446Y547526D01*
X2046817Y560494D01*
X2047991Y569409D01*
D02*
G37*
G36*
X1989882D02*
X1941773D01*
X1942947Y560494D01*
X1948318Y547526D01*
X1956863Y536390D01*
X1967998Y527846D01*
X1980966Y522474D01*
X1989882Y521301D01*
Y569409D01*
D02*
G37*
G36*
X549565D02*
X501457D01*
Y521301D01*
X510373Y522474D01*
X523340Y527846D01*
X534476Y536390D01*
X543020Y547526D01*
X548392Y560494D01*
X549565Y569409D01*
D02*
G37*
G36*
X491457D02*
X443348D01*
X444522Y560494D01*
X449893Y547526D01*
X458438Y536390D01*
X469573Y527846D01*
X482541Y522474D01*
X491457Y521301D01*
Y569409D01*
D02*
G37*
G36*
X1298778D02*
X1250669D01*
Y521301D01*
X1259585Y522474D01*
X1272553Y527846D01*
X1283688Y536390D01*
X1292233Y547526D01*
X1297604Y560494D01*
X1298778Y569409D01*
D02*
G37*
G36*
X1240669D02*
X1192560D01*
X1193734Y560494D01*
X1199105Y547526D01*
X1207650Y536390D01*
X1218786Y527846D01*
X1231753Y522474D01*
X1240669Y521301D01*
Y569409D01*
D02*
G37*
G36*
X1744882Y528177D02*
X1730966Y526344D01*
X1717998Y520973D01*
X1706863Y512428D01*
X1698318Y501293D01*
X1692947Y488325D01*
X1691115Y474409D01*
X1692947Y460493D01*
X1698318Y447526D01*
X1706863Y436390D01*
X1717998Y427846D01*
X1730966Y422474D01*
X1744882Y420642D01*
X1758798Y422474D01*
X1771765Y427846D01*
X1782901Y436390D01*
X1791446Y447526D01*
X1796817Y460493D01*
X1798649Y474409D01*
X1796817Y488325D01*
X1791446Y501293D01*
X1782901Y512428D01*
X1771765Y520973D01*
X1758798Y526344D01*
X1744882Y528177D01*
D02*
G37*
G36*
X995669D02*
X981753Y526344D01*
X968786Y520973D01*
X957650Y512428D01*
X949106Y501293D01*
X943734Y488325D01*
X941902Y474409D01*
X943734Y460493D01*
X949106Y447526D01*
X957650Y436390D01*
X968786Y427846D01*
X981753Y422474D01*
X995669Y420642D01*
X1009585Y422474D01*
X1022553Y427846D01*
X1033688Y436390D01*
X1042233Y447526D01*
X1047604Y460493D01*
X1049436Y474409D01*
X1047604Y488325D01*
X1042233Y501293D01*
X1033688Y512428D01*
X1022553Y520973D01*
X1009585Y526344D01*
X995669Y528177D01*
D02*
G37*
G36*
X246457D02*
X232541Y526344D01*
X219573Y520973D01*
X208438Y512428D01*
X199893Y501293D01*
X194522Y488325D01*
X192690Y474409D01*
X194522Y460493D01*
X199893Y447526D01*
X208438Y436390D01*
X219573Y427846D01*
X232541Y422474D01*
X246457Y420642D01*
X260373Y422474D01*
X273340Y427846D01*
X284476Y436390D01*
X293020Y447526D01*
X298392Y460493D01*
X300224Y474409D01*
X298392Y488325D01*
X293020Y501293D01*
X284476Y512428D01*
X273340Y520973D01*
X260373Y526344D01*
X246457Y528177D01*
D02*
G37*
G36*
X2110433Y422220D02*
X2098059Y420591D01*
X2091710Y417961D01*
X2082551Y416755D01*
X2071978Y412376D01*
X2062898Y405409D01*
X2055931Y396329D01*
X2051552Y385756D01*
X2050058Y374409D01*
X2051552Y363063D01*
X2055931Y352490D01*
X2062898Y343410D01*
X2071978Y336443D01*
X2082551Y332064D01*
X2091710Y330858D01*
X2098059Y328228D01*
X2110433Y326599D01*
X2122807Y328228D01*
X2134338Y333004D01*
X2144240Y340602D01*
X2151838Y350504D01*
X2156614Y362035D01*
X2158244Y374409D01*
X2156614Y386784D01*
X2151838Y398315D01*
X2144240Y408216D01*
X2134338Y415815D01*
X2122807Y420591D01*
X2110433Y422220D01*
D02*
G37*
G36*
X1676968D02*
X1664594Y420591D01*
X1653063Y415815D01*
X1643161Y408216D01*
X1635563Y398315D01*
X1630787Y386784D01*
X1629158Y374409D01*
X1630787Y362035D01*
X1635563Y350504D01*
X1643161Y340602D01*
X1653063Y333004D01*
X1664594Y328228D01*
X1676968Y326599D01*
X1689343Y328228D01*
X1695508Y330782D01*
X1705244Y332064D01*
X1715817Y336443D01*
X1724897Y343410D01*
X1731864Y352490D01*
X1736243Y363063D01*
X1737737Y374409D01*
X1736243Y385756D01*
X1731864Y396329D01*
X1724897Y405409D01*
X1715817Y412376D01*
X1705244Y416755D01*
X1695508Y418037D01*
X1689343Y420591D01*
X1676968Y422220D01*
D02*
G37*
G36*
X1361220D02*
X1348846Y420591D01*
X1342497Y417961D01*
X1333338Y416755D01*
X1322765Y412376D01*
X1313686Y405409D01*
X1306719Y396329D01*
X1302339Y385756D01*
X1300845Y374409D01*
X1302339Y363063D01*
X1306719Y352490D01*
X1313686Y343410D01*
X1322765Y336443D01*
X1333338Y332064D01*
X1342497Y330858D01*
X1348846Y328228D01*
X1361220Y326599D01*
X1373595Y328228D01*
X1385126Y333004D01*
X1395027Y340602D01*
X1402626Y350504D01*
X1407402Y362035D01*
X1409031Y374409D01*
X1407402Y386784D01*
X1402626Y398315D01*
X1395027Y408216D01*
X1385126Y415815D01*
X1373595Y420591D01*
X1361220Y422220D01*
D02*
G37*
G36*
X927756D02*
X915381Y420591D01*
X903851Y415815D01*
X893949Y408216D01*
X886351Y398315D01*
X881574Y386784D01*
X879945Y374409D01*
X881574Y362035D01*
X886351Y350504D01*
X893949Y340602D01*
X903851Y333004D01*
X915381Y328228D01*
X927756Y326599D01*
X940130Y328228D01*
X946296Y330782D01*
X956031Y332064D01*
X966605Y336443D01*
X975684Y343410D01*
X982651Y352490D01*
X987031Y363063D01*
X988524Y374409D01*
X987031Y385756D01*
X982651Y396329D01*
X975684Y405409D01*
X966605Y412376D01*
X956031Y416755D01*
X946296Y418037D01*
X940130Y420591D01*
X927756Y422220D01*
D02*
G37*
G36*
X612008D02*
X599634Y420591D01*
X593285Y417961D01*
X584126Y416755D01*
X573553Y412376D01*
X564473Y405409D01*
X557506Y396329D01*
X553126Y385756D01*
X551633Y374409D01*
X553126Y363063D01*
X557506Y352490D01*
X564473Y343410D01*
X573553Y336443D01*
X584126Y332064D01*
X593285Y330858D01*
X599634Y328228D01*
X612008Y326599D01*
X624382Y328228D01*
X635913Y333004D01*
X645815Y340602D01*
X653413Y350504D01*
X658189Y362035D01*
X659818Y374409D01*
X658189Y386784D01*
X653413Y398315D01*
X645815Y408216D01*
X635913Y415815D01*
X624382Y420591D01*
X612008Y422220D01*
D02*
G37*
G36*
X178543D02*
X166169Y420591D01*
X154638Y415815D01*
X144736Y408216D01*
X137138Y398315D01*
X132362Y386784D01*
X130733Y374409D01*
X132362Y362035D01*
X137138Y350504D01*
X144736Y340602D01*
X154638Y333004D01*
X166169Y328228D01*
X178543Y326599D01*
X190917Y328228D01*
X197083Y330782D01*
X206819Y332064D01*
X217392Y336443D01*
X226472Y343410D01*
X233439Y352490D01*
X237818Y363063D01*
X239312Y374409D01*
X237818Y385756D01*
X233439Y396329D01*
X226472Y405409D01*
X217392Y412376D01*
X206819Y416755D01*
X197083Y418037D01*
X190917Y420591D01*
X178543Y422220D01*
D02*
G37*
G36*
X1895472Y465159D02*
X1877883Y463426D01*
X1860970Y458296D01*
X1845383Y449964D01*
X1831721Y438752D01*
X1820508Y425089D01*
X1812177Y409502D01*
X1807046Y392589D01*
X1805314Y375000D01*
X1807046Y357411D01*
X1812177Y340498D01*
X1820508Y324911D01*
X1831721Y311248D01*
X1845383Y300036D01*
X1860970Y291704D01*
X1877883Y286574D01*
X1895472Y284841D01*
X1913062Y286574D01*
X1929975Y291704D01*
X1945562Y300036D01*
X1959224Y311248D01*
X1970437Y324911D01*
X1978768Y340498D01*
X1983899Y357411D01*
X1985631Y375000D01*
X1983899Y392589D01*
X1978768Y409502D01*
X1970437Y425089D01*
X1959224Y438752D01*
X1945562Y449964D01*
X1929975Y458296D01*
X1913062Y463426D01*
X1895472Y465159D01*
D02*
G37*
G36*
X1146260D02*
X1128671Y463426D01*
X1111758Y458296D01*
X1096170Y449964D01*
X1082508Y438752D01*
X1071296Y425089D01*
X1062964Y409502D01*
X1057834Y392589D01*
X1056101Y375000D01*
X1057834Y357411D01*
X1062964Y340498D01*
X1071296Y324911D01*
X1082508Y311248D01*
X1096170Y300036D01*
X1111758Y291704D01*
X1128671Y286574D01*
X1146260Y284841D01*
X1163849Y286574D01*
X1180762Y291704D01*
X1196349Y300036D01*
X1210012Y311248D01*
X1221224Y324911D01*
X1229555Y340498D01*
X1234686Y357411D01*
X1236418Y375000D01*
X1234686Y392589D01*
X1229555Y409502D01*
X1221224Y425089D01*
X1210012Y438752D01*
X1196349Y449964D01*
X1180762Y458296D01*
X1163849Y463426D01*
X1146260Y465159D01*
D02*
G37*
G36*
X397047D02*
X379458Y463426D01*
X362545Y458296D01*
X346958Y449964D01*
X333296Y438752D01*
X322083Y425089D01*
X313752Y409502D01*
X308621Y392589D01*
X306889Y375000D01*
X308621Y357411D01*
X313752Y340498D01*
X322083Y324911D01*
X333296Y311248D01*
X346958Y300036D01*
X362545Y291704D01*
X379458Y286574D01*
X397047Y284841D01*
X414636Y286574D01*
X431549Y291704D01*
X447137Y300036D01*
X460799Y311248D01*
X472011Y324911D01*
X480343Y340498D01*
X485473Y357411D01*
X487206Y375000D01*
X485473Y392589D01*
X480343Y409502D01*
X472011Y425089D01*
X460799Y438752D01*
X447137Y449964D01*
X431549Y458296D01*
X414636Y463426D01*
X397047Y465159D01*
D02*
G37*
%LPD*%
D10*
X848854Y1624174D02*
D03*
Y2224174D02*
D03*
Y2024174D02*
D03*
Y1824174D02*
D03*
Y1924174D02*
D03*
Y1424174D02*
D03*
Y1524174D02*
D03*
Y1224174D02*
D03*
Y2124174D02*
D03*
Y1724174D02*
D03*
Y1324174D02*
D03*
X1448854Y1624174D02*
D03*
Y2324174D02*
D03*
Y2024174D02*
D03*
Y2224174D02*
D03*
Y1824174D02*
D03*
Y1924174D02*
D03*
Y1424174D02*
D03*
Y1524174D02*
D03*
Y1224174D02*
D03*
Y1724174D02*
D03*
Y1324174D02*
D03*
Y2124174D02*
D03*
D11*
X848854Y2324174D02*
D03*
D12*
X397047Y375000D02*
D03*
Y1124213D02*
D03*
X1146496Y1123189D02*
D03*
X1895709D02*
D03*
X1146260Y375000D02*
D03*
X1895472D02*
D03*
X397047Y1873425D02*
D03*
X1146260D02*
D03*
X1895472D02*
D03*
D13*
X246457Y474409D02*
D03*
X496457Y574409D02*
D03*
X246457Y1223622D02*
D03*
X496457Y1323622D02*
D03*
X995905Y1222598D02*
D03*
X1245906Y1322598D02*
D03*
X1745118Y1222598D02*
D03*
X1995118Y1322598D02*
D03*
X995669Y474409D02*
D03*
X1245669Y574409D02*
D03*
X1744882Y474409D02*
D03*
X1994882Y574409D02*
D03*
X246457Y1972835D02*
D03*
X496457Y2072835D02*
D03*
X995669Y1972835D02*
D03*
X1245669Y2072835D02*
D03*
X1744882Y1972835D02*
D03*
X1994882Y2072835D02*
D03*
D14*
X178543Y374409D02*
D03*
X612008D02*
D03*
X178543Y1123622D02*
D03*
X612008D02*
D03*
X927992Y1122598D02*
D03*
X1361457D02*
D03*
X1677205D02*
D03*
X2110669D02*
D03*
X927756Y374409D02*
D03*
X1361220D02*
D03*
X1676968D02*
D03*
X2110433D02*
D03*
X178543Y1872835D02*
D03*
X612008D02*
D03*
X927756D02*
D03*
X1361220D02*
D03*
X1676968D02*
D03*
X2110433D02*
D03*
D15*
X195472Y374409D02*
D03*
X595472D02*
D03*
X195472Y1123622D02*
D03*
X595472D02*
D03*
X944921Y1122598D02*
D03*
X1344921D02*
D03*
X1694134D02*
D03*
X2094134D02*
D03*
X944685Y374409D02*
D03*
X1344685D02*
D03*
X1693898D02*
D03*
X2093898D02*
D03*
X195472Y1872835D02*
D03*
X595472D02*
D03*
X944685D02*
D03*
X1344685D02*
D03*
X1693898D02*
D03*
X2093898D02*
D03*
D16*
X1788740Y2229291D02*
D03*
Y2410394D02*
D03*
X2048583Y2229291D02*
D03*
Y2410394D02*
D03*
%TF.MD5,fdf868dcca2139cb2c6606c4cbb7e98a*%
M02*
