%TF.GenerationSoftware,Altium Limited,Altium Designer,20.1.12 (249)*%
G04 Layer_Color=65535*
%FSLAX26Y26*%
%MOIN*%
%TF.SameCoordinates,63403D4D-F3CE-4837-A966-4B93B91F9A20*%
%TF.FilePolarity,Positive*%
%TF.FileFunction,Legend,Top*%
%TF.Part,Single*%
G01*
G75*
%TA.AperFunction,NonConductor*%
%ADD18C,0.010000*%
G36*
X64524Y64055D02*
D01*
D02*
G37*
G36*
X813736D02*
D01*
D02*
G37*
G36*
X64524Y813268D02*
D01*
D02*
G37*
G36*
Y1562480D02*
D01*
D02*
G37*
G36*
X813972Y812244D02*
D01*
D02*
G37*
G36*
X1562949Y64055D02*
D01*
D02*
G37*
G36*
X1563185Y812244D02*
D01*
D02*
G37*
G36*
X813736Y1562480D02*
D01*
D02*
G37*
G36*
X1562949D02*
D01*
D02*
G37*
D18*
X64524Y64055D02*
Y615236D01*
Y64055D02*
X615705D01*
X64524Y615236D02*
X615705D01*
Y64055D02*
Y615236D01*
X1563185Y812244D02*
Y1363425D01*
Y812244D02*
X2114366D01*
X1563185Y1363425D02*
X2114366D01*
Y812244D02*
Y1363425D01*
X2114130Y1562480D02*
Y2113661D01*
X1562949D02*
X2114130D01*
X1562949Y1562480D02*
X2114130D01*
X1562949D02*
Y2113661D01*
Y64055D02*
Y615236D01*
Y64055D02*
X2114130D01*
X1562949Y615236D02*
X2114130D01*
Y64055D02*
Y615236D01*
X64524Y813268D02*
Y1364449D01*
Y813268D02*
X615705D01*
X64524Y1364449D02*
X615705D01*
Y813268D02*
Y1364449D01*
Y1562480D02*
Y2113661D01*
X64524D02*
X615705D01*
X64524Y1562480D02*
X615705D01*
X64524D02*
Y2113661D01*
X1364917Y64055D02*
Y615236D01*
X813736D02*
X1364917D01*
X813736Y64055D02*
X1364917D01*
X813736D02*
Y615236D01*
X1365154Y812244D02*
Y1363425D01*
X813972D02*
X1365154D01*
X813972Y812244D02*
X1365154D01*
X813972D02*
Y1363425D01*
X813736Y1562480D02*
Y2113661D01*
Y1562480D02*
X1364917D01*
X813736Y2113661D02*
X1364917D01*
Y1562480D02*
Y2113661D01*
X1563181Y561098D02*
Y614213D01*
X1630783D01*
X69055Y710536D02*
Y650555D01*
Y670549D01*
X109042Y710536D01*
X79052Y680545D01*
X109042Y650555D01*
X129036Y710536D02*
X169023D01*
Y700539D01*
X129036Y660552D01*
Y650555D01*
X1567717Y1458725D02*
Y1398744D01*
Y1418738D01*
X1607704Y1458725D01*
X1577713Y1428734D01*
X1607704Y1398744D01*
X1667684Y1458725D02*
X1647691Y1448728D01*
X1627697Y1428734D01*
Y1408741D01*
X1637694Y1398744D01*
X1657688D01*
X1667684Y1408741D01*
Y1418738D01*
X1657688Y1428734D01*
X1627697D01*
X1567480Y2208961D02*
Y2148980D01*
Y2168974D01*
X1607467Y2208961D01*
X1577477Y2178971D01*
X1607467Y2148980D01*
X1627461Y2198964D02*
X1637458Y2208961D01*
X1657451D01*
X1667448Y2198964D01*
Y2188967D01*
X1657451Y2178971D01*
X1647454D01*
X1657451D01*
X1667448Y2168974D01*
Y2158977D01*
X1657451Y2148980D01*
X1637458D01*
X1627461Y2158977D01*
X1567480Y710536D02*
Y650555D01*
Y670549D01*
X1607467Y710536D01*
X1577477Y680545D01*
X1607467Y650555D01*
X1627461Y660552D02*
X1637458Y650555D01*
X1657451D01*
X1667448Y660552D01*
Y700539D01*
X1657451Y710536D01*
X1637458D01*
X1627461Y700539D01*
Y690542D01*
X1637458Y680545D01*
X1667448D01*
X69055Y1459748D02*
Y1399768D01*
Y1419761D01*
X109042Y1459748D01*
X79052Y1429758D01*
X109042Y1399768D01*
X159026D02*
Y1459748D01*
X129036Y1429758D01*
X169023D01*
X69055Y2208961D02*
Y2148980D01*
Y2168974D01*
X109042Y2208961D01*
X79052Y2178971D01*
X109042Y2148980D01*
X129036D02*
X149029D01*
X139032D01*
Y2208961D01*
X129036Y2198964D01*
X818268Y710536D02*
Y650555D01*
Y670549D01*
X858255Y710536D01*
X828264Y680545D01*
X858255Y650555D01*
X878248Y700539D02*
X888245Y710536D01*
X908239D01*
X918235Y700539D01*
Y690542D01*
X908239Y680545D01*
X918235Y670549D01*
Y660552D01*
X908239Y650555D01*
X888245D01*
X878248Y660552D01*
Y670549D01*
X888245Y680545D01*
X878248Y690542D01*
Y700539D01*
X888245Y680545D02*
X908239D01*
X818504Y1458725D02*
Y1398744D01*
Y1418738D01*
X858491Y1458725D01*
X828501Y1428734D01*
X858491Y1398744D01*
X918472Y1458725D02*
X878485D01*
Y1428734D01*
X898478Y1438731D01*
X908475D01*
X918472Y1428734D01*
Y1408741D01*
X908475Y1398744D01*
X888481D01*
X878485Y1408741D01*
X818268Y2208961D02*
Y2148980D01*
Y2168974D01*
X858255Y2208961D01*
X828265Y2178971D01*
X858255Y2148980D01*
X918236D02*
X878248D01*
X918236Y2188967D01*
Y2198964D01*
X908239Y2208961D01*
X888245D01*
X878248Y2198964D01*
%TF.MD5,a52abf8d8c01c33b6777346aab26552d*%
M02*
