%TF.GenerationSoftware,Altium Limited,Altium Designer,20.1.12 (249)*%
G04 Layer_Physical_Order=2*
G04 Layer_Color=16711680*
%FSLAX26Y26*%
%MOIN*%
%TF.SameCoordinates,63403D4D-F3CE-4837-A966-4B93B91F9A20*%
%TF.FilePolarity,Positive*%
%TF.FileFunction,Copper,L2,Bot,Signal*%
%TF.Part,Single*%
G01*
G75*
%TA.AperFunction,ComponentPad*%
%ADD10C,0.069016*%
%ADD11R,0.069016X0.069016*%
%ADD12C,0.086614*%
%ADD13C,0.066929*%
%ADD14C,0.074803*%
%ADD15C,0.159449*%
%ADD16C,0.055118*%
%TA.AperFunction,Conductor*%
%ADD17C,0.010000*%
G36*
X2099986Y2383104D02*
X2117540Y2375833D01*
X2133338Y2365277D01*
X2146773Y2351842D01*
X2157329Y2336044D01*
X2164600Y2318490D01*
X2168307Y2299854D01*
Y2290354D01*
Y104331D01*
Y95024D01*
X2164676Y76769D01*
X2157553Y59574D01*
X2147213Y44098D01*
X2134052Y30937D01*
X2118576Y20596D01*
X2101380Y13474D01*
X2083125Y9842D01*
X2073819Y9842D01*
X93250D01*
X75375Y13398D01*
X58538Y20372D01*
X43384Y30497D01*
X30497Y43384D01*
X20372Y58538D01*
X13398Y75375D01*
X9842Y93250D01*
X9842Y102362D01*
Y2292323D01*
Y2301629D01*
X13474Y2319884D01*
X20596Y2337080D01*
X30937Y2352555D01*
X44098Y2365716D01*
X59574Y2376057D01*
X76769Y2383180D01*
X95024Y2386811D01*
X2081351D01*
X2099986Y2383104D01*
D02*
G37*
%LPC*%
G36*
X1984252Y2380403D02*
X1974447Y2379112D01*
X1965310Y2375327D01*
X1957465Y2369307D01*
X1951444Y2361461D01*
X1949933Y2357814D01*
X1845324D01*
X1839472Y2356649D01*
X1834510Y2353334D01*
X1510643Y2029467D01*
X1431604D01*
X1428641Y2036619D01*
X1421507Y2045917D01*
X1412210Y2053051D01*
X1401383Y2057535D01*
X1389764Y2059065D01*
X1378145Y2057535D01*
X1367318Y2053051D01*
X1358020Y2045917D01*
X1350886Y2036619D01*
X1346402Y2025792D01*
X1344872Y2014173D01*
X1346402Y2002554D01*
X1350886Y1991727D01*
X1358020Y1982430D01*
X1367318Y1975296D01*
X1378145Y1970811D01*
X1389764Y1969281D01*
X1401383Y1970811D01*
X1412210Y1975296D01*
X1421507Y1982430D01*
X1428641Y1991727D01*
X1431604Y1998879D01*
X1516978D01*
X1522830Y2000043D01*
X1527792Y2003359D01*
X1681991Y2157558D01*
X1687270Y2155766D01*
X1687817Y2151613D01*
X1691602Y2142476D01*
X1697622Y2134630D01*
X1705468Y2128610D01*
X1714605Y2124825D01*
X1724409Y2123534D01*
X1734214Y2124825D01*
X1743351Y2128610D01*
X1751197Y2134630D01*
X1757217Y2142476D01*
X1761002Y2151613D01*
X1762293Y2161417D01*
X1761002Y2171222D01*
X1757217Y2180359D01*
X1751197Y2188205D01*
X1743351Y2194225D01*
X1734214Y2198010D01*
X1730061Y2198557D01*
X1728269Y2203836D01*
X1851659Y2327226D01*
X1949933D01*
X1951444Y2323578D01*
X1957465Y2315732D01*
X1965310Y2309712D01*
X1974447Y2305927D01*
X1984252Y2304637D01*
X1994057Y2305927D01*
X2003194Y2309712D01*
X2011039Y2315732D01*
X2017060Y2323578D01*
X2020844Y2332715D01*
X2022135Y2342520D01*
X2020844Y2352325D01*
X2017060Y2361461D01*
X2011039Y2369307D01*
X2003194Y2375327D01*
X1994057Y2379112D01*
X1984252Y2380403D01*
D02*
G37*
G36*
X1724409D02*
X1714605Y2379112D01*
X1705468Y2375327D01*
X1697622Y2369307D01*
X1691602Y2361461D01*
X1687817Y2352325D01*
X1686526Y2342520D01*
X1687817Y2332715D01*
X1691602Y2323578D01*
X1697622Y2315732D01*
X1705468Y2309712D01*
X1714605Y2305927D01*
X1724409Y2304637D01*
X1734214Y2305927D01*
X1743351Y2309712D01*
X1751197Y2315732D01*
X1757217Y2323578D01*
X1761002Y2332715D01*
X1762293Y2342520D01*
X1761002Y2352325D01*
X1757217Y2361461D01*
X1751197Y2369307D01*
X1743351Y2375327D01*
X1734214Y2379112D01*
X1724409Y2380403D01*
D02*
G37*
G36*
X834272Y2258681D02*
X745256D01*
Y2169665D01*
X834272D01*
Y2258681D01*
D02*
G37*
G36*
X1389764Y2259065D02*
X1378145Y2257535D01*
X1367318Y2253051D01*
X1358020Y2245917D01*
X1350886Y2236619D01*
X1346402Y2225792D01*
X1344872Y2214173D01*
X1346402Y2202554D01*
X1350886Y2191727D01*
X1358020Y2182430D01*
X1367318Y2175296D01*
X1378145Y2170811D01*
X1389764Y2169281D01*
X1401383Y2170811D01*
X1412210Y2175296D01*
X1421507Y2182430D01*
X1428641Y2191727D01*
X1433126Y2202554D01*
X1434656Y2214173D01*
X1433126Y2225792D01*
X1428641Y2236619D01*
X1421507Y2245917D01*
X1412210Y2253051D01*
X1401383Y2257535D01*
X1389764Y2259065D01*
D02*
G37*
G36*
X1984252Y2199300D02*
X1974447Y2198010D01*
X1965310Y2194225D01*
X1957465Y2188205D01*
X1951444Y2180359D01*
X1947660Y2171222D01*
X1946369Y2161417D01*
X1947660Y2151613D01*
X1951444Y2142476D01*
X1957465Y2134630D01*
X1965310Y2128610D01*
X1974447Y2124825D01*
X1984252Y2123534D01*
X1994057Y2124825D01*
X2003194Y2128610D01*
X2011039Y2134630D01*
X2017060Y2142476D01*
X2020844Y2151613D01*
X2022135Y2161417D01*
X2020844Y2171222D01*
X2017060Y2180359D01*
X2011039Y2188205D01*
X2003194Y2194225D01*
X1994057Y2198010D01*
X1984252Y2199300D01*
D02*
G37*
G36*
X1389764Y2159065D02*
X1378145Y2157535D01*
X1367318Y2153051D01*
X1358020Y2145917D01*
X1350886Y2136619D01*
X1346402Y2125792D01*
X1344872Y2114173D01*
X1346402Y2102554D01*
X1350886Y2091727D01*
X1358020Y2082430D01*
X1367318Y2075296D01*
X1378145Y2070811D01*
X1389764Y2069281D01*
X1401383Y2070811D01*
X1412210Y2075296D01*
X1421507Y2082430D01*
X1428641Y2091727D01*
X1433126Y2102554D01*
X1434656Y2114173D01*
X1433126Y2125792D01*
X1428641Y2136619D01*
X1421507Y2145917D01*
X1412210Y2153051D01*
X1401383Y2157535D01*
X1389764Y2159065D01*
D02*
G37*
G36*
X789764D02*
X778145Y2157535D01*
X767318Y2153051D01*
X758020Y2145917D01*
X750886Y2136619D01*
X746402Y2125792D01*
X744872Y2114173D01*
X746402Y2102554D01*
X750886Y2091727D01*
X758020Y2082430D01*
X767318Y2075296D01*
X778145Y2070811D01*
X789764Y2069281D01*
X801383Y2070811D01*
X812210Y2075296D01*
X821507Y2082430D01*
X828641Y2091727D01*
X833126Y2102554D01*
X834656Y2114173D01*
X833126Y2125792D01*
X828641Y2136619D01*
X821507Y2145917D01*
X812210Y2153051D01*
X801383Y2157535D01*
X789764Y2159065D01*
D02*
G37*
G36*
X1938539Y2091838D02*
X1924623Y2090006D01*
X1911656Y2084635D01*
X1900520Y2076090D01*
X1891976Y2064954D01*
X1886604Y2051987D01*
X1884772Y2038071D01*
X1886604Y2024155D01*
X1891976Y2011187D01*
X1900520Y2000052D01*
X1911656Y1991507D01*
X1924623Y1986136D01*
X1938539Y1984304D01*
X1952455Y1986136D01*
X1965423Y1991507D01*
X1976559Y2000052D01*
X1985103Y2011187D01*
X1990474Y2024155D01*
X1992306Y2038071D01*
X1990474Y2051987D01*
X1985103Y2064954D01*
X1976559Y2076090D01*
X1965423Y2084635D01*
X1952455Y2090006D01*
X1938539Y2091838D01*
D02*
G37*
G36*
X1189327D02*
X1175411Y2090006D01*
X1162443Y2084635D01*
X1151308Y2076090D01*
X1142763Y2064954D01*
X1137392Y2051987D01*
X1135560Y2038071D01*
X1137392Y2024155D01*
X1142763Y2011187D01*
X1151308Y2000052D01*
X1162443Y1991507D01*
X1175411Y1986136D01*
X1189327Y1984304D01*
X1203243Y1986136D01*
X1216210Y1991507D01*
X1227346Y2000052D01*
X1235891Y2011187D01*
X1241262Y2024155D01*
X1243094Y2038071D01*
X1241262Y2051987D01*
X1235891Y2064954D01*
X1227346Y2076090D01*
X1216210Y2084635D01*
X1203243Y2090006D01*
X1189327Y2091838D01*
D02*
G37*
G36*
X440114D02*
X426198Y2090006D01*
X413231Y2084635D01*
X402095Y2076090D01*
X393550Y2064954D01*
X388179Y2051987D01*
X386347Y2038071D01*
X388179Y2024155D01*
X393550Y2011187D01*
X402095Y2000052D01*
X413231Y1991507D01*
X426198Y1986136D01*
X440114Y1984304D01*
X454030Y1986136D01*
X466998Y1991507D01*
X478133Y2000052D01*
X486678Y2011187D01*
X492049Y2024155D01*
X493881Y2038071D01*
X492049Y2051987D01*
X486678Y2064954D01*
X478133Y2076090D01*
X466998Y2084635D01*
X454030Y2090006D01*
X440114Y2091838D01*
D02*
G37*
G36*
X789764Y2059065D02*
X778145Y2057535D01*
X767318Y2053051D01*
X758020Y2045917D01*
X750886Y2036619D01*
X746402Y2025792D01*
X744872Y2014173D01*
X746402Y2002554D01*
X750886Y1991727D01*
X758020Y1982430D01*
X767318Y1975296D01*
X778145Y1970811D01*
X789764Y1969281D01*
X801383Y1970811D01*
X812210Y1975296D01*
X821507Y1982430D01*
X828641Y1991727D01*
X833126Y2002554D01*
X834656Y2014173D01*
X833126Y2025792D01*
X828641Y2036619D01*
X821507Y2045917D01*
X812210Y2053051D01*
X801383Y2057535D01*
X789764Y2059065D01*
D02*
G37*
G36*
X1688539Y1991838D02*
X1674623Y1990006D01*
X1661656Y1984635D01*
X1650520Y1976090D01*
X1641976Y1964954D01*
X1637175Y1953365D01*
X1583676D01*
X1577823Y1952201D01*
X1572862Y1948885D01*
X1439519Y1815542D01*
X1434239Y1817334D01*
X1433126Y1825792D01*
X1428641Y1836619D01*
X1421507Y1845917D01*
X1412210Y1853051D01*
X1401383Y1857535D01*
X1389764Y1859065D01*
X1378145Y1857535D01*
X1367318Y1853051D01*
X1358020Y1845917D01*
X1357405Y1845114D01*
X1352575Y1846409D01*
X1352044Y1850445D01*
X1347267Y1861976D01*
X1339669Y1871878D01*
X1329768Y1879476D01*
X1318237Y1884252D01*
X1305862Y1885881D01*
X1293488Y1884252D01*
X1287139Y1881622D01*
X1277980Y1880417D01*
X1267407Y1876037D01*
X1258328Y1869070D01*
X1251361Y1859991D01*
X1246981Y1849417D01*
X1245487Y1838071D01*
X1246981Y1826724D01*
X1251361Y1816151D01*
X1258328Y1807072D01*
X1267407Y1800105D01*
X1277980Y1795725D01*
X1287139Y1794519D01*
X1293488Y1791889D01*
X1305862Y1790260D01*
X1318237Y1791889D01*
X1329768Y1796666D01*
X1339669Y1804264D01*
X1341247Y1806319D01*
X1346076Y1805025D01*
X1346402Y1802554D01*
X1350886Y1791727D01*
X1356835Y1783975D01*
X1354765Y1778975D01*
X1339272D01*
X1333419Y1777811D01*
X1328457Y1774495D01*
X808535Y1254573D01*
X801383Y1257535D01*
X789764Y1259065D01*
X778145Y1257535D01*
X767318Y1253051D01*
X758020Y1245917D01*
X750886Y1236619D01*
X746402Y1225792D01*
X744872Y1214173D01*
X746402Y1202554D01*
X750886Y1191727D01*
X758020Y1182430D01*
X767318Y1175296D01*
X778145Y1170811D01*
X789764Y1169281D01*
X801383Y1170811D01*
X812210Y1175296D01*
X821507Y1182430D01*
X828641Y1191727D01*
X833126Y1202554D01*
X834656Y1214173D01*
X833126Y1225792D01*
X830163Y1232944D01*
X1345607Y1748387D01*
X1353614D01*
X1356080Y1743387D01*
X1350886Y1736619D01*
X1346402Y1725792D01*
X1344872Y1714173D01*
X1346402Y1702554D01*
X1350886Y1691727D01*
X1358020Y1682430D01*
X1367318Y1675296D01*
X1378145Y1670811D01*
X1389764Y1669281D01*
X1401383Y1670811D01*
X1412210Y1675296D01*
X1421507Y1682430D01*
X1428641Y1691727D01*
X1433126Y1702554D01*
X1434656Y1714173D01*
X1433126Y1725792D01*
X1428641Y1736619D01*
X1421507Y1745917D01*
X1419416Y1747521D01*
X1419559Y1751887D01*
X1420345Y1753111D01*
X1590011Y1922777D01*
X1637175D01*
X1641976Y1911187D01*
X1650520Y1900052D01*
X1661656Y1891507D01*
X1674623Y1886136D01*
X1688539Y1884304D01*
X1702455Y1886136D01*
X1715423Y1891507D01*
X1726559Y1900052D01*
X1735103Y1911187D01*
X1740474Y1924155D01*
X1742306Y1938071D01*
X1740474Y1951987D01*
X1735103Y1964954D01*
X1726559Y1976090D01*
X1715423Y1984635D01*
X1702455Y1990006D01*
X1688539Y1991838D01*
D02*
G37*
G36*
X939327D02*
X925411Y1990006D01*
X912443Y1984635D01*
X901308Y1976090D01*
X892763Y1964954D01*
X887392Y1951987D01*
X885560Y1938071D01*
X887392Y1924155D01*
X892763Y1911187D01*
X901308Y1900052D01*
X912443Y1891507D01*
X924033Y1886707D01*
Y1871889D01*
X919033Y1870062D01*
X911247Y1876037D01*
X900673Y1880417D01*
X891515Y1881622D01*
X885166Y1884252D01*
X872791Y1885881D01*
X860417Y1884252D01*
X848886Y1879476D01*
X838984Y1871878D01*
X831386Y1861976D01*
X826610Y1850445D01*
X826179Y1847168D01*
X825450Y1846973D01*
X821020Y1846291D01*
X812210Y1853051D01*
X801383Y1857535D01*
X789764Y1859065D01*
X778145Y1857535D01*
X767318Y1853051D01*
X758020Y1845917D01*
X750886Y1836619D01*
X746402Y1825792D01*
X744872Y1814173D01*
X746402Y1802554D01*
X750886Y1791727D01*
X758020Y1782430D01*
X767318Y1775296D01*
X778145Y1770811D01*
X789764Y1769281D01*
X801383Y1770811D01*
X812210Y1775296D01*
X821507Y1782430D01*
X828641Y1791727D01*
X833126Y1802554D01*
X833323Y1804053D01*
X838153Y1805347D01*
X838984Y1804264D01*
X848886Y1796666D01*
X860417Y1791889D01*
X872791Y1790260D01*
X885166Y1791889D01*
X891515Y1794519D01*
X900673Y1795725D01*
X911247Y1800105D01*
X919033Y1806079D01*
X924033Y1804253D01*
Y1470071D01*
X808535Y1354573D01*
X801383Y1357535D01*
X789764Y1359065D01*
X778145Y1357535D01*
X767318Y1353051D01*
X758020Y1345917D01*
X750886Y1336619D01*
X746402Y1325792D01*
X744872Y1314173D01*
X746402Y1302554D01*
X750886Y1291727D01*
X758020Y1282430D01*
X767318Y1275296D01*
X778145Y1270811D01*
X789764Y1269281D01*
X801383Y1270811D01*
X812210Y1275296D01*
X821507Y1282430D01*
X828641Y1291727D01*
X833126Y1302554D01*
X834656Y1314173D01*
X833126Y1325792D01*
X830163Y1332944D01*
X950141Y1452922D01*
X953457Y1457884D01*
X954621Y1463736D01*
Y1886707D01*
X966210Y1891507D01*
X977346Y1900052D01*
X985891Y1911187D01*
X991262Y1924155D01*
X993094Y1938071D01*
X991262Y1951987D01*
X985891Y1964954D01*
X977346Y1976090D01*
X966210Y1984635D01*
X953243Y1990006D01*
X939327Y1991838D01*
D02*
G37*
G36*
X1389764Y1959065D02*
X1378145Y1957535D01*
X1367318Y1953051D01*
X1358020Y1945917D01*
X1350886Y1936619D01*
X1346402Y1925792D01*
X1344872Y1914173D01*
X1346402Y1902554D01*
X1350886Y1891727D01*
X1358020Y1882430D01*
X1367318Y1875296D01*
X1378145Y1870811D01*
X1389764Y1869281D01*
X1401383Y1870811D01*
X1412210Y1875296D01*
X1421507Y1882430D01*
X1428641Y1891727D01*
X1433126Y1902554D01*
X1434656Y1914173D01*
X1433126Y1925792D01*
X1428641Y1936619D01*
X1421507Y1945917D01*
X1412210Y1953051D01*
X1401383Y1957535D01*
X1389764Y1959065D01*
D02*
G37*
G36*
X789764D02*
X778145Y1957535D01*
X767318Y1953051D01*
X758020Y1945917D01*
X750886Y1936619D01*
X746402Y1925792D01*
X744872Y1914173D01*
X746402Y1902554D01*
X750886Y1891727D01*
X758020Y1882430D01*
X767318Y1875296D01*
X778145Y1870811D01*
X789764Y1869281D01*
X801383Y1870811D01*
X812210Y1875296D01*
X821507Y1882430D01*
X828641Y1891727D01*
X833126Y1902554D01*
X834656Y1914173D01*
X833126Y1925792D01*
X828641Y1936619D01*
X821507Y1945917D01*
X812210Y1953051D01*
X801383Y1957535D01*
X789764Y1959065D01*
D02*
G37*
G36*
X2055075Y1885881D02*
X2042701Y1884252D01*
X2036352Y1881622D01*
X2027193Y1880417D01*
X2016620Y1876037D01*
X2007540Y1869070D01*
X2000573Y1859991D01*
X1996194Y1849417D01*
X1994700Y1838071D01*
X1996194Y1826724D01*
X2000573Y1816151D01*
X2007540Y1807072D01*
X2016620Y1800105D01*
X2027193Y1795725D01*
X2036352Y1794519D01*
X2042701Y1791889D01*
X2055075Y1790260D01*
X2067449Y1791889D01*
X2078980Y1796666D01*
X2088882Y1804264D01*
X2096480Y1814166D01*
X2101256Y1825697D01*
X2102885Y1838071D01*
X2101256Y1850445D01*
X2096480Y1861976D01*
X2088882Y1871878D01*
X2078980Y1879476D01*
X2067449Y1884252D01*
X2055075Y1885881D01*
D02*
G37*
G36*
X1622004D02*
X1609630Y1884252D01*
X1598099Y1879476D01*
X1588197Y1871878D01*
X1580599Y1861976D01*
X1575822Y1850445D01*
X1574193Y1838071D01*
X1575822Y1825697D01*
X1580599Y1814166D01*
X1588197Y1804264D01*
X1598099Y1796666D01*
X1609630Y1791889D01*
X1622004Y1790260D01*
X1634378Y1791889D01*
X1640727Y1794519D01*
X1649886Y1795725D01*
X1660459Y1800105D01*
X1669539Y1807072D01*
X1676505Y1816151D01*
X1680885Y1826724D01*
X1682379Y1838071D01*
X1680885Y1849417D01*
X1676505Y1859991D01*
X1669539Y1869070D01*
X1660459Y1876037D01*
X1649886Y1880417D01*
X1640727Y1881622D01*
X1634378Y1884252D01*
X1622004Y1885881D01*
D02*
G37*
G36*
X556650D02*
X544275Y1884252D01*
X537926Y1881622D01*
X528768Y1880417D01*
X518194Y1876037D01*
X509115Y1869070D01*
X502148Y1859991D01*
X497768Y1849417D01*
X496275Y1838071D01*
X497768Y1826724D01*
X502148Y1816151D01*
X509115Y1807072D01*
X518194Y1800105D01*
X528768Y1795725D01*
X537926Y1794519D01*
X544275Y1791889D01*
X556650Y1790260D01*
X569024Y1791889D01*
X580555Y1796666D01*
X590457Y1804264D01*
X598055Y1814166D01*
X602831Y1825697D01*
X604460Y1838071D01*
X602831Y1850445D01*
X598055Y1861976D01*
X590457Y1871878D01*
X580555Y1879476D01*
X569024Y1884252D01*
X556650Y1885881D01*
D02*
G37*
G36*
X123579D02*
X111204Y1884252D01*
X99674Y1879476D01*
X89772Y1871878D01*
X82174Y1861976D01*
X77397Y1850445D01*
X75768Y1838071D01*
X77397Y1825697D01*
X82174Y1814166D01*
X89772Y1804264D01*
X99673Y1796666D01*
X111204Y1791889D01*
X123579Y1790260D01*
X135953Y1791889D01*
X142302Y1794519D01*
X151461Y1795725D01*
X162034Y1800105D01*
X171113Y1807072D01*
X178080Y1816151D01*
X182460Y1826724D01*
X183954Y1838071D01*
X182460Y1849417D01*
X178080Y1859991D01*
X171113Y1869070D01*
X162034Y1876037D01*
X151461Y1880417D01*
X142302Y1881622D01*
X135953Y1884252D01*
X123579Y1885881D01*
D02*
G37*
G36*
X1838539Y1928229D02*
X1820950Y1926497D01*
X1804037Y1921367D01*
X1788450Y1913035D01*
X1774788Y1901823D01*
X1763575Y1888160D01*
X1755244Y1872573D01*
X1750113Y1855660D01*
X1748381Y1838071D01*
X1750113Y1820482D01*
X1755244Y1803569D01*
X1763575Y1787982D01*
X1774788Y1774319D01*
X1788450Y1763107D01*
X1804037Y1754775D01*
X1820950Y1749645D01*
X1838539Y1747912D01*
X1856129Y1749645D01*
X1873042Y1754775D01*
X1888629Y1763107D01*
X1902291Y1774319D01*
X1913504Y1787982D01*
X1921835Y1803569D01*
X1926966Y1820482D01*
X1928698Y1838071D01*
X1926966Y1855660D01*
X1921835Y1872573D01*
X1913504Y1888160D01*
X1902291Y1901823D01*
X1888629Y1913035D01*
X1873042Y1921367D01*
X1856129Y1926497D01*
X1838539Y1928229D01*
D02*
G37*
G36*
X1089327D02*
X1071738Y1926497D01*
X1054825Y1921367D01*
X1039237Y1913035D01*
X1025575Y1901823D01*
X1014363Y1888160D01*
X1006031Y1872573D01*
X1000901Y1855660D01*
X999168Y1838071D01*
X1000901Y1820482D01*
X1006031Y1803569D01*
X1014363Y1787982D01*
X1025575Y1774319D01*
X1039237Y1763107D01*
X1054825Y1754775D01*
X1071738Y1749645D01*
X1089327Y1747912D01*
X1106916Y1749645D01*
X1123829Y1754775D01*
X1139416Y1763107D01*
X1153079Y1774319D01*
X1164291Y1787982D01*
X1172622Y1803569D01*
X1177753Y1820482D01*
X1179485Y1838071D01*
X1177753Y1855660D01*
X1172622Y1872573D01*
X1164291Y1888160D01*
X1153079Y1901823D01*
X1139416Y1913035D01*
X1123829Y1921367D01*
X1106916Y1926497D01*
X1089327Y1928229D01*
D02*
G37*
G36*
X190114Y1991838D02*
X176198Y1990006D01*
X163231Y1984635D01*
X152095Y1976090D01*
X143550Y1964954D01*
X138179Y1951987D01*
X136347Y1938071D01*
X138179Y1924155D01*
X143550Y1911187D01*
X152095Y1900052D01*
X163231Y1891507D01*
X176198Y1886136D01*
X190114Y1884304D01*
X204030Y1886136D01*
X215620Y1890936D01*
X230096Y1876460D01*
Y1557760D01*
X231260Y1551907D01*
X234575Y1546945D01*
X378162Y1403359D01*
X383124Y1400043D01*
X388976Y1398879D01*
X747924D01*
X750886Y1391727D01*
X758020Y1382430D01*
X767318Y1375296D01*
X778145Y1370811D01*
X789764Y1369281D01*
X801383Y1370811D01*
X812210Y1375296D01*
X821507Y1382430D01*
X828641Y1391727D01*
X833126Y1402554D01*
X834656Y1414173D01*
X833126Y1425792D01*
X828641Y1436619D01*
X821507Y1445917D01*
X812210Y1453051D01*
X801383Y1457535D01*
X789764Y1459065D01*
X778145Y1457535D01*
X767318Y1453051D01*
X758020Y1445917D01*
X750886Y1436619D01*
X747924Y1429467D01*
X395311D01*
X260684Y1564095D01*
Y1786792D01*
X265684Y1787331D01*
X276363Y1774319D01*
X290025Y1763107D01*
X305612Y1754775D01*
X322525Y1749645D01*
X340114Y1747912D01*
X357703Y1749645D01*
X374616Y1754775D01*
X390204Y1763107D01*
X403866Y1774319D01*
X415078Y1787982D01*
X423410Y1803569D01*
X428540Y1820482D01*
X430273Y1838071D01*
X428540Y1855660D01*
X423410Y1872573D01*
X415078Y1888160D01*
X403866Y1901823D01*
X390204Y1913035D01*
X374616Y1921367D01*
X357703Y1926497D01*
X340114Y1928229D01*
X322525Y1926497D01*
X305612Y1921367D01*
X290025Y1913035D01*
X276363Y1901823D01*
X265150Y1888160D01*
X264833Y1887566D01*
X259580Y1888346D01*
X259519Y1888648D01*
X256204Y1893610D01*
X237249Y1912565D01*
X242049Y1924155D01*
X243881Y1938071D01*
X242049Y1951987D01*
X236678Y1964954D01*
X228133Y1976090D01*
X216998Y1984635D01*
X204030Y1990006D01*
X190114Y1991838D01*
D02*
G37*
G36*
X789764Y1759065D02*
X778145Y1757535D01*
X767318Y1753051D01*
X758020Y1745917D01*
X750886Y1736619D01*
X746402Y1725792D01*
X744872Y1714173D01*
X746402Y1702554D01*
X750886Y1691727D01*
X758020Y1682430D01*
X767318Y1675296D01*
X778145Y1670811D01*
X789764Y1669281D01*
X801383Y1670811D01*
X812210Y1675296D01*
X821507Y1682430D01*
X828641Y1691727D01*
X833126Y1702554D01*
X834656Y1714173D01*
X833126Y1725792D01*
X828641Y1736619D01*
X821507Y1745917D01*
X812210Y1753051D01*
X801383Y1757535D01*
X789764Y1759065D01*
D02*
G37*
G36*
X1389764Y1659065D02*
X1378145Y1657535D01*
X1367318Y1653051D01*
X1358020Y1645917D01*
X1350886Y1636619D01*
X1346402Y1625792D01*
X1344872Y1614173D01*
X1346402Y1602554D01*
X1350886Y1591727D01*
X1358020Y1582430D01*
X1367318Y1575296D01*
X1378145Y1570811D01*
X1389764Y1569281D01*
X1401383Y1570811D01*
X1412210Y1575296D01*
X1421507Y1582430D01*
X1428641Y1591727D01*
X1433126Y1602554D01*
X1434656Y1614173D01*
X1433126Y1625792D01*
X1428641Y1636619D01*
X1421507Y1645917D01*
X1412210Y1653051D01*
X1401383Y1657535D01*
X1389764Y1659065D01*
D02*
G37*
G36*
X789764D02*
X778145Y1657535D01*
X767318Y1653051D01*
X758020Y1645917D01*
X750886Y1636619D01*
X746402Y1625792D01*
X744872Y1614173D01*
X746402Y1602554D01*
X750886Y1591727D01*
X758020Y1582430D01*
X767318Y1575296D01*
X778145Y1570811D01*
X789764Y1569281D01*
X801383Y1570811D01*
X812210Y1575296D01*
X821507Y1582430D01*
X828641Y1591727D01*
X833126Y1602554D01*
X834656Y1614173D01*
X833126Y1625792D01*
X828641Y1636619D01*
X821507Y1645917D01*
X812210Y1653051D01*
X801383Y1657535D01*
X789764Y1659065D01*
D02*
G37*
G36*
X1389764Y1559065D02*
X1378145Y1557535D01*
X1367318Y1553051D01*
X1358020Y1545917D01*
X1350886Y1536619D01*
X1347924Y1529467D01*
X1261220D01*
X1255368Y1528303D01*
X1250406Y1524988D01*
X961759Y1236340D01*
X953479Y1239770D01*
X939563Y1241602D01*
X925647Y1239770D01*
X912680Y1234398D01*
X901544Y1225854D01*
X892999Y1214718D01*
X887628Y1201751D01*
X885796Y1187835D01*
X887628Y1173919D01*
X892999Y1160951D01*
X901544Y1149816D01*
X912680Y1141271D01*
X925647Y1135900D01*
X939563Y1134068D01*
X953479Y1135900D01*
X966447Y1141271D01*
X977582Y1149816D01*
X986127Y1160951D01*
X991498Y1173919D01*
X993330Y1187835D01*
X991498Y1201751D01*
X986127Y1214718D01*
X984940Y1216264D01*
X1267555Y1498879D01*
X1347924D01*
X1350886Y1491727D01*
X1358020Y1482430D01*
X1367318Y1475296D01*
X1378145Y1470811D01*
X1389764Y1469281D01*
X1401383Y1470811D01*
X1412210Y1475296D01*
X1421507Y1482430D01*
X1428641Y1491727D01*
X1433126Y1502554D01*
X1434656Y1514173D01*
X1433126Y1525792D01*
X1428641Y1536619D01*
X1421507Y1545917D01*
X1412210Y1553051D01*
X1401383Y1557535D01*
X1389764Y1559065D01*
D02*
G37*
G36*
X789764D02*
X778145Y1557535D01*
X767318Y1553051D01*
X758020Y1545917D01*
X750886Y1536619D01*
X746402Y1525792D01*
X744872Y1514173D01*
X746402Y1502554D01*
X750886Y1491727D01*
X758020Y1482430D01*
X767318Y1475296D01*
X778145Y1470811D01*
X789764Y1469281D01*
X801383Y1470811D01*
X812210Y1475296D01*
X821507Y1482430D01*
X828641Y1491727D01*
X833126Y1502554D01*
X834656Y1514173D01*
X833126Y1525792D01*
X828641Y1536619D01*
X821507Y1545917D01*
X812210Y1553051D01*
X801383Y1557535D01*
X789764Y1559065D01*
D02*
G37*
G36*
X1389764Y1359065D02*
X1378145Y1357535D01*
X1367318Y1353051D01*
X1358020Y1345917D01*
X1350886Y1336619D01*
X1346402Y1325792D01*
X1344872Y1314173D01*
X1345914Y1306260D01*
X1263609Y1223955D01*
X1076429D01*
X1070577Y1222791D01*
X1065615Y1219476D01*
X937926Y1091786D01*
X932646Y1093579D01*
X931909Y1099181D01*
X927529Y1109755D01*
X920562Y1118834D01*
X911483Y1125801D01*
X900909Y1130180D01*
X891751Y1131386D01*
X885402Y1134016D01*
X873028Y1135645D01*
X860653Y1134016D01*
X849122Y1129240D01*
X839221Y1121642D01*
X838462Y1120653D01*
X833632Y1121947D01*
X833126Y1125792D01*
X828641Y1136619D01*
X821507Y1145917D01*
X812210Y1153051D01*
X801383Y1157535D01*
X789764Y1159065D01*
X778145Y1157535D01*
X770993Y1154573D01*
X725893Y1199673D01*
X720931Y1202988D01*
X715079Y1204152D01*
X241478D01*
X236678Y1215742D01*
X228133Y1226877D01*
X216998Y1235422D01*
X204030Y1240793D01*
X190114Y1242625D01*
X176198Y1240793D01*
X163231Y1235422D01*
X152095Y1226877D01*
X143550Y1215742D01*
X138179Y1202774D01*
X136347Y1188858D01*
X138179Y1174942D01*
X143550Y1161975D01*
X152095Y1150839D01*
X163231Y1142295D01*
X176198Y1136923D01*
X190114Y1135091D01*
X204030Y1136923D01*
X216998Y1142295D01*
X228133Y1150839D01*
X236678Y1161975D01*
X241478Y1173564D01*
X297644D01*
X298896Y1168564D01*
X290025Y1163822D01*
X276363Y1152610D01*
X265150Y1138948D01*
X256819Y1123361D01*
X251688Y1106447D01*
X249956Y1088858D01*
X251688Y1071269D01*
X256819Y1054356D01*
X265150Y1038769D01*
X276363Y1025107D01*
X290025Y1013894D01*
X305612Y1005563D01*
X322525Y1000432D01*
X340114Y998700D01*
X357703Y1000432D01*
X374616Y1005563D01*
X390204Y1013894D01*
X403866Y1025107D01*
X415078Y1038769D01*
X423410Y1054356D01*
X428540Y1071269D01*
X430273Y1088858D01*
X428540Y1106447D01*
X423410Y1123361D01*
X415078Y1138948D01*
X403866Y1152610D01*
X390204Y1163822D01*
X381332Y1168564D01*
X382584Y1173564D01*
X708744D01*
X749364Y1132944D01*
X746402Y1125792D01*
X744872Y1114173D01*
X746402Y1102554D01*
X750886Y1091727D01*
X758020Y1082430D01*
X767318Y1075296D01*
X778145Y1070811D01*
X789764Y1069281D01*
X801383Y1070811D01*
X812210Y1075296D01*
X820942Y1081996D01*
X826098Y1081143D01*
X826846Y1075460D01*
X831622Y1063929D01*
X839221Y1054028D01*
X849122Y1046430D01*
X860653Y1041653D01*
X873028Y1040024D01*
X882890Y1041323D01*
X885226Y1036587D01*
X624965Y776327D01*
X511501D01*
X505649Y775162D01*
X500687Y771847D01*
X215620Y486780D01*
X204030Y491581D01*
X190114Y493413D01*
X176198Y491581D01*
X163231Y486209D01*
X152095Y477665D01*
X143550Y466529D01*
X138179Y453562D01*
X136347Y439646D01*
X138179Y425730D01*
X143550Y412762D01*
X152095Y401627D01*
X163231Y393082D01*
X176198Y387711D01*
X190114Y385879D01*
X204030Y387711D01*
X216998Y393082D01*
X228133Y401627D01*
X236678Y412762D01*
X242049Y425730D01*
X243881Y439646D01*
X242049Y453562D01*
X237249Y465151D01*
X517836Y745739D01*
X631300D01*
X637153Y746903D01*
X642115Y750218D01*
X948842Y1056946D01*
X952157Y1061907D01*
X952369Y1062973D01*
X997138Y1107741D01*
X1001055Y1104587D01*
X999405Y1087835D01*
X1001137Y1070246D01*
X1006268Y1053332D01*
X1014599Y1037745D01*
X1025811Y1024083D01*
X1039474Y1012871D01*
X1055061Y1004539D01*
X1071974Y999409D01*
X1089563Y997676D01*
X1107152Y999409D01*
X1124065Y1004539D01*
X1139652Y1012871D01*
X1153315Y1024083D01*
X1164527Y1037745D01*
X1172859Y1053332D01*
X1177989Y1070246D01*
X1179722Y1087835D01*
X1177989Y1105424D01*
X1172859Y1122337D01*
X1164527Y1137924D01*
X1153315Y1151586D01*
X1139652Y1162799D01*
X1124065Y1171130D01*
X1107152Y1176261D01*
X1089563Y1177993D01*
X1072811Y1176343D01*
X1069657Y1180260D01*
X1082764Y1193368D01*
X1254773D01*
X1256686Y1188748D01*
X1218516Y1150578D01*
X1215201Y1145617D01*
X1214037Y1139764D01*
Y1072280D01*
X928512Y786755D01*
X925197Y781794D01*
X924033Y775941D01*
Y491010D01*
X912443Y486209D01*
X901308Y477665D01*
X892763Y466529D01*
X887392Y453562D01*
X885560Y439646D01*
X887392Y425730D01*
X892763Y412762D01*
X901308Y401627D01*
X912443Y393082D01*
X925411Y387711D01*
X939327Y385879D01*
X953243Y387711D01*
X966210Y393082D01*
X977346Y401627D01*
X985890Y412762D01*
X991262Y425730D01*
X993094Y439646D01*
X991262Y453562D01*
X985890Y466529D01*
X977346Y477665D01*
X966210Y486209D01*
X954621Y491010D01*
Y769606D01*
X1240145Y1055130D01*
X1243460Y1060092D01*
X1244625Y1065945D01*
Y1069682D01*
X1249625Y1070676D01*
X1251597Y1065915D01*
X1258564Y1056835D01*
X1267643Y1049869D01*
X1278217Y1045489D01*
X1287375Y1044283D01*
X1293724Y1041653D01*
X1306099Y1040024D01*
X1318473Y1041653D01*
X1330004Y1046430D01*
X1339906Y1054028D01*
X1347504Y1063929D01*
X1352280Y1075460D01*
X1353051Y1081318D01*
X1355505Y1081975D01*
X1358220Y1082276D01*
X1367318Y1075296D01*
X1378145Y1070811D01*
X1389764Y1069281D01*
X1401383Y1070811D01*
X1408535Y1073774D01*
X1673245Y809063D01*
Y491010D01*
X1661656Y486209D01*
X1650520Y477665D01*
X1641976Y466529D01*
X1636604Y453562D01*
X1634772Y439646D01*
X1636604Y425730D01*
X1641976Y412762D01*
X1650520Y401627D01*
X1661656Y393082D01*
X1674623Y387711D01*
X1688539Y385879D01*
X1702455Y387711D01*
X1715423Y393082D01*
X1726559Y401627D01*
X1735103Y412762D01*
X1740474Y425730D01*
X1742306Y439646D01*
X1740474Y453562D01*
X1735103Y466529D01*
X1726559Y477665D01*
X1715423Y486209D01*
X1703833Y491010D01*
Y815398D01*
X1702669Y821250D01*
X1699354Y826212D01*
X1430164Y1095402D01*
X1433126Y1102554D01*
X1434656Y1114173D01*
X1433126Y1125792D01*
X1428641Y1136619D01*
X1421507Y1145917D01*
X1412210Y1153051D01*
X1401383Y1157535D01*
X1389764Y1159065D01*
X1378145Y1157535D01*
X1367318Y1153051D01*
X1358020Y1145917D01*
X1350886Y1136619D01*
X1346402Y1125792D01*
X1345837Y1121501D01*
X1341007Y1120207D01*
X1339906Y1121642D01*
X1330004Y1129240D01*
X1318473Y1134016D01*
X1306099Y1135645D01*
X1293724Y1134016D01*
X1287375Y1131386D01*
X1278217Y1130180D01*
X1267643Y1125801D01*
X1258564Y1118834D01*
X1251597Y1109755D01*
X1249625Y1104993D01*
X1244625Y1105988D01*
Y1133429D01*
X1310075Y1198879D01*
X1347924D01*
X1350886Y1191727D01*
X1358020Y1182430D01*
X1367318Y1175296D01*
X1378145Y1170811D01*
X1389764Y1169281D01*
X1401383Y1170811D01*
X1412210Y1175296D01*
X1421507Y1182430D01*
X1428641Y1191727D01*
X1433126Y1202554D01*
X1434656Y1214173D01*
X1433126Y1225792D01*
X1428641Y1236619D01*
X1421507Y1245917D01*
X1412210Y1253051D01*
X1401383Y1257535D01*
X1389764Y1259065D01*
X1378145Y1257535D01*
X1367318Y1253051D01*
X1358020Y1245917D01*
X1350886Y1236619D01*
X1347924Y1229467D01*
X1318911D01*
X1316998Y1234086D01*
X1362163Y1279251D01*
X1367318Y1275296D01*
X1378145Y1270811D01*
X1389764Y1269281D01*
X1401383Y1270811D01*
X1412210Y1275296D01*
X1421507Y1282430D01*
X1428641Y1291727D01*
X1433126Y1302554D01*
X1434656Y1314173D01*
X1433126Y1325792D01*
X1428641Y1336619D01*
X1421507Y1345917D01*
X1412210Y1353051D01*
X1401383Y1357535D01*
X1389764Y1359065D01*
D02*
G37*
G36*
X440114Y1342625D02*
X426198Y1340793D01*
X413231Y1335422D01*
X402095Y1326877D01*
X393550Y1315742D01*
X388179Y1302774D01*
X386347Y1288858D01*
X388179Y1274942D01*
X393550Y1261975D01*
X402095Y1250839D01*
X413231Y1242295D01*
X426198Y1236923D01*
X440114Y1235091D01*
X454030Y1236923D01*
X466998Y1242295D01*
X478133Y1250839D01*
X486678Y1261975D01*
X492049Y1274942D01*
X493881Y1288858D01*
X492049Y1302774D01*
X486678Y1315742D01*
X478133Y1326877D01*
X466998Y1335422D01*
X454030Y1340793D01*
X440114Y1342625D01*
D02*
G37*
G36*
X1938776Y1341602D02*
X1924860Y1339770D01*
X1911892Y1334398D01*
X1900757Y1325854D01*
X1892212Y1314718D01*
X1886841Y1301751D01*
X1885009Y1287835D01*
X1886841Y1273919D01*
X1892212Y1260951D01*
X1900757Y1249816D01*
X1911892Y1241271D01*
X1924860Y1235900D01*
X1938776Y1234068D01*
X1952692Y1235900D01*
X1965659Y1241271D01*
X1976795Y1249816D01*
X1985339Y1260951D01*
X1990711Y1273919D01*
X1992543Y1287835D01*
X1990711Y1301751D01*
X1985339Y1314718D01*
X1976795Y1325854D01*
X1965659Y1334398D01*
X1952692Y1339770D01*
X1938776Y1341602D01*
D02*
G37*
G36*
X1189563D02*
X1175647Y1339770D01*
X1162680Y1334398D01*
X1151544Y1325854D01*
X1142999Y1314718D01*
X1137628Y1301751D01*
X1135796Y1287835D01*
X1137628Y1273919D01*
X1142999Y1260951D01*
X1151544Y1249816D01*
X1162680Y1241271D01*
X1175647Y1235900D01*
X1189563Y1234068D01*
X1203479Y1235900D01*
X1216447Y1241271D01*
X1227582Y1249816D01*
X1236127Y1260951D01*
X1241498Y1273919D01*
X1243330Y1287835D01*
X1241498Y1301751D01*
X1236127Y1314718D01*
X1227582Y1325854D01*
X1216447Y1334398D01*
X1203479Y1339770D01*
X1189563Y1341602D01*
D02*
G37*
G36*
X1389764Y1459065D02*
X1378145Y1457535D01*
X1367318Y1453051D01*
X1358020Y1445917D01*
X1350886Y1436619D01*
X1346402Y1425792D01*
X1344872Y1414173D01*
X1346402Y1402554D01*
X1350886Y1391727D01*
X1358020Y1382430D01*
X1367318Y1375296D01*
X1378145Y1370811D01*
X1389764Y1369281D01*
X1401383Y1370811D01*
X1408535Y1373774D01*
X1603685Y1178624D01*
X1608646Y1175308D01*
X1614499Y1174144D01*
X1636811D01*
X1636841Y1173919D01*
X1642212Y1160951D01*
X1650757Y1149816D01*
X1661892Y1141271D01*
X1674860Y1135900D01*
X1688776Y1134068D01*
X1702692Y1135900D01*
X1715659Y1141271D01*
X1726795Y1149816D01*
X1735339Y1160951D01*
X1740711Y1173919D01*
X1742543Y1187835D01*
X1740711Y1201751D01*
X1735339Y1214718D01*
X1726795Y1225854D01*
X1715659Y1234398D01*
X1702692Y1239770D01*
X1688776Y1241602D01*
X1674860Y1239770D01*
X1661892Y1234398D01*
X1650757Y1225854D01*
X1642212Y1214718D01*
X1638076Y1204732D01*
X1620834D01*
X1430164Y1395402D01*
X1433126Y1402554D01*
X1434656Y1414173D01*
X1433126Y1425792D01*
X1428641Y1436619D01*
X1421507Y1445917D01*
X1412210Y1453051D01*
X1401383Y1457535D01*
X1389764Y1459065D01*
D02*
G37*
G36*
X556650Y1136669D02*
X544275Y1135040D01*
X537926Y1132410D01*
X528768Y1131204D01*
X518194Y1126824D01*
X509115Y1119858D01*
X502148Y1110778D01*
X497768Y1100205D01*
X496275Y1088858D01*
X497768Y1077512D01*
X502148Y1066938D01*
X509115Y1057859D01*
X518194Y1050892D01*
X528768Y1046513D01*
X537926Y1045307D01*
X544275Y1042677D01*
X556650Y1041048D01*
X569024Y1042677D01*
X580555Y1047453D01*
X590457Y1055051D01*
X598055Y1064953D01*
X602831Y1076484D01*
X604460Y1088858D01*
X602831Y1101233D01*
X598055Y1112764D01*
X590457Y1122665D01*
X580555Y1130263D01*
X569024Y1135040D01*
X556650Y1136669D01*
D02*
G37*
G36*
X123579D02*
X111204Y1135040D01*
X99674Y1130263D01*
X89772Y1122665D01*
X82174Y1112764D01*
X77397Y1101233D01*
X75768Y1088858D01*
X77397Y1076484D01*
X82174Y1064953D01*
X89772Y1055051D01*
X99673Y1047453D01*
X111204Y1042677D01*
X123579Y1041048D01*
X135953Y1042677D01*
X142302Y1045307D01*
X151461Y1046513D01*
X162034Y1050892D01*
X171113Y1057859D01*
X178080Y1066938D01*
X182460Y1077512D01*
X183954Y1088858D01*
X182460Y1100205D01*
X178080Y1110778D01*
X171113Y1119858D01*
X162034Y1126824D01*
X151461Y1131204D01*
X142302Y1132410D01*
X135953Y1135040D01*
X123579Y1136669D01*
D02*
G37*
G36*
X2055311Y1135645D02*
X2042937Y1134016D01*
X2036588Y1131386D01*
X2027429Y1130180D01*
X2016856Y1125801D01*
X2007776Y1118834D01*
X2000810Y1109755D01*
X1996430Y1099181D01*
X1994936Y1087835D01*
X1996430Y1076488D01*
X2000810Y1065915D01*
X2007776Y1056835D01*
X2016856Y1049869D01*
X2027429Y1045489D01*
X2036588Y1044283D01*
X2042937Y1041653D01*
X2055311Y1040024D01*
X2067686Y1041653D01*
X2079216Y1046430D01*
X2089118Y1054028D01*
X2096716Y1063929D01*
X2101493Y1075460D01*
X2103122Y1087835D01*
X2101493Y1100209D01*
X2096716Y1111740D01*
X2089118Y1121642D01*
X2079216Y1129240D01*
X2067686Y1134016D01*
X2055311Y1135645D01*
D02*
G37*
G36*
X1622240D02*
X1609866Y1134016D01*
X1598335Y1129240D01*
X1588433Y1121642D01*
X1580835Y1111740D01*
X1576059Y1100209D01*
X1574430Y1087835D01*
X1576059Y1075460D01*
X1580835Y1063929D01*
X1588433Y1054028D01*
X1598335Y1046430D01*
X1609866Y1041653D01*
X1622240Y1040024D01*
X1634614Y1041653D01*
X1640963Y1044283D01*
X1650122Y1045489D01*
X1660695Y1049869D01*
X1669775Y1056835D01*
X1676742Y1065915D01*
X1681121Y1076488D01*
X1682615Y1087835D01*
X1681121Y1099181D01*
X1676742Y1109755D01*
X1669775Y1118834D01*
X1660695Y1125801D01*
X1650122Y1130180D01*
X1640963Y1131386D01*
X1634614Y1134016D01*
X1622240Y1135645D01*
D02*
G37*
G36*
X1838776Y1177993D02*
X1821187Y1176261D01*
X1804274Y1171130D01*
X1788686Y1162799D01*
X1775024Y1151586D01*
X1763812Y1137924D01*
X1755480Y1122337D01*
X1750350Y1105424D01*
X1748617Y1087835D01*
X1750350Y1070246D01*
X1755480Y1053332D01*
X1763812Y1037745D01*
X1775024Y1024083D01*
X1788686Y1012871D01*
X1804274Y1004539D01*
X1821187Y999409D01*
X1838776Y997676D01*
X1856365Y999409D01*
X1873278Y1004539D01*
X1888865Y1012871D01*
X1902527Y1024083D01*
X1913740Y1037745D01*
X1922071Y1053332D01*
X1927202Y1070246D01*
X1928934Y1087835D01*
X1927202Y1105424D01*
X1922071Y1122337D01*
X1913740Y1137924D01*
X1902527Y1151586D01*
X1888865Y1162799D01*
X1873278Y1171130D01*
X1856365Y1176261D01*
X1838776Y1177993D01*
D02*
G37*
G36*
X1938539Y593413D02*
X1924623Y591581D01*
X1911656Y586209D01*
X1900520Y577665D01*
X1891976Y566529D01*
X1886604Y553562D01*
X1884772Y539646D01*
X1886604Y525730D01*
X1891976Y512762D01*
X1900520Y501627D01*
X1911656Y493082D01*
X1924623Y487711D01*
X1938539Y485879D01*
X1952455Y487711D01*
X1965423Y493082D01*
X1976559Y501627D01*
X1985103Y512762D01*
X1990474Y525730D01*
X1992306Y539646D01*
X1990474Y553562D01*
X1985103Y566529D01*
X1976559Y577665D01*
X1965423Y586209D01*
X1952455Y591581D01*
X1938539Y593413D01*
D02*
G37*
G36*
X1189327D02*
X1175411Y591581D01*
X1162443Y586209D01*
X1151308Y577665D01*
X1142763Y566529D01*
X1137392Y553562D01*
X1135560Y539646D01*
X1137392Y525730D01*
X1142763Y512762D01*
X1151308Y501627D01*
X1162443Y493082D01*
X1175411Y487711D01*
X1189327Y485879D01*
X1203243Y487711D01*
X1216210Y493082D01*
X1227346Y501627D01*
X1235890Y512762D01*
X1241262Y525730D01*
X1243094Y539646D01*
X1241262Y553562D01*
X1235890Y566529D01*
X1227346Y577665D01*
X1216210Y586209D01*
X1203243Y591581D01*
X1189327Y593413D01*
D02*
G37*
G36*
X440114D02*
X426198Y591581D01*
X413231Y586209D01*
X402095Y577665D01*
X393550Y566529D01*
X388179Y553562D01*
X386347Y539646D01*
X388179Y525730D01*
X393550Y512762D01*
X402095Y501627D01*
X413231Y493082D01*
X426198Y487711D01*
X440114Y485879D01*
X454030Y487711D01*
X466998Y493082D01*
X478133Y501627D01*
X486678Y512762D01*
X492049Y525730D01*
X493881Y539646D01*
X492049Y553562D01*
X486678Y566529D01*
X478133Y577665D01*
X466998Y586209D01*
X454030Y591581D01*
X440114Y593413D01*
D02*
G37*
G36*
X2055075Y387456D02*
X2042701Y385827D01*
X2036352Y383197D01*
X2027193Y381991D01*
X2016620Y377612D01*
X2007540Y370645D01*
X2000573Y361565D01*
X1996194Y350992D01*
X1994700Y339646D01*
X1996194Y328299D01*
X2000573Y317726D01*
X2007540Y308646D01*
X2016620Y301680D01*
X2027193Y297300D01*
X2036352Y296094D01*
X2042701Y293464D01*
X2055075Y291835D01*
X2067449Y293464D01*
X2078980Y298241D01*
X2088882Y305839D01*
X2096480Y315740D01*
X2101256Y327271D01*
X2102885Y339646D01*
X2101256Y352020D01*
X2096480Y363551D01*
X2088882Y373453D01*
X2078980Y381051D01*
X2067449Y385827D01*
X2055075Y387456D01*
D02*
G37*
G36*
X1622004D02*
X1609630Y385827D01*
X1598099Y381051D01*
X1588197Y373453D01*
X1580599Y363551D01*
X1575822Y352020D01*
X1574193Y339646D01*
X1575822Y327271D01*
X1580599Y315740D01*
X1588197Y305839D01*
X1598099Y298241D01*
X1609630Y293464D01*
X1622004Y291835D01*
X1634378Y293464D01*
X1640727Y296094D01*
X1649886Y297300D01*
X1660459Y301680D01*
X1669539Y308646D01*
X1676505Y317726D01*
X1680885Y328299D01*
X1682379Y339646D01*
X1680885Y350992D01*
X1676505Y361565D01*
X1669539Y370645D01*
X1660459Y377612D01*
X1649886Y381991D01*
X1640727Y383197D01*
X1634378Y385827D01*
X1622004Y387456D01*
D02*
G37*
G36*
X1305862D02*
X1293488Y385827D01*
X1287139Y383197D01*
X1277980Y381991D01*
X1267407Y377612D01*
X1258328Y370645D01*
X1251361Y361565D01*
X1246981Y350992D01*
X1245487Y339646D01*
X1246981Y328299D01*
X1251361Y317726D01*
X1258328Y308646D01*
X1267407Y301680D01*
X1277980Y297300D01*
X1287139Y296094D01*
X1293488Y293464D01*
X1305862Y291835D01*
X1318237Y293464D01*
X1329768Y298241D01*
X1339669Y305839D01*
X1347267Y315740D01*
X1352044Y327271D01*
X1353673Y339646D01*
X1352044Y352020D01*
X1347267Y363551D01*
X1339669Y373453D01*
X1329768Y381051D01*
X1318237Y385827D01*
X1305862Y387456D01*
D02*
G37*
G36*
X872791D02*
X860417Y385827D01*
X848886Y381051D01*
X838984Y373453D01*
X831386Y363551D01*
X826610Y352020D01*
X824981Y339646D01*
X826610Y327271D01*
X831386Y315740D01*
X838984Y305839D01*
X848886Y298241D01*
X860417Y293464D01*
X872791Y291835D01*
X885166Y293464D01*
X891515Y296094D01*
X900673Y297300D01*
X911246Y301680D01*
X920326Y308646D01*
X927293Y317726D01*
X931673Y328299D01*
X933166Y339646D01*
X931673Y350992D01*
X927293Y361565D01*
X920326Y370645D01*
X911246Y377612D01*
X900673Y381991D01*
X891515Y383197D01*
X885166Y385827D01*
X872791Y387456D01*
D02*
G37*
G36*
X556650D02*
X544275Y385827D01*
X537926Y383197D01*
X528768Y381991D01*
X518194Y377612D01*
X509115Y370645D01*
X502148Y361565D01*
X497768Y350992D01*
X496275Y339646D01*
X497768Y328299D01*
X502148Y317726D01*
X509115Y308646D01*
X518194Y301680D01*
X528768Y297300D01*
X537926Y296094D01*
X544275Y293464D01*
X556650Y291835D01*
X569024Y293464D01*
X580555Y298241D01*
X590457Y305839D01*
X598055Y315740D01*
X602831Y327271D01*
X604460Y339646D01*
X602831Y352020D01*
X598055Y363551D01*
X590457Y373453D01*
X580555Y381051D01*
X569024Y385827D01*
X556650Y387456D01*
D02*
G37*
G36*
X123579D02*
X111204Y385827D01*
X99674Y381051D01*
X89772Y373453D01*
X82174Y363551D01*
X77397Y352020D01*
X75768Y339646D01*
X77397Y327271D01*
X82174Y315740D01*
X89772Y305839D01*
X99673Y298241D01*
X111204Y293464D01*
X123579Y291835D01*
X135953Y293464D01*
X142302Y296094D01*
X151461Y297300D01*
X162034Y301680D01*
X171113Y308646D01*
X178080Y317726D01*
X182460Y328299D01*
X183954Y339646D01*
X182460Y350992D01*
X178080Y361565D01*
X171113Y370645D01*
X162034Y377612D01*
X151461Y381991D01*
X142302Y383197D01*
X135953Y385827D01*
X123579Y387456D01*
D02*
G37*
G36*
X1838539Y429804D02*
X1820950Y428072D01*
X1804037Y422941D01*
X1788450Y414610D01*
X1774788Y403397D01*
X1763575Y389735D01*
X1755244Y374148D01*
X1750113Y357235D01*
X1748381Y339646D01*
X1750113Y322057D01*
X1755244Y305144D01*
X1763575Y289556D01*
X1774788Y275894D01*
X1788450Y264682D01*
X1804037Y256350D01*
X1820950Y251220D01*
X1838539Y249487D01*
X1856129Y251220D01*
X1873042Y256350D01*
X1888629Y264682D01*
X1902291Y275894D01*
X1913504Y289556D01*
X1921835Y305144D01*
X1926966Y322057D01*
X1928698Y339646D01*
X1926966Y357235D01*
X1921835Y374148D01*
X1913504Y389735D01*
X1902291Y403397D01*
X1888629Y414610D01*
X1873042Y422941D01*
X1856129Y428072D01*
X1838539Y429804D01*
D02*
G37*
G36*
X1089327D02*
X1071738Y428072D01*
X1054825Y422941D01*
X1039237Y414610D01*
X1025575Y403397D01*
X1014363Y389735D01*
X1006031Y374148D01*
X1000901Y357235D01*
X999168Y339646D01*
X1000901Y322057D01*
X1006031Y305144D01*
X1014363Y289556D01*
X1025575Y275894D01*
X1039237Y264682D01*
X1054825Y256350D01*
X1071738Y251220D01*
X1089327Y249487D01*
X1106916Y251220D01*
X1123829Y256350D01*
X1139416Y264682D01*
X1153079Y275894D01*
X1164291Y289556D01*
X1172622Y305144D01*
X1177753Y322057D01*
X1179485Y339646D01*
X1177753Y357235D01*
X1172622Y374148D01*
X1164291Y389735D01*
X1153079Y403397D01*
X1139416Y414610D01*
X1123829Y422941D01*
X1106916Y428072D01*
X1089327Y429804D01*
D02*
G37*
G36*
X340114D02*
X322525Y428072D01*
X305612Y422941D01*
X290025Y414610D01*
X276363Y403397D01*
X265150Y389735D01*
X256819Y374148D01*
X251688Y357235D01*
X249956Y339646D01*
X251688Y322057D01*
X256819Y305144D01*
X265150Y289556D01*
X276363Y275894D01*
X290025Y264682D01*
X305612Y256350D01*
X322525Y251220D01*
X340114Y249487D01*
X357703Y251220D01*
X374616Y256350D01*
X390204Y264682D01*
X403866Y275894D01*
X415078Y289556D01*
X423410Y305144D01*
X428540Y322057D01*
X430273Y339646D01*
X428540Y357235D01*
X423410Y374148D01*
X415078Y389735D01*
X403866Y403397D01*
X390204Y414610D01*
X374616Y422941D01*
X357703Y428072D01*
X340114Y429804D01*
D02*
G37*
%LPD*%
D10*
X789764Y1514173D02*
D03*
Y2114173D02*
D03*
Y1914173D02*
D03*
Y1714173D02*
D03*
Y1814173D02*
D03*
Y1314173D02*
D03*
Y1414173D02*
D03*
Y1114173D02*
D03*
Y2014173D02*
D03*
Y1614173D02*
D03*
Y1214173D02*
D03*
X1389764Y1514173D02*
D03*
Y2214173D02*
D03*
Y1914173D02*
D03*
Y2114173D02*
D03*
Y1714173D02*
D03*
Y1814173D02*
D03*
Y1314173D02*
D03*
Y1414173D02*
D03*
Y1114173D02*
D03*
Y1614173D02*
D03*
Y1214173D02*
D03*
Y2014173D02*
D03*
D11*
X789764Y2214173D02*
D03*
D12*
X190114Y439646D02*
D03*
X440114Y539646D02*
D03*
X1688776Y1187835D02*
D03*
X1938776Y1287835D02*
D03*
X1938539Y2038071D02*
D03*
X1688539Y1938071D02*
D03*
Y439646D02*
D03*
X1938539Y539646D02*
D03*
X190114Y1188858D02*
D03*
X440114Y1288858D02*
D03*
Y2038071D02*
D03*
X190114Y1938071D02*
D03*
X1189327Y539646D02*
D03*
X939327Y439646D02*
D03*
X1189563Y1287835D02*
D03*
X939563Y1187835D02*
D03*
X939327Y1938071D02*
D03*
X1189327Y2038071D02*
D03*
D13*
X140114Y339646D02*
D03*
X540114D02*
D03*
X1638776Y1087835D02*
D03*
X2038776D02*
D03*
X2038539Y1838071D02*
D03*
X1638539D02*
D03*
Y339646D02*
D03*
X2038539D02*
D03*
X140114Y1088858D02*
D03*
X540114D02*
D03*
Y1838071D02*
D03*
X140114D02*
D03*
X1289327Y339646D02*
D03*
X889327D02*
D03*
X1289563Y1087835D02*
D03*
X889563D02*
D03*
X889327Y1838071D02*
D03*
X1289327D02*
D03*
D14*
X123579Y339646D02*
D03*
X556650D02*
D03*
X1622240Y1087835D02*
D03*
X2055311D02*
D03*
X2055075Y1838071D02*
D03*
X1622004D02*
D03*
Y339646D02*
D03*
X2055075D02*
D03*
X123579Y1088858D02*
D03*
X556650D02*
D03*
Y1838071D02*
D03*
X123579D02*
D03*
X1305862Y339646D02*
D03*
X872791D02*
D03*
X1306099Y1087835D02*
D03*
X873028D02*
D03*
X872791Y1838071D02*
D03*
X1305862D02*
D03*
D15*
X340114Y339646D02*
D03*
X1838776Y1087835D02*
D03*
X1838539Y1838071D02*
D03*
Y339646D02*
D03*
X340114Y1088858D02*
D03*
Y1838071D02*
D03*
X1089327Y339646D02*
D03*
X1089563Y1087835D02*
D03*
X1089327Y1838071D02*
D03*
D16*
X1724409Y2161417D02*
D03*
Y2342520D02*
D03*
X1984252Y2161417D02*
D03*
Y2342520D02*
D03*
D17*
X939563Y1192516D02*
X1261220Y1514173D01*
X1389764D01*
X939563Y1187835D02*
Y1192516D01*
X1583676Y1938071D02*
X1688539D01*
X1409286Y1763681D02*
X1583676Y1938071D01*
X1339272Y1763681D02*
X1409286D01*
X789764Y1214173D02*
X1339272Y1763681D01*
X1687172Y1189438D02*
X1688776Y1187835D01*
X1614499Y1189438D02*
X1687172D01*
X1389764Y1414173D02*
X1614499Y1189438D01*
X1688539Y439646D02*
Y815398D01*
X1389764Y1114173D02*
X1688539Y815398D01*
X1076429Y1208661D02*
X1269944D01*
X1375456Y1314173D02*
X1389764D01*
X1269944Y1208661D02*
X1375456Y1314173D01*
X1303740Y1214173D02*
X1389764D01*
X1229331Y1139764D02*
X1303740Y1214173D01*
X939327Y775941D02*
X1229331Y1065945D01*
Y1139764D01*
X939327Y439646D02*
Y775941D01*
X938028Y1067760D02*
Y1070260D01*
X631300Y761033D02*
X938028Y1067760D01*
X511501Y761033D02*
X631300D01*
X190114Y439646D02*
X511501Y761033D01*
X938028Y1070260D02*
X1076429Y1208661D01*
X190114Y1188858D02*
X715079D01*
X789764Y1114173D01*
X939327Y1463736D02*
Y1938071D01*
X789764Y1314173D02*
X939327Y1463736D01*
X388976Y1414173D02*
X789764D01*
X245390Y1557760D02*
X388976Y1414173D01*
X190114Y1938071D02*
X245390Y1882795D01*
Y1557760D02*
Y1882795D01*
X1845324Y2342520D02*
X1984252D01*
X1516978Y2014173D02*
X1845324Y2342520D01*
X1389764Y2014173D02*
X1516978D01*
X789488Y1113897D02*
X789764Y1114173D01*
X1389764Y1411518D02*
Y1414173D01*
%TF.MD5,19e29ea5295872d603ee2cfe06415f68*%
M02*
