%TF.GenerationSoftware,Altium Limited,Altium Designer,20.1.12 (249)*%
G04 Layer_Color=8388736*
%FSLAX26Y26*%
%MOIN*%
%TF.SameCoordinates,B967F61E-ED45-4387-9E05-25525081BA1A*%
%TF.FilePolarity,Negative*%
%TF.FileFunction,Soldermask,Top*%
%TF.Part,Single*%
G01*
G75*
%TA.AperFunction,ComponentPad*%
%ADD21C,0.167449*%
%ADD22C,0.082803*%
%ADD23C,0.074929*%
%ADD24C,0.094614*%
%ADD25C,0.077016*%
%ADD26R,0.077016X0.077016*%
%ADD27C,0.063118*%
D21*
X399016Y375000D02*
D03*
Y1124213D02*
D03*
X1148465Y1123189D02*
D03*
X1897677D02*
D03*
X1148228Y375000D02*
D03*
X1897441D02*
D03*
X399016Y1873425D02*
D03*
X1148228D02*
D03*
X1897441D02*
D03*
D22*
X615551Y375000D02*
D03*
X182480D02*
D03*
Y1124213D02*
D03*
X615551D02*
D03*
X1365000Y1123189D02*
D03*
X931929D02*
D03*
X1681142D02*
D03*
X2114213D02*
D03*
X1364764Y375000D02*
D03*
X931693D02*
D03*
X1680905D02*
D03*
X2113976D02*
D03*
X615551Y1873425D02*
D03*
X182480D02*
D03*
X931693D02*
D03*
X1364764D02*
D03*
X2113976D02*
D03*
X1680905D02*
D03*
D23*
X599016Y375000D02*
D03*
X199016D02*
D03*
Y1124213D02*
D03*
X599016D02*
D03*
X1348465Y1123189D02*
D03*
X948465D02*
D03*
X1697677D02*
D03*
X2097677D02*
D03*
X1348228Y375000D02*
D03*
X948228D02*
D03*
X1697441D02*
D03*
X2097441D02*
D03*
X599016Y1873425D02*
D03*
X199016D02*
D03*
X948228D02*
D03*
X1348228D02*
D03*
X2097441D02*
D03*
X1697441D02*
D03*
D24*
X499016Y575000D02*
D03*
X249016Y475000D02*
D03*
Y1224213D02*
D03*
X499016Y1324213D02*
D03*
X1248465Y1323189D02*
D03*
X998465Y1223189D02*
D03*
X1747677D02*
D03*
X1997677Y1323189D02*
D03*
X1248228Y575000D02*
D03*
X998228Y475000D02*
D03*
X1747441D02*
D03*
X1997441Y575000D02*
D03*
X499016Y2073425D02*
D03*
X249016Y1973425D02*
D03*
X998228D02*
D03*
X1248228Y2073425D02*
D03*
X1997441D02*
D03*
X1747441Y1973425D02*
D03*
D25*
X1448854Y2124174D02*
D03*
Y1324174D02*
D03*
Y1724174D02*
D03*
Y1224174D02*
D03*
Y1524174D02*
D03*
Y1424174D02*
D03*
Y1924174D02*
D03*
Y1824174D02*
D03*
Y2224174D02*
D03*
Y2024174D02*
D03*
Y2324174D02*
D03*
Y1624174D02*
D03*
X848854Y1324174D02*
D03*
Y1724174D02*
D03*
Y2124174D02*
D03*
Y1224174D02*
D03*
Y1524174D02*
D03*
Y1424174D02*
D03*
Y1924174D02*
D03*
Y1824174D02*
D03*
Y2024174D02*
D03*
Y2224174D02*
D03*
Y1624174D02*
D03*
D26*
Y2324174D02*
D03*
D27*
X1788740Y2229291D02*
D03*
Y2410394D02*
D03*
X2048583Y2229291D02*
D03*
Y2410394D02*
D03*
%TF.MD5,9647d26a9de002aea848eb531bbea0b7*%
M02*
