%TF.GenerationSoftware,Altium Limited,Altium Designer,20.1.12 (249)*%
G04 Layer_Color=0*
%FSLAX26Y26*%
%MOIN*%
%TF.SameCoordinates,B967F61E-ED45-4387-9E05-25525081BA1A*%
%TF.FilePolarity,Positive*%
%TF.FileFunction,Plated,1,2,PTH,Drill*%
%TF.Part,Single*%
G01*
G75*
%TA.AperFunction,ComponentDrill*%
%ADD29C,0.159449*%
%ADD30C,0.074803*%
%ADD31C,0.066929*%
%ADD32C,0.062992*%
%ADD33C,0.042992*%
%ADD34C,0.031496*%
D29*
X399016Y375000D02*
D03*
Y1124213D02*
D03*
X1148465Y1123189D02*
D03*
X1897677D02*
D03*
X1148228Y375000D02*
D03*
X1897441D02*
D03*
X399016Y1873425D02*
D03*
X1148228D02*
D03*
X1897441D02*
D03*
D30*
X615551Y375000D02*
D03*
X182480D02*
D03*
Y1124213D02*
D03*
X615551D02*
D03*
X1365000Y1123189D02*
D03*
X931929D02*
D03*
X1681142D02*
D03*
X2114213D02*
D03*
X1364764Y375000D02*
D03*
X931693D02*
D03*
X1680905D02*
D03*
X2113976D02*
D03*
X615551Y1873425D02*
D03*
X182480D02*
D03*
X931693D02*
D03*
X1364764D02*
D03*
X2113976D02*
D03*
X1680905D02*
D03*
D31*
X599016Y375000D02*
D03*
X199016D02*
D03*
Y1124213D02*
D03*
X599016D02*
D03*
X1348465Y1123189D02*
D03*
X948465D02*
D03*
X1697677D02*
D03*
X2097677D02*
D03*
X1348228Y375000D02*
D03*
X948228D02*
D03*
X1697441D02*
D03*
X2097441D02*
D03*
X599016Y1873425D02*
D03*
X199016D02*
D03*
X948228D02*
D03*
X1348228D02*
D03*
X2097441D02*
D03*
X1697441D02*
D03*
D32*
X499016Y575000D02*
D03*
X249016Y475000D02*
D03*
Y1224213D02*
D03*
X499016Y1324213D02*
D03*
X1248465Y1323189D02*
D03*
X998465Y1223189D02*
D03*
X1747677D02*
D03*
X1997677Y1323189D02*
D03*
X1248228Y575000D02*
D03*
X998228Y475000D02*
D03*
X1747441D02*
D03*
X1997441Y575000D02*
D03*
X499016Y2073425D02*
D03*
X249016Y1973425D02*
D03*
X998228D02*
D03*
X1248228Y2073425D02*
D03*
X1997441D02*
D03*
X1747441Y1973425D02*
D03*
D33*
X1448854Y2124174D02*
D03*
Y1324174D02*
D03*
Y1724174D02*
D03*
Y1224174D02*
D03*
Y1524174D02*
D03*
Y1424174D02*
D03*
Y1924174D02*
D03*
Y1824174D02*
D03*
Y2224174D02*
D03*
Y2024174D02*
D03*
Y2324174D02*
D03*
Y1624174D02*
D03*
X848854Y1324174D02*
D03*
Y1724174D02*
D03*
Y2124174D02*
D03*
Y1224174D02*
D03*
Y1524174D02*
D03*
Y1424174D02*
D03*
Y1924174D02*
D03*
Y1824174D02*
D03*
Y2024174D02*
D03*
Y2224174D02*
D03*
Y2324174D02*
D03*
Y1624174D02*
D03*
D34*
X1788740Y2229291D02*
D03*
Y2410394D02*
D03*
X2048583Y2229291D02*
D03*
Y2410394D02*
D03*
%TF.MD5,8d3d3d458dadeaa94f510fe6c0477104*%
M02*
