%TF.GenerationSoftware,Altium Limited,Altium Designer,20.1.12 (249)*%
G04 Layer_Color=32896*
%FSLAX26Y26*%
%MOIN*%
%TF.SameCoordinates,B967F61E-ED45-4387-9E05-25525081BA1A*%
%TF.FilePolarity,Positive*%
%TF.FileFunction,Legend,Bot*%
%TF.Part,Single*%
G01*
G75*
%TA.AperFunction,NonConductor*%
%ADD18C,0.010000*%
%ADD19C,0.007874*%
%ADD20C,0.005906*%
D18*
X801216Y2276930D02*
X896689D01*
Y2372402D01*
X800232D02*
X896689D01*
X968854Y2474174D02*
X1056354D01*
X1066354Y2464174D01*
X1231354Y2474174D02*
X1318854D01*
X1221354Y2464174D02*
X1231354Y2474174D01*
X1498854Y1174174D02*
X1498854Y2474174D01*
X800232Y1174174D02*
X800232Y2474174D01*
X1066354Y2464174D02*
X1221354D01*
X800232Y2474174D02*
X968854D01*
X800232Y1174174D02*
X1498854D01*
X1318854Y2474174D02*
X1498854D01*
X765613Y2448258D02*
Y2398275D01*
X755616Y2388278D01*
X735623D01*
X725626Y2398275D01*
Y2448258D01*
X705632Y2388278D02*
X685639D01*
X695635D01*
Y2448258D01*
X705632Y2438262D01*
X2149833Y2339049D02*
X2159829Y2349045D01*
X2179823D01*
X2189820Y2339049D01*
Y2329052D01*
X2179823Y2319055D01*
X2159829D01*
X2149833Y2309058D01*
Y2299062D01*
X2159829Y2289065D01*
X2179823D01*
X2189820Y2299062D01*
X2129839Y2349045D02*
Y2289065D01*
X2109846Y2309058D01*
X2089852Y2289065D01*
Y2349045D01*
X2069859Y2289065D02*
X2049865D01*
X2059862D01*
Y2349045D01*
X2069859Y2339049D01*
D19*
X1965906Y2437953D02*
X2013150D01*
X1958031Y2430079D02*
X1965906Y2437953D01*
X1824173D02*
X1871417D01*
X1879292Y2430079D01*
X1958031D01*
X2013150Y2201732D02*
Y2437953D01*
X1824173Y2201732D02*
X2013150D01*
X1824173D02*
Y2437953D01*
D20*
X773658Y1235584D02*
Y1204095D01*
Y1235584D02*
X760162D01*
X755664Y1234085D01*
X754164Y1232585D01*
X752665Y1229586D01*
Y1226587D01*
X754164Y1223588D01*
X755664Y1222089D01*
X760162Y1220589D01*
X773658D02*
X760162D01*
X755664Y1219090D01*
X754164Y1217590D01*
X752665Y1214591D01*
Y1210093D01*
X754164Y1207094D01*
X755664Y1205594D01*
X760162Y1204095D01*
X773658D01*
X727623Y1235584D02*
X742618D01*
X744117Y1222089D01*
X742618Y1223588D01*
X738120Y1225088D01*
X733621D01*
X729123Y1223588D01*
X726124Y1220589D01*
X724624Y1216091D01*
Y1213092D01*
X726124Y1208593D01*
X729123Y1205594D01*
X733621Y1204095D01*
X738120D01*
X742618Y1205594D01*
X744117Y1207094D01*
X745617Y1210093D01*
X773658Y1337947D02*
Y1306457D01*
Y1337947D02*
X760162D01*
X755664Y1336447D01*
X754164Y1334947D01*
X752665Y1331948D01*
Y1328949D01*
X754164Y1325950D01*
X755664Y1324451D01*
X760162Y1322951D01*
X773658D02*
X760162D01*
X755664Y1321452D01*
X754164Y1319953D01*
X752665Y1316954D01*
Y1312455D01*
X754164Y1309456D01*
X755664Y1307957D01*
X760162Y1306457D01*
X773658D01*
X730622Y1337947D02*
X745617Y1316954D01*
X723125D01*
X730622Y1337947D02*
Y1306457D01*
X754164Y1440309D02*
X773658D01*
Y1408819D01*
X754164D01*
X773658Y1425314D02*
X761662D01*
X730922Y1435810D02*
X732422Y1438809D01*
X736920Y1440309D01*
X739919D01*
X744417Y1438809D01*
X747416Y1434311D01*
X748916Y1426813D01*
Y1419316D01*
X747416Y1413318D01*
X744417Y1410319D01*
X739919Y1408819D01*
X738419D01*
X733921Y1410319D01*
X730922Y1413318D01*
X729423Y1417816D01*
Y1419316D01*
X730922Y1423814D01*
X733921Y1426813D01*
X738419Y1428313D01*
X739919D01*
X744417Y1426813D01*
X747416Y1423814D01*
X748916Y1419316D01*
X763161Y2342445D02*
Y2310956D01*
X773658Y2342445D02*
X752665D01*
X748916D02*
X727923Y2310956D01*
Y2342445D02*
X748916Y2310956D01*
X711878Y2342445D02*
X716377Y2340945D01*
X719376Y2336447D01*
X720875Y2328950D01*
Y2324451D01*
X719376Y2316954D01*
X716377Y2312455D01*
X711878Y2310956D01*
X708880D01*
X704381Y2312455D01*
X701382Y2316954D01*
X699883Y2324451D01*
Y2328950D01*
X701382Y2336447D01*
X704381Y2340945D01*
X708880Y2342445D01*
X711878D01*
X692835Y2306457D02*
X671842Y2342445D01*
X669743D02*
Y2310956D01*
Y2342445D02*
X659246D01*
X654748Y2340945D01*
X651749Y2337947D01*
X650249Y2334948D01*
X648750Y2330449D01*
Y2322952D01*
X650249Y2318453D01*
X651749Y2315454D01*
X654748Y2312455D01*
X659246Y2310956D01*
X669743D01*
X638703Y2342445D02*
X622209D01*
X631206Y2330449D01*
X626707D01*
X623708Y2328950D01*
X622209Y2327450D01*
X620709Y2322952D01*
Y2319953D01*
X622209Y2315454D01*
X625208Y2312455D01*
X629706Y2310956D01*
X634205D01*
X638703Y2312455D01*
X640203Y2313955D01*
X641702Y2316954D01*
X773658Y1538734D02*
Y1507245D01*
Y1538734D02*
X763161D01*
X758663Y1537234D01*
X755664Y1534235D01*
X754164Y1531236D01*
X752665Y1526738D01*
Y1519240D01*
X754164Y1514742D01*
X755664Y1511743D01*
X758663Y1508744D01*
X763161Y1507245D01*
X773658D01*
X724624Y1538734D02*
X739619Y1507245D01*
X745617Y1538734D02*
X724624D01*
X751165Y1629662D02*
X752665Y1632661D01*
X755664Y1635660D01*
X758663Y1637159D01*
X764660D01*
X767659Y1635660D01*
X770659Y1632661D01*
X772158Y1629662D01*
X773658Y1625163D01*
Y1617666D01*
X772158Y1613167D01*
X770659Y1610168D01*
X767659Y1607169D01*
X764660Y1605670D01*
X758663D01*
X755664Y1607169D01*
X752665Y1610168D01*
X751165Y1613167D01*
X724324Y1632661D02*
X725824Y1635660D01*
X730322Y1637159D01*
X733321D01*
X737820Y1635660D01*
X740819Y1631161D01*
X742318Y1623664D01*
Y1616166D01*
X740819Y1610168D01*
X737820Y1607169D01*
X733321Y1605670D01*
X731822D01*
X727323Y1607169D01*
X724324Y1610168D01*
X722825Y1614667D01*
Y1616166D01*
X724324Y1620665D01*
X727323Y1623664D01*
X731822Y1625163D01*
X733321D01*
X737820Y1623664D01*
X740819Y1620665D01*
X742318Y1616166D01*
X773658Y1739521D02*
Y1708032D01*
Y1739521D02*
X763161D01*
X758663Y1738022D01*
X755664Y1735023D01*
X754164Y1732024D01*
X752665Y1727525D01*
Y1720028D01*
X754164Y1715529D01*
X755664Y1712530D01*
X758663Y1709531D01*
X763161Y1708032D01*
X773658D01*
X730622Y1739521D02*
X745617Y1718528D01*
X723125D01*
X730622Y1739521D02*
Y1708032D01*
X773658Y1837947D02*
Y1806457D01*
Y1837947D02*
X763161D01*
X758663Y1836447D01*
X755664Y1833448D01*
X754164Y1830449D01*
X752665Y1825950D01*
Y1818453D01*
X754164Y1813955D01*
X755664Y1810956D01*
X758663Y1807957D01*
X763161Y1806457D01*
X773658D01*
X736620Y1837947D02*
X741119Y1836447D01*
X744117Y1831948D01*
X745617Y1824451D01*
Y1819953D01*
X744117Y1812455D01*
X741119Y1807957D01*
X736620Y1806457D01*
X733621D01*
X729123Y1807957D01*
X726124Y1812455D01*
X724624Y1819953D01*
Y1824451D01*
X726124Y1831948D01*
X729123Y1836447D01*
X733621Y1837947D01*
X736620D01*
X773658Y1936372D02*
Y1904882D01*
Y1936372D02*
X763161D01*
X758663Y1934872D01*
X755664Y1931873D01*
X754164Y1928874D01*
X752665Y1924376D01*
Y1916878D01*
X754164Y1912380D01*
X755664Y1909381D01*
X758663Y1906382D01*
X763161Y1904882D01*
X773658D01*
X745617Y1930374D02*
X742618Y1931873D01*
X738120Y1936372D01*
Y1904882D01*
X751165Y2031236D02*
X752665Y2034235D01*
X755664Y2037234D01*
X758663Y2038734D01*
X764660D01*
X767659Y2037234D01*
X770659Y2034235D01*
X772158Y2031236D01*
X773658Y2026738D01*
Y2019240D01*
X772158Y2014742D01*
X770659Y2011743D01*
X767659Y2008744D01*
X764660Y2007245D01*
X758663D01*
X755664Y2008744D01*
X752665Y2011743D01*
X751165Y2014742D01*
Y2019240D01*
X758663D02*
X751165D01*
X743967Y2038734D02*
Y2007245D01*
Y2038734D02*
X722975Y2007245D01*
Y2038734D02*
Y2007245D01*
X714278Y2038734D02*
Y2007245D01*
Y2038734D02*
X703781D01*
X699283Y2037234D01*
X696284Y2034235D01*
X694784Y2031236D01*
X693285Y2026738D01*
Y2019240D01*
X694784Y2014742D01*
X696284Y2011743D01*
X699283Y2008744D01*
X703781Y2007245D01*
X714278D01*
X773658Y2239521D02*
Y2208032D01*
Y2239521D02*
X763161D01*
X758663Y2238022D01*
X755664Y2235023D01*
X754164Y2232024D01*
X752665Y2227525D01*
Y2220028D01*
X754164Y2215529D01*
X755664Y2212530D01*
X758663Y2209531D01*
X763161Y2208032D01*
X773658D01*
X744117Y2232024D02*
Y2233523D01*
X742618Y2236522D01*
X741119Y2238022D01*
X738120Y2239521D01*
X732122D01*
X729123Y2238022D01*
X727623Y2236522D01*
X726124Y2233523D01*
Y2230524D01*
X727623Y2227525D01*
X730622Y2223027D01*
X745617Y2208032D01*
X724624D01*
X1572870Y1239521D02*
Y1208032D01*
Y1239521D02*
X1559375D01*
X1554876Y1238022D01*
X1553377Y1236522D01*
X1551877Y1233523D01*
Y1230524D01*
X1553377Y1227525D01*
X1554876Y1226026D01*
X1559375Y1224526D01*
X1572870D02*
X1559375D01*
X1554876Y1223027D01*
X1553377Y1221527D01*
X1551877Y1218528D01*
Y1214030D01*
X1553377Y1211031D01*
X1554876Y1209531D01*
X1559375Y1208032D01*
X1572870D01*
X1526836Y1235023D02*
X1528335Y1238022D01*
X1532834Y1239521D01*
X1535833D01*
X1540331Y1238022D01*
X1543330Y1233523D01*
X1544830Y1226026D01*
Y1218528D01*
X1543330Y1212530D01*
X1540331Y1209531D01*
X1535833Y1208032D01*
X1534333D01*
X1529835Y1209531D01*
X1526836Y1212530D01*
X1525336Y1217029D01*
Y1218528D01*
X1526836Y1223027D01*
X1529835Y1226026D01*
X1534333Y1227525D01*
X1535833D01*
X1540331Y1226026D01*
X1543330Y1223027D01*
X1544830Y1218528D01*
X1572870Y1337947D02*
Y1306457D01*
Y1337947D02*
X1559375D01*
X1554876Y1336447D01*
X1553377Y1334947D01*
X1551877Y1331948D01*
Y1328949D01*
X1553377Y1325950D01*
X1554876Y1324451D01*
X1559375Y1322951D01*
X1572870D02*
X1559375D01*
X1554876Y1321452D01*
X1553377Y1319953D01*
X1551877Y1316954D01*
Y1312455D01*
X1553377Y1309456D01*
X1554876Y1307957D01*
X1559375Y1306457D01*
X1572870D01*
X1543330Y1330449D02*
Y1331948D01*
X1541831Y1334947D01*
X1540331Y1336447D01*
X1537332Y1337947D01*
X1531334D01*
X1528335Y1336447D01*
X1526836Y1334947D01*
X1525336Y1331948D01*
Y1328949D01*
X1526836Y1325950D01*
X1529835Y1321452D01*
X1544830Y1306457D01*
X1523837D01*
X1572870Y1436372D02*
Y1404882D01*
Y1436372D02*
X1559375D01*
X1554876Y1434872D01*
X1553377Y1433373D01*
X1551877Y1430374D01*
Y1427375D01*
X1553377Y1424376D01*
X1554876Y1422876D01*
X1559375Y1421377D01*
X1572870D02*
X1559375D01*
X1554876Y1419877D01*
X1553377Y1418378D01*
X1551877Y1415379D01*
Y1410880D01*
X1553377Y1407881D01*
X1554876Y1406382D01*
X1559375Y1404882D01*
X1572870D01*
X1541831Y1436372D02*
X1525336D01*
X1534333Y1424376D01*
X1529835D01*
X1526836Y1422876D01*
X1525336Y1421377D01*
X1523837Y1416878D01*
Y1413879D01*
X1525336Y1409381D01*
X1528335Y1406382D01*
X1532834Y1404882D01*
X1537332D01*
X1541831Y1406382D01*
X1543330Y1407881D01*
X1544830Y1410880D01*
X1561059Y1538734D02*
Y1507245D01*
Y1538734D02*
X1547564D01*
X1543065Y1537234D01*
X1541566Y1535735D01*
X1540066Y1532736D01*
Y1529737D01*
X1541566Y1526738D01*
X1543065Y1525238D01*
X1547564Y1523739D01*
X1561059D02*
X1547564D01*
X1543065Y1522239D01*
X1541566Y1520740D01*
X1540066Y1517741D01*
Y1513243D01*
X1541566Y1510244D01*
X1543065Y1508744D01*
X1547564Y1507245D01*
X1561059D01*
X1533019Y1532736D02*
X1530020Y1534235D01*
X1525521Y1538734D01*
Y1507245D01*
X1568933Y1637159D02*
Y1605670D01*
Y1637159D02*
X1549440D01*
X1568933Y1622164D02*
X1556937D01*
X1524848Y1637159D02*
X1539843Y1605670D01*
X1545841Y1637159D02*
X1524848D01*
X1568933Y1837947D02*
Y1806457D01*
Y1837947D02*
X1549440D01*
X1568933Y1822951D02*
X1556937D01*
X1527847Y1837947D02*
X1542842D01*
X1544341Y1824451D01*
X1542842Y1825950D01*
X1538343Y1827450D01*
X1533845D01*
X1529347Y1825950D01*
X1526348Y1822951D01*
X1524848Y1818453D01*
Y1815454D01*
X1526348Y1810956D01*
X1529347Y1807957D01*
X1533845Y1806457D01*
X1538343D01*
X1542842Y1807957D01*
X1544341Y1809456D01*
X1545841Y1812455D01*
X1568933Y1940309D02*
Y1908819D01*
Y1940309D02*
X1549440D01*
X1568933Y1925314D02*
X1556937D01*
X1530846Y1940309D02*
X1545841Y1919316D01*
X1523349D01*
X1530846Y1940309D02*
Y1908819D01*
X1608303Y2046608D02*
X1596307Y2015119D01*
X1584311Y2046608D02*
X1596307Y2015119D01*
X1557770Y2039110D02*
X1559270Y2042109D01*
X1562269Y2045108D01*
X1565268Y2046608D01*
X1571266D01*
X1574265Y2045108D01*
X1577264Y2042109D01*
X1578763Y2039110D01*
X1580263Y2034612D01*
Y2027114D01*
X1578763Y2022616D01*
X1577264Y2019617D01*
X1574265Y2016618D01*
X1571266Y2015119D01*
X1565268D01*
X1562269Y2016618D01*
X1559270Y2019617D01*
X1557770Y2022616D01*
X1526431Y2039110D02*
X1527930Y2042109D01*
X1530929Y2045108D01*
X1533928Y2046608D01*
X1539926D01*
X1542925Y2045108D01*
X1545924Y2042109D01*
X1547424Y2039110D01*
X1548923Y2034612D01*
Y2027114D01*
X1547424Y2022616D01*
X1545924Y2019617D01*
X1542925Y2016618D01*
X1539926Y2015119D01*
X1533928D01*
X1530929Y2016618D01*
X1527930Y2019617D01*
X1526431Y2022616D01*
X1600429Y2137159D02*
Y2105670D01*
Y2137159D02*
X1586934D01*
X1582435Y2135660D01*
X1580936Y2134160D01*
X1579436Y2131161D01*
Y2128162D01*
X1580936Y2125163D01*
X1582435Y2123664D01*
X1586934Y2122164D01*
X1600429D01*
X1589933D02*
X1579436Y2105670D01*
X1551396Y2132661D02*
X1554395Y2135660D01*
X1558893Y2137159D01*
X1564891D01*
X1569390Y2135660D01*
X1572389Y2132661D01*
Y2129662D01*
X1570889Y2126663D01*
X1569390Y2125163D01*
X1566391Y2123664D01*
X1557394Y2120665D01*
X1554395Y2119165D01*
X1552895Y2117666D01*
X1551396Y2114667D01*
Y2110168D01*
X1554395Y2107169D01*
X1558893Y2105670D01*
X1564891D01*
X1569390Y2107169D01*
X1572389Y2110168D01*
X1533852Y2137159D02*
Y2105670D01*
X1544348Y2137159D02*
X1523355D01*
X1581874Y2232024D02*
X1583373Y2235023D01*
X1586372Y2238022D01*
X1589371Y2239521D01*
X1595369D01*
X1598368Y2238022D01*
X1601367Y2235023D01*
X1602867Y2232024D01*
X1604366Y2227525D01*
Y2220028D01*
X1602867Y2215529D01*
X1601367Y2212530D01*
X1598368Y2209531D01*
X1595369Y2208032D01*
X1589371D01*
X1586372Y2209531D01*
X1583373Y2212530D01*
X1581874Y2215529D01*
Y2220028D01*
X1589371D02*
X1581874D01*
X1574676Y2239521D02*
Y2208032D01*
Y2239521D02*
X1553683Y2208032D01*
Y2239521D02*
Y2208032D01*
X1544986Y2239521D02*
Y2208032D01*
Y2239521D02*
X1534490D01*
X1529991Y2238022D01*
X1526992Y2235023D01*
X1525493Y2232024D01*
X1523993Y2227525D01*
Y2220028D01*
X1525493Y2215529D01*
X1526992Y2212530D01*
X1529991Y2209531D01*
X1534490Y2208032D01*
X1544986D01*
X1612240Y2337947D02*
Y2306457D01*
Y2337947D02*
X1598745D01*
X1594246Y2336447D01*
X1592747Y2334948D01*
X1591247Y2331948D01*
Y2328950D01*
X1592747Y2325950D01*
X1594246Y2324451D01*
X1598745Y2322952D01*
X1612240D01*
X1601744D02*
X1591247Y2306457D01*
X1560208D02*
X1572204Y2337947D01*
X1584200Y2306457D01*
X1579701Y2316954D02*
X1564706D01*
X1552860Y2337947D02*
X1545363Y2306457D01*
X1537865Y2337947D02*
X1545363Y2306457D01*
X1537865Y2337947D02*
X1530368Y2306457D01*
X1522870Y2337947D02*
X1530368Y2306457D01*
X751165Y2129662D02*
X752665Y2132661D01*
X755664Y2135660D01*
X758663Y2137159D01*
X764660D01*
X767659Y2135660D01*
X770659Y2132661D01*
X772158Y2129662D01*
X773658Y2125163D01*
Y2117666D01*
X772158Y2113167D01*
X770659Y2110168D01*
X767659Y2107169D01*
X764660Y2105670D01*
X758663D01*
X755664Y2107169D01*
X752665Y2110168D01*
X751165Y2113167D01*
Y2117666D01*
X758663D02*
X751165D01*
X743967Y2137159D02*
Y2105670D01*
Y2137159D02*
X722975Y2105670D01*
Y2137159D02*
Y2105670D01*
X714278Y2137159D02*
Y2105670D01*
Y2137159D02*
X703781D01*
X699283Y2135660D01*
X696284Y2132661D01*
X694784Y2129662D01*
X693285Y2125163D01*
Y2117666D01*
X694784Y2113167D01*
X696284Y2110168D01*
X699283Y2107169D01*
X703781Y2105670D01*
X714278D01*
X1564996Y1739521D02*
Y1708032D01*
Y1739521D02*
X1545503D01*
X1564996Y1724526D02*
X1553000D01*
X1523910Y1735023D02*
X1525409Y1738022D01*
X1529908Y1739521D01*
X1532907D01*
X1537405Y1738022D01*
X1540404Y1733523D01*
X1541904Y1726026D01*
Y1718528D01*
X1540404Y1712530D01*
X1537405Y1709531D01*
X1532907Y1708032D01*
X1531407D01*
X1526909Y1709531D01*
X1523910Y1712530D01*
X1522410Y1717029D01*
Y1718528D01*
X1523910Y1723027D01*
X1526909Y1726026D01*
X1531407Y1727525D01*
X1532907D01*
X1537405Y1726026D01*
X1540404Y1723027D01*
X1541904Y1718528D01*
%TF.MD5,7d518e66f93ad64c1b8700d7da4902f0*%
M02*
