%TF.GenerationSoftware,Altium Limited,Altium Designer,20.1.12 (249)*%
G04 Layer_Color=65535*
%FSLAX26Y26*%
%MOIN*%
%TF.SameCoordinates,A8668A30-75EC-4931-8606-AFBFD81A24F0*%
%TF.FilePolarity,Positive*%
%TF.FileFunction,Legend,Top*%
%TF.Part,Single*%
G01*
G75*
G36*
X1588929Y1921748D02*
X1604929D01*
Y1913748D01*
X1612929D01*
Y1905748D01*
X1620929D01*
Y1897748D01*
Y1889748D01*
X1628929D01*
Y1881748D01*
Y1873748D01*
Y1865748D01*
Y1857748D01*
Y1849748D01*
Y1841748D01*
Y1833748D01*
X1620929D01*
Y1825748D01*
Y1817748D01*
X1612929D01*
Y1809748D01*
Y1801748D01*
Y1793748D01*
X1620929D01*
Y1785748D01*
Y1777748D01*
X1628929D01*
Y1769748D01*
Y1761748D01*
X1636929D01*
Y1753748D01*
Y1745748D01*
X1644929D01*
Y1737748D01*
Y1729748D01*
X1652929D01*
Y1721748D01*
Y1713748D01*
X1660929D01*
Y1705748D01*
Y1697748D01*
X1668929D01*
Y1689748D01*
Y1681748D01*
X1676929D01*
Y1673748D01*
Y1665748D01*
X1684929D01*
Y1657748D01*
Y1649748D01*
Y1641748D01*
X1692929D01*
Y1633748D01*
Y1625748D01*
X1700929D01*
Y1617748D01*
Y1609748D01*
Y1601748D01*
X1708929D01*
Y1593748D01*
Y1585748D01*
Y1577748D01*
X1716929D01*
Y1569748D01*
Y1561748D01*
Y1553748D01*
X1724929D01*
Y1545748D01*
Y1537748D01*
Y1529748D01*
X1732929D01*
Y1521748D01*
Y1513748D01*
Y1505748D01*
X1740929D01*
Y1497748D01*
Y1489748D01*
Y1481748D01*
X1748929D01*
Y1473748D01*
Y1465748D01*
Y1457748D01*
Y1449748D01*
X1756929D01*
Y1441748D01*
Y1433748D01*
Y1425748D01*
Y1417748D01*
X1764929D01*
Y1409748D01*
Y1401748D01*
Y1393748D01*
Y1385748D01*
X1772929D01*
Y1377748D01*
Y1369748D01*
Y1361748D01*
X1780929D01*
Y1353748D01*
Y1345748D01*
Y1337748D01*
X1788929D01*
Y1329748D01*
Y1321748D01*
Y1313748D01*
Y1305748D01*
X1796929D01*
Y1297748D01*
Y1289748D01*
Y1281748D01*
Y1273748D01*
Y1265748D01*
Y1257748D01*
X1804929D01*
Y1249748D01*
Y1241748D01*
Y1233748D01*
Y1225748D01*
Y1217748D01*
Y1209748D01*
Y1201748D01*
X1812929D01*
Y1193748D01*
Y1185748D01*
Y1177748D01*
Y1169748D01*
Y1161748D01*
Y1153748D01*
Y1145748D01*
Y1137748D01*
Y1129748D01*
Y1121748D01*
Y1113748D01*
X1820929D01*
Y1105748D01*
Y1097748D01*
Y1089748D01*
Y1081748D01*
Y1073748D01*
Y1065748D01*
Y1057748D01*
Y1049748D01*
Y1041748D01*
Y1033748D01*
Y1025748D01*
Y1017748D01*
Y1009748D01*
Y1001748D01*
Y993748D01*
Y985748D01*
Y977748D01*
Y969748D01*
Y961748D01*
Y953748D01*
X1812929D01*
Y945748D01*
Y937748D01*
X1804929D01*
Y929748D01*
X1788929D01*
Y921748D01*
X1764929D01*
Y913748D01*
X1732929D01*
Y905748D01*
X1692929D01*
Y897748D01*
X1644929D01*
Y889748D01*
X1556929D01*
Y881748D01*
X1268929D01*
Y889748D01*
X1108929D01*
Y897748D01*
X1052929D01*
Y905748D01*
X1020929D01*
Y913748D01*
X996929D01*
Y921748D01*
X980929D01*
Y929748D01*
X964929D01*
Y937748D01*
X956929D01*
Y945748D01*
Y953748D01*
X948929D01*
Y961748D01*
Y969748D01*
Y977748D01*
Y985748D01*
Y993748D01*
Y1001748D01*
X940929D01*
Y1009748D01*
Y1017748D01*
Y1025748D01*
Y1033748D01*
Y1041748D01*
Y1049748D01*
Y1057748D01*
Y1065748D01*
Y1073748D01*
Y1081748D01*
Y1089748D01*
Y1097748D01*
Y1105748D01*
Y1113748D01*
Y1121748D01*
Y1129748D01*
Y1137748D01*
Y1145748D01*
X948929D01*
Y1153748D01*
Y1161748D01*
Y1169748D01*
Y1177748D01*
Y1185748D01*
Y1193748D01*
Y1201748D01*
Y1209748D01*
Y1217748D01*
X956929D01*
Y1225748D01*
Y1233748D01*
Y1241748D01*
Y1249748D01*
Y1257748D01*
Y1265748D01*
X964929D01*
Y1273748D01*
Y1281748D01*
Y1289748D01*
Y1297748D01*
X972929D01*
Y1305748D01*
Y1313748D01*
Y1321748D01*
Y1329748D01*
X980929D01*
Y1337748D01*
Y1345748D01*
Y1353748D01*
Y1361748D01*
Y1369748D01*
X988929D01*
Y1377748D01*
Y1385748D01*
Y1393748D01*
Y1401748D01*
X996929D01*
Y1409748D01*
Y1417748D01*
Y1425748D01*
X1004929D01*
Y1433748D01*
Y1441748D01*
Y1449748D01*
Y1457748D01*
X1012929D01*
Y1465748D01*
Y1473748D01*
Y1481748D01*
X1020929D01*
Y1489748D01*
Y1497748D01*
Y1505748D01*
Y1513748D01*
X1028929D01*
Y1521748D01*
Y1529748D01*
Y1537748D01*
X1036929D01*
Y1545748D01*
Y1553748D01*
Y1561748D01*
X1044929D01*
Y1569748D01*
Y1577748D01*
Y1585748D01*
X1052929D01*
Y1593748D01*
Y1601748D01*
Y1609748D01*
X1060929D01*
Y1617748D01*
Y1625748D01*
X1068929D01*
Y1633748D01*
Y1641748D01*
Y1649748D01*
X1076929D01*
Y1657748D01*
Y1665748D01*
X1084929D01*
Y1673748D01*
Y1681748D01*
X1092929D01*
Y1689748D01*
Y1697748D01*
X1100929D01*
Y1705748D01*
Y1713748D01*
Y1721748D01*
X1108929D01*
Y1729748D01*
Y1737748D01*
X1116929D01*
Y1745748D01*
X1124929D01*
Y1753748D01*
Y1761748D01*
X1132929D01*
Y1769748D01*
X1140929D01*
Y1777748D01*
Y1785748D01*
X1148929D01*
Y1793748D01*
Y1801748D01*
Y1809748D01*
X1132929D01*
Y1817748D01*
Y1825748D01*
X1124929D01*
Y1833748D01*
Y1841748D01*
X1116929D01*
Y1849748D01*
Y1857748D01*
Y1865748D01*
Y1873748D01*
X1124929D01*
Y1881748D01*
Y1889748D01*
X1132929D01*
Y1897748D01*
Y1905748D01*
X1140929D01*
Y1913748D01*
X1156929D01*
Y1921748D01*
X1204929D01*
Y1913748D01*
X1220929D01*
Y1905748D01*
X1228929D01*
Y1897748D01*
Y1889748D01*
X1236929D01*
Y1881748D01*
X1244929D01*
Y1889748D01*
X1260929D01*
Y1897748D01*
X1276929D01*
Y1905748D01*
X1300929D01*
Y1913748D01*
X1340929D01*
Y1921748D01*
X1436929D01*
Y1913748D01*
X1468929D01*
Y1905748D01*
X1492929D01*
Y1897748D01*
X1500929D01*
Y1889748D01*
X1516929D01*
Y1897748D01*
Y1905748D01*
X1524929D01*
Y1913748D01*
X1532929D01*
Y1921748D01*
X1548929D01*
Y1929748D01*
X1588929D01*
Y1921748D01*
D02*
G37*
%LPC*%
G36*
X1396929Y1913748D02*
X1388929D01*
Y1905748D01*
X1316929D01*
Y1897748D01*
X1292929D01*
Y1889748D01*
X1268929D01*
Y1881748D01*
X1252929D01*
Y1873748D01*
X1244929D01*
Y1865748D01*
X1228929D01*
Y1873748D01*
Y1881748D01*
Y1889748D01*
X1212929D01*
Y1897748D01*
X1204929D01*
Y1905748D01*
X1188929D01*
Y1913748D01*
X1172929D01*
Y1905748D01*
X1156929D01*
Y1897748D01*
X1140929D01*
Y1889748D01*
Y1881748D01*
X1132929D01*
Y1873748D01*
Y1865748D01*
Y1857748D01*
Y1849748D01*
Y1841748D01*
Y1833748D01*
X1140929D01*
Y1825748D01*
Y1817748D01*
X1164929D01*
Y1825748D01*
X1172929D01*
Y1833748D01*
X1180929D01*
Y1841748D01*
X1188929D01*
Y1849748D01*
X1196929D01*
Y1857748D01*
X1212929D01*
Y1865748D01*
X1228929D01*
Y1857748D01*
X1220929D01*
Y1849748D01*
X1204929D01*
Y1841748D01*
X1196929D01*
Y1833748D01*
X1188929D01*
Y1825748D01*
X1180929D01*
Y1817748D01*
X1172929D01*
Y1809748D01*
Y1801748D01*
X1164929D01*
Y1793748D01*
X1156929D01*
Y1785748D01*
Y1777748D01*
X1148929D01*
Y1769748D01*
Y1761748D01*
X1140929D01*
Y1753748D01*
X1132929D01*
Y1745748D01*
Y1737748D01*
X1124929D01*
Y1729748D01*
X1116929D01*
Y1721748D01*
Y1713748D01*
X1108929D01*
Y1705748D01*
Y1697748D01*
Y1689748D01*
X1100929D01*
Y1681748D01*
Y1673748D01*
X1092929D01*
Y1665748D01*
Y1657748D01*
X1084929D01*
Y1649748D01*
Y1641748D01*
X1076929D01*
Y1633748D01*
Y1625748D01*
Y1617748D01*
X1068929D01*
Y1609748D01*
Y1601748D01*
X1060929D01*
Y1593748D01*
Y1585748D01*
Y1577748D01*
X1052929D01*
Y1569748D01*
Y1561748D01*
Y1553748D01*
X1044929D01*
Y1545748D01*
Y1537748D01*
Y1529748D01*
X1036929D01*
Y1521748D01*
Y1513748D01*
Y1505748D01*
X1028929D01*
Y1497748D01*
Y1489748D01*
Y1481748D01*
Y1473748D01*
X1020929D01*
Y1465748D01*
Y1457748D01*
Y1449748D01*
Y1441748D01*
X1012929D01*
Y1433748D01*
Y1425748D01*
Y1417748D01*
X1004929D01*
Y1409748D01*
Y1401748D01*
Y1393748D01*
X996929D01*
Y1385748D01*
Y1377748D01*
Y1369748D01*
Y1361748D01*
X988929D01*
Y1353748D01*
Y1345748D01*
Y1337748D01*
Y1329748D01*
Y1321748D01*
X980929D01*
Y1313748D01*
Y1305748D01*
Y1297748D01*
Y1289748D01*
X972929D01*
Y1281748D01*
Y1273748D01*
Y1265748D01*
Y1257748D01*
Y1249748D01*
X964929D01*
Y1241748D01*
Y1233748D01*
Y1225748D01*
Y1217748D01*
Y1209748D01*
X956929D01*
Y1201748D01*
Y1193748D01*
Y1185748D01*
Y1177748D01*
Y1169748D01*
Y1161748D01*
Y1153748D01*
Y1145748D01*
Y1137748D01*
Y1129748D01*
Y1121748D01*
Y1113748D01*
Y1105748D01*
Y1097748D01*
Y1089748D01*
Y1081748D01*
Y1073748D01*
Y1065748D01*
Y1057748D01*
Y1049748D01*
Y1041748D01*
Y1033748D01*
Y1025748D01*
Y1017748D01*
Y1009748D01*
Y1001748D01*
Y993748D01*
Y985748D01*
Y977748D01*
Y969748D01*
Y961748D01*
X964929D01*
Y953748D01*
Y945748D01*
X972929D01*
Y937748D01*
X988929D01*
Y929748D01*
X1004929D01*
Y921748D01*
X1028929D01*
Y913748D01*
X1068929D01*
Y905748D01*
X1148929D01*
Y897748D01*
X1356929D01*
Y889748D01*
X1412929D01*
Y897748D01*
X1420929D01*
Y889748D01*
X1508929D01*
Y897748D01*
X1612929D01*
Y905748D01*
X1676929D01*
Y913748D01*
X1716929D01*
Y921748D01*
X1756929D01*
Y929748D01*
X1780929D01*
Y937748D01*
X1788929D01*
Y945748D01*
X1796929D01*
Y953748D01*
X1804929D01*
Y961748D01*
Y969748D01*
Y977748D01*
X1812929D01*
Y985748D01*
Y993748D01*
Y1001748D01*
Y1009748D01*
Y1017748D01*
Y1025748D01*
Y1033748D01*
Y1041748D01*
Y1049748D01*
Y1057748D01*
Y1065748D01*
Y1073748D01*
Y1081748D01*
X1804929D01*
Y1089748D01*
Y1097748D01*
Y1105748D01*
Y1113748D01*
Y1121748D01*
Y1129748D01*
Y1137748D01*
Y1145748D01*
Y1153748D01*
Y1161748D01*
Y1169748D01*
X1796929D01*
Y1177748D01*
Y1185748D01*
Y1193748D01*
Y1201748D01*
Y1209748D01*
Y1217748D01*
Y1225748D01*
Y1233748D01*
Y1241748D01*
Y1249748D01*
X1788929D01*
Y1257748D01*
Y1265748D01*
Y1273748D01*
Y1281748D01*
Y1289748D01*
Y1297748D01*
X1780929D01*
Y1305748D01*
Y1313748D01*
Y1321748D01*
Y1329748D01*
X1772929D01*
Y1337748D01*
Y1345748D01*
Y1353748D01*
X1764929D01*
Y1361748D01*
Y1369748D01*
Y1377748D01*
X1756929D01*
Y1385748D01*
Y1393748D01*
Y1401748D01*
Y1409748D01*
X1748929D01*
Y1417748D01*
Y1425748D01*
Y1433748D01*
Y1441748D01*
X1740929D01*
Y1449748D01*
Y1457748D01*
Y1465748D01*
Y1473748D01*
X1732929D01*
Y1481748D01*
Y1489748D01*
Y1497748D01*
X1724929D01*
Y1505748D01*
Y1513748D01*
Y1521748D01*
X1716929D01*
Y1529748D01*
Y1537748D01*
Y1545748D01*
X1708929D01*
Y1553748D01*
Y1561748D01*
Y1569748D01*
X1700929D01*
Y1577748D01*
Y1585748D01*
Y1593748D01*
X1692929D01*
Y1601748D01*
Y1609748D01*
Y1617748D01*
X1684929D01*
Y1625748D01*
Y1633748D01*
X1676929D01*
Y1641748D01*
Y1649748D01*
Y1657748D01*
X1668929D01*
Y1665748D01*
Y1673748D01*
X1660929D01*
Y1681748D01*
Y1689748D01*
X1652929D01*
Y1697748D01*
Y1705748D01*
X1644929D01*
Y1713748D01*
Y1721748D01*
X1636929D01*
Y1729748D01*
Y1737748D01*
X1628929D01*
Y1745748D01*
Y1753748D01*
X1620929D01*
Y1761748D01*
Y1769748D01*
X1612929D01*
Y1777748D01*
Y1785748D01*
X1604929D01*
Y1793748D01*
Y1801748D01*
X1596929D01*
Y1809748D01*
X1588929D01*
Y1817748D01*
X1580929D01*
Y1825748D01*
X1572929D01*
Y1833748D01*
X1564929D01*
Y1841748D01*
X1556929D01*
Y1849748D01*
X1540929D01*
Y1857748D01*
X1532929D01*
Y1865748D01*
X1524929D01*
Y1873748D01*
X1508929D01*
Y1881748D01*
X1492929D01*
Y1889748D01*
X1476929D01*
Y1897748D01*
X1460929D01*
Y1905748D01*
X1396929D01*
Y1913748D01*
D02*
G37*
G36*
X1572929Y1921748D02*
X1564929D01*
Y1913748D01*
X1540929D01*
Y1905748D01*
X1532929D01*
Y1897748D01*
X1524929D01*
Y1889748D01*
Y1881748D01*
X1532929D01*
Y1873748D01*
X1540929D01*
Y1865748D01*
X1556929D01*
Y1857748D01*
X1564929D01*
Y1849748D01*
X1572929D01*
Y1841748D01*
X1580929D01*
Y1833748D01*
X1588929D01*
Y1825748D01*
X1612929D01*
Y1833748D01*
Y1841748D01*
X1620929D01*
Y1849748D01*
Y1857748D01*
Y1865748D01*
Y1873748D01*
Y1881748D01*
X1612929D01*
Y1889748D01*
Y1897748D01*
X1604929D01*
Y1905748D01*
X1596929D01*
Y1913748D01*
X1572929D01*
Y1921748D01*
D02*
G37*
%LPD*%
G36*
X1300929Y1753748D02*
X1292929D01*
Y1745748D01*
X1284929D01*
Y1753748D01*
X1268929D01*
Y1761748D01*
X1300929D01*
Y1753748D01*
D02*
G37*
G36*
X1500929Y1745748D02*
X1508929D01*
Y1737748D01*
Y1729748D01*
X1484929D01*
Y1737748D01*
X1476929D01*
Y1745748D01*
X1468929D01*
Y1753748D01*
X1500929D01*
Y1745748D01*
D02*
G37*
G36*
X1268929D02*
X1284929D01*
Y1737748D01*
X1276929D01*
Y1729748D01*
X1260929D01*
Y1737748D01*
X1252929D01*
Y1745748D01*
X1260929D01*
Y1753748D01*
X1268929D01*
Y1745748D01*
D02*
G37*
G36*
X1404929Y1705748D02*
Y1697748D01*
X1388929D01*
Y1705748D01*
Y1713748D01*
X1404929D01*
Y1705748D01*
D02*
G37*
G36*
X1380929D02*
X1372929D01*
Y1697748D01*
X1364929D01*
Y1705748D01*
Y1713748D01*
X1380929D01*
Y1705748D01*
D02*
G37*
G36*
X1476929Y1713748D02*
X1484929D01*
Y1705748D01*
X1492929D01*
Y1697748D01*
Y1689748D01*
X1500929D01*
Y1681748D01*
Y1673748D01*
Y1665748D01*
Y1657748D01*
X1484929D01*
Y1665748D01*
X1492929D01*
Y1673748D01*
X1484929D01*
Y1681748D01*
Y1689748D01*
Y1697748D01*
X1476929D01*
Y1705748D01*
X1468929D01*
Y1713748D01*
Y1721748D01*
X1476929D01*
Y1713748D01*
D02*
G37*
G36*
X1484929Y1617748D02*
Y1609748D01*
X1476929D01*
Y1601748D01*
X1468929D01*
Y1593748D01*
X1452929D01*
Y1585748D01*
X1412929D01*
Y1593748D01*
X1436929D01*
Y1601748D01*
X1452929D01*
Y1609748D01*
X1468929D01*
Y1617748D01*
X1476929D01*
Y1625748D01*
X1484929D01*
Y1617748D01*
D02*
G37*
G36*
X1308929Y1713748D02*
X1300929D01*
Y1705748D01*
Y1697748D01*
X1292929D01*
Y1689748D01*
Y1681748D01*
X1284929D01*
Y1673748D01*
Y1665748D01*
Y1657748D01*
Y1649748D01*
Y1641748D01*
X1292929D01*
Y1633748D01*
Y1625748D01*
X1300929D01*
Y1617748D01*
X1316929D01*
Y1609748D01*
X1332929D01*
Y1601748D01*
X1364929D01*
Y1593748D01*
Y1585748D01*
X1356929D01*
Y1593748D01*
X1316929D01*
Y1601748D01*
X1300929D01*
Y1609748D01*
X1292929D01*
Y1617748D01*
X1284929D01*
Y1625748D01*
X1276929D01*
Y1633748D01*
Y1641748D01*
Y1649748D01*
X1268929D01*
Y1657748D01*
Y1665748D01*
Y1673748D01*
X1276929D01*
Y1681748D01*
Y1689748D01*
Y1697748D01*
X1284929D01*
Y1705748D01*
X1292929D01*
Y1713748D01*
Y1721748D01*
X1308929D01*
Y1713748D01*
D02*
G37*
G36*
X1484929Y1361748D02*
X1508929D01*
Y1353748D01*
X1516929D01*
Y1345748D01*
X1524929D01*
Y1337748D01*
Y1329748D01*
X1532929D01*
Y1321748D01*
Y1313748D01*
X1548929D01*
Y1321748D01*
X1556929D01*
Y1329748D01*
X1564929D01*
Y1337748D01*
X1580929D01*
Y1329748D01*
Y1321748D01*
X1564929D01*
Y1313748D01*
X1556929D01*
Y1305748D01*
X1548929D01*
Y1297748D01*
X1540929D01*
Y1289748D01*
X1532929D01*
Y1281748D01*
X1524929D01*
Y1273748D01*
X1516929D01*
Y1265748D01*
X1508929D01*
Y1257748D01*
Y1249748D01*
X1500929D01*
Y1241748D01*
Y1233748D01*
X1492929D01*
Y1225748D01*
Y1217748D01*
Y1209748D01*
Y1201748D01*
Y1193748D01*
Y1185748D01*
Y1177748D01*
X1500929D01*
Y1169748D01*
X1516929D01*
Y1161748D01*
X1548929D01*
Y1153748D01*
X1564929D01*
Y1161748D01*
X1604929D01*
Y1169748D01*
X1620929D01*
Y1177748D01*
X1636929D01*
Y1185748D01*
X1652929D01*
Y1177748D01*
X1644929D01*
Y1169748D01*
X1636929D01*
Y1161748D01*
X1612929D01*
Y1153748D01*
X1588929D01*
Y1145748D01*
X1524929D01*
Y1153748D01*
X1500929D01*
Y1145748D01*
X1492929D01*
Y1137748D01*
X1484929D01*
Y1129748D01*
X1468929D01*
Y1121748D01*
X1460929D01*
Y1113748D01*
X1452929D01*
Y1105748D01*
X1444929D01*
Y1097748D01*
X1428929D01*
Y1089748D01*
X1420929D01*
Y1081748D01*
X1404929D01*
Y1073748D01*
X1388929D01*
Y1081748D01*
X1372929D01*
Y1089748D01*
X1356929D01*
Y1097748D01*
X1340929D01*
Y1105748D01*
X1324929D01*
Y1113748D01*
X1316929D01*
Y1121748D01*
X1300929D01*
Y1129748D01*
X1292929D01*
Y1137748D01*
X1284929D01*
Y1145748D01*
X1276929D01*
Y1153748D01*
X1268929D01*
Y1161748D01*
X1260929D01*
Y1153748D01*
X1236929D01*
Y1145748D01*
X1204929D01*
Y1153748D01*
X1180929D01*
Y1161748D01*
X1164929D01*
Y1169748D01*
X1148929D01*
Y1177748D01*
X1132929D01*
Y1185748D01*
X1124929D01*
Y1193748D01*
X1116929D01*
Y1201748D01*
X1132929D01*
Y1193748D01*
X1140929D01*
Y1185748D01*
X1156929D01*
Y1177748D01*
X1172929D01*
Y1169748D01*
X1188929D01*
Y1161748D01*
X1252929D01*
Y1169748D01*
X1268929D01*
Y1177748D01*
X1276929D01*
Y1169748D01*
Y1161748D01*
X1284929D01*
Y1153748D01*
X1292929D01*
Y1145748D01*
X1300929D01*
Y1137748D01*
X1316929D01*
Y1129748D01*
X1324929D01*
Y1121748D01*
X1332929D01*
Y1113748D01*
X1348929D01*
Y1105748D01*
X1364929D01*
Y1097748D01*
X1380929D01*
Y1089748D01*
X1412929D01*
Y1097748D01*
X1420929D01*
Y1105748D01*
X1436929D01*
Y1113748D01*
X1444929D01*
Y1121748D01*
X1452929D01*
Y1129748D01*
X1460929D01*
Y1137748D01*
X1468929D01*
Y1145748D01*
X1476929D01*
Y1153748D01*
X1492929D01*
Y1161748D01*
Y1169748D01*
Y1177748D01*
X1484929D01*
Y1185748D01*
Y1193748D01*
Y1201748D01*
Y1209748D01*
Y1217748D01*
Y1225748D01*
Y1233748D01*
Y1241748D01*
X1492929D01*
Y1249748D01*
Y1257748D01*
X1500929D01*
Y1265748D01*
Y1273748D01*
X1508929D01*
Y1281748D01*
X1516929D01*
Y1289748D01*
X1524929D01*
Y1297748D01*
Y1305748D01*
Y1313748D01*
Y1321748D01*
X1516929D01*
Y1329748D01*
Y1337748D01*
X1508929D01*
Y1345748D01*
X1492929D01*
Y1353748D01*
X1436929D01*
Y1345748D01*
X1420929D01*
Y1337748D01*
X1412929D01*
Y1329748D01*
X1404929D01*
Y1321748D01*
Y1313748D01*
X1380929D01*
Y1321748D01*
Y1329748D01*
X1372929D01*
Y1337748D01*
X1364929D01*
Y1345748D01*
X1348929D01*
Y1353748D01*
X1324929D01*
Y1361748D01*
X1300929D01*
Y1353748D01*
X1284929D01*
Y1345748D01*
X1268929D01*
Y1337748D01*
X1260929D01*
Y1329748D01*
X1252929D01*
Y1321748D01*
Y1313748D01*
Y1305748D01*
X1244929D01*
Y1297748D01*
Y1289748D01*
X1260929D01*
Y1281748D01*
Y1273748D01*
X1268929D01*
Y1265748D01*
X1276929D01*
Y1257748D01*
Y1249748D01*
X1284929D01*
Y1241748D01*
Y1233748D01*
Y1225748D01*
X1292929D01*
Y1217748D01*
Y1209748D01*
Y1201748D01*
Y1193748D01*
Y1185748D01*
X1284929D01*
Y1177748D01*
X1276929D01*
Y1185748D01*
Y1193748D01*
Y1201748D01*
Y1209748D01*
Y1217748D01*
Y1225748D01*
Y1233748D01*
Y1241748D01*
X1268929D01*
Y1249748D01*
Y1257748D01*
X1260929D01*
Y1265748D01*
X1252929D01*
Y1273748D01*
X1244929D01*
Y1281748D01*
Y1289748D01*
X1236929D01*
Y1297748D01*
X1220929D01*
Y1305748D01*
X1212929D01*
Y1313748D01*
X1204929D01*
Y1321748D01*
X1188929D01*
Y1329748D01*
Y1337748D01*
X1196929D01*
Y1329748D01*
X1212929D01*
Y1321748D01*
X1220929D01*
Y1313748D01*
X1236929D01*
Y1321748D01*
X1244929D01*
Y1329748D01*
Y1337748D01*
X1252929D01*
Y1345748D01*
X1260929D01*
Y1353748D01*
X1268929D01*
Y1361748D01*
X1284929D01*
Y1369748D01*
X1340929D01*
Y1361748D01*
X1356929D01*
Y1353748D01*
X1372929D01*
Y1345748D01*
X1380929D01*
Y1337748D01*
X1388929D01*
Y1329748D01*
X1396929D01*
Y1337748D01*
X1404929D01*
Y1345748D01*
X1412929D01*
Y1353748D01*
X1428929D01*
Y1361748D01*
X1444929D01*
Y1369748D01*
X1484929D01*
Y1361748D01*
D02*
G37*
%LPC*%
G36*
X1500929Y1745748D02*
X1484929D01*
Y1737748D01*
X1500929D01*
Y1745748D01*
D02*
G37*
%LPD*%
%TF.MD5,e77c4612b24974b54dee7e621a35f65a*%
M02*
