%TF.GenerationSoftware,Altium Limited,Altium Designer,20.1.12 (249)*%
G04 Layer_Color=16711935*
%FSLAX26Y26*%
%MOIN*%
%TF.SameCoordinates,4EBFCD2D-B14F-4313-BC4F-D652A0771492*%
%TF.FilePolarity,Negative*%
%TF.FileFunction,Soldermask,Bot*%
%TF.Part,Single*%
G01*
G75*
%TA.AperFunction,ComponentPad*%
%ADD21C,0.167449*%
%ADD22C,0.082803*%
%ADD23C,0.074929*%
%ADD24C,0.094614*%
%ADD25C,0.077016*%
%ADD26R,0.077016X0.077016*%
%ADD27C,0.063118*%
D21*
X1089173Y1084842D02*
D03*
X339961Y335630D02*
D03*
X1838386D02*
D03*
X1089173D02*
D03*
X339961Y1084842D02*
D03*
X1838386D02*
D03*
D22*
X1305709D02*
D03*
X872638D02*
D03*
X556496Y335630D02*
D03*
X123425D02*
D03*
X2054921D02*
D03*
X1621850D02*
D03*
X1305709D02*
D03*
X872638D02*
D03*
X556496Y1084842D02*
D03*
X123425D02*
D03*
X2054921D02*
D03*
X1621850D02*
D03*
D23*
X1289173D02*
D03*
X889173D02*
D03*
X539961Y335630D02*
D03*
X139961D02*
D03*
X2038386D02*
D03*
X1638386D02*
D03*
X1289173D02*
D03*
X889173D02*
D03*
X539961Y1084842D02*
D03*
X139961D02*
D03*
X2038386D02*
D03*
X1638386D02*
D03*
D24*
X1189173Y1284842D02*
D03*
X939173Y1184842D02*
D03*
X439961Y535630D02*
D03*
X189961Y435630D02*
D03*
X1938386Y535630D02*
D03*
X1688386Y435630D02*
D03*
X1189173Y535630D02*
D03*
X939173Y435630D02*
D03*
X439961Y1284842D02*
D03*
X189961Y1184842D02*
D03*
X1938386Y1284842D02*
D03*
X1688386Y1184842D02*
D03*
D25*
X1389764Y1220472D02*
D03*
Y420472D02*
D03*
Y820472D02*
D03*
Y320472D02*
D03*
Y620472D02*
D03*
Y520472D02*
D03*
Y1020472D02*
D03*
Y920472D02*
D03*
Y1320472D02*
D03*
Y1120472D02*
D03*
Y1420472D02*
D03*
Y720472D02*
D03*
X789764Y420472D02*
D03*
Y820472D02*
D03*
Y1220472D02*
D03*
Y320472D02*
D03*
Y620472D02*
D03*
Y520472D02*
D03*
Y1020472D02*
D03*
Y920472D02*
D03*
Y1120472D02*
D03*
Y1320472D02*
D03*
Y720472D02*
D03*
D26*
Y1420472D02*
D03*
D27*
X1712599Y1421260D02*
D03*
Y1602362D02*
D03*
X1972441Y1421260D02*
D03*
Y1602362D02*
D03*
%TF.MD5,b7198a11a442c5c978093f62d9e2659f*%
M02*
